ply
format ascii 1.0
comment VCGLIB generated
element vertex 218
property float x
property float y
property float z
property float nx
property float ny
property float nz
element face 452
property list uchar int vertex_indices
property uchar red
property uchar green
property uchar blue
property uchar alpha
end_header
9.000001 31 34 2.681518 1.11072 3.926991 
9.000001 50 34 3.022013 0.6011343 2.748882 
1e-06 50 34 -3.022017 0.6011344 2.748878 
8.707101 50.7071 34 2.052354 2.052354 2.356218 
0.292901 50.7071 34 -2.052354 2.052354 2.356217 
8.000001 51 34 0.6011347 3.022016 2.748881 
1.000001 51 34 -0.6011347 3.022016 2.748882 
5.000001 25.7218 34 3.022053 -0.6010523 3.534246 
5.439301 26.7825 34 2.052308 -2.052307 3.927081 
6.500001 27.2218 34 5.392358e-07 -2.902508 3.926901 
7.560701 26.7825 34 -1.711774 -2.561975 3.534337 
31 8.999997 34 1.110721 2.681517 3.926992 
26.7825 7.560698 34 -2.561974 -1.711774 3.534336 
51 7.999999 34 3.022015 0.6011361 2.748884 
27.2218 6.499999 34 -2.902508 -7.748604e-07 3.926901 
26.7825 5.439299 34 -2.052307 2.052307 3.927081 
5.000001 21 34 2.681518 1.110721 3.926989 
1e-06 0.999999 34 -3.022015 -0.6011345 2.748875 
10.1813 10.95 34 2.628011 1.51721 3.665233 
9.900001 12 34 3.034579 8.940697e-08 3.665108 
10.1813 13.05 34 2.628011 -1.517209 3.665233 
10.95 13.8187 34 1.517212 -2.628011 3.665233 
9.505601 16.4944 34 1.711856 2.56194 3.534278 
10.2127 16.2015 34 0.3422789 3.000535 3.699851 
12.6163 14.3 34 2.877164 -1.192759 2.87923 
13.0843 16.0465 34 3.074702 -0.6110119 3.010298 
13.0945 16.1242 34 3.008565 0.3969406 2.618194 
13.0066 16.3363 34 2.187672 1.98878 2.451734 
10.5377 16.2558 34 -0.5719238 3.088604 3.176691 
12.5386 14.1656 34 1.961279 -2.237301 2.487854 
12 14.1 34 0.2995224 -3.084439 3.471501 
12.2857 14.0805 34 -0.2145135 -3.13426 3.141962 
12.3265 14.0777 34 0.4938325 -3.018265 2.680191 
10.95 10.1813 34 1.517212 2.62801 3.665232 
21 4.999999 34 1.110721 2.681518 3.926991 
12 9.899997 34 2.980232e-08 3.034578 3.665111 
16.4944 9.505597 34 2.56194 1.711855 3.534281 
16.2015 10.2127 34 3.00054 0.3422765 3.699852 
0.292901 0.292899 34 -2.052354 -2.052354 2.356218 
51 0.999999 34 3.022015 -0.6011345 2.748882 
25.7218 4.999999 34 -0.6010526 3.022051 3.534248 
50.7071 8.707097 34 2.052353 2.052355 2.356219 
50 8.999997 34 0.6011349 3.022011 2.748882 
50.7071 0.292899 34 2.052354 -2.052354 2.356215 
1.000001 -1e-06 34 -0.6011345 -3.021996 2.748879 
50 -1e-06 34 0.6011345 -3.022011 2.748882 
11.6838 16.4889 34 -0.2189142 3.107254 2.880969 
12.8512 16.4188 34 0.8307171 2.955388 2.713514 
16.0465 13.0843 34 -0.6110135 3.074714 3.010298 
14.3 12.6163 34 -1.192758 2.877162 2.87923 
16.4188 12.8512 34 2.955374 0.8307097 2.713509 
16.3363 13.0066 34 1.988796 2.187683 2.451729 
16.1242 13.0945 34 0.3969404 3.00855 2.618194 
14.1656 12.5386 34 -2.237301 1.96128 2.487855 
14.0777 12.3265 34 -3.018223 0.4938353 2.680191 
14.0805 12.2857 34 -3.134302 -0.2145163 3.141962 
14.1 12 34 -3.084439 0.2995224 3.471501 
16.4889 11.6838 34 3.107256 -0.2189144 2.88097 
13.8187 10.95 34 -2.62801 1.51721 3.665233 
13.05 10.1813 34 -1.517213 2.628011 3.665231 
16.2558 10.5377 34 3.088598 -0.5719227 3.176692 
31 8.999999 -2e-06 1.110721 2.681835 -3.926992 
50 8.999999 -2e-06 0.6011347 3.022013 -2.748882 
50.7071 8.707099 -2e-06 2.052354 2.052355 -2.356218 
51 8 -2e-06 3.022015 0.6011353 -2.748888 
26.7825 7.560699 -2e-06 -2.561975 -1.711774 -3.534337 
7.560699 26.7825 1e-06 -1.711774 -2.561974 -3.534337 
8.999999 31 1e-06 2.681493 1.110721 -3.926991 
14.1656 12.5386 1e-06 -2.237297 1.961277 -2.487855 
14.3 12.6163 1e-06 -1.192759 2.877163 -2.87923 
16.4188 12.8512 1e-06 2.955388 0.8307171 -2.713509 
16.0465 13.0843 1e-06 -0.6110119 3.074702 -3.010298 
16.3363 13.0066 1e-06 1.98878 2.187672 -2.451729 
16.1242 13.0945 1e-06 0.3969406 3.008565 -2.618194 
16.4889 11.6838 1e-06 3.107255 -0.218913 -2.88097 
14.1 12 1e-06 -3.08444 0.2995242 -3.471501 
14.0805 12.2857 1e-06 -3.13426 -0.2145135 -3.141962 
14.0777 12.3265 1e-06 -3.018269 0.4938342 -2.680191 
13.8187 10.95 0 -2.62801 1.517213 -3.665233 
16.2558 10.5377 0 3.088603 -0.5719222 -3.176692 
16.2015 10.2127 0 3.000535 0.3422775 -3.699852 
13.05 10.1813 0 -1.517212 2.62801 -3.665231 
12 9.899999 0 -2.980232e-08 3.034578 -3.665111 
16.4944 9.505599 0 2.56194 1.711855 -3.534281 
21 5 0 1.11072 2.681518 -3.926994 
10.95 10.1813 0 1.517213 2.628011 -3.665232 
13.0066 16.3363 1e-06 2.187683 1.988796 -2.451734 
13.0945 16.1242 1e-06 3.00855 0.3969405 -2.618194 
10.2127 16.2015 1e-06 0.3422766 3.00054 -3.69985 
10.5377 16.2558 1e-06 -0.5719227 3.088598 -3.176691 
11.6838 16.4889 1e-06 -0.2189144 3.107256 -2.880969 
12.8512 16.4188 1e-06 0.8307097 2.955373 -2.713514 
6.499999 27.2218 1e-06 -3.576279e-07 -2.902508 -3.926901 
-1e-06 50 2e-06 -3.02201 0.6011345 -2.748886 
8.999999 50 2e-06 3.022011 0.6011348 -2.748882 
0.292899 50.7071 2e-06 -2.052354 2.052354 -2.356218 
8.707099 50.7071 2e-06 2.052354 2.052354 -2.356217 
0.999999 51 2e-06 -0.6011345 3.022016 -2.748881 
7.999999 51 2e-06 0.6011347 3.022016 -2.748882 
51 1 -2e-06 3.022016 -0.6011347 -2.748881 
25.7218 5 -2e-06 -0.6010535 3.022042 -3.534246 
26.7825 5.4393 -2e-06 -2.052306 2.052307 -3.927081 
27.2218 6.5 -2e-06 -2.902508 -1.788139e-07 -3.926901 
50 0 -2e-06 0.6011345 -3.022012 -2.748879 
0.292899 0.2929 0 -2.052354 -2.052354 -2.356215 
50.7071 0.2929 -2e-06 2.052353 -2.052354 -2.356218 
-1e-06 1 0 -3.021939 -0.6011344 -2.748883 
5.439299 26.7825 1e-06 2.052306 -2.052306 -3.927081 
4.999999 25.7218 1e-06 3.02205 -0.6010526 -3.534246 
4.999999 21 1e-06 2.681518 1.110721 -3.926993 
12.2857 14.0805 1e-06 -0.2145164 -3.134302 -3.141962 
12 14.1 1e-06 0.2995224 -3.084439 -3.471501 
12.5386 14.1656 1e-06 1.961278 -2.237297 -2.487854 
9.505599 16.4944 1e-06 1.711855 2.56194 -3.534278 
12.6163 14.3 1e-06 2.877162 -1.192758 -2.879231 
13.0843 16.0465 1e-06 3.074714 -0.6110135 -3.010298 
10.95 13.8187 1e-06 1.51721 -2.62801 -3.665232 
10.1813 13.05 1e-06 2.628011 -1.517213 -3.665231 
9.899999 12 1e-06 3.034589 5.722046e-06 -3.665111 
10.1813 10.95 0 2.628009 1.517212 -3.665232 
12.3265 14.0777 1e-06 0.4938371 -3.018227 -2.680191 
0.999999 0 0 -0.6011347 -3.022016 -2.748882 
8.999999 41 4.250002 3.66515 -2.980232e-08 3.034562 
8.999999 39.625 4.618402 3.665212 1.517242 2.628001 
8.999999 38.6184 5.625002 3.665211 2.628003 1.517241 
9 38.25 7.000002 3.665151 3.034561 -6.370246e-07 
9 38.6184 8.375002 3.665211 2.628001 -1.517242 
9 41 24.25 3.665151 -5.960464e-08 3.034562 
9 39.625 24.6184 3.665211 1.517242 2.628001 
9 38.6184 25.625 3.665211 2.628001 1.517242 
9 38.25 27 3.665212 3.03806 -0.000939589 
9.000001 38.6184 28.375 3.665175 2.628001 -1.517242 
9 43.75 27 3.665151 -3.034562 -8.940697e-07 
9 43.3816 25.625 3.665212 -2.628001 1.517242 
9 42.375 24.6184 3.665211 -1.517242 2.628001 
9 43.3816 8.375002 3.665211 -2.628001 -1.517242 
9 43.75 7.000002 3.665151 -3.034561 -6.556511e-07 
8.999999 43.3816 5.625002 3.665211 -2.628003 1.517241 
8.999999 42.375 4.618402 3.665212 -1.517242 2.628001 
9 39.625 9.381601 3.665212 1.517242 -2.628002 
9 41 9.750002 3.665151 5.960464e-08 -3.034562 
9 42.375 9.381601 3.665212 -1.517242 -2.628002 
9.000001 39.625 29.3816 3.665211 1.517242 -2.628002 
9.000001 41 29.75 3.665152 5.960464e-08 -3.034562 
9.000001 42.375 29.3816 3.665211 -1.517242 -2.628002 
9.000001 43.3816 28.375 3.665211 -2.628 -1.517243 
0 38.6184 25.625 -3.665212 2.628002 1.517242 
0 38.25 27 -3.665151 3.034562 -7.430098e-08 
0 38.6184 5.625002 -3.665211 2.628002 1.517244 
0 38.25 7.000002 -3.665151 3.034562 -6.361425e-08 
0 38.6184 8.375002 -3.665212 2.628002 -1.517242 
0 43.3816 5.625002 -3.665211 -2.628002 1.517244 
0 43.75 7.000002 -3.665151 -3.034563 -8.271401e-08 
-1e-06 42.375 4.618402 -3.665212 -1.517241 2.628002 
0 39.625 9.381601 -3.665211 1.517243 -2.628005 
-1e-06 39.625 4.618402 -3.665212 1.517241 2.628002 
0 42.375 9.381601 -3.665212 -1.517242 -2.628001 
0 43.3816 8.375002 -3.665211 -2.628002 -1.517242 
-1e-06 41 4.250002 -3.66515 2.980232e-08 3.034562 
0 41 9.750002 -3.665148 3.103946e-09 -3.034562 
0 43.75 27 -3.665151 -3.034561 2.305359e-07 
0 43.3816 28.375 -3.665211 -2.628001 -1.517241 
0 38.6184 28.375 -3.665211 2.627992 -1.51723 
0 43.3816 25.625 -3.665212 -2.628002 1.517242 
0 42.375 24.6184 -3.665211 -1.517242 2.628002 
1e-06 39.625 29.3816 -3.665213 1.517242 -2.628002 
0 39.625 24.6184 -3.665212 1.517242 2.628002 
1e-06 42.375 29.3816 -3.665211 -1.517243 -2.628001 
0 41 24.25 -3.665151 3.808082e-08 3.034562 
1e-06 41 29.75 -3.665151 -4.842877e-08 -3.034562 
42.375 8.999998 29.3816 -1.517242 3.665211 -2.628001 
41 8.999998 29.75 -4.470348e-07 3.665152 -3.03456 
39.625 8.999998 29.3816 1.517242 3.665211 -2.628001 
38.6184 8.999998 28.375 2.628002 3.665175 -1.517242 
38.25 8.999998 27 3.034749 3.665214 -5.027652e-05 
38.25 8.999999 6.999999 3.034561 3.665152 -1.788139e-07 
38.6184 8.999998 25.625 2.628002 3.665212 1.517243 
38.6184 8.999999 8.374998 2.628001 3.66521 -1.517242 
39.625 8.999998 24.6184 1.517242 3.665211 2.628002 
39.625 8.999999 9.381598 1.517241 3.665213 -2.628001 
41 8.999998 24.25 -5.960464e-08 3.665151 3.034562 
41 8.999999 9.749998 0 3.66515 -3.034562 
42.375 8.999998 24.6184 -1.517242 3.665212 2.628001 
42.375 8.999999 9.381598 -1.517242 3.665212 -2.628001 
43.3816 8.999998 25.625 -2.628002 3.665211 1.517243 
43.3816 8.999999 8.374998 -2.628002 3.665211 -1.517242 
43.75 8.999998 27 -3.034561 3.665151 1.005828e-07 
43.75 8.999999 6.999999 -3.034561 3.665151 -1.192093e-07 
39.625 8.999999 4.618399 1.517242 3.665211 2.628001 
41 8.999999 4.249999 2.980232e-08 3.66515 3.034562 
42.375 8.999999 4.618399 -1.517242 3.665212 2.628001 
43.3816 8.999999 5.624999 -2.628002 3.665211 1.517242 
38.6184 8.999999 5.624999 2.628002 3.665211 1.517242 
43.3816 8.999998 28.375 -2.628001 3.665212 -1.517242 
39.625 -0 4.618398 1.517242 -3.665212 2.628001 
38.6184 -0 5.624998 2.628002 -3.665211 1.517242 
38.25 -0 6.999998 3.034562 -3.665151 -3.72529e-09 
38.25 -1e-06 27 3.034562 -3.665151 -8.940697e-08 
38.6184 -0 8.374998 2.628003 -3.665211 -1.517242 
38.6184 -1e-06 25.625 2.628001 -3.665211 1.517242 
39.625 -0 9.381598 1.517242 -3.665212 -2.628001 
39.625 -1e-06 24.6184 1.517242 -3.665212 2.628001 
41 -0 9.749998 0 -3.66515 -3.034563 
41 -1e-06 24.25 2.980232e-08 -3.665151 3.034561 
42.375 -0 9.381598 -1.517242 -3.665213 -2.628001 
42.375 -1e-06 24.6184 -1.517242 -3.665211 2.628002 
43.3816 -0 8.374998 -2.628002 -3.66521 -1.517242 
43.3816 -1e-06 25.625 -2.628001 -3.665212 1.517242 
43.75 -0 6.999998 -3.034562 -3.665151 -1.192093e-07 
43.75 -1e-06 27 -3.034562 -3.665151 -2.980232e-08 
39.625 -1e-06 29.3816 1.517242 -3.665211 -2.628002 
41 -1e-06 29.75 4.842877e-08 -3.665152 -3.034562 
42.375 -1e-06 29.3816 -1.517242 -3.665211 -2.628002 
43.3816 -1e-06 28.375 -2.628002 -3.665212 -1.517242 
38.6184 -1e-06 28.375 2.628002 -3.665211 -1.517242 
43.3816 -0 5.624998 -2.628001 -3.665211 1.517242 
42.375 -0 4.618398 -1.517242 -3.665212 2.628001 
41 -0 4.249998 -1.117587e-08 -3.665151 3.034562 
3 0 1 2 30 32 30 255 
3 2 1 3 30 32 30 255 
3 2 3 4 30 32 30 255 
3 4 3 5 30 32 30 255 
3 4 5 6 30 32 30 255 
3 7 8 2 30 32 30 255 
3 2 8 9 30 32 30 255 
3 2 9 0 30 32 30 255 
3 0 9 10 30 32 30 255 
3 0 10 11 30 32 30 255 
3 11 10 12 30 32 30 255 
3 11 12 13 30 32 30 255 
3 13 12 14 30 32 30 255 
3 13 14 15 30 32 30 255 
3 16 7 2 30 32 30 255 
3 16 2 17 30 32 30 255 
3 16 17 18 30 32 30 255 
3 16 18 19 30 32 30 255 
3 16 19 20 30 32 30 255 
3 16 20 21 30 32 30 255 
3 16 21 22 30 32 30 255 
3 23 22 24 30 32 30 255 
3 23 24 25 30 32 30 255 
3 23 25 26 30 32 30 255 
3 23 26 27 30 32 30 255 
3 23 27 28 30 32 30 255 
3 29 24 22 30 32 30 255 
3 29 22 30 30 32 30 255 
3 29 30 31 30 32 30 255 
3 29 31 32 30 32 30 255 
3 18 17 33 30 32 30 255 
3 33 17 34 30 32 30 255 
3 33 34 35 30 32 30 255 
3 35 34 36 30 32 30 255 
3 35 36 37 30 32 30 255 
3 17 38 39 30 32 30 255 
3 17 39 13 30 32 30 255 
3 17 13 40 30 32 30 255 
3 17 40 34 30 32 30 255 
3 11 13 41 30 32 30 255 
3 11 41 42 30 32 30 255 
3 43 39 38 30 32 30 255 
3 43 38 44 30 32 30 255 
3 43 44 45 30 32 30 255 
3 46 28 27 30 32 30 255 
3 46 27 47 30 32 30 255 
3 48 49 50 30 32 30 255 
3 48 50 51 30 32 30 255 
3 48 51 52 30 32 30 255 
3 50 49 53 30 32 30 255 
3 50 53 54 30 32 30 255 
3 50 54 55 30 32 30 255 
3 50 55 56 30 32 30 255 
3 50 56 57 30 32 30 255 
3 58 59 37 30 32 30 255 
3 58 37 60 30 32 30 255 
3 58 60 57 30 32 30 255 
3 58 57 56 30 32 30 255 
3 35 37 59 30 32 30 255 
3 40 13 15 30 32 30 255 
3 22 21 30 30 32 30 255 
3 61 62 63 30 32 30 255 
3 61 63 64 30 32 30 255 
3 61 64 65 30 32 30 255 
3 61 65 66 30 32 30 255 
3 61 66 67 30 32 30 255 
3 68 69 70 30 32 30 255 
3 70 69 71 30 32 30 255 
3 70 71 72 30 32 30 255 
3 72 71 73 30 32 30 255 
3 70 74 75 30 32 30 255 
3 70 75 76 30 32 30 255 
3 70 76 77 30 32 30 255 
3 70 77 68 30 32 30 255 
3 78 75 74 30 32 30 255 
3 78 74 79 30 32 30 255 
3 78 79 80 30 32 30 255 
3 78 80 81 30 32 30 255 
3 82 81 80 30 32 30 255 
3 82 80 83 30 32 30 255 
3 82 83 84 30 32 30 255 
3 82 84 85 30 32 30 255 
3 86 87 88 30 32 30 255 
3 86 88 89 30 32 30 255 
3 86 89 90 30 32 30 255 
3 86 90 91 30 32 30 255 
3 66 92 67 30 32 30 255 
3 67 92 93 30 32 30 255 
3 67 93 94 30 32 30 255 
3 94 93 95 30 32 30 255 
3 94 95 96 30 32 30 255 
3 96 95 97 30 32 30 255 
3 96 97 98 30 32 30 255 
3 64 99 100 30 32 30 255 
3 64 100 101 30 32 30 255 
3 64 101 102 30 32 30 255 
3 64 102 65 30 32 30 255 
3 103 104 105 30 32 30 255 
3 105 104 106 30 32 30 255 
3 105 106 99 30 32 30 255 
3 99 106 84 30 32 30 255 
3 99 84 100 30 32 30 255 
3 93 92 107 30 32 30 255 
3 93 107 108 30 32 30 255 
3 93 108 109 30 32 30 255 
3 93 109 106 30 32 30 255 
3 110 111 112 30 32 30 255 
3 112 111 113 30 32 30 255 
3 112 113 114 30 32 30 255 
3 114 113 88 30 32 30 255 
3 114 88 115 30 32 30 255 
3 115 88 87 30 32 30 255 
3 116 117 109 30 32 30 255 
3 116 109 113 30 32 30 255 
3 116 113 111 30 32 30 255 
3 117 118 109 30 32 30 255 
3 109 118 119 30 32 30 255 
3 109 119 106 30 32 30 255 
3 106 119 85 30 32 30 255 
3 106 85 84 30 32 30 255 
3 110 112 120 30 32 30 255 
3 104 103 121 30 32 30 255 
3 32 120 112 30 32 30 255 
3 32 112 29 30 32 30 255 
3 67 94 122 30 32 30 255 
3 67 122 123 30 32 30 255 
3 67 123 124 30 32 30 255 
3 67 124 125 30 32 30 255 
3 67 125 126 30 32 30 255 
3 67 126 127 30 32 30 255 
3 67 127 128 30 32 30 255 
3 67 128 129 30 32 30 255 
3 67 129 130 30 32 30 255 
3 67 130 131 30 32 30 255 
3 67 131 0 30 32 30 255 
3 94 1 132 30 32 30 255 
3 94 132 133 30 32 30 255 
3 94 133 134 30 32 30 255 
3 94 134 127 30 32 30 255 
3 94 127 135 30 32 30 255 
3 94 135 136 30 32 30 255 
3 94 136 137 30 32 30 255 
3 94 137 138 30 32 30 255 
3 94 138 122 30 32 30 255 
3 127 126 139 30 32 30 255 
3 127 139 140 30 32 30 255 
3 127 140 141 30 32 30 255 
3 127 141 135 30 32 30 255 
3 1 0 142 30 32 30 255 
3 1 142 143 30 32 30 255 
3 1 143 144 30 32 30 255 
3 1 144 145 30 32 30 255 
3 1 145 132 30 32 30 255 
3 142 0 131 30 32 30 255 
3 7 16 109 30 32 30 255 
3 7 109 108 30 32 30 255 
3 98 97 6 30 32 30 255 
3 98 6 5 30 32 30 255 
3 4 6 97 30 32 30 255 
3 4 97 95 30 32 30 255 
3 93 2 4 30 32 30 255 
3 93 4 95 30 32 30 255 
3 129 146 147 30 32 30 255 
3 129 147 130 30 32 30 255 
3 124 148 149 30 32 30 255 
3 124 149 125 30 32 30 255 
3 150 126 125 30 32 30 255 
3 150 125 149 30 32 30 255 
3 151 137 136 30 32 30 255 
3 151 136 152 30 32 30 255 
3 137 151 153 30 32 30 255 
3 137 153 138 30 32 30 255 
3 126 150 154 30 32 30 255 
3 126 154 139 30 32 30 255 
3 148 124 123 30 32 30 255 
3 148 123 155 30 32 30 255 
3 135 141 156 30 32 30 255 
3 135 156 157 30 32 30 255 
3 155 123 122 30 32 30 255 
3 155 122 158 30 32 30 255 
3 140 159 156 30 32 30 255 
3 140 156 141 30 32 30 255 
3 139 154 159 30 32 30 255 
3 139 159 140 30 32 30 255 
3 158 122 138 30 32 30 255 
3 158 138 153 30 32 30 255 
3 160 132 145 30 32 30 255 
3 160 145 161 30 32 30 255 
3 162 131 130 30 32 30 255 
3 162 130 147 30 32 30 255 
3 132 160 163 30 32 30 255 
3 132 163 133 30 32 30 255 
3 135 157 152 30 32 30 255 
3 135 152 136 30 32 30 255 
3 133 163 164 30 32 30 255 
3 133 164 134 30 32 30 255 
3 131 162 165 30 32 30 255 
3 131 165 142 30 32 30 255 
3 146 129 128 30 32 30 255 
3 146 128 166 30 32 30 255 
3 161 145 144 30 32 30 255 
3 161 144 167 30 32 30 255 
3 166 128 127 30 32 30 255 
3 166 127 168 30 32 30 255 
3 143 169 167 30 32 30 255 
3 143 167 144 30 32 30 255 
3 142 165 169 30 32 30 255 
3 142 169 143 30 32 30 255 
3 168 127 134 30 32 30 255 
3 168 134 164 30 32 30 255 
3 8 7 108 30 32 30 255 
3 8 108 107 30 32 30 255 
3 5 3 96 30 32 30 255 
3 5 96 98 30 32 30 255 
3 1 94 96 30 32 30 255 
3 1 96 3 30 32 30 255 
3 10 9 92 30 32 30 255 
3 10 92 66 30 32 30 255 
3 9 8 107 30 32 30 255 
3 9 107 92 30 32 30 255 
3 47 27 86 30 32 30 255 
3 47 86 91 30 32 30 255 
3 22 23 88 30 32 30 255 
3 22 88 113 30 32 30 255 
3 31 30 111 30 32 30 255 
3 31 111 110 30 32 30 255 
3 32 31 110 30 32 30 255 
3 32 110 120 30 32 30 255 
3 114 115 25 30 32 30 255 
3 114 25 24 30 32 30 255 
3 24 29 112 30 32 30 255 
3 24 112 114 30 32 30 255 
3 30 21 116 30 32 30 255 
3 30 116 111 30 32 30 255 
3 117 116 21 30 32 30 255 
3 117 21 20 30 32 30 255 
3 46 47 91 30 32 30 255 
3 46 91 90 30 32 30 255 
3 27 26 87 30 32 30 255 
3 27 87 86 30 32 30 255 
3 113 109 16 30 32 30 255 
3 113 16 22 30 32 30 255 
3 26 25 115 30 32 30 255 
3 26 115 87 30 32 30 255 
3 23 28 89 30 32 30 255 
3 23 89 88 30 32 30 255 
3 28 46 90 30 32 30 255 
3 28 90 89 30 32 30 255 
3 61 67 0 30 32 30 255 
3 61 0 11 30 32 30 255 
3 170 171 42 30 32 30 255 
3 42 171 172 30 32 30 255 
3 42 172 11 30 32 30 255 
3 11 172 173 30 32 30 255 
3 11 173 61 30 32 30 255 
3 61 173 174 30 32 30 255 
3 61 174 175 30 32 30 255 
3 175 174 176 30 32 30 255 
3 175 176 177 30 32 30 255 
3 177 176 178 30 32 30 255 
3 177 178 179 30 32 30 255 
3 179 178 180 30 32 30 255 
3 179 180 181 30 32 30 255 
3 181 180 182 30 32 30 255 
3 181 182 183 30 32 30 255 
3 183 182 184 30 32 30 255 
3 183 184 185 30 32 30 255 
3 185 184 186 30 32 30 255 
3 185 186 187 30 32 30 255 
3 187 186 42 30 32 30 255 
3 187 42 62 30 32 30 255 
3 62 61 188 30 32 30 255 
3 62 188 189 30 32 30 255 
3 62 189 190 30 32 30 255 
3 62 190 191 30 32 30 255 
3 62 191 187 30 32 30 255 
3 192 188 61 30 32 30 255 
3 192 61 175 30 32 30 255 
3 193 170 42 30 32 30 255 
3 193 42 186 30 32 30 255 
3 14 12 65 30 32 30 255 
3 14 65 102 30 32 30 255 
3 13 39 99 30 32 30 255 
3 13 99 64 30 32 30 255 
3 39 43 105 30 32 30 255 
3 39 105 99 30 32 30 255 
3 41 13 64 30 32 30 255 
3 41 64 63 30 32 30 255 
3 194 195 44 30 32 30 255 
3 44 195 196 30 32 30 255 
3 44 196 197 30 32 30 255 
3 197 196 198 30 32 30 255 
3 197 198 199 30 32 30 255 
3 199 198 200 30 32 30 255 
3 199 200 201 30 32 30 255 
3 201 200 202 30 32 30 255 
3 201 202 203 30 32 30 255 
3 203 202 204 30 32 30 255 
3 203 204 205 30 32 30 255 
3 205 204 206 30 32 30 255 
3 205 206 207 30 32 30 255 
3 207 206 208 30 32 30 255 
3 207 208 209 30 32 30 255 
3 209 208 103 30 32 30 255 
3 209 103 45 30 32 30 255 
3 45 44 210 30 32 30 255 
3 45 210 211 30 32 30 255 
3 45 211 212 30 32 30 255 
3 45 212 213 30 32 30 255 
3 45 213 209 30 32 30 255 
3 214 210 44 30 32 30 255 
3 214 44 197 30 32 30 255 
3 103 208 215 30 32 30 255 
3 103 215 216 30 32 30 255 
3 103 216 217 30 32 30 255 
3 103 217 194 30 32 30 255 
3 103 194 121 30 32 30 255 
3 121 194 44 30 32 30 255 
3 45 103 105 30 32 30 255 
3 45 105 43 30 32 30 255 
3 62 42 41 30 32 30 255 
3 62 41 63 30 32 30 255 
3 209 213 193 30 32 30 255 
3 209 193 186 30 32 30 255 
3 199 176 174 30 32 30 255 
3 199 174 197 30 32 30 255 
3 175 196 195 30 32 30 255 
3 175 195 192 30 32 30 255 
3 215 208 187 30 32 30 255 
3 215 187 191 30 32 30 255 
3 177 198 196 30 32 30 255 
3 177 196 175 30 32 30 255 
3 179 200 198 30 32 30 255 
3 179 198 177 30 32 30 255 
3 190 216 215 30 32 30 255 
3 190 215 191 30 32 30 255 
3 181 202 200 30 32 30 255 
3 181 200 179 30 32 30 255 
3 189 217 216 30 32 30 255 
3 189 216 190 30 32 30 255 
3 192 195 194 30 32 30 255 
3 192 194 188 30 32 30 255 
3 206 204 183 30 32 30 255 
3 206 183 185 30 32 30 255 
3 204 202 181 30 32 30 255 
3 204 181 183 30 32 30 255 
3 188 194 217 30 32 30 255 
3 188 217 189 30 32 30 255 
3 186 184 207 30 32 30 255 
3 186 207 209 30 32 30 255 
3 187 208 206 30 32 30 255 
3 187 206 185 30 32 30 255 
3 214 197 174 30 32 30 255 
3 214 174 173 30 32 30 255 
3 172 210 214 30 32 30 255 
3 172 214 173 30 32 30 255 
3 182 205 207 30 32 30 255 
3 182 207 184 30 32 30 255 
3 210 172 171 30 32 30 255 
3 210 171 211 30 32 30 255 
3 182 180 203 30 32 30 255 
3 182 203 205 30 32 30 255 
3 178 176 199 30 32 30 255 
3 178 199 201 30 32 30 255 
3 212 170 193 30 32 30 255 
3 212 193 213 30 32 30 255 
3 170 212 211 30 32 30 255 
3 170 211 171 30 32 30 255 
3 201 203 180 30 32 30 255 
3 201 180 178 30 32 30 255 
3 34 40 100 30 32 30 255 
3 34 100 84 30 32 30 255 
3 106 17 165 30 32 30 255 
3 106 165 162 30 32 30 255 
3 106 162 147 30 32 30 255 
3 106 147 146 30 32 30 255 
3 106 146 166 30 32 30 255 
3 106 166 168 30 32 30 255 
3 106 168 159 30 32 30 255 
3 106 159 154 30 32 30 255 
3 106 154 150 30 32 30 255 
3 106 150 149 30 32 30 255 
3 106 149 148 30 32 30 255 
3 106 148 155 30 32 30 255 
3 106 155 158 30 32 30 255 
3 106 158 93 30 32 30 255 
3 161 167 2 30 32 30 255 
3 2 167 169 30 32 30 255 
3 2 169 17 30 32 30 255 
3 17 169 165 30 32 30 255 
3 93 158 153 30 32 30 255 
3 93 153 151 30 32 30 255 
3 93 151 152 30 32 30 255 
3 93 152 157 30 32 30 255 
3 93 157 168 30 32 30 255 
3 93 168 164 30 32 30 255 
3 93 164 163 30 32 30 255 
3 93 163 160 30 32 30 255 
3 93 160 2 30 32 30 255 
3 168 157 156 30 32 30 255 
3 168 156 159 30 32 30 255 
3 161 2 160 30 32 30 255 
3 38 17 106 30 32 30 255 
3 38 106 104 30 32 30 255 
3 44 38 104 30 32 30 255 
3 44 104 121 30 32 30 255 
3 15 14 102 30 32 30 255 
3 15 102 101 30 32 30 255 
3 66 65 12 30 32 30 255 
3 66 12 10 30 32 30 255 
3 40 15 101 30 32 30 255 
3 40 101 100 30 32 30 255 
3 59 58 78 30 32 30 255 
3 59 78 81 30 32 30 255 
3 52 51 72 30 32 30 255 
3 52 72 73 30 32 30 255 
3 51 50 70 30 32 30 255 
3 51 70 72 30 32 30 255 
3 50 57 74 30 32 30 255 
3 50 74 70 30 32 30 255 
3 37 36 83 30 32 30 255 
3 37 83 80 30 32 30 255 
3 84 83 36 30 32 30 255 
3 84 36 34 30 32 30 255 
3 71 69 49 30 32 30 255 
3 71 49 48 30 32 30 255 
3 48 52 73 30 32 30 255 
3 48 73 71 30 32 30 255 
3 57 60 79 30 32 30 255 
3 57 79 74 30 32 30 255 
3 60 37 80 30 32 30 255 
3 60 80 79 30 32 30 255 
3 53 49 69 30 32 30 255 
3 53 69 68 30 32 30 255 
3 54 53 68 30 32 30 255 
3 54 68 77 30 32 30 255 
3 58 56 75 30 32 30 255 
3 58 75 78 30 32 30 255 
3 55 54 77 30 32 30 255 
3 55 77 76 30 32 30 255 
3 55 76 75 30 32 30 255 
3 55 75 56 30 32 30 255 
3 33 35 82 30 32 30 255 
3 33 82 85 30 32 30 255 
3 35 59 81 30 32 30 255 
3 35 81 82 30 32 30 255 
3 85 119 18 30 32 30 255 
3 85 18 33 30 32 30 255 
3 19 18 119 30 32 30 255 
3 19 119 118 30 32 30 255 
3 20 19 118 30 32 30 255 
3 20 118 117 30 32 30 255 
