ply
format ascii 1.0
comment VCGLIB generated
element vertex 583
property float x
property float y
property float z
property float nx
property float ny
property float nz
element face 1162
property list uchar int vertex_indices
property uchar red
property uchar green
property uchar blue
property uchar alpha
end_header
-17.3978 17.2296 17.75 -4.642882 2.680246 2.727714 
-17.4593 17 17.75 -5.35682 0.6294752 2.950739 
-17.2476 17.1429 18.0259 -4.432376 1.896907 3.48323 
-17.2296 17.3978 17.75 -2.680248 4.642887 2.727708 
-17.1288 17.1288 18.1807 -2.585265 2.585178 3.649879 
-17.1429 17.2476 18.0259 -1.897022 4.432696 3.483307 
-17 17.4593 17.75 -0.6294686 5.356819 2.950745 
-18.3927 17.8041 14.9764 -4.948956 2.857085 1.49815 
-18.6081 17 14.9764 -5.865929 0.7654248 1.55523 
-17.8041 18.3927 14.9764 -2.85709 4.948951 1.498159 
-17 18.6081 14.9764 -0.7654176 5.865929 1.555241 
-18.7321 18 12 -5.10186 2.945386 7.212162e-06 
-19 17 12 -6.060293 0.7891176 7.167459e-06 
-18 18.7321 12 -2.945392 5.10186 1.192093e-07 
-17 19 12 -0.7891124 6.060294 1.341105e-07 
-18.3927 17.8041 9.023602 -4.948953 2.857091 -1.498159 
-18.6081 17 9.023602 -5.86593 0.7654178 -1.555239 
-17.8041 18.3927 9.023602 -2.857094 4.948954 -1.498157 
-17 18.6081 9.023602 -0.7654164 5.865932 -1.555237 
-17.4593 17 6.250003 -5.356819 0.6294755 -2.95074 
-17.3978 17.2296 6.250003 -4.642882 2.680247 -2.727713 
-17.2296 17.3978 6.250003 -2.680254 4.642882 -2.727716 
-17 17.4593 6.250003 -0.6294618 5.356817 -2.950752 
-17.2476 17.1429 5.974103 -4.432387 1.896888 -3.483229 
-17.1429 17.2476 5.974103 -1.896984 4.432739 -3.483307 
-17.1288 17.1288 5.819303 -2.585261 2.585189 -3.649868 
-17 16.9169 5.651403 -4.984151 0.001404332 -3.825787 
-17.0704 16.8781 5.743102 -4.984564 0.001558106 -3.825249 
-17.2476 16.8571 5.974103 -4.985154 -0.0007092707 -3.824481 
-15.6317 15.6317 3.868303 -2.228043 2.228043 -4.006569 
-15.6317 -0.631701 3.8683 -4.404896 -5.381245e-05 -4.404884 
-17 -2.000001 5.6514 -4.98477 -1.008855e-05 -3.824981 
-17 16.9169 18.3486 -4.984151 0.001410687 3.825788 
-17 -2.000003 18.3486 -4.984769 -1.152089e-05 3.824975 
-15.6317 -0.631703 20.1317 -4.404985 -3.52456e-05 4.404816 
-15.6317 15.6317 20.1317 -2.228042 2.228043 4.006568 
-17.0704 16.8781 18.2569 -4.984577 0.001554149 3.825231 
-17.2476 16.8571 18.0259 -4.985151 -0.0007162346 3.824486 
2 17 5.651403 1.286307e-06 4.984777 -3.824965 
-16.9169 17 5.651403 -0.001383963 4.984047 -3.825922 
-16.8781 17.0704 5.743102 -0.0006717818 4.984601 -3.825201 
-16.8571 17.2476 5.974103 -0.0001418671 4.985023 -3.824652 
10.5 17.4593 6.250003 2.879765 2.697423 -1.557347 
10.5 15.6317 3.868303 2.879829 2.20244 -2.202443 
0.6317 15.6317 3.868303 5.160104e-05 4.404896 -4.404885 
15 15.9853 3.514703 -5.620862 1.357265 -1.357264 
15 17.8923 6.000003 -3.140865 2.719784 -1.570276 
15.2964 16.2846 3.215403 -2.643905 3.847335 -2.827399 
34.5 17.8923 6.000003 3.140855 2.719784 -1.570276 
34.5 15.9853 3.514703 5.620875 1.357263 -1.357241 
34.2036 16.2846 3.215403 2.643906 3.847351 -2.827389 
14.3136 16.5738 6.761302 -2.391129 4.147408 -2.39452 
14.3136 17.6205 9.288203 -2.391156 4.625761 -1.239465 
15 17.6205 9.288203 -3.403406 3.008581 -0.8061516 
15 16.5738 6.761302 -3.403383 2.697418 -1.55737 
13.5 15.5675 7.342201 -5.620915 1.662225 -0.9596951 
13.5 16.4981 9.589004 -5.620983 1.8539 -0.4967151 
34.5 19.5 12 5.620906 1.919405 -2.980232e-08 
34.5 19.0911 15.1058 5.620996 1.853903 0.4967052 
34.5 19.0911 8.894202 5.620996 1.853903 -0.4967047 
34.5 17.8923 18 3.140856 2.719783 1.570277 
34.5 15.9853 20.4853 5.620863 1.357262 1.357262 
34.5 13.55 12 3.403323 -3.11473 0 
34.5 13.5 1.607702 5.620917 0.9596933 -1.662239 
34.5 13.3439 10.4341 3.403438 -3.008584 0.8061126 
34.5 12.7395 8.975002 3.403399 -2.697397 1.5574 
34.5 13.5 22.3923 5.620913 0.9596902 1.66225 
34.5 10.6058 23.5911 5.620993 0.4967747 1.853887 
34.5 11.778 16.278 3.403353 -2.202443 -2.202443 
34.5 12.7395 15.025 3.403399 -2.697397 -1.557401 
34.5 13.3439 13.5659 3.403438 -3.008584 -0.8061134 
34.5 5.934097 17.8439 3.403441 0.806113 -3.008584 
34.5 7.499997 18.05 3.403322 -7.450581e-08 -3.11473 
34.5 7.499996 24 3.140847 -1.164153e-06 3.14054 
34.5 9.065897 17.8439 3.40344 -0.8061115 -3.008584 
34.5 10.525 17.2395 3.403399 -1.557401 -2.697397 
34.5 2.260498 15.025 3.403399 2.697398 -1.5574 
34.5 3.221997 16.278 3.403353 2.202443 -2.202442 
34.5 4.394196 23.5911 5.620995 -0.4967753 1.853887 
34.5 4.474997 17.2395 3.403398 1.557403 -2.697396 
34.5 -0.985301 3.5147 5.620866 -1.35726 -1.35726 
34.5 1.5 1.6077 5.620917 -0.9596983 -1.662238 
34.5 -0.985303 20.4853 5.620874 -1.357264 1.357242 
34.5 1.449998 12 3.403323 3.11473 0 
34.5 1.499996 22.3923 5.620914 -0.9596844 1.662251 
34.5 1.656098 13.5659 3.403439 3.008584 -0.8061124 
34.5 11.778 7.722002 3.403353 -2.202443 2.202442 
34.5 10.525 6.760502 3.403398 -1.557402 2.697396 
34.5 10.6058 0.408902 5.621016 0.4967311 -1.853873 
34.5 9.065899 6.1561 3.403441 -0.8061118 3.008584 
34.5 7.499999 5.950002 3.40332 0 3.114731 
34.5 7.5 1e-06 3.140851 7.785857e-07 -3.140539 
34.5 5.934099 6.1561 3.403441 0.8061108 3.008584 
34.5 4.474999 6.760501 3.403399 1.557401 2.697396 
34.5 4.3942 0.408901 5.621017 -0.4967305 -1.853873 
34.5 3.221999 7.722001 3.403352 2.202442 2.202443 
34.5 2.260499 8.975 3.403399 2.697397 1.557402 
34.5 1.656098 10.4341 3.403438 3.008584 0.8061132 
34.5 -4.500002 12 5.620906 -1.919405 -2.533197e-07 
34.5 -4.091102 8.894198 5.620996 -1.853904 -0.4967057 
34.5 -4.091103 15.1058 5.620996 -1.853904 0.4967048 
34.5 -2.892301 6 3.140854 -2.719789 -1.570271 
34.5 -2.892303 18 3.140882 -2.719787 1.570273 
10.5 18.6081 9.023602 2.879828 3.008592 -0.8061458 
15 19.0911 8.894202 -5.620992 1.853909 -0.4967086 
15.2964 19.5 8.784602 -2.643938 4.372109 -1.918115 
34.2036 19.5 8.784602 2.644004 4.372106 -1.918102 
14.3136 17.9775 12 -2.391176 4.788951 -1.750886e-07 
15 17.9775 12 -3.403382 3.114718 8.940697e-08 
13.5 16.8155 12 -5.62099 1.9193 -3.278255e-07 
10.5 19 12 2.879761 3.114709 7.450581e-08 
16.2999 21.3564 12 -1.624418 4.315367 -1.192093e-06 
15 19.5 12 -5.620906 1.919405 -4.470348e-08 
33.2001 21.3564 12 1.62442 4.315371 4.768372e-07 
14.3136 17.6205 14.7118 -2.391163 4.625745 1.239477 
15 17.6205 14.7118 -3.403406 3.008581 0.8061516 
13.5 16.4981 14.411 -5.620981 1.853907 0.4967406 
10.5 18.6081 14.9764 2.879827 3.008592 0.8061466 
15 19.0911 15.1058 -5.620991 1.853909 0.4967091 
15.2964 19.5 15.2154 -2.643976 4.372113 1.918109 
34.2036 19.5 15.2154 2.644005 4.372107 1.918102 
16.2999 14.4282 24 -1.62442 2.157677 3.737217 
33.2001 14.4282 24 1.624418 2.157683 3.737211 
34.2036 16.2846 20.7846 2.643911 3.84733 2.827403 
15 17.8923 18 -3.140891 2.719784 1.570274 
15.2964 16.2846 20.7846 -2.644002 3.847355 2.827414 
15 16.5738 17.2387 -3.403384 2.697418 1.55737 
14.3136 16.5738 17.2387 -2.391137 4.147402 2.394502 
13.5 15.5675 16.6578 -5.620915 1.662244 0.9596833 
10.5 17.4593 17.75 2.879767 2.697417 1.557344 
2 17 18.3486 8.530508e-07 4.98478 3.824964 
0.6317 15.6317 20.1317 5.128395e-05 4.404895 4.404886 
10.5 15.6317 20.1317 2.879827 2.202439 2.202444 
-16.8571 17.2476 18.0259 -0.0001418574 4.985013 3.824664 
-16.8781 17.0704 18.2569 -0.0006698826 4.984597 3.825207 
-16.9169 17 18.3486 -0.001377473 4.984054 3.825914 
15 15.9853 20.4853 -5.620866 1.357273 1.357247 
-4.6854 -10.5 13.625 -2.627997 -2.617983 -1.517258 
-5.875 -10.5 14.8146 -1.517259 -2.617983 -2.628001 
-7.5 -10.5 15.25 2.086163e-07 -2.618013 -3.034554 
-9.125 -10.5 14.8146 1.517258 -2.617983 -2.628 
-10.3146 -10.5 13.625 2.627997 -2.617984 -1.517258 
-10.75 -10.5 12 3.034554 -2.618014 -5.960464e-08 
-10.3146 -10.5 10.375 2.627997 -2.617984 1.517257 
-9.125 -10.5 9.185398 1.517258 -2.617984 2.627998 
-7.5 -10.5 8.749998 2.682209e-07 -2.618014 3.034552 
-5.875 -10.5 9.185398 -1.517259 -2.617984 2.627999 
-4.6854 -10.5 10.375 -2.627998 -2.617984 1.517257 
-4.25 -10.5 12 -3.034554 -2.618014 -8.940697e-08 
-7.5 -10.5 23.5 2.980232e-08 -2.879761 3.114709 
-10.4764 -10.5 23.1081 -0.8061455 -2.879829 3.008592 
-4.5236 -10.5 23.1081 0.8061456 -2.879829 3.008593 
-13.25 -10.5 21.9593 -1.557349 -2.879762 2.697418 
-1.75 -10.5 21.9593 1.557349 -2.879761 2.697419 
-15.6317 -10.5 20.1317 -2.202441 -2.879823 2.202441 
0.6317 -10.5 20.1317 2.202441 -2.879822 2.202441 
-7.5 -10.5 18.7658 1.788139e-06 -3.500283 3.105163 
-5.7489 -10.5 18.5353 0.8036358 -3.500347 2.999353 
-13.3594 -10.5 15.3829 -2.689171 -3.500321 1.552532 
-12.2842 -10.5 16.7842 -2.195664 -3.500386 2.195667 
-17.4593 -10.5 17.75 -2.69742 -2.879761 1.557349 
-10.8829 -10.5 17.8594 -1.552539 -3.500316 2.689167 
-9.251101 -10.5 18.5353 -0.8036326 -3.500336 2.999356 
-18.6081 -10.5 14.9764 -3.008592 -2.879828 0.8061449 
-19 -10.5 12 -3.11471 -2.879761 -4.470348e-07 
-14.2658 -10.5 12 -3.105162 -3.500282 1.41561e-06 
-14.0353 -10.5 13.7511 -2.999352 -3.500347 0.8036344 
-12.2842 -10.5 7.215797 -2.195667 -3.500386 -2.195664 
-13.3594 -10.5 8.617098 -2.689166 -3.500315 -1.552539 
-18.6081 -10.5 9.023598 -3.008592 -2.879827 -0.8061459 
-14.0353 -10.5 10.2489 -2.999356 -3.500336 -0.803633 
-17.4593 -10.5 6.249998 -2.697398 -2.879752 -1.557333 
-15.6317 -10.5 3.868298 -2.202441 -2.879822 -2.202441 
-7.5 -10.5 5.234198 -1.672655e-06 -3.500276 -3.105163 
-9.251101 -10.5 5.464699 -0.803635 -3.500345 -2.999353 
-10.8829 -10.5 6.140598 -1.552532 -3.50032 -2.689171 
-4.1171 -10.5 17.8594 1.552531 -3.500321 2.689171 
-2.715799 -10.5 16.7842 2.195666 -3.500385 2.195666 
2.459301 -10.5 17.75 2.69742 -2.879758 1.557349 
-0.7342 -10.5 12 3.105163 -3.500283 -1.773238e-06 
4 -10.5 12 3.114709 -2.879761 -3.72529e-07 
-0.964701 -10.5 13.7511 2.999355 -3.500335 0.8036304 
3.608101 -10.5 14.9764 3.008592 -2.879828 0.8061441 
-1.6406 -10.5 15.3829 2.68917 -3.500313 1.552536 
-0.964701 -10.5 10.2489 2.999354 -3.500345 -0.8036362 
-1.6406 -10.5 8.617098 2.68917 -3.500321 -1.55253 
3.608101 -10.5 9.023598 3.008592 -2.879828 -0.8061451 
-2.715799 -10.5 7.215797 2.195664 -3.500387 -2.195666 
-4.1171 -10.5 6.140598 1.552538 -3.500315 -2.689168 
2.459301 -10.5 6.249998 2.69742 -2.879746 -1.55735 
-5.7489 -10.5 5.464699 0.8036317 -3.500335 -2.999356 
0.6317 -10.5 3.868298 2.202441 -2.879824 -2.202442 
-7.5 -10.5 0.499998 1.490116e-08 -2.87976 -3.114709 
-4.5236 -10.5 0.891898 0.8061453 -2.879828 -3.008593 
-10.4764 -10.5 0.891898 -0.8061452 -2.879828 -3.008593 
-1.75 -10.5 2.040698 1.557349 -2.879758 -2.697421 
-13.25 -10.5 2.040698 -1.557349 -2.879758 -2.697421 
-4.5236 -0 0.8919 0.8061453 -3.403356 -3.008593 
-7.5 -0 0.5 5.215406e-08 -3.403424 -3.114709 
-1.75 -0 2.0407 1.557344 -3.403426 -2.697423 
0.6317 -0.631701 3.8683 2.176867 -2.17704 -4.803096 
0 -1e-06 3.3835 2.420509 -2.420841 -3.920646 
2.459301 -2.459301 6.25 2.7936 -2.7936 -3.500799 
3.608101 -3.608101 9.023599 3.217552 -3.217552 -1.858109 
4 -4.000002 12 3.372105 -3.372103 -6.854534e-07 
0 15 3.383502 0.9165812 4.439645 -3.738491 
-15 15 3.383502 -2.935443 2.935443 -3.55629 
0 15 2e-06 1.570797 1.570797 -1.570796 
-15 15 2e-06 -1.570796 1.570797 -1.570796 
10.5 -4.000002 12 2.879761 -3.114709 -6.109476e-07 
10.5 -3.608101 9.023599 2.879829 -3.008592 -0.8061458 
10.5 -2.459301 6.25 2.879759 -2.69742 -1.557349 
10.5 16.8 12 3.403401 3.114714 0 
13.5 16.8 12 -3.403388 3.114714 7.450581e-09 
13.5 16.4831 9.593003 -3.403381 3.008579 -0.8061649 
10.5 16.4831 9.593003 3.403395 3.008579 -0.8061649 
10.5 -1.800002 12 3.403402 -3.114714 0 
10.5 -1.483102 9.593 3.403394 -3.008579 -0.8061666 
13.5 -1.483102 9.593 -3.403371 -3.008579 -0.8061666 
13.5 -1.800002 12 -3.403408 -3.114714 0 
10.5 -0.631701 3.8683 2.879831 -2.202445 -2.202439 
0 13.25 2.040702 3.403427 1.557346 -2.697423 
10.5 13.25 2.040702 2.879758 1.55735 -2.69742 
10.5 15.554 7.350002 3.403369 2.697434 -1.557348 
13.5 15.554 7.350002 -3.403369 2.697434 -1.557348 
13.5 14.0761 5.423903 -3.403428 2.202432 -2.202432 
10.5 14.0761 5.423903 3.403423 2.202432 -2.202432 
12.5 12.7395 8.975002 2.879786 -2.697397 1.5574 
12.5 11.778 7.722002 2.879828 -2.202443 2.202442 
22.5 11.778 7.722002 3.403353 -2.202443 2.202443 
22.5 12.7395 8.975002 3.403399 -2.697397 1.5574 
22.5 13.3439 10.4341 3.403438 -3.008584 0.8061124 
12.5 13.3439 10.4341 2.879747 -3.008584 0.8061125 
22.5 13.55 12 3.403324 -3.114729 0 
12.5 13.55 12 2.879861 -3.114729 0 
15 -2.620502 9.2882 -3.403406 -3.008581 -0.8061513 
15 -2.977502 12 -3.403382 -3.114718 -1.490116e-07 
14.3136 -2.977502 12 -2.391176 -4.788952 -4.135072e-07 
14.3136 -2.620502 9.2882 -2.391163 -4.625745 -1.239476 
12.5 13.3439 13.5659 2.879747 -3.008584 -0.8061133 
12.5 12.7395 15.025 2.879786 -2.697397 -1.557401 
12.5 11.778 16.278 2.879833 -2.202443 -2.202443 
12.5 10.525 17.2395 2.879786 -1.557401 -2.697397 
12.5 9.065897 17.8439 2.879745 -0.8061115 -3.008584 
12.5 7.499997 18.05 2.879864 -8.940697e-08 -3.11473 
12.5 5.934097 17.8439 2.879744 0.8061131 -3.008584 
12.5 4.474997 17.2395 2.879787 1.557403 -2.697396 
12.5 3.221997 16.278 2.879832 2.202443 -2.202442 
12.5 2.260498 15.025 2.879786 2.697398 -1.5574 
12.5 1.656098 13.5659 2.879747 3.008584 -0.8061123 
12.5 1.449998 12 2.879862 3.11473 -1.490116e-08 
12.5 1.656098 10.4341 2.879746 3.008584 0.8061132 
12.5 2.260499 8.975 2.879786 2.697397 1.557402 
12.5 3.221999 7.722001 2.879833 2.202442 2.202443 
12.5 4.474999 6.760501 2.879786 1.557402 2.697397 
12.5 5.934099 6.1561 2.879745 0.8061108 3.008584 
12.5 7.499999 5.950002 2.879865 0 3.11473 
12.5 9.065899 6.1561 2.879743 -0.8061118 3.008584 
12.5 10.525 6.760502 2.879787 -1.557402 2.697397 
22.5 1.656098 10.4341 3.403439 3.008584 0.8061131 
22.5 1.449998 12 3.403324 3.11473 1.490116e-08 
13.5 -1.815502 12 -5.620989 -1.9193 -1.490116e-07 
13.5 -1.498102 9.589001 -5.620982 -1.853907 -0.49674 
13.5 14.0871 5.412901 -5.620919 1.357216 -1.357218 
13.5 12.1578 3.932502 -5.620919 0.9596828 -1.662244 
13.5 12.15 3.946002 -3.403365 1.557349 -2.697434 
13.5 9.910999 3.001902 -5.620973 0.4967402 -1.853907 
13.5 9.906999 3.016902 -3.403408 0.8061669 -3.008579 
13.5 7.5 2.684501 -5.621014 4.917383e-07 -1.919301 
13.5 7.5 2.700001 -3.403403 8.34465e-07 -3.114714 
13.5 5.092999 3.016901 -3.403389 -0.8061661 -3.008579 
13.5 -0.567501 7.342199 -5.620915 -1.662244 -0.9596833 
13.5 -0.554001 7.35 -3.403387 -2.697433 -1.557349 
13.5 0.912899 5.412899 -5.6209 -1.357217 -1.357218 
13.5 0.923899 5.423901 -3.403418 -2.202432 -2.202433 
13.5 2.842199 3.9325 -5.620929 -0.9596955 -1.662224 
13.5 2.849999 3.946001 -3.403374 -1.557349 -2.697434 
13.5 5.089 3.001901 -5.621003 -0.4967151 -1.853901 
13.5 7.499997 21.3 -3.403402 -1.102686e-06 3.114714 
13.5 7.499997 21.3155 -5.620986 -8.791685e-07 1.9193 
13.5 9.906996 20.9831 -3.403408 0.8061651 3.008579 
13.5 9.910996 20.9981 -5.621003 0.4967167 1.8539 
13.5 12.15 20.054 -3.403384 1.557349 2.697433 
13.5 12.1578 20.0675 -5.62093 0.9596946 1.662223 
13.5 14.0761 18.5761 -3.403428 2.202433 2.202432 
13.5 14.0871 18.5871 -5.620903 1.357215 1.357215 
13.5 15.554 16.65 -3.403368 2.697433 1.55735 
13.5 16.4831 14.407 -3.403391 3.008579 0.8061664 
13.5 -1.498102 14.411 -5.621002 -1.8539 0.4967157 
13.5 -1.483102 14.407 -3.403399 -3.008579 0.8061656 
13.5 -0.567503 16.6578 -5.620926 -1.662223 0.9596941 
13.5 -0.554003 16.65 -3.403351 -2.697434 1.557348 
13.5 0.912897 18.5871 -5.620903 -1.357214 1.357216 
13.5 0.923897 18.5761 -3.403438 -2.202433 2.202432 
13.5 2.842197 20.0675 -5.620939 -0.9596828 1.662244 
13.5 2.849997 20.054 -3.403365 -1.557349 2.697433 
13.5 5.088997 20.9981 -5.620975 -0.4967409 1.853906 
13.5 5.092997 20.9831 -3.403398 -0.8061664 3.008579 
15 4.788199 1.879501 -3.403406 -0.8061506 -3.008581 
15 7.5 1.522501 -3.403381 6.66827e-07 -3.114719 
15 7.5 1e-06 -3.140853 5.885959e-07 -3.140541 
15 10.2118 1.879502 -3.403405 0.8061514 -3.008581 
15 10.6058 0.408902 -5.620991 0.4967746 -1.853893 
15 12.7387 2.926202 -3.403384 1.55737 -2.697418 
15 13.5 1.607702 -5.620913 0.959691 -1.66225 
15 14.9087 4.591303 -3.403392 2.202437 -2.202436 
15 -1.573801 6.761299 -3.403384 -2.697418 -1.55737 
15 -0.985301 3.5147 -5.62086 -1.357266 -1.357266 
15 0.091299 4.591301 -3.403391 -2.202436 -2.202437 
15 1.5 1.6077 -5.620919 -0.9596987 -1.662239 
15 2.2613 2.9262 -3.403385 -1.55737 -2.697419 
15 4.3942 0.408901 -5.621009 -0.4967326 -1.853881 
15 -4.091103 15.1058 -5.620991 -1.85391 0.4967087 
15 -2.892303 18 -3.140856 -2.719784 1.570276 
15 -4.091102 8.894198 -5.621006 -1.853884 -0.4967341 
15 -2.892301 6 -3.140853 -2.719784 -1.570277 
15 7.499996 22.4775 -3.403382 -1.072884e-06 3.114718 
15 7.499996 24 -3.140852 -1.107343e-06 3.14054 
15 10.2118 22.1205 -3.403406 0.8061517 3.008581 
15 10.6058 23.5911 -5.620989 0.4967743 1.853894 
15 12.7387 21.0738 -3.403383 1.55737 2.697419 
15 13.5 22.3923 -5.620916 0.959684 1.662251 
15 14.9087 19.4087 -3.403393 2.202436 2.202437 
15 -1.573803 17.2387 -3.403384 -2.697419 1.557369 
15 -0.985303 20.4853 -5.620861 -1.357265 1.357265 
15 0.091297 19.4087 -3.403393 -2.202436 2.202437 
15 1.499996 22.3923 -5.620919 -0.9596993 1.662239 
15 2.261297 21.0738 -3.403383 -1.55737 2.697419 
15 4.394196 23.5911 -5.621008 -0.496734 1.853883 
15 4.788196 22.1205 -3.403406 -0.806153 3.008581 
15 -2.620502 14.7118 -3.403406 -3.008581 0.8061501 
15 -4.500002 12 -5.620911 -1.9194 1.02371e-05 
15.2964 -4.500001 8.784598 -2.643988 -4.372125 -1.918157 
16.2999 -6.356402 12 -1.624419 -4.315374 3.397465e-06 
34.2036 -4.500001 8.784598 2.643912 -4.372098 -1.91812 
33.2001 -6.356402 12 1.62442 -4.315368 -8.270144e-07 
15.2964 -1.2846 3.2154 -2.643907 -3.847334 -2.827404 
16.2999 0.5718 0 -1.624417 -2.157687 -3.737213 
33.2001 0.5718 0 1.624418 -2.157685 -3.737216 
34.2036 -1.2846 3.2154 2.644007 -3.84732 -2.827414 
14.3136 -1.573801 6.761299 -2.391137 -4.147401 -2.394502 
10.5 -0.554001 7.35 3.403369 -2.697433 -1.557349 
22.5 2.260499 8.975 3.403399 2.697397 1.557402 
10.5 0.923899 5.423901 3.403423 -2.202432 -2.202433 
22.5 3.221999 7.722001 3.403352 2.202443 2.202444 
0 1.75 2.0407 3.403403 -1.557319 -2.697443 
10.5 1.75 2.0407 2.879765 -1.557344 -2.697423 
0 10.4764 0.891902 3.403356 0.8061458 -3.008593 
0 7.5 0.500001 3.403425 4.470348e-07 -3.114709 
0 0 0 1.570796 -1.570796 -1.570797 
0 4.5236 0.891901 3.403356 -0.8061447 -3.008593 
-15 0 0 -1.570796 -1.570796 -1.570797 
-10.4764 -0 0.8919 -0.8061452 -3.403356 -3.008593 
-13.25 -0 2.0407 -1.557344 -3.403426 -2.697423 
-15 -1e-06 3.3835 -4.439642 -0.9165773 -3.738494 
10.5 9.906999 3.016902 3.403394 0.8061669 -3.008579 
10.5 7.5 2.700001 3.403403 8.195639e-07 -3.114714 
22.5 7.499999 5.950002 3.40332 -1.862645e-09 3.11473 
22.5 9.065899 6.1561 3.403441 -0.8061117 3.008584 
10.5 14.0761 18.5761 3.403423 2.202433 2.202432 
10.5 15.554 16.65 3.403368 2.697433 1.55735 
10.5 16.4831 14.407 3.403396 3.008579 0.8061664 
10.5 5.092997 20.9831 3.403394 -0.8061664 3.008579 
10.5 7.499997 21.3 3.403402 -1.110137e-06 3.114714 
10.5 7.499996 23.5 2.879761 -9.648502e-07 3.114709 
10.5 9.906996 20.9831 3.403395 0.806165 3.008579 
10.5 10.4764 23.1081 2.879828 0.8061456 3.008592 
10.5 12.15 20.054 3.403369 1.557349 2.697434 
10.5 13.25 21.9593 2.87976 1.557349 2.69742 
10.5 -0.554003 16.65 3.40337 -2.697434 1.557348 
10.5 0.923897 18.5761 3.403423 -2.202433 2.202432 
10.5 1.749996 21.9593 2.879762 -1.55735 2.697422 
10.5 2.849997 20.054 3.403369 -1.557349 2.697433 
10.5 4.523596 23.1081 2.879828 -0.8061466 3.008592 
10.5 2.849999 3.946001 3.403369 -1.557349 -2.697434 
10.5 -2.459303 17.75 2.879759 -2.697421 1.557348 
10.5 -1.483102 14.407 3.403394 -3.008579 0.8061656 
10.5 -0.631703 20.1317 2.879823 -2.202441 2.202441 
10.5 12.15 3.946002 3.403369 1.557349 -2.697434 
10.5 10.4764 0.891902 2.879829 0.8061459 -3.008592 
10.5 4.5236 0.891901 2.879829 -0.8061448 -3.008593 
10.5 5.092999 3.016901 3.403394 -0.8061661 -3.008579 
10.5 7.5 0.500001 2.87976 4.768372e-07 -3.114709 
10.5 -3.608102 14.9764 2.879829 -3.008593 0.8061447 
22.5 10.525 6.760502 3.403399 -1.557402 2.697396 
14.3136 12.7387 2.926202 -2.391137 2.394501 -4.147401 
14.3136 10.2118 1.879502 -2.391164 1.239476 -4.625746 
14.3136 14.9087 4.591303 -2.391115 3.386354 -3.386353 
16.2999 14.4282 2e-06 -1.624419 2.157683 -3.73721 
14.3136 0.091299 4.591301 -2.391116 -3.386353 -3.386353 
14.3136 2.2613 2.9262 -2.391129 -2.39452 -4.147406 
22.5 4.474999 6.760501 3.403399 1.557401 2.697397 
22.5 5.934099 6.1561 3.403441 0.8061107 3.008584 
14.3136 4.788199 1.879501 -2.391156 -1.239464 -4.625762 
29.3 9.065899 6.1561 -3.403441 -0.8061118 3.008584 
29.3 7.499999 5.950002 -3.40332 0 3.114731 
29.3 10.525 6.760502 -3.403398 -1.557402 2.697396 
22.5 14.0871 5.412901 2.879792 -2.202436 2.202437 
22.5 12.1578 3.932502 2.879774 -1.557326 2.697437 
29.3 12.1578 3.932502 -2.879774 -1.557326 2.697437 
29.3 14.0871 5.412901 -2.879792 -2.202436 2.202437 
29.3 11.778 7.722002 -3.403353 -2.202443 2.202442 
22.5 15.5675 7.342201 2.879773 -2.697438 1.557325 
29.3 15.5675 7.342201 -2.879773 -2.697438 1.557325 
29.3 12.7395 8.975002 -3.403399 -2.697397 1.5574 
22.5 16.4981 9.589004 2.879809 -3.008599 0.8061076 
29.3 16.4981 9.589004 -2.879809 -3.008599 0.8061075 
29.3 13.3439 10.4341 -3.403438 -3.008584 0.8061125 
22.5 16.8155 12 2.879805 -3.114718 7.450581e-08 
29.3 16.8155 12 -2.879805 -3.114718 5.960464e-08 
29.3 13.55 12 -3.403324 -3.11473 0 
29.3 -1.815502 12 -2.879805 3.114718 5.960464e-08 
29.3 -1.498102 9.589001 -2.879808 3.008598 0.8061087 
22.5 -1.498102 9.589001 2.879808 3.008598 0.8061087 
22.5 -1.815502 12 2.879805 3.114718 7.450581e-08 
29.3 1.449998 12 -3.403324 3.11473 -3.72529e-09 
29.3 1.656098 10.4341 -3.403439 3.008584 0.8061132 
29.3 16.4981 14.411 -2.879808 -3.008598 -0.8061091 
29.3 15.5675 16.6578 -2.879774 -2.697436 -1.557327 
29.3 14.0871 18.5871 -2.87979 -2.202436 -2.202437 
29.3 13.3439 13.5659 -3.403439 -3.008584 -0.8061134 
29.3 9.910999 3.001902 -2.879809 -0.8061092 3.008598 
29.3 7.5 2.684501 -2.879804 -7.897615e-07 3.114718 
29.3 3.221999 7.722001 -3.403352 2.202442 2.202443 
29.3 4.474999 6.760501 -3.403399 1.557401 2.697396 
29.3 5.089 3.001901 -2.879809 0.8061077 3.008599 
29.3 5.934099 6.1561 -3.403441 0.8061107 3.008584 
29.3 2.842199 3.9325 -2.879773 1.557325 2.697438 
29.3 0.912899 5.412899 -2.879789 2.202436 2.202437 
29.3 2.260499 8.975 -3.403399 2.697396 1.557402 
29.3 -1.498102 14.411 -2.879808 3.008599 -0.8061079 
29.3 -0.567503 16.6578 -2.879772 2.697436 -1.557326 
29.3 -0.567501 7.342199 -2.879773 2.697437 1.557326 
29.3 0.912897 18.5871 -2.879792 2.202436 -2.202437 
29.3 12.7395 15.025 -3.403399 -2.697397 -1.557401 
29.3 11.778 16.278 -3.403353 -2.202443 -2.202443 
29.3 12.1578 20.0675 -2.879774 -1.557327 -2.697437 
29.3 10.525 17.2395 -3.403399 -1.557401 -2.697397 
29.3 9.065897 17.8439 -3.40344 -0.8061115 -3.008584 
29.3 9.910996 20.9981 -2.879808 -0.8061091 -3.008598 
29.3 4.474997 17.2395 -3.403398 1.557403 -2.697396 
29.3 5.088997 20.9981 -2.879809 0.8061103 -3.008598 
29.3 5.934097 17.8439 -3.403441 0.8061129 -3.008583 
29.3 7.499997 21.3155 -2.879804 1.147389e-06 -3.114718 
29.3 7.499997 18.05 -3.403322 -5.960464e-08 -3.11473 
29.3 3.221997 16.278 -3.403353 2.202443 -2.202442 
29.3 2.260498 15.025 -3.403399 2.697397 -1.5574 
29.3 2.842197 20.0675 -2.879772 1.557327 -2.697437 
29.3 1.656098 13.5659 -3.403438 3.008584 -0.8061124 
22.5 -0.567501 7.342199 2.879774 2.697437 1.557326 
22.5 0.912899 5.412899 2.87979 2.202436 2.202437 
22.5 2.842199 3.9325 2.879773 1.557325 2.697438 
14.3136 7.5 1.522501 -2.391175 1.072884e-06 -4.788952 
15.2964 10.7154 2e-06 -2.644011 0.5249503 -4.745403 
33.2001 14.4282 2e-06 1.624415 2.157689 -3.737215 
15.2964 4.2846 1e-06 -2.643997 -0.5249061 -4.745443 
34.2036 10.7154 2e-06 2.644003 0.5249059 -4.745436 
34.2036 4.2846 1e-06 2.644006 -0.5249054 -4.745436 
22.5 9.910999 3.001902 2.879809 -0.8061093 3.008598 
22.5 7.5 2.684501 2.879804 -7.897615e-07 3.114718 
22.5 5.089 3.001901 2.879809 0.8061078 3.008599 
3.608101 -3.608102 14.9764 3.217552 -3.217553 1.858107 
2.459301 -2.459303 17.75 2.7936 -2.793601 3.500798 
0.6317 -0.631703 20.1317 2.176897 -2.177007 4.803123 
-1.75 -4e-06 21.9593 1.557346 -3.403426 2.697423 
0 -3e-06 20.6165 2.420525 -2.420849 3.920643 
-4.5236 -4e-06 23.1081 0.8061456 -3.403358 3.008593 
-7.5 -4e-06 23.5 4.470348e-08 -3.403425 3.114709 
-15 15 20.6165 -2.935442 2.93544 3.556293 
0 15 20.6165 0.91658 4.439641 3.738494 
-15 15 24 -1.570796 1.570796 1.570796 
0 15 24 1.570796 1.570796 1.570796 
-15 -4e-06 24 -1.570796 -1.570796 1.570796 
0 -4e-06 24 1.570797 -1.570797 1.570796 
0 13.25 21.9593 3.403425 1.557345 2.697423 
0 7.499996 23.5 3.403425 -9.983778e-07 3.114709 
0 10.4764 23.1081 3.403357 0.8061457 3.008593 
0 1.749996 21.9593 3.403402 -1.55732 2.697443 
0 4.523596 23.1081 3.403357 -0.8061466 3.008592 
22.5 16.4981 14.411 2.879807 -3.008598 -0.8061092 
22.5 15.5675 16.6578 2.879774 -2.697436 -1.557327 
22.5 14.0871 18.5871 2.87979 -2.202436 -2.202437 
22.5 10.525 17.2395 3.403399 -1.557401 -2.697397 
22.5 11.778 16.278 3.403353 -2.202442 -2.202442 
22.5 12.1578 20.0675 2.879774 -1.557327 -2.697437 
22.5 12.7395 15.025 3.403399 -2.697397 -1.557401 
22.5 13.3439 13.5659 3.403439 -3.008584 -0.8061134 
22.5 5.934097 17.8439 3.403441 0.8061129 -3.008583 
22.5 7.499997 18.05 3.403322 -5.960464e-08 -3.11473 
22.5 7.499997 21.3155 2.879804 1.147389e-06 -3.114718 
22.5 9.065897 17.8439 3.40344 -0.8061115 -3.008584 
22.5 9.910996 20.9981 2.879808 -0.8061091 -3.008598 
22.5 5.088997 20.9981 2.879809 0.8061103 -3.008598 
22.5 2.842197 20.0675 2.879772 1.557327 -2.697437 
22.5 3.221997 16.278 3.403353 2.202443 -2.202442 
22.5 4.474997 17.2395 3.403398 1.557403 -2.697397 
22.5 0.912897 18.5871 2.879792 2.202436 -2.202437 
22.5 1.656098 13.5659 3.403438 3.008584 -0.8061124 
22.5 2.260498 15.025 3.403399 2.697397 -1.5574 
22.5 -1.498102 14.411 2.879808 3.008598 -0.8061078 
22.5 -0.567503 16.6578 2.879773 2.697437 -1.557326 
14.3136 14.9087 19.4087 -2.391116 3.386351 3.386353 
14.3136 12.7387 21.0738 -2.39113 2.39452 4.147407 
14.3136 10.2118 22.1205 -2.391156 1.239466 4.625761 
15.2964 10.7154 24 -2.644009 0.5249496 4.745406 
15.2964 4.284596 24 -2.643996 -0.5249083 4.745445 
16.2999 0.571796 24 -1.624416 -2.157689 3.737212 
33.2001 0.571796 24 1.62442 -2.157681 3.737218 
34.2036 4.284596 24 2.644016 -0.5249518 4.745396 
34.2036 10.7154 24 2.644015 0.5249508 4.745396 
14.3136 7.499996 22.4775 -2.391175 -1.884997e-06 4.788951 
14.3136 4.788196 22.1205 -2.391164 -1.239479 4.625744 
14.3136 2.261297 21.0738 -2.391138 -2.394501 4.147402 
14.3136 0.091297 19.4087 -2.391117 -3.386351 3.386353 
15.2964 -1.284603 20.7846 -2.643908 -3.847334 2.827404 
15.2964 -4.500002 15.2154 -2.643999 -4.372117 1.918108 
34.2036 -4.500002 15.2154 2.643983 -4.372108 1.918103 
34.2036 -1.284603 20.7846 2.644005 -3.847343 2.827405 
14.3136 -1.573803 17.2387 -2.391129 -4.147407 2.394518 
14.3136 -2.620502 14.7118 -2.391156 -4.625762 1.239464 
-10.4764 -4e-06 23.1081 -0.8061455 -3.403358 3.008592 
-13.25 -4e-06 21.9593 -1.557321 -3.403403 2.697442 
-15 -3e-06 20.6165 -4.439709 -0.9163247 3.738442 
-7.5 -22.5 17.5352 3.706664e-06 -5.221829 2.34202 
-8.9326 -22.5 17.3466 -0.6061874 -5.221818 2.262218 
-6.0674 -22.5 17.3466 0.6061842 -5.221816 2.262221 
-10.2676 -22.5 16.7936 -1.170988 -5.221828 2.028269 
-4.7324 -22.5 16.7936 1.170992 -5.221825 2.028269 
-11.414 -22.5 15.914 -1.656088 -5.221778 1.656082 
-3.586 -22.5 15.914 1.656083 -5.221777 1.656088 
-7.5 -22.5 15.25 0 -3.665171 -3.034554 
-5.875 -22.5 14.8146 -1.517258 -3.665201 -2.627997 
-9.125 -22.5 14.8146 1.517258 -3.665201 -2.627998 
-12.2936 -22.5 14.7676 -2.028269 -5.221825 1.170992 
-10.3146 -22.5 13.625 2.627997 -3.665201 -1.517257 
-12.8466 -22.5 13.4326 -2.262223 -5.221814 0.606184 
-10.75 -22.5 12 3.034554 -3.665172 8.940697e-08 
-13.0352 -22.5 12 -2.342023 -5.221827 3.773719e-06 
-12.8466 -22.5 10.5674 -2.26222 -5.221816 -0.6061869 
-7.5 -22.5 8.749996 8.940697e-08 -3.665171 3.034554 
-9.125 -22.5 9.185396 1.517257 -3.665202 2.627997 
-12.2936 -22.5 9.232395 -2.02827 -5.221825 -1.170988 
-10.3146 -22.5 10.375 2.627998 -3.665201 1.517258 
-11.414 -22.5 8.085997 -1.656082 -5.221776 -1.656088 
-10.2676 -22.5 7.206396 -1.170992 -5.221825 -2.028268 
-3.586 -22.5 8.085997 1.656088 -5.221776 -1.656084 
-2.7064 -22.5 9.232395 2.028269 -5.221821 -1.170993 
-1.9648 -22.5 12 2.342023 -5.221827 -3.580004e-06 
-2.1534 -22.5 13.4326 2.262221 -5.221815 0.6061868 
-4.6854 -22.5 13.625 -2.627998 -3.665201 -1.517258 
-2.7064 -22.5 14.7676 2.028269 -5.221828 1.170988 
-5.875 -22.5 9.185396 -1.517257 -3.665202 2.627997 
-4.6854 -22.5 10.375 -2.627997 -3.665201 1.517258 
-2.1534 -22.5 10.5674 2.262223 -5.221813 -0.6061836 
-4.25 -22.5 12 -3.034554 -3.665171 8.940697e-08 
-7.5 -22.5 6.464796 -3.486872e-06 -5.221823 -2.342026 
-6.0674 -22.5 6.653396 0.6061862 -5.221812 -2.262224 
-8.9326 -22.5 6.653396 -0.6061834 -5.22181 -2.262227 
-4.7324 -22.5 7.206396 1.170989 -5.221828 -2.028268 
-7.5 -21.6164 5.581197 -4.380941e-06 -2.17917 -5.203039 
-5.8387 -21.6164 5.799897 1.346684 -2.179157 -5.025691 
-4.2906 -21.6164 6.441196 2.601524 -2.179203 -4.506022 
-2.961201 -21.6164 7.461198 3.679057 -2.17913 -3.679056 
-1.9412 -21.6164 8.790596 4.506024 -2.1792 -2.60152 
-1.2999 -21.6164 10.3387 5.025682 -2.179151 -1.346686 
-1.0812 -21.6164 12 5.203036 -2.179174 -4.276633e-06 
-1.2999 -21.6164 13.6613 5.025686 -2.179161 1.346685 
-1.9412 -21.6164 15.2094 4.506024 -2.179208 2.601523 
-2.961201 -21.6164 16.5388 3.679054 -2.179134 3.679057 
-4.2906 -21.6164 17.5588 2.60152 -2.179201 4.506024 
-5.8387 -21.6164 18.2001 1.346687 -2.179155 5.025679 
-7.5 -21.6164 18.4188 4.351139e-06 -2.179177 5.203032 
-9.1613 -21.6164 18.2001 -1.346686 -2.179164 5.025681 
-10.7094 -21.6164 17.5588 -2.601525 -2.179205 4.506024 
-12.0388 -21.6164 16.5388 -3.679055 -2.179131 3.679054 
-13.0588 -21.6164 15.2094 -4.506025 -2.179202 2.601518 
-13.7001 -21.6164 13.6613 -5.025682 -2.179152 1.346686 
-13.9188 -21.6164 12 -5.203034 -2.179174 4.678965e-06 
-13.7001 -21.6164 10.3387 -5.025684 -2.179161 -1.346686 
-13.0588 -21.6164 8.790596 -4.506023 -2.179204 -2.601525 
-12.0388 -21.6164 7.461198 -3.679056 -2.17913 -3.679055 
-10.7094 -21.6164 6.441196 -2.601517 -2.1792 -4.506024 
-9.1613 -21.6164 5.799897 -1.346685 -2.179148 -5.025688 
3 0 1 2 237 162 64 255 
3 3 0 2 237 162 64 255 
3 3 2 4 237 162 64 255 
3 3 4 5 237 162 64 255 
3 3 5 6 237 162 64 255 
3 1 0 7 237 162 64 255 
3 1 7 8 237 162 64 255 
3 3 9 7 237 162 64 255 
3 3 7 0 237 162 64 255 
3 9 3 6 237 162 64 255 
3 9 6 10 237 162 64 255 
3 8 7 11 237 162 64 255 
3 8 11 12 237 162 64 255 
3 7 9 13 237 162 64 255 
3 7 13 11 237 162 64 255 
3 9 10 14 237 162 64 255 
3 9 14 13 237 162 64 255 
3 12 11 15 237 162 64 255 
3 12 15 16 237 162 64 255 
3 15 11 13 237 162 64 255 
3 15 13 17 237 162 64 255 
3 17 13 14 237 162 64 255 
3 17 14 18 237 162 64 255 
3 19 16 15 237 162 64 255 
3 19 15 20 237 162 64 255 
3 20 15 17 237 162 64 255 
3 20 17 21 237 162 64 255 
3 21 17 18 237 162 64 255 
3 21 18 22 237 162 64 255 
3 20 23 19 237 162 64 255 
3 21 24 25 237 162 64 255 
3 21 25 23 237 162 64 255 
3 21 23 20 237 162 64 255 
3 22 24 21 237 162 64 255 
3 19 23 25 237 162 64 255 
3 19 25 26 237 162 64 255 
3 19 26 27 237 162 64 255 
3 19 27 28 237 162 64 255 
3 26 25 29 237 162 64 255 
3 26 29 30 237 162 64 255 
3 26 30 31 237 162 64 255 
3 32 33 34 237 162 64 255 
3 32 34 35 237 162 64 255 
3 32 35 4 237 162 64 255 
3 32 4 1 237 162 64 255 
3 32 1 36 237 162 64 255 
3 1 4 2 237 162 64 255 
3 36 1 37 237 162 64 255 
3 38 39 40 237 162 64 255 
3 38 40 41 237 162 64 255 
3 38 41 22 237 162 64 255 
3 38 22 42 237 162 64 255 
3 38 42 43 237 162 64 255 
3 38 43 44 237 162 64 255 
3 45 46 47 237 162 64 255 
3 48 49 50 237 162 64 255 
3 51 52 53 237 162 64 255 
3 51 53 54 237 162 64 255 
3 55 56 52 237 162 64 255 
3 55 52 51 237 162 64 255 
3 57 58 59 237 162 64 255 
3 59 58 60 237 162 64 255 
3 59 60 48 237 162 64 255 
3 48 60 61 237 162 64 255 
3 48 61 49 237 162 64 255 
3 49 61 62 237 162 64 255 
3 49 62 63 237 162 64 255 
3 63 62 64 237 162 64 255 
3 63 64 65 237 162 64 255 
3 66 67 68 237 162 64 255 
3 66 68 69 237 162 64 255 
3 66 69 70 237 162 64 255 
3 66 70 62 237 162 64 255 
3 66 62 61 237 162 64 255 
3 71 72 73 237 162 64 255 
3 73 72 74 237 162 64 255 
3 73 74 67 237 162 64 255 
3 67 74 75 237 162 64 255 
3 67 75 68 237 162 64 255 
3 76 77 78 237 162 64 255 
3 78 77 79 237 162 64 255 
3 78 79 73 237 162 64 255 
3 73 79 71 237 162 64 255 
3 80 81 82 237 162 64 255 
3 82 81 83 237 162 64 255 
3 82 83 84 237 162 64 255 
3 84 83 85 237 162 64 255 
3 84 85 78 237 162 64 255 
3 78 85 76 237 162 64 255 
3 86 87 88 237 162 64 255 
3 86 88 63 237 162 64 255 
3 86 63 65 237 162 64 255 
3 87 89 88 237 162 64 255 
3 88 89 90 237 162 64 255 
3 88 90 91 237 162 64 255 
3 91 90 92 237 162 64 255 
3 91 92 93 237 162 64 255 
3 94 91 93 237 162 64 255 
3 94 93 95 237 162 64 255 
3 94 95 96 237 162 64 255 
3 94 96 97 237 162 64 255 
3 94 97 81 237 162 64 255 
3 98 99 100 237 162 64 255 
3 100 99 101 237 162 64 255 
3 100 101 102 237 162 64 255 
3 102 101 80 237 162 64 255 
3 102 80 82 237 162 64 255 
3 83 81 97 237 162 64 255 
3 103 42 22 237 162 64 255 
3 103 22 18 237 162 64 255 
3 46 104 105 237 162 64 255 
3 59 48 106 237 162 64 255 
3 52 107 108 237 162 64 255 
3 52 108 53 237 162 64 255 
3 109 107 52 237 162 64 255 
3 109 52 56 237 162 64 255 
3 103 18 14 237 162 64 255 
3 103 14 110 237 162 64 255 
3 111 105 104 237 162 64 255 
3 111 104 112 237 162 64 255 
3 59 106 113 237 162 64 255 
3 59 113 57 237 162 64 255 
3 107 114 115 237 162 64 255 
3 107 115 108 237 162 64 255 
3 107 109 116 237 162 64 255 
3 107 116 114 237 162 64 255 
3 117 110 14 237 162 64 255 
3 117 14 10 237 162 64 255 
3 118 119 111 237 162 64 255 
3 118 111 112 237 162 64 255 
3 113 120 58 237 162 64 255 
3 113 58 57 237 162 64 255 
3 121 122 123 237 162 64 255 
3 121 123 60 237 162 64 255 
3 121 60 120 237 162 64 255 
3 121 120 113 237 162 64 255 
3 121 113 111 237 162 64 255 
3 121 111 119 237 162 64 255 
3 121 119 124 237 162 64 255 
3 121 124 125 237 162 64 255 
3 126 115 114 237 162 64 255 
3 126 114 127 237 162 64 255 
3 127 114 116 237 162 64 255 
3 127 116 128 237 162 64 255 
3 129 117 10 237 162 64 255 
3 129 10 6 237 162 64 255 
3 118 124 119 237 162 64 255 
3 60 58 120 237 162 64 255 
3 130 131 132 237 162 64 255 
3 130 132 129 237 162 64 255 
3 130 129 133 237 162 64 255 
3 130 133 134 237 162 64 255 
3 130 134 135 237 162 64 255 
3 133 129 6 237 162 64 255 
3 125 124 136 237 162 64 255 
3 60 123 61 237 162 64 255 
3 137 138 139 237 162 64 255 
3 137 139 140 237 162 64 255 
3 137 140 141 237 162 64 255 
3 137 141 142 237 162 64 255 
3 137 142 143 237 162 64 255 
3 137 143 144 237 162 64 255 
3 137 144 145 237 162 64 255 
3 137 145 146 237 162 64 255 
3 137 146 147 237 162 64 255 
3 137 147 148 237 162 64 255 
3 149 150 151 237 162 64 255 
3 151 150 152 237 162 64 255 
3 151 152 153 237 162 64 255 
3 153 152 154 237 162 64 255 
3 153 154 155 237 162 64 255 
3 155 154 156 237 162 64 255 
3 155 156 157 237 162 64 255 
3 158 159 160 237 162 64 255 
3 160 159 161 237 162 64 255 
3 160 161 154 237 162 64 255 
3 154 161 162 237 162 64 255 
3 154 162 156 237 162 64 255 
3 163 164 165 237 162 64 255 
3 163 165 166 237 162 64 255 
3 163 166 158 237 162 64 255 
3 163 158 160 237 162 64 255 
3 167 168 169 237 162 64 255 
3 169 168 170 237 162 64 255 
3 169 170 164 237 162 64 255 
3 164 170 165 237 162 64 255 
3 171 172 173 237 162 64 255 
3 171 173 174 237 162 64 255 
3 171 174 175 237 162 64 255 
3 171 175 167 237 162 64 255 
3 171 167 169 237 162 64 255 
3 176 177 178 237 162 64 255 
3 176 178 155 237 162 64 255 
3 176 155 157 237 162 64 255 
3 179 180 181 237 162 64 255 
3 181 180 182 237 162 64 255 
3 181 182 183 237 162 64 255 
3 183 182 178 237 162 64 255 
3 183 178 177 237 162 64 255 
3 184 185 186 237 162 64 255 
3 184 186 180 237 162 64 255 
3 184 180 179 237 162 64 255 
3 187 188 189 237 162 64 255 
3 187 189 186 237 162 64 255 
3 187 186 185 237 162 64 255 
3 189 188 190 237 162 64 255 
3 189 190 173 237 162 64 255 
3 189 173 172 237 162 64 255 
3 189 172 191 237 162 64 255 
3 192 193 194 237 162 64 255 
3 194 193 195 237 162 64 255 
3 194 195 196 237 162 64 255 
3 196 195 191 237 162 64 255 
3 196 191 172 237 162 64 255 
3 197 193 192 237 162 64 255 
3 197 192 198 237 162 64 255 
3 193 197 199 237 162 64 255 
3 193 199 195 237 162 64 255 
3 200 191 195 237 162 64 255 
3 200 195 199 237 162 64 255 
3 200 199 201 237 162 64 255 
3 191 200 202 237 162 64 255 
3 191 202 189 237 162 64 255 
3 186 189 202 237 162 64 255 
3 186 202 203 237 162 64 255 
3 180 186 203 237 162 64 255 
3 180 203 204 237 162 64 255 
3 39 38 44 237 162 64 255 
3 39 44 29 237 162 64 255 
3 39 29 25 237 162 64 255 
3 39 25 40 237 162 64 255 
3 41 40 25 237 162 64 255 
3 41 25 24 237 162 64 255 
3 41 24 22 237 162 64 255 
3 29 44 205 237 162 64 255 
3 29 205 206 237 162 64 255 
3 207 208 206 237 162 64 255 
3 207 206 205 237 162 64 255 
3 209 204 203 237 162 64 255 
3 209 203 210 237 162 64 255 
3 202 211 210 237 162 64 255 
3 202 210 203 237 162 64 255 
3 212 213 214 237 162 64 255 
3 212 214 215 237 162 64 255 
3 216 217 218 237 162 64 255 
3 216 218 219 237 162 64 255 
3 211 202 200 237 162 64 255 
3 211 200 220 237 162 64 255 
3 221 205 44 237 162 64 255 
3 221 44 43 237 162 64 255 
3 221 43 222 237 162 64 255 
3 223 224 225 237 162 64 255 
3 223 225 226 237 162 64 255 
3 227 228 229 237 162 64 255 
3 227 229 230 237 162 64 255 
3 224 223 215 237 162 64 255 
3 224 215 214 237 162 64 255 
3 231 232 227 237 162 64 255 
3 231 227 230 237 162 64 255 
3 233 234 232 237 162 64 255 
3 233 232 231 237 162 64 255 
3 235 236 237 237 162 64 255 
3 235 237 238 237 162 64 255 
3 228 227 232 237 162 64 255 
3 228 232 234 237 162 64 255 
3 228 234 239 237 162 64 255 
3 228 239 240 237 162 64 255 
3 228 240 241 237 162 64 255 
3 228 241 242 237 162 64 255 
3 228 242 243 237 162 64 255 
3 228 243 244 237 162 64 255 
3 228 244 245 237 162 64 255 
3 228 245 246 237 162 64 255 
3 228 246 247 237 162 64 255 
3 228 247 248 237 162 64 255 
3 228 248 249 237 162 64 255 
3 228 249 250 237 162 64 255 
3 228 250 251 237 162 64 255 
3 228 251 252 237 162 64 255 
3 228 252 253 237 162 64 255 
3 228 253 254 237 162 64 255 
3 228 254 255 237 162 64 255 
3 228 255 256 237 162 64 255 
3 228 256 257 237 162 64 255 
3 228 257 258 237 162 64 255 
3 259 251 250 237 162 64 255 
3 259 250 260 237 162 64 255 
3 238 237 261 237 162 64 255 
3 238 261 262 237 162 64 255 
3 116 109 213 237 162 64 255 
3 213 109 56 237 162 64 255 
3 213 56 214 237 162 64 255 
3 214 56 55 237 162 64 255 
3 214 55 224 237 162 64 255 
3 224 55 263 237 162 64 255 
3 224 263 225 237 162 64 255 
3 225 263 264 237 162 64 255 
3 225 264 265 237 162 64 255 
3 265 264 266 237 162 64 255 
3 265 266 267 237 162 64 255 
3 267 266 268 237 162 64 255 
3 267 268 269 237 162 64 255 
3 269 268 270 237 162 64 255 
3 261 219 262 237 162 64 255 
3 262 219 218 237 162 64 255 
3 262 218 271 237 162 64 255 
3 271 218 272 237 162 64 255 
3 271 272 273 237 162 64 255 
3 273 272 274 237 162 64 255 
3 273 274 275 237 162 64 255 
3 275 274 276 237 162 64 255 
3 275 276 277 237 162 64 255 
3 277 276 270 237 162 64 255 
3 277 270 268 237 162 64 255 
3 278 279 280 237 162 64 255 
3 280 279 281 237 162 64 255 
3 280 281 282 237 162 64 255 
3 282 281 283 237 162 64 255 
3 282 283 284 237 162 64 255 
3 284 283 285 237 162 64 255 
3 284 285 286 237 162 64 255 
3 286 285 128 237 162 64 255 
3 286 128 287 237 162 64 255 
3 287 128 116 237 162 64 255 
3 287 116 213 237 162 64 255 
3 219 288 289 237 162 64 255 
3 289 288 290 237 162 64 255 
3 289 290 291 237 162 64 255 
3 291 290 292 237 162 64 255 
3 291 292 293 237 162 64 255 
3 293 292 294 237 162 64 255 
3 293 294 295 237 162 64 255 
3 295 294 296 237 162 64 255 
3 295 296 297 237 162 64 255 
3 297 296 279 237 162 64 255 
3 297 279 278 237 162 64 255 
3 288 219 261 237 162 64 255 
3 54 53 46 237 162 64 255 
3 46 53 108 237 162 64 255 
3 46 108 104 237 162 64 255 
3 104 108 118 237 162 64 255 
3 104 118 112 237 162 64 255 
3 298 299 300 237 162 64 255 
3 300 299 301 237 162 64 255 
3 300 301 302 237 162 64 255 
3 302 301 303 237 162 64 255 
3 302 303 304 237 162 64 255 
3 304 303 305 237 162 64 255 
3 304 305 45 237 162 64 255 
3 45 305 54 237 162 64 255 
3 45 54 46 237 162 64 255 
3 235 306 307 237 162 64 255 
3 307 306 308 237 162 64 255 
3 307 308 309 237 162 64 255 
3 309 308 310 237 162 64 255 
3 309 310 311 237 162 64 255 
3 311 310 298 237 162 64 255 
3 311 298 300 237 162 64 255 
3 312 313 314 237 162 64 255 
3 314 313 236 237 162 64 255 
3 314 236 315 237 162 64 255 
3 315 236 235 237 162 64 255 
3 315 235 307 237 162 64 255 
3 124 118 108 237 162 64 255 
3 124 108 115 237 162 64 255 
3 124 115 126 237 162 64 255 
3 124 126 136 237 162 64 255 
3 316 317 318 237 162 64 255 
3 318 317 319 237 162 64 255 
3 318 319 320 237 162 64 255 
3 320 319 321 237 162 64 255 
3 320 321 322 237 162 64 255 
3 322 321 136 237 162 64 255 
3 322 136 126 237 162 64 255 
3 323 324 325 237 162 64 255 
3 325 324 326 237 162 64 255 
3 325 326 327 237 162 64 255 
3 327 326 328 237 162 64 255 
3 327 328 329 237 162 64 255 
3 329 328 317 237 162 64 255 
3 329 317 316 237 162 64 255 
3 330 236 313 237 162 64 255 
3 330 313 324 237 162 64 255 
3 330 324 323 237 162 64 255 
3 312 314 331 237 162 64 255 
3 332 333 331 237 162 64 255 
3 332 331 314 237 162 64 255 
3 101 334 335 237 162 64 255 
3 101 335 333 237 162 64 255 
3 101 333 332 237 162 64 255 
3 101 332 315 237 162 64 255 
3 101 315 336 237 162 64 255 
3 101 336 337 237 162 64 255 
3 101 337 338 237 162 64 255 
3 101 338 339 237 162 64 255 
3 238 340 306 237 162 64 255 
3 238 306 235 237 162 64 255 
3 341 272 218 237 162 64 255 
3 341 218 217 237 162 64 255 
3 251 259 342 237 162 64 255 
3 251 342 252 237 162 64 255 
3 262 271 340 237 162 64 255 
3 262 340 238 237 162 64 255 
3 341 343 274 237 162 64 255 
3 341 274 272 237 162 64 255 
3 252 342 344 237 162 64 255 
3 252 344 253 237 162 64 255 
3 201 345 346 237 162 64 255 
3 201 346 220 237 162 64 255 
3 201 220 200 237 162 64 255 
3 207 205 221 237 162 64 255 
3 207 221 347 237 162 64 255 
3 207 347 348 237 162 64 255 
3 207 348 349 237 162 64 255 
3 349 348 350 237 162 64 255 
3 349 350 345 237 162 64 255 
3 349 345 201 237 162 64 255 
3 199 197 349 237 162 64 255 
3 349 197 198 237 162 64 255 
3 349 198 351 237 162 64 255 
3 351 198 352 237 162 64 255 
3 351 352 353 237 162 64 255 
3 199 349 201 237 162 64 255 
3 351 353 354 237 162 64 255 
3 355 267 269 237 162 64 255 
3 355 269 356 237 162 64 255 
3 257 256 357 237 162 64 255 
3 257 357 358 237 162 64 255 
3 110 117 103 237 162 64 255 
3 103 117 129 237 162 64 255 
3 103 129 42 237 162 64 255 
3 42 129 212 237 162 64 255 
3 42 212 215 237 162 64 255 
3 359 360 132 237 162 64 255 
3 132 360 361 237 162 64 255 
3 132 361 129 237 162 64 255 
3 129 361 212 237 162 64 255 
3 362 363 364 237 162 64 255 
3 364 363 365 237 162 64 255 
3 364 365 366 237 162 64 255 
3 366 365 367 237 162 64 255 
3 366 367 368 237 162 64 255 
3 368 367 359 237 162 64 255 
3 368 359 132 237 162 64 255 
3 369 370 371 237 162 64 255 
3 371 370 372 237 162 64 255 
3 371 372 373 237 162 64 255 
3 373 372 362 237 162 64 255 
3 373 362 364 237 162 64 255 
3 374 343 346 237 162 64 255 
3 346 343 341 237 162 64 255 
3 346 341 220 237 162 64 255 
3 220 341 217 237 162 64 255 
3 220 217 211 237 162 64 255 
3 211 217 216 237 162 64 255 
3 211 216 375 237 162 64 255 
3 375 216 376 237 162 64 255 
3 375 376 377 237 162 64 255 
3 377 376 369 237 162 64 255 
3 377 369 371 237 162 64 255 
3 43 42 215 237 162 64 255 
3 43 215 223 237 162 64 255 
3 43 223 226 237 162 64 255 
3 43 226 222 237 162 64 255 
3 378 355 379 237 162 64 255 
3 378 379 222 237 162 64 255 
3 378 222 226 237 162 64 255 
3 374 380 381 237 162 64 255 
3 381 380 382 237 162 64 255 
3 381 382 356 237 162 64 255 
3 356 382 379 237 162 64 255 
3 356 379 355 237 162 64 255 
3 383 209 210 237 162 64 255 
3 383 210 211 237 162 64 255 
3 383 211 375 237 162 64 255 
3 374 346 380 237 162 64 255 
3 267 355 378 237 162 64 255 
3 267 378 265 237 162 64 255 
3 257 358 384 237 162 64 255 
3 257 384 258 237 162 64 255 
3 266 264 385 237 162 64 255 
3 266 385 386 237 162 64 255 
3 222 379 347 237 162 64 255 
3 222 347 221 237 162 64 255 
3 305 303 385 237 162 64 255 
3 305 385 387 237 162 64 255 
3 265 378 226 237 162 64 255 
3 265 226 225 237 162 64 255 
3 258 384 229 237 162 64 255 
3 258 229 228 237 162 64 255 
3 264 263 387 237 162 64 255 
3 264 387 385 237 162 64 255 
3 304 45 47 237 162 64 255 
3 304 47 388 237 162 64 255 
3 51 54 305 237 162 64 255 
3 51 305 387 237 162 64 255 
3 263 55 51 237 162 64 255 
3 263 51 387 237 162 64 255 
3 314 315 332 237 162 64 255 
3 308 306 340 237 162 64 255 
3 308 340 389 237 162 64 255 
3 271 273 389 237 162 64 255 
3 271 389 340 237 162 64 255 
3 307 336 315 237 162 64 255 
3 310 308 389 237 162 64 255 
3 310 389 390 237 162 64 255 
3 274 343 374 237 162 64 255 
3 274 374 276 237 162 64 255 
3 254 253 344 237 162 64 255 
3 254 344 391 237 162 64 255 
3 275 390 389 237 162 64 255 
3 275 389 273 237 162 64 255 
3 336 307 309 237 162 64 255 
3 336 309 337 237 162 64 255 
3 270 276 374 237 162 64 255 
3 270 374 381 237 162 64 255 
3 255 254 391 237 162 64 255 
3 255 391 392 237 162 64 255 
3 275 277 393 237 162 64 255 
3 275 393 390 237 162 64 255 
3 346 345 350 237 162 64 255 
3 346 350 380 237 162 64 255 
3 270 381 356 237 162 64 255 
3 270 356 269 237 162 64 255 
3 255 392 357 237 162 64 255 
3 255 357 256 237 162 64 255 
3 90 89 394 237 162 64 255 
3 90 394 395 237 162 64 255 
3 394 89 87 237 162 64 255 
3 394 87 396 237 162 64 255 
3 397 398 399 237 162 64 255 
3 397 399 400 237 162 64 255 
3 396 87 86 237 162 64 255 
3 396 86 401 237 162 64 255 
3 402 397 400 237 162 64 255 
3 402 400 403 237 162 64 255 
3 401 86 65 237 162 64 255 
3 401 65 404 237 162 64 255 
3 405 402 403 237 162 64 255 
3 405 403 406 237 162 64 255 
3 404 65 64 237 162 64 255 
3 404 64 407 237 162 64 255 
3 408 405 406 237 162 64 255 
3 408 406 409 237 162 64 255 
3 407 64 62 237 162 64 255 
3 407 62 410 237 162 64 255 
3 411 412 413 237 162 64 255 
3 411 413 414 237 162 64 255 
3 99 98 335 237 162 64 255 
3 99 335 334 237 162 64 255 
3 415 83 97 237 162 64 255 
3 415 97 416 237 162 64 255 
3 409 406 417 237 162 64 255 
3 417 406 403 237 162 64 255 
3 417 403 418 237 162 64 255 
3 418 403 400 237 162 64 255 
3 418 400 419 237 162 64 255 
3 419 400 410 237 162 64 255 
3 419 410 420 237 162 64 255 
3 396 401 399 237 162 64 255 
3 399 401 404 237 162 64 255 
3 399 404 400 237 162 64 255 
3 400 404 407 237 162 64 255 
3 400 407 410 237 162 64 255 
3 421 422 395 237 162 64 255 
3 421 395 394 237 162 64 255 
3 421 394 396 237 162 64 255 
3 421 396 399 237 162 64 255 
3 423 424 425 237 162 64 255 
3 425 424 426 237 162 64 255 
3 425 426 422 237 162 64 255 
3 422 426 395 237 162 64 255 
3 427 428 416 237 162 64 255 
3 427 416 429 237 162 64 255 
3 427 429 423 237 162 64 255 
3 427 423 425 237 162 64 255 
3 411 430 412 237 162 64 255 
3 412 430 431 237 162 64 255 
3 412 431 432 237 162 64 255 
3 432 431 433 237 162 64 255 
3 432 433 428 237 162 64 255 
3 428 433 415 237 162 64 255 
3 428 415 416 237 162 64 255 
3 434 435 436 237 162 64 255 
3 434 436 419 237 162 64 255 
3 434 419 420 237 162 64 255 
3 437 438 439 237 162 64 255 
3 437 439 436 237 162 64 255 
3 437 436 435 237 162 64 255 
3 440 441 442 237 162 64 255 
3 442 441 443 237 162 64 255 
3 442 443 444 237 162 64 255 
3 444 443 439 237 162 64 255 
3 444 439 438 237 162 64 255 
3 445 446 447 237 162 64 255 
3 445 447 441 237 162 64 255 
3 445 441 440 237 162 64 255 
3 448 415 433 237 162 64 255 
3 448 433 447 237 162 64 255 
3 448 447 446 237 162 64 255 
3 412 432 449 237 162 64 255 
3 412 449 413 237 162 64 255 
3 101 99 334 237 162 64 255 
3 416 97 96 237 162 64 255 
3 416 96 429 237 162 64 255 
3 432 428 450 237 162 64 255 
3 432 450 449 237 162 64 255 
3 429 96 95 237 162 64 255 
3 429 95 423 237 162 64 255 
3 451 450 428 237 162 64 255 
3 451 428 427 237 162 64 255 
3 423 95 93 237 162 64 255 
3 423 93 424 237 162 64 255 
3 424 93 92 237 162 64 255 
3 424 92 426 237 162 64 255 
3 92 90 395 237 162 64 255 
3 92 395 426 237 162 64 255 
3 452 386 301 237 162 64 255 
3 452 301 299 237 162 64 255 
3 268 266 386 237 162 64 255 
3 268 386 452 237 162 64 255 
3 379 382 348 237 162 64 255 
3 379 348 347 237 162 64 255 
3 300 302 453 237 162 64 255 
3 303 301 386 237 162 64 255 
3 303 386 385 237 162 64 255 
3 388 453 302 237 162 64 255 
3 388 302 304 237 162 64 255 
3 47 46 105 237 162 64 255 
3 47 105 111 237 162 64 255 
3 47 111 113 237 162 64 255 
3 47 113 106 237 162 64 255 
3 47 106 48 237 162 64 255 
3 47 48 50 237 162 64 255 
3 47 50 454 237 162 64 255 
3 47 454 388 237 162 64 255 
3 208 207 349 237 162 64 255 
3 208 349 351 237 162 64 255 
3 298 310 390 237 162 64 255 
3 298 390 393 237 162 64 255 
3 338 337 455 237 162 64 255 
3 338 455 300 237 162 64 255 
3 338 300 453 237 162 64 255 
3 338 453 388 237 162 64 255 
3 338 388 454 237 162 64 255 
3 338 454 456 237 162 64 255 
3 338 456 91 237 162 64 255 
3 338 91 457 237 162 64 255 
3 455 337 309 237 162 64 255 
3 455 309 311 237 162 64 255 
3 393 452 299 237 162 64 255 
3 393 299 298 237 162 64 255 
3 393 277 268 237 162 64 255 
3 393 268 452 237 162 64 255 
3 382 380 350 237 162 64 255 
3 382 350 348 237 162 64 255 
3 311 300 455 237 162 64 255 
3 421 458 459 237 162 64 255 
3 421 459 422 237 162 64 255 
3 91 456 88 237 162 64 255 
3 398 458 421 237 162 64 255 
3 398 421 399 237 162 64 255 
3 456 454 63 237 162 64 255 
3 456 63 88 237 162 64 255 
3 454 50 49 237 162 64 255 
3 454 49 63 237 162 64 255 
3 101 339 80 237 162 64 255 
3 81 80 339 237 162 64 255 
3 81 339 338 237 162 64 255 
3 427 425 460 237 162 64 255 
3 427 460 451 237 162 64 255 
3 81 338 457 237 162 64 255 
3 81 457 94 237 162 64 255 
3 425 422 459 237 162 64 255 
3 425 459 460 237 162 64 255 
3 91 94 457 237 162 64 255 
3 182 180 204 237 162 64 255 
3 182 204 461 237 162 64 255 
3 178 182 461 237 162 64 255 
3 178 461 462 237 162 64 255 
3 463 155 178 237 162 64 255 
3 463 178 462 237 162 64 255 
3 464 153 155 237 162 64 255 
3 464 155 463 237 162 64 255 
3 464 463 465 237 162 64 255 
3 153 464 466 237 162 64 255 
3 153 466 151 237 162 64 255 
3 149 151 466 237 162 64 255 
3 149 466 467 237 162 64 255 
3 131 130 35 237 162 64 255 
3 35 130 135 237 162 64 255 
3 35 135 4 237 162 64 255 
3 4 135 134 237 162 64 255 
3 4 134 133 237 162 64 255 
3 133 6 5 237 162 64 255 
3 133 5 4 237 162 64 255 
3 468 469 131 237 162 64 255 
3 468 131 35 237 162 64 255 
3 469 468 470 237 162 64 255 
3 469 470 471 237 162 64 255 
3 472 473 471 237 162 64 255 
3 472 471 470 237 162 64 255 
3 474 368 132 237 162 64 255 
3 474 132 131 237 162 64 255 
3 474 131 469 237 162 64 255 
3 471 473 475 237 162 64 255 
3 471 475 476 237 162 64 255 
3 471 476 474 237 162 64 255 
3 471 474 469 237 162 64 255 
3 473 465 477 237 162 64 255 
3 473 477 478 237 162 64 255 
3 473 478 475 237 162 64 255 
3 371 477 465 237 162 64 255 
3 371 465 463 237 162 64 255 
3 371 463 377 237 162 64 255 
3 476 366 368 237 162 64 255 
3 476 368 474 237 162 64 255 
3 366 476 475 237 162 64 255 
3 366 475 364 237 162 64 255 
3 478 373 364 237 162 64 255 
3 478 364 475 237 162 64 255 
3 477 371 373 237 162 64 255 
3 477 373 478 237 162 64 255 
3 377 463 462 237 162 64 255 
3 377 462 375 237 162 64 255 
3 383 375 462 237 162 64 255 
3 383 462 461 237 162 64 255 
3 408 479 405 237 162 64 255 
3 405 479 480 237 162 64 255 
3 405 480 402 237 162 64 255 
3 402 480 481 237 162 64 255 
3 402 481 397 237 162 64 255 
3 397 481 233 237 162 64 255 
3 397 233 231 237 162 64 255 
3 482 483 484 237 162 64 255 
3 484 483 485 237 162 64 255 
3 484 485 481 237 162 64 255 
3 481 485 486 237 162 64 255 
3 481 486 233 237 162 64 255 
3 487 488 489 237 162 64 255 
3 489 488 490 237 162 64 255 
3 489 490 491 237 162 64 255 
3 491 490 482 237 162 64 255 
3 491 482 484 237 162 64 255 
3 492 493 494 237 162 64 255 
3 492 494 495 237 162 64 255 
3 492 495 487 237 162 64 255 
3 492 487 489 237 162 64 255 
3 344 342 451 237 162 64 255 
3 451 342 259 237 162 64 255 
3 451 259 450 237 162 64 255 
3 450 259 260 237 162 64 255 
3 450 260 496 237 162 64 255 
3 496 260 497 237 162 64 255 
3 496 497 493 237 162 64 255 
3 493 497 498 237 162 64 255 
3 493 498 494 237 162 64 255 
3 230 229 398 237 162 64 255 
3 230 398 397 237 162 64 255 
3 230 397 231 237 162 64 255 
3 384 358 458 237 162 64 255 
3 384 458 398 237 162 64 255 
3 384 398 229 237 162 64 255 
3 391 460 392 237 162 64 255 
3 392 460 459 237 162 64 255 
3 392 459 357 237 162 64 255 
3 357 459 458 237 162 64 255 
3 357 458 358 237 162 64 255 
3 344 451 460 237 162 64 255 
3 344 460 391 237 162 64 255 
3 414 413 499 237 162 64 255 
3 499 413 449 237 162 64 255 
3 499 449 500 237 162 64 255 
3 500 449 450 237 162 64 255 
3 500 450 496 237 162 64 255 
3 213 212 361 237 162 64 255 
3 213 361 287 237 162 64 255 
3 234 233 486 237 162 64 255 
3 234 486 239 237 162 64 255 
3 286 287 361 237 162 64 255 
3 286 361 360 237 162 64 255 
3 486 485 240 237 162 64 255 
3 486 240 239 237 162 64 255 
3 127 501 322 237 162 64 255 
3 127 322 126 237 162 64 255 
3 284 286 360 237 162 64 255 
3 284 360 359 237 162 64 255 
3 241 240 485 237 162 64 255 
3 241 485 483 237 162 64 255 
3 128 285 501 237 162 64 255 
3 128 501 127 237 162 64 255 
3 502 320 322 237 162 64 255 
3 502 322 501 237 162 64 255 
3 282 284 359 237 162 64 255 
3 282 359 367 237 162 64 255 
3 241 483 482 237 162 64 255 
3 241 482 242 237 162 64 255 
3 502 501 285 237 162 64 255 
3 502 285 283 237 162 64 255 
3 121 125 136 237 162 64 255 
3 121 136 321 237 162 64 255 
3 503 318 320 237 162 64 255 
3 503 320 502 237 162 64 255 
3 280 282 367 237 162 64 255 
3 280 367 365 237 162 64 255 
3 490 243 242 237 162 64 255 
3 490 242 482 237 162 64 255 
3 283 281 503 237 162 64 255 
3 283 503 502 237 162 64 255 
3 319 504 121 237 162 64 255 
3 319 121 321 237 162 64 255 
3 122 121 504 237 162 64 255 
3 122 504 317 237 162 64 255 
3 122 317 505 237 162 64 255 
3 122 505 506 237 162 64 255 
3 122 506 507 237 162 64 255 
3 122 507 508 237 162 64 255 
3 122 508 73 237 162 64 255 
3 122 73 509 237 162 64 255 
3 316 318 503 237 162 64 255 
3 316 503 510 237 162 64 255 
3 278 280 365 237 162 64 255 
3 278 365 363 237 162 64 255 
3 243 490 488 237 162 64 255 
3 243 488 244 237 162 64 255 
3 510 503 281 237 162 64 255 
3 510 281 279 237 162 64 255 
3 319 317 504 237 162 64 255 
3 329 316 510 237 162 64 255 
3 329 510 511 237 162 64 255 
3 297 278 363 237 162 64 255 
3 297 363 362 237 162 64 255 
3 244 488 487 237 162 64 255 
3 244 487 245 237 162 64 255 
3 279 296 511 237 162 64 255 
3 279 511 510 237 162 64 255 
3 317 328 505 237 162 64 255 
3 512 327 329 237 162 64 255 
3 512 329 511 237 162 64 255 
3 295 297 362 237 162 64 255 
3 295 362 372 237 162 64 255 
3 495 246 245 237 162 64 255 
3 495 245 487 237 162 64 255 
3 512 511 296 237 162 64 255 
3 512 296 294 237 162 64 255 
3 326 506 505 237 162 64 255 
3 326 505 328 237 162 64 255 
3 513 325 327 237 162 64 255 
3 513 327 512 237 162 64 255 
3 293 295 372 237 162 64 255 
3 293 372 370 237 162 64 255 
3 495 494 247 237 162 64 255 
3 495 247 246 237 162 64 255 
3 294 292 513 237 162 64 255 
3 294 513 512 237 162 64 255 
3 326 324 514 237 162 64 255 
3 326 514 506 237 162 64 255 
3 507 506 514 237 162 64 255 
3 507 514 313 237 162 64 255 
3 507 313 515 237 162 64 255 
3 507 515 333 237 162 64 255 
3 507 333 335 237 162 64 255 
3 507 335 516 237 162 64 255 
3 507 516 102 237 162 64 255 
3 507 102 517 237 162 64 255 
3 518 323 325 237 162 64 255 
3 518 325 513 237 162 64 255 
3 291 293 370 237 162 64 255 
3 291 370 369 237 162 64 255 
3 498 248 247 237 162 64 255 
3 498 247 494 237 162 64 255 
3 292 290 518 237 162 64 255 
3 292 518 513 237 162 64 255 
3 324 313 514 237 162 64 255 
3 519 330 323 237 162 64 255 
3 519 323 518 237 162 64 255 
3 289 291 369 237 162 64 255 
3 289 369 376 237 162 64 255 
3 248 498 497 237 162 64 255 
3 248 497 249 237 162 64 255 
3 290 288 519 237 162 64 255 
3 290 519 518 237 162 64 255 
3 313 312 515 237 162 64 255 
3 236 330 519 237 162 64 255 
3 236 519 237 237 162 64 255 
3 216 219 289 237 162 64 255 
3 216 289 376 237 162 64 255 
3 260 250 249 237 162 64 255 
3 260 249 497 237 162 64 255 
3 288 261 237 237 162 64 255 
3 288 237 519 237 162 64 255 
3 204 209 383 237 162 64 255 
3 204 383 461 237 162 64 255 
3 333 515 312 237 162 64 255 
3 333 312 331 237 162 64 255 
3 417 479 408 237 162 64 255 
3 417 408 409 237 162 64 255 
3 420 410 62 237 162 64 255 
3 420 62 70 237 162 64 255 
3 480 479 417 237 162 64 255 
3 480 417 418 237 162 64 255 
3 434 420 70 237 162 64 255 
3 434 70 69 237 162 64 255 
3 418 419 481 237 162 64 255 
3 418 481 480 237 162 64 255 
3 435 434 69 237 162 64 255 
3 435 69 68 237 162 64 255 
3 419 436 484 237 162 64 255 
3 419 484 481 237 162 64 255 
3 123 122 66 237 162 64 255 
3 123 66 61 237 162 64 255 
3 437 435 68 237 162 64 255 
3 437 68 75 237 162 64 255 
3 491 484 436 237 162 64 255 
3 491 436 439 237 162 64 255 
3 67 66 122 237 162 64 255 
3 67 122 509 237 162 64 255 
3 438 437 75 237 162 64 255 
3 438 75 74 237 162 64 255 
3 489 491 439 237 162 64 255 
3 489 439 443 237 162 64 255 
3 73 67 509 237 162 64 255 
3 444 438 74 237 162 64 255 
3 444 74 72 237 162 64 255 
3 441 492 489 237 162 64 255 
3 441 489 443 237 162 64 255 
3 73 508 78 237 162 64 255 
3 442 444 72 237 162 64 255 
3 442 72 71 237 162 64 255 
3 447 493 492 237 162 64 255 
3 447 492 441 237 162 64 255 
3 78 508 507 237 162 64 255 
3 78 507 84 237 162 64 255 
3 440 442 71 237 162 64 255 
3 440 71 79 237 162 64 255 
3 433 496 493 237 162 64 255 
3 433 493 447 237 162 64 255 
3 507 517 82 237 162 64 255 
3 507 82 84 237 162 64 255 
3 445 440 79 237 162 64 255 
3 445 79 77 237 162 64 255 
3 500 496 433 237 162 64 255 
3 500 433 431 237 162 64 255 
3 102 82 517 237 162 64 255 
3 446 445 77 237 162 64 255 
3 446 77 76 237 162 64 255 
3 499 500 431 237 162 64 255 
3 499 431 430 237 162 64 255 
3 102 516 100 237 162 64 255 
3 448 446 76 237 162 64 255 
3 448 76 85 237 162 64 255 
3 430 411 414 237 162 64 255 
3 430 414 499 237 162 64 255 
3 100 516 335 237 162 64 255 
3 100 335 98 237 162 64 255 
3 415 448 85 237 162 64 255 
3 415 85 83 237 162 64 255 
3 520 150 149 237 162 64 255 
3 520 149 467 237 162 64 255 
3 521 152 150 237 162 64 255 
3 521 150 520 237 162 64 255 
3 34 522 468 237 162 64 255 
3 34 468 35 237 162 64 255 
3 152 521 522 237 162 64 255 
3 152 522 34 237 162 64 255 
3 152 34 154 237 162 64 255 
3 33 32 36 237 162 64 255 
3 33 36 37 237 162 64 255 
3 33 37 1 237 162 64 255 
3 33 1 160 237 162 64 255 
3 33 160 34 237 162 64 255 
3 34 160 154 237 162 64 255 
3 160 1 8 237 162 64 255 
3 160 8 163 237 162 64 255 
3 12 164 163 237 162 64 255 
3 12 163 8 237 162 64 255 
3 470 468 522 237 162 64 255 
3 470 522 472 237 162 64 255 
3 521 520 472 237 162 64 255 
3 472 520 467 237 162 64 255 
3 472 467 473 237 162 64 255 
3 473 467 466 237 162 64 255 
3 473 466 464 237 162 64 255 
3 473 464 465 237 162 64 255 
3 521 472 522 237 162 64 255 
3 169 164 12 237 162 64 255 
3 169 12 16 237 162 64 255 
3 19 171 169 237 162 64 255 
3 19 169 16 237 162 64 255 
3 171 19 28 237 162 64 255 
3 171 28 27 237 162 64 255 
3 171 27 26 237 162 64 255 
3 171 26 31 237 162 64 255 
3 171 31 30 237 162 64 255 
3 171 30 172 237 162 64 255 
3 206 354 30 237 162 64 255 
3 206 30 29 237 162 64 255 
3 353 196 172 237 162 64 255 
3 353 172 30 237 162 64 255 
3 353 30 354 237 162 64 255 
3 352 194 196 237 162 64 255 
3 352 196 353 237 162 64 255 
3 194 352 198 237 162 64 255 
3 194 198 192 237 162 64 255 
3 206 208 351 237 162 64 255 
3 206 351 354 237 162 64 255 
3 523 524 525 237 162 64 255 
3 525 524 526 237 162 64 255 
3 525 526 527 237 162 64 255 
3 527 526 528 237 162 64 255 
3 527 528 529 237 162 64 255 
3 529 528 530 237 162 64 255 
3 529 530 531 237 162 64 255 
3 530 528 532 237 162 64 255 
3 532 528 533 237 162 64 255 
3 532 533 534 237 162 64 255 
3 534 533 535 237 162 64 255 
3 534 535 536 237 162 64 255 
3 536 535 537 237 162 64 255 
3 536 537 538 237 162 64 255 
3 539 540 541 237 162 64 255 
3 541 540 542 237 162 64 255 
3 541 542 538 237 162 64 255 
3 538 542 536 237 162 64 255 
3 543 544 545 237 162 64 255 
3 543 545 546 237 162 64 255 
3 543 546 539 237 162 64 255 
3 543 539 541 237 162 64 255 
3 547 548 549 237 162 64 255 
3 549 548 550 237 162 64 255 
3 549 550 531 237 162 64 255 
3 531 550 529 237 162 64 255 
3 551 546 552 237 162 64 255 
3 552 546 553 237 162 64 255 
3 552 553 554 237 162 64 255 
3 554 553 547 237 162 64 255 
3 554 547 549 237 162 64 255 
3 555 556 557 237 162 64 255 
3 557 556 558 237 162 64 255 
3 557 558 544 237 162 64 255 
3 544 558 545 237 162 64 255 
3 539 546 551 237 162 64 255 
3 559 173 190 237 162 64 255 
3 559 190 560 237 162 64 255 
3 560 190 188 237 162 64 255 
3 560 188 561 237 162 64 255 
3 561 188 187 237 162 64 255 
3 561 187 562 237 162 64 255 
3 562 187 185 237 162 64 255 
3 562 185 563 237 162 64 255 
3 563 185 184 237 162 64 255 
3 563 184 564 237 162 64 255 
3 564 184 179 237 162 64 255 
3 564 179 565 237 162 64 255 
3 555 559 560 237 162 64 255 
3 555 560 556 237 162 64 255 
3 556 560 561 237 162 64 255 
3 556 561 558 237 162 64 255 
3 558 561 562 237 162 64 255 
3 558 562 545 237 162 64 255 
3 545 562 563 237 162 64 255 
3 545 563 546 237 162 64 255 
3 553 546 563 237 162 64 255 
3 553 563 564 237 162 64 255 
3 553 564 565 237 162 64 255 
3 553 565 547 237 162 64 255 
3 145 539 551 237 162 64 255 
3 145 551 146 237 162 64 255 
3 552 147 146 237 162 64 255 
3 552 146 551 237 162 64 255 
3 554 148 147 237 162 64 255 
3 554 147 552 237 162 64 255 
3 181 566 565 237 162 64 255 
3 181 565 179 237 162 64 255 
3 183 567 566 237 162 64 255 
3 183 566 181 237 162 64 255 
3 568 567 183 237 162 64 255 
3 568 183 177 237 162 64 255 
3 176 569 568 237 162 64 255 
3 176 568 177 237 162 64 255 
3 157 570 569 237 162 64 255 
3 157 569 176 237 162 64 255 
3 570 157 156 237 162 64 255 
3 570 156 571 237 162 64 255 
3 547 565 566 237 162 64 255 
3 547 566 548 237 162 64 255 
3 548 566 567 237 162 64 255 
3 548 567 550 237 162 64 255 
3 550 567 568 237 162 64 255 
3 550 568 529 237 162 64 255 
3 529 568 569 237 162 64 255 
3 529 569 527 237 162 64 255 
3 525 527 569 237 162 64 255 
3 525 569 570 237 162 64 255 
3 525 570 571 237 162 64 255 
3 525 571 523 237 162 64 255 
3 148 554 549 237 162 64 255 
3 148 549 137 237 162 64 255 
3 138 137 549 237 162 64 255 
3 138 549 531 237 162 64 255 
3 530 139 138 237 162 64 255 
3 530 138 531 237 162 64 255 
3 571 156 162 237 162 64 255 
3 571 162 572 237 162 64 255 
3 572 162 161 237 162 64 255 
3 572 161 573 237 162 64 255 
3 573 161 159 237 162 64 255 
3 573 159 574 237 162 64 255 
3 574 159 158 237 162 64 255 
3 574 158 575 237 162 64 255 
3 575 158 166 237 162 64 255 
3 575 166 576 237 162 64 255 
3 576 166 165 237 162 64 255 
3 576 165 577 237 162 64 255 
3 523 571 572 237 162 64 255 
3 523 572 524 237 162 64 255 
3 524 572 573 237 162 64 255 
3 524 573 526 237 162 64 255 
3 526 573 574 237 162 64 255 
3 526 574 528 237 162 64 255 
3 528 574 575 237 162 64 255 
3 528 575 533 237 162 64 255 
3 535 533 575 237 162 64 255 
3 535 575 576 237 162 64 255 
3 535 576 577 237 162 64 255 
3 535 577 537 237 162 64 255 
3 139 530 532 237 162 64 255 
3 139 532 140 237 162 64 255 
3 141 140 532 237 162 64 255 
3 141 532 534 237 162 64 255 
3 142 141 534 237 162 64 255 
3 142 534 536 237 162 64 255 
3 577 165 170 237 162 64 255 
3 577 170 578 237 162 64 255 
3 578 170 168 237 162 64 255 
3 578 168 579 237 162 64 255 
3 579 168 167 237 162 64 255 
3 579 167 580 237 162 64 255 
3 580 167 175 237 162 64 255 
3 580 175 581 237 162 64 255 
3 581 175 174 237 162 64 255 
3 581 174 582 237 162 64 255 
3 582 174 173 237 162 64 255 
3 582 173 559 237 162 64 255 
3 537 577 578 237 162 64 255 
3 537 578 538 237 162 64 255 
3 538 578 579 237 162 64 255 
3 538 579 541 237 162 64 255 
3 541 579 580 237 162 64 255 
3 541 580 543 237 162 64 255 
3 543 580 581 237 162 64 255 
3 543 581 544 237 162 64 255 
3 557 544 581 237 162 64 255 
3 557 581 582 237 162 64 255 
3 557 582 559 237 162 64 255 
3 557 559 555 237 162 64 255 
3 542 143 142 237 162 64 255 
3 542 142 536 237 162 64 255 
3 542 540 144 237 162 64 255 
3 542 144 143 237 162 64 255 
3 539 145 144 237 162 64 255 
3 539 144 540 237 162 64 255 
