ply
format ascii 1.0
comment VCGLIB generated
element vertex 506
property float x
property float y
property float z
property float nx
property float ny
property float nz
element face 1020
property list uchar int vertex_indices
property uchar red
property uchar green
property uchar blue
property uchar alpha
end_header
8.550001 -19.86141 7.999998 1.333413 -4.645698 1.011228 
8.550001 -17.5597 9.043289 3.534297 2.846682 1.179136 
8.550001 -17.75 9.999997 3.534291 3.081228 -1.132488e-06 
9.261811 -17.16586 7.999998 2.939003 -1.073002 3.320464 
8.550001 -16.75 7.999998 1.262665 1.528127 5.808884 
8.564803 -19.86141 7.999998 1.367187 -1.932557 1.555389 
8.550001 -17.01777 8.232231 3.408906 2.335255 2.059351 
8.574232 -19.77941 7.48048 2.834768 -3.973588 -0.6194841 
8.900939 -18.41598 4.842054 6.002698 -1.843263 -0.1439975 
8.550001 -19.77971 12.5179 2.810608 -3.046605 0.5656447 
0.750002 -19.77971 12.5179 -2.797412 -3.046847 0.539086 
-7.335711 -19.77971 7.482099 -2.819676 -3.07274 -0.4577868 
-4.042855 -19.77971 9.999997 0 -6.283185 0 
-7.335711 -19.77971 12.5179 -2.883536 -3.089581 0.4008688 
0.750001 -17.5597 9.043289 -3.534296 -2.846684 -1.179135 
0.750002 -19.77971 7.482099 -2.808308 -3.048266 -0.532897 
4.650002 -18.91854 14.88395 -1.705303e-13 -5.904263 2.148974 
0.750001 -18.05737 17.25 -2.848352 -2.733829 1.478217 
8.550001 -18.05737 17.25 2.848352 -2.733828 1.478218 
-0.749998 -19.77971 12.5179 2.809669 -3.048545 0.5320624 
-0.749998 -19.77971 7.482099 2.792527 -3.046862 -0.537244 
-0.749998 -18.05737 2.749998 2.869693 -2.731154 -1.484856 
-0.749999 -15.25 7.499998 3.534292 1.460314e-06 -3.081227 
-0.749999 -16.20671 7.690298 3.534297 -1.17913 -2.84668 
-0.749998 -17.01777 8.232231 3.5343 -2.178761 -2.178755 
-0.749998 -17.5597 9.043289 3.534296 -2.846683 -1.179135 
-0.749998 -17.75 9.999997 3.534291 -3.081228 6.92904e-07 
-7.335711 -18.2552 13.0052 -3.534282 -2.178758 2.17876 
-7.335711 -19.17649 11.6264 -3.534292 -2.846682 1.179137 
-0.749998 -17.5597 10.95671 3.534297 -2.846684 1.179131 
-0.749998 -17.01777 11.76777 3.534309 -2.178754 2.178758 
-0.749999 -16.20671 12.3097 3.534299 -1.179131 2.846682 
-7.335711 -19.16229 14.85714 -1.649753 -4.30201 0.2734715 
-7.335711 -19.17649 8.373593 -3.534293 -2.846681 -1.179137 
-7.335711 -19.5 9.999997 -3.534286 -3.081229 6.258488e-07 
-0.749999 -9.971837 20 1.702177 1.565295 1.654528 
-0.749998 -18.05737 17.25 2.848352 -2.733828 1.478218 
8.55 -14.36569 16.18311 5.119287 -2.440465 0.04956206 
8.55 -14.40444 14.27467 5.119296 -2.440459 0.04954221 
0.750001 -15.25 7.499998 -3.534292 1.043081e-06 -3.081228 
0.750001 -18.05737 2.749998 -2.85249 -2.734359 -1.477391 
8.632236 -19.36611 5.760021 2.785701 -3.942365 -1.123369 
-7.335711 -18.2552 6.994794 -3.534286 -2.178753 -2.178763 
-7.335711 -19.16229 5.142855 -1.693981 -4.383049 -0.08191496 
0.750001 -16.20671 7.690298 -3.534297 -1.179132 -2.846687 
0.750001 -17.01777 8.232231 -3.5343 -2.178762 -2.178752 
8.550001 -17.5597 10.95671 3.534298 2.846683 -1.179132 
8.550001 -17.01777 11.76777 3.534312 2.178754 -2.178751 
0.750001 -17.75 9.999997 -3.534291 -3.081231 4.321337e-07 
0.750001 -17.5597 10.95671 -3.534297 -2.846685 1.179132 
0.750001 -17.01777 11.76777 -3.534309 -2.178756 2.178756 
0.750001 -16.20671 12.3097 -3.534299 -1.179134 2.846684 
0.750001 -9.971837 20 -1.846048 1.546494 1.746931 
8.55 -14.42381 13.32045 4.9592 -2.558279 0.1374835 
8.55 -16.20671 12.3097 3.534301 1.179135 -2.846683 
-8.549997 -18.05737 17.25 -2.888474 -2.694793 1.57388 
8.808689 -18.52962 3.637689 2.607972 -3.846115 -1.536135 
8.941564 -18.05368 2.744521 2.72223 -3.968191 -1.711379 
-10.44286 -19.33825 10.8132 -3.019693e-09 -6.162457 1.225782 
-13.55 -19.17649 8.373593 -2.748892 -2.846681 -1.179137 
-10.44286 -19.33825 9.186796 3.013611e-09 -6.162457 -1.225779 
-13.55 -19.5 9.999997 -2.748899 -3.081229 6.407499e-07 
-13.55 -19.17649 11.6264 -2.748894 -2.846682 1.179137 
-13.55 -17.375 11.22687 -4.188793 2.356193 -1.360351 
-13.55 -16.8764 13.92649 -2.74889 -1.179135 2.846683 
-13.55 -15.25 14.25 -2.748891 -1.043081e-06 3.081228 
-10.44286 -18.71585 12.3158 -3.524292e-12 -5.224267 3.490767 
-13.55 -17.375 8.773129 -4.18879 2.356195 1.360349 
-13.55 -18.2552 6.994794 -2.748899 -2.178753 -2.178763 
-13.55 -18.2552 13.0052 -2.748903 -2.178758 2.17876 
-10.44286 -18.71585 7.684194 -3.865352e-12 -5.224265 -3.490769 
-7.335711 -16.8764 6.07351 -3.534292 -1.179135 -2.846684 
-9.261807 -17.16586 5.142855 -2.881477 -1.210885 3.330918 
-8.990567 -17.99251 3.419603 -5.946812 -2.019582 -0.1367473 
-8.66955 -19.16229 5.142855 -1.100015 -1.86624 1.183754 
-7.335711 -15.25 5.749998 -3.534294 -2.315417e-07 -3.081227 
-7.335711 -15.25 5.142856 -2.945244 -0.3064481 3.11141 
-8.799152 -18.56661 3.715381 -2.83564 -3.916029 -1.519654 
-8.549998 -14.34116 17.39058 -4.931341 -2.581406 0.05245514 
-8.549998 -14.36767 16.08586 -4.931398 -2.581367 0.05241731 
-8.549997 -19.16229 14.85714 -1.138208 -1.426101 -0.9122835 
-8.549998 -14.31464 18.69529 -4.931325 -2.581416 0.05248348 
-8.549998 -15.25 14.85714 -3.325993 -0.2457592 -3.121127 
-7.942854 -17.20614 14.85714 0 0 -6.283185 
-7.335711 -15.25 14.85714 -2.945248 -0.3064398 -3.111411 
-7.335711 -16.8764 13.92649 -3.534295 -1.179135 2.846683 
-8.941453 -18.05609 2.748086 -2.827011 -3.821809 -1.712826 
9.251873 -17.18624 1.417747 2.623928 -3.944268 -2.100266 
9.172304 -17.38551 1.695978 2.719838 -4.011645 -2.02059 
-10.44286 -17.5658 6.534152 0 -3.490749 -5.224278 
-10.44286 -17.5658 13.46585 -6.036487e-09 -3.490764 5.224269 
-13.55 -16.8764 6.07351 -2.748896 -1.179135 -2.846684 
-0.749999 -16 -2e-06 2.218457 -1.257069 -2.512656 
8.55 -16 20 2.213101 -1.257764 2.511771 
4.650002 -17.02868 18.625 -5.115908e-13 -5.031053 3.763897 
-4.649999 -17.02868 18.625 3.979039e-13 -5.031053 3.763897 
-8.549998 -16 20 -2.213101 -1.257763 2.511769 
8.55 -14.32691 18.09156 5.119264 -2.440483 0.04960548 
8.55 -14.2881 20 2.547348 -1.230193 4.056386 
-0.749999 -16 20 2.213101 -1.257764 2.51177 
0.750001 -16 20 -2.213101 -1.257764 2.51177 
0.750001 -16 -2e-06 -2.213098 -1.257762 -2.51177 
9.83614 -16 -2e-06 1.901145 -2.258067 -3.077862 
-8.549998 -14.2881 20 -2.451914 -1.300237 4.132621 
-0.749999 -13.48223 8.232232 3.534298 2.178762 -2.17875 
0.750001 -13.48223 8.232232 -3.534298 2.178762 -2.17875 
0.750001 -14.29329 7.690299 -3.534292 1.179133 -2.846684 
-0.749999 -14.29329 7.690299 3.534292 1.179132 -2.846682 
-9.015332 -17.82574 2.362837 -2.719128 -3.896664 -1.840833 
-9.25611 -17.17848 1.405605 -2.794492 -3.760962 -1.871987 
8.050001 -17.65485 10.47835 -1.023182e-11 6.162457 -1.22578 
2e-06 -17.65485 10.47835 -3.751666e-12 -6.162457 1.22578 
7.550002 -17.5597 10.95671 2.748887 2.846684 -1.179132 
7.550002 -17.75 9.999997 2.748894 3.081228 -1.162291e-06 
7.550002 -15.25 9.999997 6.283185 1.276909e-06 5.400125e-13 
7.550002 -17.5597 9.043289 2.748888 2.846682 1.179136 
8.050001 -17.65485 9.521643 8.81073e-13 6.162457 1.225782 
2e-06 -17.65485 9.521643 3.410605e-13 -6.162457 -1.225782 
8.050001 -17.28873 8.63776 -4.726917e-08 5.224285 3.49074 
8.050001 -17.28873 11.36224 -3.910827e-11 5.224289 -3.490734 
7.550002 -17.01777 11.76777 2.748874 2.178754 -2.178754 
7.550002 -17.01777 8.232231 2.765945 2.182225 2.176136 
2e-06 -17.28873 8.63776 -2.350316e-08 -5.224285 -3.49074 
2e-06 -17.28873 11.36224 -1.500666e-11 -5.224289 3.490734 
-11.05 -17.375 8.773129 -2.094396 2.356195 1.360349 
-12.3 -17.375 9.999997 0 6.283185 0 
-11.05 -17.375 11.22687 -2.094393 2.356193 -1.360351 
-11.05 -15.25 7.546258 -2.094393 -9.23872e-07 2.720698 
-12.3 -16.3125 8.159694 0 3.141595 5.441397 
-13.55 -15.25 7.546258 -4.188792 -9.23872e-07 2.720698 
-13.55 -15.25 12.45374 -4.188796 7.748604e-07 -2.720696 
-12.3 -16.3125 11.8403 6.032451e-08 3.141595 -5.441397 
-11.05 -15.25 12.45374 -2.094389 7.748604e-07 -2.720696 
-11.05 -15.25 9.999997 -6.283185 0 0 
9.722415 -16.20497 7.68947 2.924554 -0.2862959 3.000299 
9.856178 -15.96792 7.605316 2.899832 -1.081575 3.194267 
10.31585 -15.24739 7.500018 2.72543 -1.726919 3.295289 
10.38012 -15.1568 7.501737 2.595518 -2.45084 3.331745 
10.97801 -14.40471 7.645772 2.570716 -3.329173 3.235423 
11.43464 -13.91666 7.884903 2.263407 -3.994353 2.806504 
11.07736 -14.29292 7.689056 2.292913 -3.666395 3.223735 
-9.34764 -16.96362 1.121036 -2.662436 -3.965421 -2.08764 
-10.31394 -15.25 5.142856 -2.665106 -2.198843 3.45607 
9.445248 -16.75 7.999998 2.401696 -0.02282453 3.047702 
9.634854 -16.36837 7.763958 3.022474 0.3367862 4.029092 
1e-06 -16.61224 7.961265 2.348997e-08 -3.490751 -5.224277 
7.550002 -16.20671 12.3097 2.748885 1.179134 -2.846682 
8.050001 -16.61224 12.03873 4.720732e-08 3.490738 -5.224286 
7.550002 -16.20671 7.690298 2.753815 1.179844 2.846463 
1e-06 -16.61224 12.03873 2.34968e-08 -3.490738 5.224285 
-11.12924 -14.23634 5.25 -2.468326 -2.826128 3.31432 
-9.836138 -16 -2e-06 -1.933274 -2.243883 -3.092197 
-10.44286 -16.0632 5.911755 6.963319e-13 -1.225792 -6.162456 
-10.44286 -16.0632 14.08824 3.020887e-09 -1.225785 6.162457 
-13.55 -13.125 8.773129 -4.188792 -2.356195 1.360348 
-13.55 -15.25 5.749998 -2.748891 8.642673e-07 -3.081227 
-7.335711 -15.25 14.25 -3.534294 -2.01863e-06 3.081227 
8.05 -15.72835 12.40485 -2.205525e-11 1.225779 -6.162457 
8.55 -15.25 12.5 3.502244 0.04952201 -3.090256 
1e-06 -15.72835 7.595148 0 -1.225777 -6.162457 
7.550002 -15.25 7.499998 2.751861 0.0009139599 3.08133 
1e-06 -15.72835 12.40485 0 -1.225779 6.162457 
7.550002 -15.25 12.5 2.772096 0.02159151 -3.085282 
-0.749999 -15.25 12.5 3.534291 -7.450581e-07 3.081228 
0.750001 -15.25 12.5 -3.534291 -7.450581e-07 3.081228 
6.026347 -7.980172 -1e-06 -1.860998 2.464359 -3.511192 
8.502172 -5.264321 -1e-06 -2.625557 1.625675 -3.511218 
-0.922683 -9.957342 -2e-06 0.561241 3.076127 -3.33506 
-0.749999 -9.971835 -2e-06 1.702168 1.565295 -1.654528 
-4.457383 -8.951632 -1e-06 1.376485 2.764357 -3.51119 
21.52513 2.474876 0 2.178734 -2.178727 -3.534288 
20.76642 1.339394 0 2.846683 -1.179137 -3.534293 
20.5 2e-06 0 3.081229 -2.086163e-07 -3.534289 
20.76642 -1.33939 -0 2.846682 1.179136 -3.534312 
11.42954 -13.92163 -1e-06 2.16205 -2.232203 -3.435344 
0.750001 -9.971835 -2e-06 -1.84604 1.546494 -1.746931 
2.736631 -9.618257 -2e-06 -0.9754069 2.952612 -3.427456 
-11.43371 -13.91827 5.329177 -2.268034 -3.231176 3.088008 
-11.42954 -13.92163 -1e-06 -2.163202 -2.231131 -3.425317 
-0.922683 -9.957344 20 0.5612412 3.076127 3.335061 
2.736631 -9.618258 20 -0.9754075 2.952613 3.427457 
6.026347 -7.980175 20 -1.860998 2.464358 3.511192 
16.46492 -2.481689 20 3.076436 -0.4636981 2.896698 
0.750001 -12.9403 9.04329 -3.534296 2.846683 -1.179135 
-0.749999 -12.9403 9.04329 3.534296 2.846683 -1.179135 
1e-06 -14.77165 12.40485 1.174385e-08 1.225774 6.162458 
1e-06 -14.77165 7.595148 0 1.225786 -6.162457 
-7.335712 -13.39125 5.512584 -2.763077 -1.182632 2.845894 
0.750001 -14.29329 12.3097 -3.5343 1.179131 2.846684 
-7.335712 -13.39125 14.48742 -2.806394 -1.204547 -2.842809 
-0.749999 -14.29329 12.3097 3.5343 1.179131 2.846684 
-8.549998 -14.39416 14.78115 -2.840823 -2.133313 -3.939686 
8.55 -14.44317 12.36623 2.353283 -2.655715 -3.928515 
-10.44286 -14.4368 5.911755 3.623768e-13 1.225796 -6.162454 
-13.55 -13.6236 13.92649 -2.748889 1.179135 2.846682 
7.550002 -14.29329 12.3097 2.795498 -1.197817 -2.845594 
-12.3 -14.1875 8.159695 0 -3.141597 5.441396 
7.550001 -13.48223 11.76777 2.767378 -2.18194 -2.179447 
7.550001 -12.9403 10.95671 2.765837 -2.848957 -1.17984 
7.550001 -12.75 9.999998 2.765629 -3.083546 0.0001004189 
7.550001 -12.9403 9.04329 2.764311 -2.848444 1.180565 
7.550001 -13.48223 8.232232 2.756783 -2.176121 2.18296 
-10.44286 -14.4368 14.08824 -3.012929e-09 1.225782 6.162457 
-7.335712 -13.6236 13.92649 -3.534296 1.179134 2.846683 
-13.55 -12.2448 13.0052 -2.748903 2.178759 2.178759 
7.550002 -14.29329 7.690299 2.756826 -1.177909 2.847613 
-7.335712 -13.6236 6.073511 -3.53429 1.179134 -2.846684 
-13.55 -13.6236 6.073511 -2.748895 1.179135 -2.846684 
-11.05 -13.125 8.773129 -2.094395 -2.356195 1.360348 
-12.3 -14.1875 11.8403 0 -3.141593 -5.441398 
-11.05 -13.125 11.22687 -2.094393 -2.356192 -1.360351 
-13.55 -13.125 11.22687 -4.188793 -2.356192 -1.360351 
-13.55 -11 9.999998 -2.748891 3.081228 1.411885e-06 
8.786539 -14.30161 12.31319 1.78298 -4.256847 -2.597413 
9.387132 -13.91921 12.1165 2.037979 -4.58352 -2.176055 
12.20597 -11.32549 20 2.292289 -2.106195 2.916876 
-10.03297 -13.40902 14.49489 -2.00607 -4.093442 -2.596627 
-10.38167 -13.0182 20 -2.048259 -2.36203 2.981199 
8.655622 -13.89718 12.05643 0.09178425 -3.50232 -5.213769 
0.750001 -13.48223 11.76777 -3.534308 2.178755 2.178755 
1e-06 -13.88776 12.03873 -2.348816e-08 3.490739 5.224286 
10.11197 -13.48645 8.228086 2.250759 -4.688902 1.576033 
9.757522 -13.75 7.999999 0.5204691 -3.649167 4.978412 
1e-06 -13.88776 7.961265 0 3.490751 -5.224277 
-0.749999 -13.48223 11.76777 3.534308 2.178755 2.178755 
15.00194 -7.224555 20 2.803083 -1.349894 2.8967 
-4.457383 -8.951633 20 1.376485 2.764355 3.51119 
-14.09044 -12.01771 6.374514 -1.494707 -4.924318 2.395165 
-14.09044 -12.01771 -1e-06 -1.606796 -2.687253 -3.305928 
-13.03296 -12.61945 5.916725 -1.653076 -4.600251 2.779454 
14.09044 -12.01771 -1e-06 1.605555 -2.688138 -3.304017 
21.52513 -2.474872 -0 2.178753 2.178763 -3.534287 
12.5301 -13.12474 4.776979 3.658507 -5.108096 0.009747507 
-12.00529 -13.38935 5.513371 -2.199503 -3.742767 2.873278 
-7.390089 -6.736958 -1e-06 2.282133 2.08044 -3.511193 
-12.04532 -13.35534 5.527627 -2.068112 -4.029875 2.832732 
10.00445 -13.48955 11.77499 2.10074 -4.887342 -1.842422 
11.60544 -13.75 7.999999 1.69221 -2.571465 3.331424 
12.35952 -11.46796 7.999999 2.368783 -2.028251 3.406398 
21.52513 -2.474873 8 2.178753 2.178761 3.534288 
14.09044 -12.01771 7.999999 1.594665 -2.695843 3.298727 
22.66061 -3.233577 8 1.179136 2.846682 3.53429 
-13.55 -11.32351 8.373594 -2.748889 2.846683 -1.179132 
-13.55 -12.2448 6.994794 -2.748896 2.178753 -2.178762 
-7.335712 -11.81548 13.43452 -2.766287 -2.179738 -2.181423 
-10.44286 -12.9342 6.534152 -1.154632e-13 3.490745 -5.224281 
-7.335712 -12.2448 13.0052 -3.534282 2.178759 2.178759 
-7.335712 -12.2448 6.994794 -3.534289 2.178753 -2.178762 
-10.44286 -12.9342 13.46585 6.029552e-09 3.490767 5.224267 
9.584121 -13.19808 11.36603 0.06890497 -5.223291 -3.486805 
10.1368 -13.39249 11.67322 2.192357 -4.972098 -1.721554 
10.23101 -13.39428 8.324809 2.293042 -4.861629 1.532609 
9.473641 -13.22037 8.605212 0.04132118 -5.214742 3.501795 
0.750001 -12.9403 10.95671 -3.534298 2.846684 1.179133 
1e-06 -13.21127 11.36224 2.348816e-08 5.224286 3.490739 
1e-06 -13.21127 8.637761 2.34877e-08 5.224285 -3.49074 
-0.749999 -12.9403 10.95671 3.534298 2.846684 1.179133 
-10.29874 -13.20795 14.40713 -2.267453 -4.123774 -2.583676 
-9.874306 -12.66617 14.02265 -0.1067484 -3.521726 -5.20055 
10.62377 -13.07501 8.767359 2.385075 -5.128902 1.212393 
10.45901 -13.14914 11.35685 2.233295 -5.163867 -1.379283 
-7.335712 -11.81548 6.56548 -2.75729 -2.179626 2.178306 
-7.335712 -10.76258 8.14125 -2.755805 -2.8457 1.184096 
10.7751 -12.94393 9.035498 2.34334 -5.247682 1.015449 
-10.45083 -13.08924 14.35025 -2.375197 -4.122656 -2.365572 
10.72524 -12.94221 10.96122 2.25818 -5.338706 -0.9045409 
10.66335 -12.99064 11.07147 2.322965 -5.288898 -1.075886 
-13.55 -11.32351 11.6264 -2.74889 2.846682 1.179135 
-12.3 -13.125 9.999998 0 -6.283185 -2.442035e-06 
-11.77635 -11.9304 13.54572 -2.676716 -4.5512 -1.78145 
-13.75762 -9.379788 20 -2.575614 -1.74628 2.918274 
-7.390089 -6.73696 20 2.282135 2.08044 3.511193 
10.89085 -12.83943 9.339193 2.369335 -5.332123 0.7375307 
9.784173 -12.83281 9.513698 0.0326202 -6.157823 1.234087 
9.77359 -12.82768 10.46125 0.03242187 -6.160605 -1.220506 
10.88642 -12.81625 10.56411 2.308144 -5.400952 -0.5736603 
1e-06 -12.84515 9.521644 0 6.162457 -1.225782 
-0.749999 -12.75 9.999998 3.534291 3.081228 7.152557e-07 
0.750001 -12.75 9.999998 -3.534291 3.081228 7.152557e-07 
1e-06 -12.84515 10.47835 0 6.162457 1.22578 
10.96032 -12.77322 9.664212 2.413377 -5.370941 0.3962998 
10.97876 -12.75 9.999998 2.530063 -5.262281 0.04345436 
10.95112 -12.76732 10.28547 2.351191 -5.422912 -0.2299245 
-11.88983 -11.81985 13.43864 -2.501222 -4.531588 -1.849225 
-7.335712 -11.32351 8.373594 -3.534296 2.846683 -1.179132 
-10.44286 -11.78415 12.3158 -6.036942e-09 5.224267 3.490767 
-7.335712 -11.32351 11.6264 -3.534296 2.846682 1.179135 
-10.44286 -11.78415 7.684194 -6.036146e-09 5.22427 -3.490763 
-16.52026 -10.82373 7.999998 -1.100435 -2.906034 3.074491 
-15.47894 -11.33542 7.1246 -1.509166 -5.505939 1.619419 
-14.50015 -11.81638 6.56458 -1.498547 -5.311051 1.908701 
-30 -4.200004 8 -2.263544 -1.409788 2.027528 
-30 -4.200003 -1e-06 -2.263543 -1.409788 -2.027528 
24 -3.499999 8 -5.960464e-08 3.081227 3.534292 
30 -4.199997 8 2.263544 -1.409788 2.027527 
30 -4.199997 -1e-06 2.263544 -1.409787 -2.027526 
24 -3.499998 -1e-06 0 3.081227 -3.534291 
22.04522 -8.108853 3.999999 2.770992 -5.639151 -3.375145e-07 
22.66061 -3.233576 -1e-06 1.179135 2.846683 -3.53429 
-26.47487 -2.474876 -0 2.178755 2.178762 -3.534286 
-25.33939 -3.23358 -1e-06 1.179117 2.846658 -3.534291 
-24 -3.500002 -1e-06 0 3.081227 -3.534291 
-22.66061 -3.23358 -1e-06 -1.179134 2.846683 -3.534291 
-9.999999 -1e-06 -0 3.088097 1.762062e-06 -3.511191 
-9.324721 -3.612418 -1e-06 2.879567 1.115551 -3.511192 
-9.324721 3.612416 1e-06 2.879571 -1.11555 -3.511192 
-21.52513 -2.474876 -0 -2.178753 2.178763 -3.534286 
-6.50562 15.70595 2e-06 -0.9537109 2.971856 -2.913224 
-12.3661 -11.33508 12.87443 -2.602821 -4.684266 -1.572785 
-10.75603 -11.24179 12.6225 -0.05637901 -5.227199 -3.481234 
-12.92743 -10.82373 7.999998 -1.019555 -4.987634 3.337506 
-7.335712 -10.76258 11.85875 -2.765251 -2.849816 -1.177655 
-12.97454 -10.76347 8.13936 -2.721233 -4.84278 1.014378 
13.68952 -9.333359 14 5.19064 -3.538914 0.1084335 
20.76642 -1.339391 8 2.846682 1.179136 3.534293 
15.19066 -7.315435 7.999999 2.793811 -1.345427 3.494917 
-12.72128 -10.95162 12.26195 -2.679759 -4.832287 -1.237452 
-7.335712 -11 9.999998 -3.534294 3.081228 1.359731e-06 
-10.44286 -11.16176 9.186797 4.206413e-12 6.162457 -1.225779 
-7.335712 -10.39286 9.999998 -2.762028 -3.083128 -0.0003255382 
-10.44286 -11.16176 10.8132 3.020261e-09 6.162457 1.225785 
-12.88754 -10.76613 11.86673 -2.666478 -4.904419 -0.9869218 
-13.93068 -9.497781 7.999999 -2.672087 -1.617577 3.383029 
-16.1113 -4.969679 7.999999 -2.963133 -0.9140069 3.494916 
-22.66061 -3.233581 8 -1.179136 2.846682 3.534291 
-24 -3.500003 8 -1.192093e-07 3.081226 3.534292 
-25.33939 -3.233581 8 1.179134 2.846679 3.534291 
-26.47487 -2.474877 8 2.178754 2.178761 3.534288 
-16.86036 -2e-06 8 -3.100898 -5.662441e-07 3.494917 
-21.52513 -2.474877 8 -2.178753 2.178761 3.534288 
-13.08698 -10.54107 11.18752 -2.765564 -4.981938 -0.5430735 
-10.77558 -10.5711 10.9826 -0.02568521 -6.159491 -1.234181 
-10.80896 -10.56332 9.049821 -0.02698796 -6.160584 1.228117 
-13.16689 -10.50483 8.968497 -2.806585 -4.937505 0.603445 
-13.23194 -10.39286 9.999998 -2.822993 -4.97225 0.04769254 
-0.836341 -9.96459 9.999998 0.5254864 6.261172 5.971128e-07 
1.743316 -9.795048 9.999998 -1.100974 6.185974 5.898976e-07 
-2.690033 -9.454489 9.999998 1.719478 6.043328 5.768611e-07 
4.381488 -8.799216 9.999998 -2.800657 5.624477 6.683745e-07 
-14.92769 -7.188799 14 -5.660111 -2.725767 0.1084297 
-15.91115 -4.907941 20 -2.972963 -0.9170381 2.896697 
-9.999999 -3e-06 20 3.0881 -2.086163e-07 3.511192 
-9.324721 -3.61242 20 2.879567 1.11555 3.511192 
-5.923737 -7.844297 9.999999 3.786462 5.014092 4.770926e-07 
8.502172 -5.264323 20 -2.625556 1.625672 3.511193 
7.264258 -6.622249 9.999999 -4.643331 4.232954 5.545162e-07 
15.83239 -4.883647 14 6.003148 -1.851724 0.1084327 
20.5 1e-06 8 3.081228 8.940697e-08 3.53429 
20.76642 1.339393 8 2.846682 -1.179136 3.534294 
16.67204 -2.512906 8 3.066265 -0.4621646 3.494919 
-8.357405 -5.174687 9.999999 5.342072 3.30767 3.341115e-07 
9.82973 -1.837494 -0 -3.035521 0.5674372 -3.511191 
22.66061 3.23358 1e-06 1.179136 -2.846685 -3.534293 
16.46492 2.481687 20 3.076436 0.4636973 2.896699 
9.16595 -3.55091 9.999999 -5.858898 2.269745 2.519795e-07 
9.82973 -1.837496 20 -3.035521 0.5674363 3.511191 
-16.38343 -2.469406 14 -6.212082 -0.93632 0.1084303 
-16.6509 -4e-06 20 -3.111186 -1.525196e-07 2.8967 
-9.324721 3.612414 20 2.879581 -1.11556 3.511191 
-7.39009 6.736955 20 2.28213 -2.080435 3.511192 
-27.23358 -1.339395 8 2.846682 1.179136 3.534293 
-27.23358 -1.339394 -0 2.846683 1.179136 -3.534293 
27.5 2e-06 8 -3.081229 -6.854534e-07 3.534289 
27.23358 -1.339391 8 -2.846682 1.179136 3.534293 
30 4.200002 8.000001 2.263543 1.409788 2.027518 
-27.5 -2e-06 -0 3.08123 -3.874302e-07 -3.534289 
26.47487 -2.474873 8 -2.178753 2.178761 3.534288 
-27.5 -3e-06 8 3.081228 -8.568168e-08 3.534289 
-27.23358 1.339389 8 2.846683 -1.179137 3.534294 
-30 4.199996 8.000001 -2.263544 1.409788 2.027528 
-27.23358 1.33939 0 2.846682 -1.179136 -3.534293 
25.33939 -3.233576 -1e-06 -1.179135 2.846683 -3.534291 
26.47487 -2.474872 -0 -2.178754 2.178764 -3.534287 
27.5 2e-06 0 -3.081228 5.364418e-07 -3.53429 
30 4.200003 1e-06 2.263544 1.409789 -2.027529 
30 2e-06 4 6.283185 0 0 
-30 -3e-06 4 -6.283185 0 0 
27.23358 -1.33939 -0 -2.846683 1.179136 -3.534293 
-30 4.199997 1e-06 -2.263545 1.409789 -2.027527 
25.33939 -3.233577 8 -1.179136 2.846683 3.534291 
-9.66236 -1.806211 10 6.176202 1.154532 1.199646e-07 
24.6697 -3.366788 4 -1.225792 6.162456 7.339568e-07 
23.3303 -3.366788 4 1.225792 6.162456 7.348792e-07 
-24.6697 -3.366792 4 1.225792 6.162456 8.260472e-07 
-23.3303 -3.366792 4 -1.225792 6.162456 8.260472e-07 
25.90713 -2.854225 4 -3.49075 5.224277 6.240085e-07 
-22.09287 -2.854229 4 -3.490751 5.224277 7.008566e-07 
22.09287 -2.854225 4 3.49075 5.224277 6.240085e-07 
-25.90713 -2.854229 4 3.490751 5.224277 7.008566e-07 
21.52513 2.474875 8 2.178754 -2.178765 3.534288 
16.67204 2.512907 8 3.066263 0.4621634 3.494917 
16.56848 -0 14 6.28225 -2.273737e-13 0.1084321 
26.85423 -1.907132 4 -5.224269 3.490764 4.174622e-07 
-26.85423 -1.907136 4 5.224269 3.490764 4.944683e-07 
-20.76642 -1.339394 -0 -2.846679 1.179134 -3.534294 
-20.76642 -1.339395 8 -2.846682 1.179136 3.534293 
-21.14577 -1.907136 4 -5.224269 3.490764 4.944683e-07 
21.14577 -1.907132 4 5.224269 3.490764 4.156174e-07 
9.82973 -1e-06 10 -6.283185 0 0 
9.82973 1.837496 0 -3.035521 -0.5674357 -3.511197 
9.82973 1.837494 20 -3.035521 -0.5674369 3.511192 
27.36679 -0.669694 4 -6.162457 1.225783 7.35005e-08 
-27.36679 -0.669699 4 6.162457 1.225783 1.583171e-07 
20.63321 -0.669695 4 6.162457 1.225783 1.501672e-07 
-20.5 -2e-06 8 -3.081228 -6.854534e-07 3.534289 
-20.63321 -0.669699 4 -6.162457 1.225783 8.257285e-08 
-20.5 -2e-06 -0 -3.081228 -1.490116e-07 -3.534289 
-7.497286 15.25748 1e-06 -1.340008 2.841024 -3.109336 
-16.1113 4.969675 8.000001 -2.963134 0.9140058 3.494916 
-16.38343 2.469402 14 -6.212082 0.9363198 0.1084306 
-27.36679 0.669693 4 6.162457 -1.225783 -1.583171e-07 
-20.76642 1.33939 0 -2.846682 -1.179136 -3.534294 
-20.76642 1.339389 8 -2.846683 -1.179137 3.534293 
-20.63321 0.669693 4 -6.162457 -1.225783 -8.165034e-08 
20.63321 0.669697 4 6.162457 -1.225783 -1.492449e-07 
27.23358 1.339394 0 -2.846681 -1.179136 -3.534294 
27.23358 1.339393 8 -2.846683 -1.179137 3.534293 
27.36679 0.669698 4 -6.162457 -1.225784 -7.257813e-08 
-9.66236 1.806205 10 6.176202 -1.154532 -1.187856e-07 
3.705172 16.23343 20 0.6923025 3.033181 2.896704 
-1.244324 16.60434 20 -0.2325 3.102485 2.8967 
-15.91115 4.907935 20 -2.972964 0.9170377 2.896698 
26.85423 1.907134 4 -5.224269 -3.490764 -4.15617e-07 
26.47487 2.474876 0 -2.178754 -2.178759 -3.534288 
-13.93068 9.497777 8.000002 -2.562088 1.746803 3.494916 
-21.52513 2.474871 8 -2.178754 -2.178763 3.534291 
-21.14577 1.90713 4 -5.224269 -3.490764 -4.944679e-07 
-21.52513 2.474872 0 -2.178755 -2.17876 -3.534288 
-26.47487 2.474872 0 2.178753 -2.17876 -3.534309 
26.47487 2.474875 8 -2.178754 -2.178764 3.534288 
-26.85423 1.90713 4 5.224269 -3.490764 -4.944679e-07 
-26.47487 2.474871 8 2.178754 -2.178762 3.534293 
21.14577 1.907134 4 5.224269 -3.490764 -4.174618e-07 
8.502172 5.264321 20 -2.625557 -1.625677 3.511193 
9.16595 3.550909 10 -5.858897 -2.269745 -2.519794e-07 
24 3.500002 1e-06 2.980232e-08 -3.081227 -3.534293 
15.00194 7.224553 20 2.80308 1.349892 2.896699 
8.502172 5.264323 1e-06 -2.625556 -1.625675 -3.511193 
-7.497286 15.25748 8.000003 -1.340011 2.841026 3.109337 
-25.33939 3.233575 8.000001 1.178864 -2.84628 3.534242 
22.66061 3.233579 8.000001 1.179134 -2.846676 3.534291 
-22.66061 3.233575 8.000001 -1.179135 -2.846683 3.534291 
-22.09287 2.854223 4 -3.490751 -5.224278 -6.990119e-07 
25.33939 3.233579 8.000001 -1.179135 -2.846683 3.534291 
-25.90713 2.854223 4 3.490751 -5.224278 -7.008567e-07 
-25.33939 3.233576 1e-06 1.179461 -2.847166 -3.534289 
-10.51226 13.18196 8.000002 -1.933349 2.424333 3.494915 
-22.66061 3.233576 1e-06 -1.179137 -2.846682 -3.534291 
25.90713 2.854227 4 -3.490751 -5.224277 -7.027015e-07 
25.33939 3.23358 1e-06 -1.179136 -2.846682 -3.534292 
22.09287 2.854227 4 3.490751 -5.224277 -7.027014e-07 
15.83239 4.883645 14 6.003148 1.851724 0.1084331 
15.19066 7.315435 8.000001 2.793812 1.345427 3.49492 
24 3.500001 8.000001 -8.940697e-08 -3.081227 3.534292 
23.3303 3.36679 4 1.225792 -6.162456 -8.269699e-07 
-23.3303 3.366786 4 -1.225792 -6.162455 -8.260473e-07 
-24 3.499998 1e-06 0 -3.081227 -3.534293 
24.6697 3.36679 4 -1.225792 -6.162456 -8.269699e-07 
-24 3.499997 8.000001 5.960464e-08 -3.081227 3.534292 
-24.6697 3.366786 4 1.225792 -6.162455 -8.260473e-07 
-7.39009 6.736957 1e-06 2.282134 -2.080439 -3.511193 
-8.357405 5.174684 10 5.342074 -3.307668 -3.364691e-07 
-18.74864 9.728737 4.000001 -2.770991 5.639152 7.081742e-07 
18.74864 9.728741 4.000001 2.770989 5.639153 7.081738e-07 
7.497283 15.25748 8.000003 1.340006 2.841016 3.109578 
12.35952 11.46796 8.000002 2.273118 2.109147 3.494922 
6.026346 7.980173 1e-06 -1.860996 -2.464359 -3.511192 
7.497283 15.25748 1e-06 1.340011 2.841028 -3.109577 
8.430178 14.6015 8.000002 1.550443 2.685442 3.494917 
-14.92769 7.188793 14 -5.66011 2.725767 0.1084303 
-6.083256 15.49988 20 -1.136643 2.896121 2.896705 
-13.75762 9.379782 20 -2.57058 1.752591 2.8967 
7.264257 6.622248 10 -4.643329 -4.232956 -4.558389e-07 
12.20597 11.32549 20 2.280659 2.116143 2.896699 
6.026346 7.980171 20 -1.860996 -2.464359 3.511192 
-5.923738 7.844295 10 3.786463 -5.014091 -5.993132e-07 
-4.457385 8.951629 20 1.376485 -2.764355 3.51119 
-4.457385 8.951632 1e-06 1.376485 -2.764354 -3.511191 
-1e-06 17 2e-06 0 3.081229 -2.748894 
13.68952 9.333359 14 5.190639 3.538916 0.1084344 
8.325447 14.4201 20 1.555594 2.694365 2.896702 
2.736629 9.618256 20 -0.8450987 -2.970214 3.511192 
4.381486 8.799212 10 -2.800656 -5.624477 -4.029111e-07 
2.736629 9.618257 2e-06 -0.8450994 -2.970214 -3.511193 
-0.922684 9.957342 2e-06 0.2849359 -3.074929 -3.511193 
-2.690035 9.454485 10 1.719478 -6.043328 -7.207816e-07 
-0.922684 9.95734 20 0.2849353 -3.074927 3.511193 
6.505618 15.70595 2e-06 0.9537108 2.971857 -2.913231 
-10.38167 13.0182 20 -1.939791 2.432422 2.896697 
-12.14556 11.26943 14 -4.605217 4.273012 0.1084305 
0.906972 9.787798 10 -0.5797389 -6.256382 -4.481849e-07 
10.33028 12.95376 14 3.916915 4.911664 0.1084342 
-8.284241 14.34873 14 -3.141122 5.440589 0.1084339 
-6.159782 15.69487 8.000003 -1.132886 2.886546 3.49492 
6.053144 15.42317 14 2.295168 5.84798 0.1084332 
6.505618 15.70595 8.000003 0.9537083 2.971847 2.913233 
3.751781 16.43764 8.000002 0.6900127 3.023142 -2.788266 
7.00145 15.48172 4.000001 2.589055 5.724963 6.820368e-07 
-6.50562 15.70595 8.000003 -0.953711 2.971856 2.913228 
-7.001452 15.48172 4.000001 -2.589053 5.724965 6.829624e-07 
-3.686836 16.15308 14 -1.397934 6.12474 0.1084367 
-1.259977 16.81322 8.000002 -0.2317276 3.092218 -2.788262 
-3.25281 16.35298 4.000002 -1.22579 6.162456 1.113954e-06 
-1e-06 17 8.000002 2.980232e-08 3.081228 2.748897 
3.252808 16.35298 4.000002 1.22579 6.162455 1.113954e-06 
1.238163 16.52215 14 0.4694705 6.264684 0.1084342 
3 0 1 2 159 166 166 255 
3 3 4 0 159 166 166 255 
3 5 3 0 159 166 166 255 
3 0 4 6 159 166 166 255 
3 0 6 1 159 166 166 255 
3 7 8 5 159 166 166 255 
3 9 0 2 159 166 166 255 
3 9 10 0 159 166 166 255 
3 0 10 7 159 166 166 255 
3 0 7 5 159 166 166 255 
3 5 8 3 159 166 166 255 
3 11 12 13 159 166 166 255 
3 14 15 10 159 166 166 255 
3 10 16 17 159 166 166 255 
3 18 16 9 159 166 166 255 
3 13 12 19 159 166 166 255 
3 9 16 10 159 166 166 255 
3 20 21 22 159 166 166 255 
3 20 22 23 159 166 166 255 
3 20 23 24 159 166 166 255 
3 19 12 20 159 166 166 255 
3 20 24 25 159 166 166 255 
3 19 20 25 159 166 166 255 
3 19 25 26 159 166 166 255 
3 27 28 13 159 166 166 255 
3 19 26 29 159 166 166 255 
3 19 29 30 159 166 166 255 
3 19 30 31 159 166 166 255 
3 32 27 13 159 166 166 255 
3 33 11 34 159 166 166 255 
3 19 31 35 159 166 166 255 
3 34 11 13 159 166 166 255 
3 36 19 35 159 166 166 255 
3 18 9 37 159 166 166 255 
3 9 38 37 159 166 166 255 
3 39 40 15 159 166 166 255 
3 7 15 41 159 166 166 255 
3 42 43 11 159 166 166 255 
3 44 39 15 159 166 166 255 
3 45 44 15 159 166 166 255 
3 14 45 15 159 166 166 255 
3 20 12 11 159 166 166 255 
3 9 2 46 159 166 166 255 
3 9 46 47 159 166 166 255 
3 11 43 21 159 166 166 255 
3 48 14 10 159 166 166 255 
3 49 48 10 159 166 166 255 
3 50 49 10 159 166 166 255 
3 51 50 10 159 166 166 255 
3 52 51 10 159 166 166 255 
3 52 10 17 159 166 166 255 
3 32 13 19 159 166 166 255 
3 33 42 11 159 166 166 255 
3 9 53 38 159 166 166 255 
3 9 47 54 159 166 166 255 
3 28 34 13 159 166 166 255 
3 55 32 19 159 166 166 255 
3 10 15 7 159 166 166 255 
3 11 21 20 159 166 166 255 
3 15 56 41 159 166 166 255 
3 15 57 56 159 166 166 255 
3 15 40 57 159 166 166 255 
3 9 54 53 159 166 166 255 
3 36 55 19 159 166 166 255 
3 41 8 7 159 166 166 255 
3 28 58 34 159 166 166 255 
3 59 60 61 159 166 166 255 
3 61 58 62 159 166 166 255 
3 61 60 34 159 166 166 255 
3 63 59 61 159 166 166 255 
3 34 58 61 159 166 166 255 
3 34 60 33 159 166 166 255 
3 64 61 62 159 166 166 255 
3 64 65 61 159 166 166 255 
3 65 63 61 159 166 166 255 
3 56 8 41 159 166 166 255 
3 62 58 28 159 166 166 255 
3 33 60 59 159 166 166 255 
3 28 66 62 159 166 166 255 
3 63 67 59 159 166 166 255 
3 67 68 59 159 166 166 255 
3 27 66 28 159 166 166 255 
3 69 64 62 159 166 166 255 
3 59 70 33 159 166 166 255 
3 33 70 42 159 166 166 255 
3 62 66 69 159 166 166 255 
3 68 70 59 159 166 166 255 
3 42 71 43 159 166 166 255 
3 72 73 74 159 166 166 255 
3 71 75 43 159 166 166 255 
3 75 76 43 159 166 166 255 
3 74 73 77 159 166 166 255 
3 78 79 80 159 166 166 255 
3 81 78 80 159 166 166 255 
3 82 83 80 159 166 166 255 
3 32 83 84 159 166 166 255 
3 80 83 32 159 166 166 255 
3 81 80 55 159 166 166 255 
3 74 77 21 159 166 166 255 
3 43 72 74 159 166 166 255 
3 32 84 85 159 166 166 255 
3 32 85 27 159 166 166 255 
3 55 80 32 159 166 166 255 
3 79 82 80 159 166 166 255 
3 43 74 21 159 166 166 255 
3 43 76 72 159 166 166 255 
3 17 16 18 159 166 166 255 
3 69 66 27 159 166 166 255 
3 42 70 68 159 166 166 255 
3 77 86 21 159 166 166 255 
3 77 73 86 159 166 166 255 
3 57 8 56 159 166 166 255 
3 87 8 88 159 166 166 255 
3 88 8 57 159 166 166 255 
3 3 8 87 159 166 166 255 
3 42 89 71 159 166 166 255 
3 85 90 27 159 166 166 255 
3 27 90 69 159 166 166 255 
3 69 90 64 159 166 166 255 
3 91 89 68 159 166 166 255 
3 68 89 42 159 166 166 255 
3 67 91 68 159 166 166 255 
3 21 86 92 159 166 166 255 
3 93 94 18 159 166 166 255 
3 55 95 96 159 166 166 255 
3 18 37 97 159 166 166 255 
3 18 97 98 159 166 166 255 
3 18 94 17 159 166 166 255 
3 99 95 36 159 166 166 255 
3 17 94 100 159 166 166 255 
3 40 101 102 159 166 166 255 
3 36 95 55 159 166 166 255 
3 103 55 96 159 166 166 255 
3 57 40 88 159 166 166 255 
3 88 40 87 159 166 166 255 
3 87 40 102 159 166 166 255 
3 36 35 99 159 166 166 255 
3 103 81 55 159 166 166 255 
3 21 92 104 159 166 166 255 
3 105 40 106 159 166 166 255 
3 22 21 107 159 166 166 255 
3 100 52 17 159 166 166 255 
3 106 40 39 159 166 166 255 
3 105 101 40 159 166 166 255 
3 93 18 98 159 166 166 255 
3 107 21 104 159 166 166 255 
3 86 73 108 159 166 166 255 
3 86 108 92 159 166 166 255 
3 108 73 109 159 166 166 255 
3 109 73 72 159 166 166 255 
3 108 109 92 159 166 166 255 
3 2 110 46 159 166 166 255 
3 49 111 48 159 166 166 255 
3 112 110 113 159 166 166 255 
3 113 114 112 159 166 166 255 
3 115 114 113 159 166 166 255 
3 1 116 2 159 166 166 255 
3 2 116 113 159 166 166 255 
3 113 116 115 159 166 166 255 
3 25 117 26 159 166 166 255 
3 48 117 14 159 166 166 255 
3 26 117 48 159 166 166 255 
3 26 111 29 159 166 166 255 
3 113 110 2 159 166 166 255 
3 48 111 26 159 166 166 255 
3 46 110 112 159 166 166 255 
3 115 116 1 159 166 166 255 
3 29 111 49 159 166 166 255 
3 14 117 25 159 166 166 255 
3 64 90 85 159 166 166 255 
3 71 89 91 159 166 166 255 
3 6 118 1 159 166 166 255 
3 112 119 46 159 166 166 255 
3 112 114 120 159 166 166 255 
3 1 118 115 159 166 166 255 
3 115 118 121 159 166 166 255 
3 121 114 115 159 166 166 255 
3 14 122 45 159 166 166 255 
3 29 123 30 159 166 166 255 
3 120 119 112 159 166 166 255 
3 49 123 29 159 166 166 255 
3 25 122 14 159 166 166 255 
3 24 122 25 159 166 166 255 
3 46 119 47 159 166 166 255 
3 50 123 49 159 166 166 255 
3 124 125 126 159 166 166 255 
3 127 128 124 159 166 166 255 
3 124 128 67 159 166 166 255 
3 63 125 67 159 166 166 255 
3 126 125 63 159 166 166 255 
3 67 129 91 159 166 166 255 
3 67 125 124 159 166 166 255 
3 65 130 63 159 166 166 255 
3 67 128 129 159 166 166 255 
3 130 131 63 159 166 166 255 
3 126 131 132 159 166 166 255 
3 126 133 124 159 166 166 255 
3 124 133 127 159 166 166 255 
3 132 133 126 159 166 166 255 
3 63 131 126 159 166 166 255 
3 121 118 6 159 166 166 255 
3 45 122 24 159 166 166 255 
3 47 119 120 159 166 166 255 
3 30 123 50 159 166 166 255 
3 84 83 82 159 166 166 255 
3 3 87 134 159 166 166 255 
3 134 87 135 159 166 166 255 
3 136 87 137 159 166 166 255 
3 137 87 138 159 166 166 255 
3 87 102 139 159 166 166 255 
3 138 87 140 159 166 166 255 
3 140 87 139 159 166 166 255 
3 135 87 136 159 166 166 255 
3 72 141 109 159 166 166 255 
3 109 141 92 159 166 166 255 
3 76 142 72 159 166 166 255 
3 143 4 3 159 166 166 255 
3 3 144 143 159 166 166 255 
3 72 142 141 159 166 166 255 
3 3 134 144 159 166 166 255 
3 100 94 93 159 166 166 255 
3 96 95 99 159 166 166 255 
3 23 145 24 159 166 166 255 
3 24 145 45 159 166 166 255 
3 146 147 120 159 166 166 255 
3 134 121 4 159 166 166 255 
3 45 145 44 159 166 166 255 
3 120 147 47 159 166 166 255 
3 148 114 121 159 166 166 255 
3 134 148 121 159 166 166 255 
3 4 121 6 159 166 166 255 
3 120 114 146 159 166 166 255 
3 50 149 30 159 166 166 255 
3 47 147 54 159 166 166 255 
3 30 149 31 159 166 166 255 
3 51 149 50 159 166 166 255 
3 150 151 141 159 166 166 255 
3 142 150 141 159 166 166 255 
3 141 151 92 159 166 166 255 
3 71 152 75 159 166 166 255 
3 64 153 65 159 166 166 255 
3 154 155 91 159 166 166 255 
3 85 153 64 159 166 166 255 
3 129 154 91 159 166 166 255 
3 84 156 85 159 166 166 255 
3 156 153 85 159 166 166 255 
3 155 152 91 159 166 166 255 
3 91 152 71 159 166 166 255 
3 144 4 143 159 166 166 255 
3 134 4 144 159 166 166 255 
3 44 145 23 159 166 166 255 
3 31 149 51 159 166 166 255 
3 54 147 146 159 166 166 255 
3 129 128 127 159 166 166 255 
3 132 131 130 159 166 166 255 
3 54 157 158 159 166 166 255 
3 22 159 23 159 166 166 255 
3 23 159 44 159 166 166 255 
3 160 114 148 159 166 166 255 
3 51 161 31 159 166 166 255 
3 162 157 146 159 166 166 255 
3 146 157 54 159 166 166 255 
3 54 158 53 159 166 166 255 
3 31 161 163 159 166 166 255 
3 146 114 162 159 166 166 255 
3 52 164 51 159 166 166 255 
3 31 163 35 159 166 166 255 
3 44 159 39 159 166 166 255 
3 164 161 51 159 166 166 255 
3 136 160 148 159 166 166 255 
3 135 148 134 159 166 166 255 
3 136 148 135 159 166 166 255 
3 75 152 155 159 166 166 255 
3 65 153 156 159 166 166 255 
3 101 165 166 159 166 166 255 
3 92 167 168 159 166 166 255 
3 151 169 167 159 166 166 255 
3 101 166 170 159 166 166 255 
3 102 101 171 159 166 166 255 
3 171 101 170 159 166 166 255 
3 102 171 172 159 166 166 255 
3 102 172 173 159 166 166 255 
3 92 151 167 159 166 166 255 
3 102 173 174 159 166 166 255 
3 101 175 176 159 166 166 255 
3 177 178 151 159 166 166 255 
3 150 177 151 159 166 166 255 
3 179 103 96 159 166 166 255 
3 179 96 99 159 166 166 255 
3 35 179 99 159 166 166 255 
3 180 52 100 159 166 166 255 
3 181 180 100 159 166 166 255 
3 182 181 100 159 166 166 255 
3 98 100 93 159 166 166 255 
3 182 100 98 159 166 166 255 
3 101 176 165 159 166 166 255 
3 151 178 169 159 166 166 255 
3 183 101 105 159 166 166 255 
3 104 92 184 159 166 166 255 
3 183 175 101 159 166 166 255 
3 102 174 139 159 166 166 255 
3 92 168 184 159 166 166 255 
3 158 157 162 159 166 166 255 
3 163 161 164 159 166 166 255 
3 39 159 22 159 166 166 255 
3 164 185 163 159 166 166 255 
3 22 186 39 159 166 166 255 
3 187 142 76 159 166 166 255 
3 188 185 164 159 166 166 255 
3 107 186 22 159 166 166 255 
3 39 186 106 159 166 166 255 
3 82 189 84 159 166 166 255 
3 163 185 190 159 166 166 255 
3 82 191 189 159 166 166 255 
3 187 150 142 159 166 166 255 
3 52 188 164 159 166 166 255 
3 162 192 158 159 166 166 255 
3 137 160 136 159 166 166 255 
3 138 160 137 159 166 166 255 
3 155 193 75 159 166 166 255 
3 65 194 130 159 166 166 255 
3 162 114 195 159 166 166 255 
3 127 196 129 159 166 166 255 
3 129 196 154 159 166 166 255 
3 195 114 197 159 166 166 255 
3 197 114 198 159 166 166 255 
3 198 114 199 159 166 166 255 
3 199 114 200 159 166 166 255 
3 200 114 201 159 166 166 255 
3 156 202 65 159 166 166 255 
3 203 202 156 159 166 166 255 
3 194 204 130 159 166 166 255 
3 65 202 194 159 166 166 255 
3 201 114 205 159 166 166 255 
3 205 114 160 159 166 166 255 
3 158 192 53 159 166 166 255 
3 79 191 82 159 166 166 255 
3 75 193 206 159 166 166 255 
3 189 203 156 159 166 166 255 
3 163 190 35 159 166 166 255 
3 207 193 155 159 166 166 255 
3 127 133 208 159 166 166 255 
3 130 209 132 159 166 166 255 
3 132 209 210 159 166 166 255 
3 211 209 130 159 166 166 255 
3 140 205 160 159 166 166 255 
3 208 196 127 159 166 166 255 
3 204 211 130 159 166 166 255 
3 140 160 138 159 166 166 255 
3 75 206 76 159 166 166 255 
3 208 133 210 159 166 166 255 
3 210 133 132 159 166 166 255 
3 206 187 76 159 166 166 255 
3 154 212 155 159 166 166 255 
3 212 207 155 159 166 166 255 
3 84 189 156 159 166 166 255 
3 162 195 192 159 166 166 255 
3 190 185 188 159 166 166 255 
3 106 186 107 159 166 166 255 
3 192 195 213 159 166 166 255 
3 53 192 213 159 166 166 255 
3 206 193 207 159 166 166 255 
3 194 202 203 159 166 166 255 
3 53 213 214 159 166 166 255 
3 53 214 215 159 166 166 255 
3 38 53 215 159 166 166 255 
3 37 38 215 159 166 166 255 
3 191 216 189 159 166 166 255 
3 217 216 191 159 166 166 255 
3 217 191 79 159 166 166 255 
3 217 79 78 159 166 166 255 
3 97 37 215 159 166 166 255 
3 217 78 81 159 166 166 255 
3 98 97 215 159 166 166 255 
3 103 217 81 159 166 166 255 
3 213 218 214 159 166 166 255 
3 195 218 213 159 166 166 255 
3 219 220 188 159 166 166 255 
3 188 220 190 159 166 166 255 
3 221 205 222 159 166 166 255 
3 106 223 105 159 166 166 255 
3 104 223 107 159 166 166 255 
3 107 223 106 159 166 166 255 
3 197 218 195 159 166 166 255 
3 190 224 35 159 166 166 255 
3 222 205 140 159 166 166 255 
3 190 220 224 159 166 166 255 
3 52 219 188 159 166 166 255 
3 221 201 205 159 166 166 255 
3 139 222 140 159 166 166 255 
3 225 182 98 159 166 166 255 
3 179 226 103 159 166 166 255 
3 226 217 103 159 166 166 255 
3 215 225 98 159 166 166 255 
3 187 177 150 159 166 166 255 
3 154 196 208 159 166 166 255 
3 210 209 211 159 166 166 255 
3 227 228 178 159 166 166 255 
3 229 227 178 159 166 166 255 
3 230 174 231 159 166 166 255 
3 230 232 174 159 166 166 255 
3 233 178 177 159 166 166 255 
3 178 228 234 159 166 166 255 
3 235 178 233 159 166 166 255 
3 174 232 139 159 166 166 255 
3 174 173 231 159 166 166 255 
3 178 234 169 159 166 166 255 
3 229 178 235 159 166 166 255 
3 214 236 215 159 166 166 255 
3 214 218 236 159 166 166 255 
3 187 233 177 159 166 166 255 
3 237 222 139 159 166 166 255 
3 139 232 237 159 166 166 255 
3 236 218 197 159 166 166 255 
3 224 220 219 159 166 166 255 
3 105 223 104 159 166 166 255 
3 221 222 238 159 166 166 255 
3 239 238 237 159 166 166 255 
3 238 222 237 159 166 166 255 
3 237 232 240 159 166 166 255 
3 241 239 237 159 166 166 255 
3 241 237 240 159 166 166 255 
3 242 243 207 159 166 166 255 
3 189 244 203 159 166 166 255 
3 243 245 207 159 166 166 255 
3 244 246 203 159 166 166 255 
3 212 242 207 159 166 166 255 
3 247 187 206 159 166 166 255 
3 206 245 247 159 166 166 255 
3 203 248 194 159 166 166 255 
3 246 248 203 159 166 166 255 
3 194 248 204 159 166 166 255 
3 207 245 206 159 166 166 255 
3 197 249 236 159 166 166 255 
3 236 249 250 159 166 166 255 
3 236 250 215 159 166 166 255 
3 251 221 238 159 166 166 255 
3 251 252 221 159 166 166 255 
3 221 252 201 159 166 166 255 
3 201 252 200 159 166 166 255 
3 52 253 219 159 166 166 255 
3 253 254 219 159 166 166 255 
3 104 255 105 159 166 166 255 
3 219 254 224 159 166 166 255 
3 224 256 35 159 166 166 255 
3 224 254 256 159 166 166 255 
3 105 255 183 159 166 166 255 
3 184 255 104 159 166 166 255 
3 198 249 197 159 166 166 255 
3 257 258 216 159 166 166 255 
3 216 258 189 159 166 166 255 
3 217 257 216 159 166 166 255 
3 259 251 238 159 166 166 255 
3 259 252 251 159 166 166 255 
3 250 249 260 159 166 166 255 
3 250 260 215 159 166 166 255 
3 261 233 187 159 166 166 255 
3 189 258 244 159 166 166 255 
3 262 187 247 159 166 166 255 
3 262 261 187 159 166 166 255 
3 261 235 233 159 166 166 255 
3 261 229 235 159 166 166 255 
3 263 252 259 159 166 166 255 
3 200 252 263 159 166 166 255 
3 183 255 184 159 166 166 255 
3 256 254 253 159 166 166 255 
3 217 264 257 159 166 166 255 
3 264 258 257 159 166 166 255 
3 265 249 198 159 166 166 255 
3 266 249 265 159 166 166 255 
3 260 249 266 159 166 166 255 
3 260 266 215 159 166 166 255 
3 267 154 211 159 166 166 255 
3 204 267 211 159 166 166 255 
3 208 268 154 159 166 166 255 
3 210 268 208 159 166 166 255 
3 267 212 154 159 166 166 255 
3 211 268 210 159 166 166 255 
3 154 268 211 159 166 166 255 
3 240 232 230 159 166 166 255 
3 269 258 264 159 166 166 255 
3 270 264 217 159 166 166 255 
3 270 269 264 159 166 166 255 
3 259 238 263 159 166 166 255 
3 271 270 217 159 166 166 255 
3 226 271 217 159 166 166 255 
3 266 265 215 159 166 166 255 
3 263 238 272 159 166 166 255 
3 263 273 200 159 166 166 255 
3 272 273 263 159 166 166 255 
3 265 274 275 159 166 166 255 
3 198 274 265 159 166 166 255 
3 265 275 215 159 166 166 255 
3 199 274 198 159 166 166 255 
3 184 276 183 159 166 166 255 
3 277 184 35 159 166 166 255 
3 278 279 253 159 166 166 255 
3 183 276 278 159 166 166 255 
3 256 277 35 159 166 166 255 
3 200 273 199 159 166 166 255 
3 277 276 184 159 166 166 255 
3 52 175 183 159 166 166 255 
3 184 168 35 159 166 166 255 
3 52 183 278 159 166 166 255 
3 253 279 256 159 166 166 255 
3 256 279 277 159 166 166 255 
3 52 278 253 159 166 166 255 
3 247 245 243 159 166 166 255 
3 204 248 246 159 166 166 255 
3 277 279 278 159 166 166 255 
3 278 276 277 159 166 166 255 
3 272 238 280 159 166 166 255 
3 280 273 272 159 166 166 255 
3 199 273 281 159 166 166 255 
3 281 273 280 159 166 166 255 
3 275 274 282 159 166 166 255 
3 281 274 199 159 166 166 255 
3 282 274 281 159 166 166 255 
3 275 282 215 159 166 166 255 
3 280 238 215 159 166 166 255 
3 281 280 215 159 166 166 255 
3 282 281 215 159 166 166 255 
3 244 258 283 159 166 166 255 
3 283 258 269 159 166 166 255 
3 261 227 229 159 166 166 255 
3 284 262 247 159 166 166 255 
3 246 285 204 159 166 166 255 
3 286 285 246 159 166 166 255 
3 244 286 246 159 166 166 255 
3 243 287 247 159 166 166 255 
3 247 287 284 159 166 166 255 
3 204 285 267 159 166 166 255 
3 242 287 243 159 166 166 255 
3 288 228 289 159 166 166 255 
3 289 228 290 159 166 166 255 
3 291 292 228 159 166 166 255 
3 293 240 294 159 166 166 255 
3 295 230 296 159 166 166 255 
3 288 291 228 159 166 166 255 
3 295 297 230 159 166 166 255 
3 230 231 298 159 166 166 255 
3 261 290 227 159 166 166 255 
3 290 228 227 159 166 166 255 
3 240 297 294 159 166 166 255 
3 230 297 240 159 166 166 255 
3 228 292 299 159 166 166 255 
3 228 299 300 159 166 166 255 
3 241 240 293 159 166 166 255 
3 228 300 301 159 166 166 255 
3 228 301 302 159 166 166 255 
3 228 303 304 159 166 166 255 
3 228 305 303 159 166 166 255 
3 296 230 298 159 166 166 255 
3 228 302 306 159 166 166 255 
3 228 304 234 159 166 166 255 
3 228 306 307 159 166 166 255 
3 228 307 305 159 166 166 255 
3 270 283 269 159 166 166 255 
3 270 308 283 159 166 166 255 
3 283 309 244 159 166 166 255 
3 308 309 283 159 166 166 255 
3 310 290 261 159 166 166 255 
3 310 289 290 159 166 166 255 
3 244 311 286 159 166 166 255 
3 262 312 261 159 166 166 255 
3 312 310 261 159 166 166 255 
3 244 309 311 159 166 166 255 
3 284 287 242 159 166 166 255 
3 267 285 286 159 166 166 255 
3 238 313 215 159 166 166 255 
3 314 315 238 159 166 166 255 
3 239 314 238 159 166 166 255 
3 315 313 238 159 166 166 255 
3 310 288 289 159 166 166 255 
3 270 316 308 159 166 166 255 
3 316 309 308 159 166 166 255 
3 215 313 225 159 166 166 255 
3 311 317 286 159 166 166 255 
3 212 318 242 159 166 166 255 
3 319 262 284 159 166 166 255 
3 242 318 284 159 166 166 255 
3 284 318 317 159 166 166 255 
3 317 320 286 159 166 166 255 
3 267 320 212 159 166 166 255 
3 319 284 317 159 166 166 255 
3 286 320 267 159 166 166 255 
3 321 309 316 159 166 166 255 
3 311 309 321 159 166 166 255 
3 212 320 317 159 166 166 255 
3 317 318 212 159 166 166 255 
3 311 319 317 159 166 166 255 
3 270 321 316 159 166 166 255 
3 322 288 310 159 166 166 255 
3 312 322 310 159 166 166 255 
3 322 323 288 159 166 166 255 
3 324 325 288 159 166 166 255 
3 326 327 288 159 166 166 255 
3 328 329 288 159 166 166 255 
3 325 326 288 159 166 166 255 
3 327 291 288 159 166 166 255 
3 323 328 288 159 166 166 255 
3 329 324 288 159 166 166 255 
3 330 331 321 159 166 166 255 
3 321 331 311 159 166 166 255 
3 270 330 321 159 166 166 255 
3 262 332 312 159 166 166 255 
3 312 332 333 159 166 166 255 
3 333 322 312 159 166 166 255 
3 311 331 319 159 166 166 255 
3 319 332 262 159 166 166 255 
3 319 331 334 159 166 166 255 
3 334 331 330 159 166 166 255 
3 333 332 334 159 166 166 255 
3 334 332 319 159 166 166 255 
3 270 334 330 159 166 166 255 
3 334 322 333 159 166 166 255 
3 270 322 334 159 166 166 255 
3 167 335 168 159 166 166 255 
3 168 335 35 159 166 166 255 
3 35 335 179 159 166 166 255 
3 180 336 52 159 166 166 255 
3 52 336 175 159 166 166 255 
3 175 336 176 159 166 166 255 
3 179 335 167 159 166 166 255 
3 167 337 179 159 166 166 255 
3 169 337 167 159 166 166 255 
3 179 337 226 159 166 166 255 
3 176 336 180 159 166 166 255 
3 180 338 176 159 166 166 255 
3 181 338 180 159 166 166 255 
3 176 338 165 159 166 166 255 
3 270 339 322 159 166 166 255 
3 322 339 323 159 166 166 255 
3 226 337 169 159 166 166 255 
3 340 339 270 159 166 166 255 
3 341 340 270 159 166 166 255 
3 342 341 270 159 166 166 255 
3 271 342 270 159 166 166 255 
3 225 313 315 159 166 166 255 
3 226 343 271 159 166 166 255 
3 234 343 169 159 166 166 255 
3 169 343 226 159 166 166 255 
3 165 338 181 159 166 166 255 
3 294 297 295 159 166 166 255 
3 344 345 181 159 166 166 255 
3 182 344 181 159 166 166 255 
3 181 345 165 159 166 166 255 
3 165 345 166 159 166 166 255 
3 271 343 234 159 166 166 255 
3 315 346 225 159 166 166 255 
3 347 348 315 159 166 166 255 
3 349 346 315 159 166 166 255 
3 314 347 315 159 166 166 255 
3 348 349 315 159 166 166 255 
3 225 346 182 159 166 166 255 
3 323 339 340 159 166 166 255 
3 271 350 342 159 166 166 255 
3 234 350 271 159 166 166 255 
3 304 350 234 159 166 166 255 
3 166 345 344 159 166 166 255 
3 166 351 352 159 166 166 255 
3 170 166 352 159 166 166 255 
3 182 353 344 159 166 166 255 
3 344 354 166 159 166 166 255 
3 166 354 351 159 166 166 255 
3 355 354 344 159 166 166 255 
3 353 355 344 159 166 166 255 
3 342 350 304 159 166 166 255 
3 340 356 323 159 166 166 255 
3 323 356 328 159 166 166 255 
3 357 356 340 159 166 166 255 
3 341 358 340 159 166 166 255 
3 359 357 340 159 166 166 255 
3 358 359 340 159 166 166 255 
3 182 346 349 159 166 166 255 
3 360 291 327 159 166 166 255 
3 299 292 361 159 166 166 255 
3 294 362 363 159 166 166 255 
3 294 364 362 159 166 166 255 
3 292 365 361 159 166 166 255 
3 294 363 366 159 166 166 255 
3 367 368 291 159 166 166 255 
3 368 369 291 159 166 166 255 
3 292 370 365 159 166 166 255 
3 295 371 372 159 166 166 255 
3 373 374 295 159 166 166 255 
3 295 296 371 159 166 166 255 
3 294 375 364 159 166 166 255 
3 295 375 294 159 166 166 255 
3 374 375 295 159 166 166 255 
3 291 376 292 159 166 166 255 
3 369 376 291 159 166 166 255 
3 377 373 295 159 166 166 255 
3 292 376 378 159 166 166 255 
3 372 377 295 159 166 166 255 
3 292 378 370 159 166 166 255 
3 360 367 291 159 166 166 255 
3 366 379 294 159 166 166 255 
3 379 293 294 159 166 166 255 
3 303 380 304 159 166 166 255 
3 304 380 342 159 166 166 255 
3 342 380 341 159 166 166 255 
3 351 354 355 159 166 166 255 
3 296 381 371 159 166 166 255 
3 293 381 296 159 166 166 255 
3 296 382 293 159 166 166 255 
3 300 383 301 159 166 166 255 
3 325 383 326 159 166 166 255 
3 379 381 293 159 166 166 255 
3 324 384 325 159 166 166 255 
3 293 382 241 159 166 166 255 
3 298 382 296 159 166 166 255 
3 325 384 301 159 166 166 255 
3 301 383 325 159 166 166 255 
3 301 384 302 159 166 166 255 
3 302 384 324 159 166 166 255 
3 371 381 379 159 166 166 255 
3 241 382 298 159 166 166 255 
3 326 383 300 159 166 166 255 
3 366 385 379 159 166 166 255 
3 329 386 324 159 166 166 255 
3 302 386 306 159 166 166 255 
3 324 386 302 159 166 166 255 
3 379 385 371 159 166 166 255 
3 371 385 372 159 166 166 255 
3 231 387 298 159 166 166 255 
3 299 388 300 159 166 166 255 
3 241 387 239 159 166 166 255 
3 298 387 241 159 166 166 255 
3 326 388 327 159 166 166 255 
3 300 388 326 159 166 166 255 
3 306 386 329 159 166 166 255 
3 372 385 366 159 166 166 255 
3 327 388 299 159 166 166 255 
3 239 387 231 159 166 166 255 
3 389 349 348 159 166 166 255 
3 390 391 349 159 166 166 255 
3 349 391 182 159 166 166 255 
3 389 390 349 159 166 166 255 
3 182 391 353 159 166 166 255 
3 372 392 377 159 166 166 255 
3 366 392 372 159 166 166 255 
3 299 393 327 159 166 166 255 
3 306 394 307 159 166 166 255 
3 361 393 299 159 166 166 255 
3 395 396 329 159 166 166 255 
3 327 393 360 159 166 166 255 
3 363 392 366 159 166 166 255 
3 328 395 329 159 166 166 255 
3 329 396 306 159 166 166 255 
3 306 396 394 159 166 166 255 
3 173 397 231 159 166 166 255 
3 239 397 314 159 166 166 255 
3 231 397 239 159 166 166 255 
3 328 356 357 159 166 166 255 
3 360 393 361 159 166 166 255 
3 377 392 363 159 166 166 255 
3 394 396 395 159 166 166 255 
3 314 397 173 159 166 166 255 
3 351 398 399 159 166 166 255 
3 351 399 352 159 166 166 255 
3 400 398 355 159 166 166 255 
3 355 398 351 159 166 166 255 
3 353 400 355 159 166 166 255 
3 341 380 303 159 166 166 255 
3 377 401 373 159 166 166 255 
3 365 402 361 159 166 166 255 
3 361 402 360 159 166 166 255 
3 314 403 347 159 166 166 255 
3 172 403 173 159 166 166 255 
3 173 403 314 159 166 166 255 
3 360 402 367 159 166 166 255 
3 363 401 377 159 166 166 255 
3 404 405 395 159 166 166 255 
3 394 406 407 159 166 166 255 
3 328 404 395 159 166 166 255 
3 362 401 363 159 166 166 255 
3 394 407 307 159 166 166 255 
3 394 405 406 159 166 166 255 
3 395 405 394 159 166 166 255 
3 347 403 172 159 166 166 255 
3 406 405 404 159 166 166 255 
3 367 402 365 159 166 166 255 
3 373 401 362 159 166 166 255 
3 328 408 404 159 166 166 255 
3 357 409 328 159 166 166 255 
3 328 409 408 159 166 166 255 
3 367 410 368 159 166 166 255 
3 365 410 367 159 166 166 255 
3 370 410 365 159 166 166 255 
3 406 411 407 159 166 166 255 
3 408 412 404 159 166 166 255 
3 404 413 406 159 166 166 255 
3 412 413 404 159 166 166 255 
3 406 413 411 159 166 166 255 
3 378 376 369 159 166 166 255 
3 364 375 374 159 166 166 255 
3 399 398 400 159 166 166 255 
3 353 391 390 159 166 166 255 
3 172 414 347 159 166 166 255 
3 347 414 348 159 166 166 255 
3 171 414 172 159 166 166 255 
3 373 415 374 159 166 166 255 
3 364 416 362 159 166 166 255 
3 362 417 373 159 166 166 255 
3 416 417 362 159 166 166 255 
3 373 417 415 159 166 166 255 
3 305 418 303 159 166 166 255 
3 303 418 341 159 166 166 255 
3 341 418 358 159 166 166 255 
3 419 420 357 159 166 166 255 
3 420 421 357 159 166 166 255 
3 421 409 357 159 166 166 255 
3 419 357 359 159 166 166 255 
3 348 414 171 159 166 166 255 
3 415 417 416 159 166 166 255 
3 411 413 412 159 166 166 255 
3 368 410 370 159 166 166 255 
3 416 422 415 159 166 166 255 
3 415 422 423 159 166 166 255 
3 424 425 412 159 166 166 255 
3 411 426 427 159 166 166 255 
3 370 378 428 159 166 166 255 
3 429 422 416 159 166 166 255 
3 412 426 411 159 166 166 255 
3 415 423 374 159 166 166 255 
3 370 430 368 159 166 166 255 
3 428 430 370 159 166 166 255 
3 425 426 412 159 166 166 255 
3 368 430 431 159 166 166 255 
3 348 432 389 159 166 166 255 
3 170 432 171 159 166 166 255 
3 408 424 412 159 166 166 255 
3 171 432 348 159 166 166 255 
3 411 427 407 159 166 166 255 
3 431 369 368 159 166 166 255 
3 364 429 416 159 166 166 255 
3 358 418 305 159 166 166 255 
3 433 434 400 159 166 166 255 
3 352 399 435 159 166 166 255 
3 436 433 400 159 166 166 255 
3 400 434 399 159 166 166 255 
3 353 436 400 159 166 166 255 
3 399 437 435 159 166 166 255 
3 399 434 437 159 166 166 255 
3 389 432 170 159 166 166 255 
3 431 430 428 159 166 166 255 
3 423 422 429 159 166 166 255 
3 427 426 425 159 166 166 255 
3 408 409 421 159 166 166 255 
3 438 431 439 159 166 166 255 
3 440 390 389 159 166 166 255 
3 438 369 431 159 166 166 255 
3 441 442 425 159 166 166 255 
3 364 443 429 159 166 166 255 
3 431 444 439 159 166 166 255 
3 445 444 428 159 166 166 255 
3 428 444 431 159 166 166 255 
3 446 441 425 159 166 166 255 
3 427 442 447 159 166 166 255 
3 425 442 427 159 166 166 255 
3 443 448 429 159 166 166 255 
3 429 448 423 159 166 166 255 
3 423 448 449 159 166 166 255 
3 428 378 407 159 166 166 255 
3 445 428 407 159 166 166 255 
3 389 450 440 159 166 166 255 
3 352 450 170 159 166 166 255 
3 427 447 407 159 166 166 255 
3 170 450 389 159 166 166 255 
3 423 449 374 159 166 166 255 
3 446 425 424 159 166 166 255 
3 390 451 353 159 166 166 255 
3 353 451 436 159 166 166 255 
3 452 451 390 159 166 166 255 
3 453 390 440 159 166 166 255 
3 453 452 390 159 166 166 255 
3 439 444 445 159 166 166 255 
3 447 442 441 159 166 166 255 
3 449 448 443 159 166 166 255 
3 440 450 352 159 166 166 255 
3 440 454 453 159 166 166 255 
3 447 455 456 159 166 166 255 
3 435 454 352 159 166 166 255 
3 443 457 449 159 166 166 255 
3 446 458 441 159 166 166 255 
3 439 459 458 159 166 166 255 
3 446 439 458 159 166 166 255 
3 438 439 446 159 166 166 255 
3 364 453 443 159 166 166 255 
3 458 455 441 159 166 166 255 
3 441 455 447 159 166 166 255 
3 449 435 374 159 166 166 255 
3 445 459 439 159 166 166 255 
3 453 457 443 159 166 166 255 
3 449 457 435 159 166 166 255 
3 456 459 445 159 166 166 255 
3 352 454 440 159 166 166 255 
3 456 445 407 159 166 166 255 
3 447 456 407 159 166 166 255 
3 453 454 435 159 166 166 255 
3 456 455 458 159 166 166 255 
3 458 459 456 159 166 166 255 
3 435 457 453 159 166 166 255 
3 364 452 453 159 166 166 255 
3 435 437 374 159 166 166 255 
3 437 434 433 159 166 166 255 
3 460 461 305 159 166 166 255 
3 305 307 460 159 166 166 255 
3 305 461 358 159 166 166 255 
3 358 461 359 159 166 166 255 
3 378 462 407 159 166 166 255 
3 364 463 464 159 166 166 255 
3 364 465 452 159 166 166 255 
3 438 462 369 159 166 166 255 
3 369 462 378 159 166 166 255 
3 466 467 374 159 166 166 255 
3 467 463 374 159 166 166 255 
3 437 466 374 159 166 166 255 
3 364 468 465 159 166 166 255 
3 374 463 364 159 166 166 255 
3 364 464 468 159 166 166 255 
3 436 451 452 159 166 166 255 
3 421 469 408 159 166 166 255 
3 470 471 421 159 166 166 255 
3 420 470 421 159 166 166 255 
3 471 469 421 159 166 166 255 
3 408 469 424 159 166 166 255 
3 359 461 460 159 166 166 255 
3 433 472 437 159 166 166 255 
3 473 474 433 159 166 166 255 
3 436 473 433 159 166 166 255 
3 437 472 466 159 166 166 255 
3 474 472 433 159 166 166 255 
3 466 472 474 159 166 166 255 
3 359 475 476 159 166 166 255 
3 477 475 460 159 166 166 255 
3 460 478 477 159 166 166 255 
3 460 475 359 159 166 166 255 
3 419 359 476 159 166 166 255 
3 460 307 478 159 166 166 255 
3 424 469 471 159 166 166 255 
3 436 479 473 159 166 166 255 
3 452 479 436 159 166 166 255 
3 465 479 452 159 166 166 255 
3 476 475 477 159 166 166 255 
3 480 481 474 159 166 166 255 
3 474 482 466 159 166 166 255 
3 466 483 467 159 166 166 255 
3 473 480 474 159 166 166 255 
3 481 482 474 159 166 166 255 
3 466 482 483 159 166 166 255 
3 483 482 481 159 166 166 255 
3 484 485 477 159 166 166 255 
3 477 485 476 159 166 166 255 
3 476 485 486 159 166 166 255 
3 419 476 486 159 166 166 255 
3 477 478 487 159 166 166 255 
3 484 477 487 159 166 166 255 
3 473 479 465 159 166 166 255 
3 488 489 471 159 166 166 255 
3 470 488 471 159 166 166 255 
3 471 489 424 159 166 166 255 
3 486 485 484 159 166 166 255 
3 424 489 446 159 166 166 255 
3 483 487 467 159 166 166 255 
3 480 486 481 159 166 166 255 
3 483 484 487 159 166 166 255 
3 483 490 484 159 166 166 255 
3 486 490 481 159 166 166 255 
3 481 490 483 159 166 166 255 
3 407 462 438 159 166 166 255 
3 464 463 467 159 166 166 255 
3 484 490 486 159 166 166 255 
3 480 419 486 159 166 166 255 
3 446 489 488 159 166 166 255 
3 465 491 473 159 166 166 255 
3 473 491 480 159 166 166 255 
3 468 491 465 159 166 166 255 
3 480 491 468 159 166 166 255 
3 488 492 446 159 166 166 255 
3 470 492 488 159 166 166 255 
3 438 446 493 159 166 166 255 
3 446 492 493 159 166 166 255 
3 493 492 470 159 166 166 255 
3 480 494 419 159 166 166 255 
3 468 494 480 159 166 166 255 
3 464 495 468 159 166 166 255 
3 496 494 468 159 166 166 255 
3 495 496 468 159 166 166 255 
3 467 497 464 159 166 166 255 
3 498 438 493 159 166 166 255 
3 464 497 495 159 166 166 255 
3 498 499 438 159 166 166 255 
3 487 497 467 159 166 166 255 
3 407 499 307 159 166 166 255 
3 438 499 407 159 166 166 255 
3 419 494 496 159 166 166 255 
3 307 499 498 159 166 166 255 
3 495 497 487 159 166 166 255 
3 420 500 470 159 166 166 255 
3 470 500 493 159 166 166 255 
3 493 500 501 159 166 166 255 
3 501 498 493 159 166 166 255 
3 307 502 478 159 166 166 255 
3 503 498 501 159 166 166 255 
3 495 504 503 159 166 166 255 
3 478 504 487 159 166 166 255 
3 487 504 495 159 166 166 255 
3 498 502 307 159 166 166 255 
3 495 503 496 159 166 166 255 
3 503 502 498 159 166 166 255 
3 501 500 420 159 166 166 255 
3 496 505 419 159 166 166 255 
3 419 505 420 159 166 166 255 
3 503 504 478 159 166 166 255 
3 478 502 503 159 166 166 255 
3 503 501 496 159 166 166 255 
3 501 505 496 159 166 166 255 
3 420 505 501 159 166 166 255 
