ply
format ascii 1.0
comment VCGLIB generated
element vertex 508
property float x
property float y
property float z
property float nx
property float ny
property float nz
element face 1036
property list uchar int vertex_indices
property uchar red
property uchar green
property uchar blue
property uchar alpha
end_header
25 -50 -7e-06 1.570798 -1.570796 -1.570802 
25 -1e-06 1e-06 1.570796 1.570796 -1.570793 
25 -31 14 4.712389 1.570797 1.570795 
25 -34.8708 26.74999 3.403438 -2.697432 1.557322 
25 -35.9038 25.40379 3.403369 -2.202439 2.20244 
25 -37.25 24.37079 3.403438 -1.557323 2.697433 
25 -38.8177 23.72149 3.403346 -0.8061178 3.008603 
25 -40.5 23.49999 3.403416 -1.773238e-06 3.114711 
25 -42.1823 23.72149 3.403347 0.806116 3.008603 
25 -43.75 24.37079 3.403438 1.557322 2.697432 
25 -45.0962 25.40379 3.403369 2.202439 2.20244 
25 -46.1292 26.74999 3.403438 2.697432 1.557322 
25 -46.7785 28.31769 3.403345 3.008603 0.8061177 
25 -47 29.99999 3.403417 3.114712 0 
25 -48.00001 39.99999 2.356196 -1.110721 2.681517 
25 -50.00001 37.99999 2.356194 -2.681517 1.110721 
25 -33.00001 40 2.356195 1.11072 2.681518 
25 -38.81771 36.27849 3.403346 -0.8061178 -3.008603 
25 -37.25001 35.62919 3.403437 -1.557322 -2.697433 
25 -35.9038 34.59619 3.403368 -2.202437 -2.202443 
25 -34.8708 33.25 3.40344 -2.697431 -1.557324 
25 -34.2215 31.68229 3.403345 -3.008603 -0.8061171 
25 -34 29.99999 3.403418 -3.114711 -4.470348e-08 
25 -31.00001 38 2.356194 2.681517 1.110722 
25 -34.2215 28.31769 3.403345 -3.008603 0.8061178 
25 -46.7785 31.68229 3.403345 3.008602 -0.8061174 
25 -46.1292 33.24999 3.403438 2.697432 -1.557323 
25 -45.0962 34.59619 3.403366 2.202442 -2.202438 
25 -43.75001 35.62919 3.40344 1.557325 -2.697431 
25 -42.18231 36.27849 3.403345 0.8061174 -3.008602 
25 -40.50001 36.49999 3.403417 0 -3.114711 
25 -3e-06 14 1.570796 1.570796 1.570795 
-25 -48.00001 39.99999 -2.356196 -1.110721 2.681517 
-25 -33.00001 40 -2.356196 1.11072 2.681518 
-25 -38.81771 36.27849 -3.403346 -0.8061178 -3.008603 
-25 -40.50001 36.49999 -3.403417 0 -3.114711 
-25 -42.18231 36.27849 -3.403345 0.8061176 -3.008603 
-25 -43.75001 35.62919 -3.40344 1.557326 -2.697431 
-25 -45.0962 34.59619 -3.403366 2.202442 -2.202439 
-25 -46.1292 33.24999 -3.403438 2.697433 -1.557324 
-25 -46.7785 31.68229 -3.403345 3.008603 -0.8061177 
-25 -47 29.99999 -3.403417 3.114711 0 
-25 -50 -9e-06 -1.570802 -1.570796 -1.570695 
-25 -50.00001 37.99999 -2.356194 -2.681517 1.110721 
-25 -37.25 24.37079 -3.403438 -1.557323 2.697433 
-25 -35.9038 25.40379 -3.403369 -2.20244 2.202441 
-25 -34.8708 26.74999 -3.403438 -2.697433 1.557323 
-25 -31 14 -4.71239 1.570797 1.570789 
-25 -34.2215 28.31769 -3.403346 -3.008603 0.8061177 
-25 -31.00001 38 -2.356194 2.681517 1.110722 
-25 -34 29.99999 -3.403418 -3.114711 0 
-25 -34.2215 31.68229 -3.403345 -3.008603 -0.8061171 
-25 -34.8708 33.25 -3.40344 -2.697431 -1.557325 
-25 -35.9038 34.59619 -3.403368 -2.202438 -2.202444 
-25 -37.25001 35.62919 -3.403437 -1.557322 -2.697434 
-25 -46.7785 28.31769 -3.403345 3.008603 0.8061178 
-25 -46.1292 26.74999 -3.403438 2.697433 1.557323 
-25 -45.0962 25.40379 -3.403369 2.20244 2.202441 
-25 -43.75 24.37079 -3.403438 1.557323 2.697433 
-25 -42.1823 23.72149 -3.403347 0.806116 3.008603 
-25 -40.5 23.49999 -3.403416 -1.683831e-06 3.114711 
-25 -38.8177 23.72149 -3.403346 -0.8061178 3.008603 
-25 -1e-06 14 -1.570796 1.570796 1.570796 
-25 1e-06 -1e-06 -1.570796 1.570796 -1.570776 
-7.500002 -35.9038 25.40379 3.403369 -2.20244 2.202441 
-7.500002 -34.8708 26.74999 3.403438 -2.697433 1.557323 
7.499998 -34.8708 26.74999 -3.403438 -2.697433 1.557323 
7.499998 -35.9038 25.40379 -3.403369 -2.202439 2.202439 
22.5 -8.000003 14 -3.114718 -2.384186e-07 3.403383 
22.5 -22 14 -3.114719 -6.258488e-07 3.403382 
22.3126 -9.423502 14 -3.008579 0.8061825 3.403425 
22.3126 -20.5765 14 -3.008572 -0.8061838 3.403426 
21.7631 -10.75 14 -2.697437 1.557357 3.40333 
21.7631 -19.25 14 -2.697433 -1.557358 3.403329 
20.8891 -11.8891 14 -2.202426 2.202426 3.403461 
20.8891 -18.1109 14 -2.202428 -2.202427 3.40346 
19.75 -12.7631 14 -1.557358 2.697438 3.403329 
19.75 -17.2369 14 -1.557359 -2.697438 3.403329 
18.4235 -13.3126 14 -0.8061827 3.008567 3.403427 
18.4235 -16.6874 14 -0.8061832 -3.008569 3.403426 
17 -13.5 14 -2.980232e-08 3.114717 3.403382 
17 -16.5 14 -3.166497e-08 -3.114719 3.403383 
15.5765 -13.3126 14 0.8061826 3.008567 3.403427 
15.5765 -16.6874 14 0.8061831 -3.008569 3.403425 
14.25 -12.7631 14 1.557357 2.697437 3.403328 
14.25 -17.2369 14 1.557358 -2.697439 3.403329 
13.1109 -11.8891 14 2.202426 2.202426 3.403461 
13.1109 -18.1109 14 2.202427 -2.202427 3.403461 
12.2369 -10.75 14 2.697438 1.557358 3.403328 
12.2369 -19.25 14 2.697434 -1.557359 3.403329 
11.6874 -9.423502 14 3.008579 0.8061825 3.403428 
11.6874 -20.5765 14 3.008573 -0.8061839 3.403426 
11.5 -8.000003 14 3.114718 -1.490116e-08 3.403382 
11.5 -22 14 3.114718 -3.427267e-07 3.403306 
-14.25 -3.236901 14 -1.557359 -2.697449 3.403323 
-13.1109 -4.1109 14 -2.20242 -2.202417 3.403464 
-12.2369 -5.250002 14 -2.697438 -1.557357 3.403327 
-11.6874 -6.576501 14 -3.008567 -0.8061829 3.403427 
-11.5 -8.000002 14 -3.114717 1.639128e-07 3.403382 
-11.5 -22 14 -3.114718 -3.427267e-07 3.403381 
-11.6874 -9.4235 14 -3.008579 0.8061818 3.403425 
-11.6874 -20.5765 14 -3.008572 -0.8061837 3.403428 
-12.2369 -10.75 14 -2.697438 1.557357 3.403329 
-12.2369 -19.25 14 -2.697433 -1.557359 3.403328 
-13.1109 -11.8891 14 -2.202426 2.202426 3.403462 
-13.1109 -18.1109 14 -2.202428 -2.202427 3.40346 
-14.25 -12.7631 14 -1.557358 2.697438 3.403328 
-14.25 -17.2369 14 -1.557358 -2.697439 3.403329 
-15.5765 -13.3126 14 -0.8061827 3.008567 3.403427 
-15.5765 -16.6874 14 -0.8061833 -3.008569 3.403426 
-17 -13.5 14 -7.450581e-08 3.114717 3.403382 
-17 -16.5 14 -3.166497e-08 -3.114719 3.403383 
-18.4235 -13.3126 14 0.8061826 3.008567 3.403427 
-18.4235 -16.6874 14 0.806183 -3.008569 3.403425 
-19.75 -12.7631 14 1.557358 2.697437 3.403328 
-19.75 -17.2369 14 1.557359 -2.697438 3.403329 
-20.8891 -11.8891 14 2.202426 2.202426 3.403461 
-20.8891 -18.1109 14 2.202427 -2.202428 3.40346 
-21.7631 -10.75 14 2.697438 1.557357 3.40333 
-21.7631 -19.25 14 2.697434 -1.557359 3.40333 
-22.3126 -9.4235 14 3.00858 0.806182 3.403426 
-22.3126 -20.5765 14 3.008573 -0.8061838 3.403425 
-22.5 -8.000001 14 3.114717 -3.72529e-07 3.403382 
-22.5 -22 14 3.114718 -5.215406e-07 3.403383 
17 -27.5 14 0 3.114718 3.403383 
15.5765 -27.3126 14 0.8061829 3.008568 3.403425 
14.25 -26.7631 14 1.557358 2.697438 3.403329 
13.1109 -25.8891 14 2.202427 2.202424 3.40346 
12.2369 -24.75 14 2.697438 1.557358 3.403328 
11.6874 -23.4235 14 3.008568 0.8061829 3.403427 
-15.5765 -27.3126 14 -0.8061833 3.008569 3.403425 
-17 -27.5 14 -1.490116e-08 3.114718 3.403383 
-18.4235 -27.3126 14 0.8061829 3.008568 3.403425 
-19.75 -26.7631 14 1.557359 2.697438 3.403329 
-20.8891 -25.8891 14 2.202427 2.202425 3.40346 
-21.7631 -24.75 14 2.697437 1.557358 3.403329 
-22.3126 -23.4235 14 3.008567 0.8061829 3.403426 
-11.6874 -23.4235 14 -3.008568 0.8061829 3.403427 
-12.2369 -24.75 14 -2.697438 1.557359 3.403328 
-13.1109 -25.8891 14 -2.202426 2.202423 3.40346 
-14.25 -26.7631 14 -1.557358 2.697438 3.403329 
22.3126 -23.4235 14 -3.008567 0.8061828 3.403426 
21.7631 -24.75 14 -2.697437 1.557358 3.403329 
20.8891 -25.8891 14 -2.202427 2.202425 3.40346 
19.75 -26.7631 14 -1.557359 2.697437 3.403329 
18.4235 -27.3126 14 -0.806183 3.008568 3.403425 
-22.3126 -6.5765 14 3.008569 -0.8061833 3.403426 
-21.7631 -5.250001 14 2.697439 -1.557358 3.403328 
-20.8891 -4.1109 14 2.202427 -2.202427 3.403461 
-19.75 -3.236901 14 1.557357 -2.697442 3.403327 
-18.4235 -2.687401 14 0.8061821 -3.008568 3.403426 
-17 -2.500001 14 -2.980232e-08 -3.114718 3.403382 
-15.5765 -2.687401 14 -0.8061821 -3.008566 3.403425 
11.6874 -6.576501 14 3.008568 -0.8061829 3.403427 
12.2369 -5.250002 14 2.697438 -1.557358 3.403327 
13.1109 -4.110901 14 2.202426 -2.202427 3.403462 
14.25 -3.236903 14 1.557356 -2.697444 3.403327 
15.5765 -2.687403 14 0.8061823 -3.008568 3.403426 
17 -2.500003 14 -2.793968e-08 -3.114718 3.403381 
18.4235 -2.687403 14 -0.8061818 -3.008568 3.403426 
19.75 -3.236903 14 -1.557357 -2.697441 3.403327 
20.8891 -4.110902 14 -2.202427 -2.202427 3.403461 
21.7631 -5.250003 14 -2.697439 -1.557358 3.403328 
22.3126 -6.576502 14 -3.008569 -0.8061833 3.403426 
-14.1854 -23.625 -5e-06 -2.697498 1.557481 -3.403356 
-13.8607 -22.8412 -5e-06 -3.008569 0.8061261 -3.40348 
13.75 -8.000001 -0 3.114738 5.364418e-07 -3.403286 
13.75 -22 -3e-06 3.114738 6.556511e-07 -3.403279 
13.8607 -8.8412 -0 3.008575 0.8061275 -3.403485 
13.8607 -21.1588 -2e-06 3.008595 -0.8061259 -3.403489 
14.1854 -9.625 -1e-06 2.697379 1.557434 -3.403359 
14.1854 -20.375 -2e-06 2.697386 -1.557435 -3.403361 
14.7019 -10.2981 -1e-06 2.20244 2.20244 -3.403371 
14.7019 -19.7019 -2e-06 2.20244 -2.202439 -3.403369 
15.375 -10.8146 -1e-06 1.557434 2.697387 -3.403359 
15.375 -19.1854 -2e-06 1.557433 -2.697386 -3.403363 
16.1588 -11.1393 -1e-06 0.8061262 3.00857 -3.40349 
16.1588 -18.8607 -2e-06 0.806126 -3.008569 -3.403488 
17 -11.25 -1e-06 4.470348e-08 3.114738 -3.403283 
17 -18.75 -2e-06 -4.470348e-08 -3.114737 -3.403286 
17.8412 -11.1393 -1e-06 -0.8061263 3.00857 -3.403489 
17.8412 -18.8607 -2e-06 -0.8061261 -3.008569 -3.403489 
18.625 -10.8146 -1e-06 -1.557435 2.697386 -3.40336 
18.625 -19.1854 -2e-06 -1.557434 -2.697385 -3.403363 
19.2981 -10.2981 -1e-06 -2.20244 2.202441 -3.403368 
19.2981 -19.7019 -2e-06 -2.20244 -2.20244 -3.403368 
19.8146 -9.625 -1e-06 -2.697378 1.557433 -3.403361 
19.8146 -20.375 -2e-06 -2.697385 -1.557434 -3.403362 
20.1393 -8.8412 -0 -3.008574 0.8061275 -3.403487 
20.1393 -21.1588 -2e-06 -3.008593 -0.8061256 -3.403483 
20.25 -8.000001 -0 -3.114738 8.046627e-07 -3.40328 
20.25 -22 -3e-06 -3.114731 -6.556511e-07 -3.403286 
20.1393 -22.8412 -3e-06 -3.00857 0.8061267 -3.403488 
19.8146 -23.625 -3e-06 -2.697386 1.557435 -3.403361 
19.2981 -24.2981 -3e-06 -2.202441 2.202441 -3.403367 
-13.75 -22 -5e-06 -3.114737 3.129244e-07 -3.403284 
-13.75 -8 -2e-06 -3.114738 8.046627e-07 -3.403279 
-13.8607 -21.1588 -4e-06 -3.008592 -0.8061253 -3.403486 
-13.8607 -8.841198 -2e-06 -3.008574 0.8061276 -3.403488 
-14.1854 -20.375 -4e-06 -2.697385 -1.557434 -3.40336 
-14.1854 -9.624998 -3e-06 -2.69738 1.557432 -3.403357 
-14.7019 -19.7019 -4e-06 -2.20244 -2.202439 -3.403369 
-14.7019 -10.2981 -3e-06 -2.202442 2.202439 -3.403371 
-15.375 -19.1854 -4e-06 -1.557433 -2.697387 -3.403362 
-15.375 -10.8146 -3e-06 -1.557434 2.697387 -3.40336 
-16.1588 -18.8607 -4e-06 -0.8061261 -3.008569 -3.403489 
-16.1588 -11.1393 -3e-06 -0.8061261 3.00857 -3.403489 
-17 -18.75 -4e-06 -2.980232e-08 -3.114737 -3.403286 
-17 -11.25 -3e-06 -4.470348e-08 3.114738 -3.403283 
-17.8412 -18.8607 -4e-06 0.8061262 -3.00857 -3.403488 
-17.8412 -11.1393 -3e-06 0.8061262 3.00857 -3.40349 
-18.625 -19.1854 -4e-06 1.557434 -2.697386 -3.403363 
-18.625 -10.8146 -3e-06 1.557435 2.697387 -3.40336 
-19.2981 -19.7019 -4e-06 2.20244 -2.20244 -3.403368 
-19.2981 -10.2981 -3e-06 2.202442 2.202439 -3.40337 
-19.8146 -20.375 -4e-06 2.697385 -1.557434 -3.403363 
-19.8146 -9.624998 -3e-06 2.69738 1.557432 -3.403359 
-20.1393 -21.1588 -4e-06 3.008595 -0.8061261 -3.403487 
-20.1393 -8.841198 -2e-06 3.008575 0.8061277 -3.403483 
-20.25 -22 -5e-06 3.114737 7.897615e-07 -3.40328 
-20.25 -7.999999 -2e-06 3.114738 6.491318e-07 -3.403286 
17 -4.750001 0 2.086163e-07 -3.114737 -3.403286 
16.1588 -4.860701 0 0.8061248 -3.008571 -3.403488 
15.375 -5.1854 0 1.557432 -2.697387 -3.403362 
14.7019 -5.7019 0 2.20244 -2.20244 -3.403371 
14.1854 -6.375 -0 2.697387 -1.557434 -3.40336 
13.8607 -7.158801 -0 3.00857 -0.8061256 -3.403489 
-15.375 -5.1854 -2e-06 -1.557433 -2.697386 -3.40336 
-16.1588 -4.8607 -2e-06 -0.8061268 -3.008567 -3.403488 
-17 -4.749999 -2e-06 -1.639128e-06 -3.114737 -3.403286 
-17.8412 -4.860699 -2e-06 0.8061261 -3.008569 -3.403489 
-18.625 -5.185399 -2e-06 1.557434 -2.697386 -3.403362 
-19.2981 -5.701899 -2e-06 2.20244 -2.20244 -3.403369 
-19.8146 -6.374999 -2e-06 2.697386 -1.557434 -3.403362 
-20.1393 -7.158799 -2e-06 3.008569 -0.8061262 -3.403487 
-13.8607 -7.1588 -2e-06 -3.008569 -0.8061259 -3.40349 
-14.1854 -6.375 -2e-06 -2.697386 -1.557434 -3.40336 
-14.7019 -5.7019 -2e-06 -2.202441 -2.20244 -3.40337 
20.1393 -7.158801 -0 -3.008569 -0.8061263 -3.403487 
19.8146 -6.375001 -0 -2.697386 -1.557434 -3.403362 
19.2981 -5.701901 0 -2.202439 -2.20244 -3.403369 
18.625 -5.185401 0 -1.557434 -2.697385 -3.403362 
17.8412 -4.860701 0 -0.8061262 -3.008569 -3.403489 
-20.1393 -22.8412 -5e-06 3.008572 0.8061265 -3.403487 
-19.8146 -23.625 -5e-06 2.697387 1.557435 -3.403361 
-19.2981 -24.2981 -5e-06 2.202441 2.202441 -3.403367 
-18.625 -24.8146 -5e-06 1.557435 2.697387 -3.403362 
-17.8412 -25.1393 -5e-06 0.8061264 3.00857 -3.403486 
-17 -25.25 -5e-06 2.980232e-08 3.114738 -3.403285 
-16.1588 -25.1393 -5e-06 -0.8061265 3.008571 -3.403486 
-15.375 -24.8146 -5e-06 -1.557434 2.697387 -3.403361 
-14.7019 -24.2981 -5e-06 -2.202442 2.202441 -3.403369 
13.8607 -22.8412 -3e-06 3.00857 0.8061262 -3.403489 
14.1854 -23.625 -3e-06 2.697387 1.557435 -3.40336 
14.7019 -24.2981 -3e-06 2.202441 2.20244 -3.403369 
15.375 -24.8146 -3e-06 1.557434 2.697387 -3.403361 
16.1588 -25.1393 -3e-06 0.8061264 3.00857 -3.403486 
17 -25.25 -3e-06 -4.470348e-08 3.114738 -3.403285 
17.8412 -25.1393 -3e-06 -0.8061272 3.008572 -3.403487 
18.625 -24.8146 -3e-06 -1.557435 2.697387 -3.403362 
-18.4235 -2.6874 7.499999 0.806183 -3.008569 2.879759 
-17 -2.5 7.499999 -1.013279e-06 -3.114718 2.879802 
-17 -4.75 7.499998 -3.814697e-06 -3.114739 3.403287 
-17.8412 -4.860701 7.499998 0.8061268 -3.008572 3.403485 
-22.5 -8 7.499998 3.114718 2.235174e-07 2.879803 
-22.3126 -9.423499 7.499998 3.008574 0.8061826 2.87976 
-22.3126 -6.576499 7.499998 3.008569 -0.8061835 2.879759 
-21.7631 -10.75 7.499997 2.697438 1.557356 2.879856 
-21.7631 -5.25 7.499998 2.697436 -1.557358 2.879857 
-20.8891 -11.8891 7.499997 2.202426 2.202426 2.879725 
-20.8891 -4.110899 7.499999 2.202427 -2.202428 2.879722 
-20.25 -8 7.499998 3.114738 -6.556511e-07 3.403286 
-20.1393 -7.158801 7.499998 3.008573 -0.8061263 3.403487 
-18.625 -10.8146 7.499997 1.557435 2.697386 3.40336 
-19.2981 -10.2981 7.499997 2.202446 2.202439 3.403371 
-19.75 -12.7631 7.499997 1.557359 2.697438 2.879858 
-19.8146 -9.624999 7.499998 2.697387 1.55743 3.40336 
-20.1393 -8.841199 7.499998 3.008567 0.8061261 3.403487 
-16.1588 -11.1393 7.499998 -0.8061275 3.008568 3.40349 
-17 -11.25 7.499997 -2.028421e-06 3.114739 3.403284 
-17 -13.5 7.499997 -9.853393e-07 3.114717 2.879804 
-17.8412 -11.1393 7.499997 0.8061261 3.008569 3.40349 
-18.4235 -13.3126 7.499997 0.8061827 3.008567 2.879759 
-15.5765 -13.3126 7.499998 -0.8061839 3.008568 2.879758 
-14.25 -12.7631 7.499998 -1.557358 2.697438 2.879879 
-14.7019 -10.2981 7.499998 -2.202446 2.202438 3.403372 
-15.375 -10.8146 7.499998 -1.557434 2.697387 3.40336 
-13.1109 -11.8891 7.499998 -2.202426 2.202426 2.879724 
-13.75 -8.000001 7.499999 -3.114735 -1.657754e-07 3.403286 
-13.8607 -8.841199 7.499999 -3.008546 0.8061234 3.403488 
-14.1854 -9.624999 7.499999 -2.697386 1.557431 3.403358 
-19.8146 -6.375 7.499998 2.697389 -1.557434 3.403362 
-19.2981 -5.7019 7.499998 2.202441 -2.202441 3.403368 
-19.75 -3.2369 7.499999 1.557358 -2.697439 2.879857 
-18.625 -5.1854 7.499998 1.557434 -2.697388 3.403362 
-15.375 -5.185401 7.499999 -1.557433 -2.697389 3.403361 
-15.5765 -2.6874 7.5 -0.8061841 -3.008569 2.879759 
-16.1588 -4.860702 7.499999 -0.80613 -3.00857 3.403484 
-14.7019 -5.701901 7.499999 -2.202441 -2.202441 3.40337 
-14.1854 -6.375001 7.499999 -2.69739 -1.557435 3.40336 
-14.25 -3.2369 7.5 -1.557357 -2.69744 2.879882 
-13.8607 -7.158802 7.499999 -3.008594 -0.8061289 3.403487 
-13.1109 -4.110899 7.5 -2.202427 -2.202427 2.879722 
-11.5 -8.000001 7.499999 -3.114718 3.576279e-07 2.879803 
-11.6874 -6.5765 7.499999 -3.008568 -0.8061832 2.879758 
-11.6874 -9.423499 7.499999 -3.008573 0.8061823 2.879759 
-12.2369 -5.250001 7.499999 -2.697437 -1.557357 2.879859 
-12.2369 -10.75 7.499998 -2.697438 1.557356 2.879858 
-19.75 -17.2369 7.499996 1.557358 -2.697438 2.879856 
-18.4235 -16.6874 7.499996 0.806183 -3.008568 2.87976 
-20.8891 -18.1109 7.499996 2.202427 -2.202427 2.879726 
-21.7631 -19.25 7.499996 2.697438 -1.557359 2.879856 
-22.3126 -20.5765 7.499996 3.00857 -0.8061838 2.87976 
-22.5 -22 7.499995 3.11471 -8.60354e-07 2.879802 
-22.3126 -23.4235 7.499995 3.008565 0.806182 2.87976 
-21.7631 -24.75 7.499995 2.697437 1.557358 2.879857 
-20.8891 -25.8891 7.499995 2.202427 2.202427 2.879726 
-17 -16.5 7.499996 -1.043081e-06 -3.114717 2.879802 
-17 -18.75 7.499996 -2.033077e-06 -3.114738 3.403285 
-17.8412 -18.8607 7.499996 0.8061263 -3.00857 3.403487 
-20.25 -22 7.499995 3.11474 -6.705523e-07 3.403286 
-20.1393 -21.1588 7.499996 3.008561 -0.8061282 3.403487 
-18.625 -24.8146 7.499995 1.557435 2.697386 3.403363 
-19.2981 -24.2981 7.499995 2.202441 2.202441 3.403368 
-19.75 -26.7631 7.499995 1.557358 2.697438 2.879856 
-19.8146 -23.625 7.499995 2.697386 1.557434 3.403363 
-20.1393 -22.8412 7.499995 3.00857 0.8061265 3.403488 
-16.1588 -25.1393 7.499996 -0.8061277 3.008569 3.403489 
-17 -25.25 7.499995 -2.101064e-06 3.114738 3.403287 
-17 -27.5 7.499995 -1.013279e-06 3.114717 2.879802 
-17.8412 -25.1393 7.499995 0.8061264 3.00857 3.403488 
-18.4235 -27.3126 7.499995 0.806183 3.008568 2.879759 
-15.5765 -27.3126 7.499996 -0.8061839 3.008568 2.879759 
-14.25 -26.7631 7.499996 -1.557358 2.697438 2.879879 
-14.7019 -24.2981 7.499996 -2.20244 2.20244 3.40337 
-15.375 -24.8146 7.499996 -1.557433 2.697387 3.403362 
-13.1109 -25.8891 7.499996 -2.202427 2.202427 2.879723 
-13.75 -22 7.499996 -3.114748 -1.743436e-06 3.403286 
-13.8607 -22.8412 7.499996 -3.008569 0.8061258 3.403488 
-14.1854 -23.625 7.499996 -2.697386 1.557435 3.40336 
-19.8146 -20.375 7.499996 2.697387 -1.557435 3.403362 
-19.2981 -19.7019 7.499996 2.202441 -2.202441 3.403367 
-18.625 -19.1854 7.499996 1.557435 -2.697386 3.403362 
-15.375 -19.1854 7.499997 -1.557433 -2.697387 3.403361 
-15.5765 -16.6874 7.499997 -0.806184 -3.008568 2.879759 
-16.1588 -18.8607 7.499997 -0.8061278 -3.008569 3.403487 
-14.7019 -19.7019 7.499997 -2.20244 -2.20244 3.403368 
-14.1854 -20.375 7.499997 -2.697386 -1.557435 3.403359 
-14.25 -17.2369 7.499997 -1.557358 -2.697438 2.879881 
-13.8607 -21.1588 7.499997 -3.008459 -0.806115 3.403487 
-13.1109 -18.1109 7.499997 -2.202427 -2.202427 2.879725 
-11.5 -22 7.499996 -3.11471 -8.791685e-07 2.879804 
-11.6874 -20.5765 7.499997 -3.00857 -0.8061839 2.879758 
-11.6874 -23.4235 7.499996 -3.008566 0.8061823 2.879758 
-12.2369 -19.25 7.499997 -2.697439 -1.557359 2.879857 
-12.2369 -24.75 7.499996 -2.697438 1.557358 2.879857 
13.1109 -25.8891 7.499996 2.202427 2.202427 2.879725 
12.2369 -24.75 7.499996 2.697437 1.557358 2.879857 
14.25 -26.7631 7.499996 1.557358 2.697438 2.879857 
15.5765 -27.3126 7.499996 0.806183 3.008568 2.879759 
17 -27.5 7.499996 0 3.114718 2.879802 
17 -18.75 7.499997 3.818423e-08 -3.114738 3.403285 
16.1588 -18.8607 7.499997 0.8061263 -3.00857 3.403487 
11.5 -22 7.499996 3.11471 -8.791685e-07 2.879804 
11.6874 -23.4235 7.499996 3.008565 0.8061819 2.879758 
11.6874 -20.5765 7.499997 3.008569 -0.8061835 2.879758 
12.2369 -19.25 7.499997 2.697439 -1.557359 2.879857 
13.1109 -18.1109 7.499997 2.202427 -2.202427 2.879725 
13.75 -22 7.499996 3.114741 -6.705523e-07 3.403284 
13.8607 -21.1588 7.499997 3.00856 -0.8061279 3.403489 
15.375 -24.8146 7.499996 1.557433 2.697386 3.403362 
14.7019 -24.2981 7.499996 2.20244 2.20244 3.40337 
14.1854 -23.625 7.499996 2.697386 1.557435 3.403361 
13.8607 -22.8412 7.499996 3.00857 0.8061263 3.40349 
17.8412 -25.1393 7.499996 -0.8061262 3.00857 3.403489 
17 -25.25 7.499996 -4.470348e-08 3.114737 3.403287 
16.1588 -25.1393 7.499996 0.8061262 3.008569 3.403488 
18.4235 -27.3126 7.499996 -0.8061829 3.008568 2.879759 
19.75 -26.7631 7.499996 -1.557358 2.697438 2.879879 
19.2981 -24.2981 7.499996 -2.20244 2.20244 3.403368 
18.625 -24.8146 7.499996 -1.557434 2.697385 3.403363 
20.8891 -25.8891 7.499996 -2.202427 2.202427 2.879724 
20.25 -22 7.499996 -3.114748 -1.743436e-06 3.403287 
20.1393 -22.8412 7.499996 -3.008569 0.8061262 3.403486 
19.8146 -23.625 7.499996 -2.697386 1.557434 3.403363 
14.1854 -20.375 7.499997 2.697386 -1.557435 3.40336 
14.7019 -19.7019 7.499997 2.20244 -2.20244 3.403369 
14.25 -17.2369 7.499997 1.557358 -2.697438 2.879857 
15.375 -19.1854 7.499997 1.557433 -2.697386 3.403361 
15.5765 -16.6874 7.499997 0.806183 -3.008568 2.87976 
18.625 -19.1854 7.499997 -1.557434 -2.697386 3.403362 
18.4235 -16.6874 7.499997 -0.806183 -3.008568 2.879759 
17.8412 -18.8607 7.499997 -0.8061261 -3.008569 3.403487 
17 -16.5 7.499997 -1.490116e-08 -3.114718 2.879802 
19.2981 -19.7019 7.499997 -2.20244 -2.20244 3.403367 
19.8146 -20.375 7.499997 -2.697386 -1.557434 3.403362 
19.75 -17.2369 7.499997 -1.557358 -2.697438 2.879881 
20.1393 -21.1588 7.499997 -3.00846 -0.8061153 3.403485 
20.8891 -18.1109 7.499997 -2.202427 -2.202427 2.879726 
22.5 -22 7.499996 -3.11471 -8.642673e-07 2.879802 
22.3126 -20.5765 7.499997 -3.00857 -0.806184 2.87976 
22.3126 -23.4235 7.499996 -3.008567 0.8061825 2.87976 
21.7631 -19.25 7.499997 -2.697438 -1.557359 2.879857 
21.7631 -24.75 7.499996 -2.697437 1.557358 2.879856 
13.75 -8.000002 7.499999 3.114738 -6.575137e-07 3.403284 
13.8607 -8.841201 7.499999 3.008567 0.8061259 3.403489 
11.6874 -9.423501 7.499999 3.008573 0.8061833 2.879759 
11.5 -8.000002 7.499999 3.114718 3.427267e-07 2.879804 
12.2369 -10.75 7.499998 2.697438 1.557357 2.879857 
14.1854 -9.625001 7.499999 2.697386 1.557433 3.40336 
13.1109 -11.8891 7.499998 2.202426 2.202426 2.879724 
14.7019 -10.2981 7.499998 2.202444 2.20244 3.403371 
15.375 -10.8146 7.499998 1.557434 2.697387 3.40336 
14.25 -12.7631 7.499998 1.557358 2.697438 2.879858 
16.1588 -11.1393 7.499998 0.8061259 3.008569 3.40349 
15.5765 -13.3126 7.499998 0.8061827 3.008568 2.879759 
17 -13.5 7.499998 1.490116e-08 3.114718 2.879804 
17 -11.25 7.499998 -2.980232e-08 3.114738 3.403284 
18.4235 -13.3126 7.499998 -0.8061829 3.008568 2.879759 
17.8412 -11.1393 7.499998 -0.8061259 3.008569 3.40349 
19.75 -12.7631 7.499998 -1.557359 2.697438 2.87988 
18.625 -10.8146 7.499998 -1.557435 2.697386 3.40336 
19.2981 -10.2981 7.499998 -2.202444 2.20244 3.403369 
20.8891 -11.8891 7.499998 -2.202426 2.202426 2.879723 
19.8146 -9.625001 7.499999 -2.697385 1.557432 3.403362 
21.7631 -10.75 7.499998 -2.697437 1.557357 2.879857 
22.3126 -9.423501 7.499999 -3.008572 0.8061829 2.879761 
20.1393 -8.841201 7.499999 -3.008547 0.8061234 3.403487 
22.5 -8.000002 7.499999 -3.114718 1.788139e-07 2.879803 
20.25 -8.000002 7.499999 -3.114735 -4.088506e-07 3.403287 
15.5765 -2.687402 7.5 0.8061831 -3.008569 2.879759 
17 -2.500002 7.5 -2.980232e-08 -3.114719 2.879803 
16.1588 -4.860703 7.499999 0.8061252 -3.008572 3.403485 
17 -4.750002 7.499999 1.73226e-07 -3.114739 3.403286 
11.6874 -6.5765 7.499999 3.008569 -0.8061835 2.879758 
12.2369 -5.250001 7.499999 2.697436 -1.557358 2.879858 
13.1109 -4.1109 7.5 2.202426 -2.202428 2.879721 
13.8607 -7.158803 7.499999 3.008573 -0.8061255 3.403488 
14.1854 -6.375001 7.499999 2.697389 -1.557434 3.403361 
14.7019 -5.701901 7.499999 2.202441 -2.202441 3.40337 
14.25 -3.236902 7.5 1.557357 -2.69744 2.879858 
15.375 -5.185401 7.499999 1.557431 -2.697389 3.403362 
18.625 -5.185402 7.499999 -1.557434 -2.697388 3.403362 
18.4235 -2.687402 7.5 -0.806183 -3.008569 2.879759 
17.8412 -4.860703 7.499999 -0.8061267 -3.008571 3.403486 
19.2981 -5.701902 7.499999 -2.202441 -2.202441 3.403368 
19.8146 -6.375002 7.499999 -2.697389 -1.557434 3.403362 
19.75 -3.236902 7.5 -1.557358 -2.697439 2.879882 
20.1393 -7.158803 7.499999 -3.008594 -0.8061291 3.403485 
20.8891 -4.110901 7.5 -2.202427 -2.202428 2.879724 
22.3126 -6.576501 7.499999 -3.008568 -0.8061833 2.879759 
21.7631 -5.250002 7.499999 -2.697436 -1.557358 2.879858 
7.499998 -50 14.69999 -1.570797 -4.712389 1.570795 
7.499999 -31 14.7 -1.570796 4.712388 1.570796 
-7.500001 -31 14.7 1.570795 4.712389 1.570797 
-7.500002 -50 14.69999 1.570797 -4.712389 1.570795 
-7.500003 -40.50001 36.49999 3.403417 1.341105e-07 -3.11471 
-7.500003 -42.18231 36.27849 3.403345 0.8061176 -3.008602 
7.499997 -42.18231 36.27849 -3.403345 0.8061178 -3.008603 
7.499997 -40.50001 36.49999 -3.403417 -1.341105e-07 -3.114713 
-7.500004 -48.00001 39.99999 2.356196 -1.110721 2.681518 
-7.500003 -33.00001 40 2.356195 1.11072 2.681518 
7.499997 -33.00001 40 -2.356196 1.11072 2.681517 
7.499996 -48.00001 39.99999 -2.356196 -1.110721 2.681517 
-7.500002 -31.00001 38 2.356194 2.681515 1.110721 
7.499998 -31.00001 38 -2.356194 2.681518 1.110722 
-7.500003 -50.00001 37.99999 2.356194 -2.681516 1.11072 
7.499997 -50.00001 37.99999 -2.356194 -2.681518 1.110721 
7.499997 -38.81771 36.27849 -3.403346 -0.8061169 -3.008603 
7.499997 -43.75001 35.62919 -3.40344 1.557325 -2.69743 
7.499997 -45.0962 34.59619 -3.403366 2.202442 -2.202439 
7.499997 -46.1292 33.24999 -3.403438 2.697432 -1.557324 
7.499997 -46.7785 31.68229 -3.403345 3.008604 -0.806118 
7.499997 -47 29.99999 -3.403417 3.114711 -2.533197e-07 
7.499998 -34.2215 28.31769 -3.403345 -3.008602 0.8061175 
7.499998 -34 29.99999 -3.403418 -3.114711 0 
7.499998 -34.2215 31.68229 -3.403345 -3.008605 -0.8061173 
7.499998 -34.8708 33.25 -3.40344 -2.697432 -1.557325 
7.499998 -35.9038 34.59619 -3.403368 -2.202437 -2.202443 
7.499998 -37.25001 35.62919 -3.403437 -1.557321 -2.697435 
7.499997 -46.7785 28.31769 -3.403346 3.008602 0.8061172 
7.499997 -46.1292 26.74999 -3.403438 2.697432 1.557322 
7.499997 -45.0962 25.40379 -3.403369 2.202439 2.20244 
7.499997 -43.75 24.37079 -3.403438 1.557323 2.697433 
7.499997 -42.1823 23.72149 -3.403347 0.8061155 3.008602 
7.499997 -40.5 23.49999 -3.403416 -1.654029e-06 3.114711 
7.499997 -38.8177 23.72149 -3.403346 -0.8061137 3.008597 
7.499998 -37.25 24.37079 -3.403438 -1.557322 2.697433 
-7.500002 -37.25 24.37079 3.403438 -1.557323 2.697433 
-7.500003 -38.8177 23.72149 3.403346 -0.8061216 3.008608 
-7.500003 -40.5 23.49999 3.403416 -1.803041e-06 3.114712 
-7.500003 -42.1823 23.72149 3.403347 0.806116 3.008603 
-7.500003 -43.75 24.37079 3.403438 1.557323 2.697433 
-7.500003 -45.0962 25.40379 3.403369 2.20244 2.202441 
-7.500003 -46.1292 26.74999 3.403438 2.697433 1.557323 
-7.500003 -46.7785 28.31769 3.403346 3.008603 0.8061177 
-7.500003 -47 29.99999 3.403417 3.114711 2.551824e-07 
-7.500002 -34 29.99999 3.403417 -3.114711 2.533197e-07 
-7.500002 -34.2215 28.31769 3.403345 -3.008604 0.8061179 
-7.500003 -46.7785 31.68229 3.403345 3.008601 -0.8061175 
-7.500003 -46.1292 33.24999 3.403438 2.697432 -1.557323 
-7.500003 -45.0962 34.59619 3.403366 2.202442 -2.202439 
-7.500003 -43.75001 35.62919 3.40344 1.557325 -2.69743 
-7.500003 -38.81771 36.27849 3.403346 -0.8061183 -3.008602 
-7.500002 -37.25001 35.62919 3.403437 -1.557322 -2.697432 
-7.500002 -35.9038 34.59619 3.403368 -2.202437 -2.202443 
-7.500002 -34.8708 33.25 3.40344 -2.697431 -1.557325 
-7.500002 -34.2215 31.68229 3.403345 -3.008601 -0.8061168 
3 0 1 2 209 209 255 255 
3 0 2 3 209 209 255 255 
3 0 3 4 209 209 255 255 
3 0 4 5 209 209 255 255 
3 0 5 6 209 209 255 255 
3 0 6 7 209 209 255 255 
3 0 7 8 209 209 255 255 
3 0 8 9 209 209 255 255 
3 0 9 10 209 209 255 255 
3 0 10 11 209 209 255 255 
3 0 11 12 209 209 255 255 
3 0 12 13 209 209 255 255 
3 0 13 14 209 209 255 255 
3 0 14 15 209 209 255 255 
3 16 14 17 209 209 255 255 
3 16 17 18 209 209 255 255 
3 16 18 19 209 209 255 255 
3 16 19 20 209 209 255 255 
3 16 20 21 209 209 255 255 
3 16 21 22 209 209 255 255 
3 16 22 2 209 209 255 255 
3 16 2 23 209 209 255 255 
3 24 3 2 209 209 255 255 
3 24 2 22 209 209 255 255 
3 14 13 25 209 209 255 255 
3 14 25 26 209 209 255 255 
3 14 26 27 209 209 255 255 
3 14 27 28 209 209 255 255 
3 14 28 29 209 209 255 255 
3 14 29 30 209 209 255 255 
3 14 30 17 209 209 255 255 
3 2 1 31 209 209 255 255 
3 32 33 34 209 209 255 255 
3 32 34 35 209 209 255 255 
3 32 35 36 209 209 255 255 
3 32 36 37 209 209 255 255 
3 32 37 38 209 209 255 255 
3 32 38 39 209 209 255 255 
3 32 39 40 209 209 255 255 
3 32 40 41 209 209 255 255 
3 32 41 42 209 209 255 255 
3 32 42 43 209 209 255 255 
3 44 45 42 209 209 255 255 
3 42 45 46 209 209 255 255 
3 42 46 47 209 209 255 255 
3 47 46 48 209 209 255 255 
3 47 48 49 209 209 255 255 
3 49 48 50 209 209 255 255 
3 49 50 33 209 209 255 255 
3 33 50 51 209 209 255 255 
3 33 51 52 209 209 255 255 
3 33 52 53 209 209 255 255 
3 33 53 54 209 209 255 255 
3 33 54 34 209 209 255 255 
3 42 41 55 209 209 255 255 
3 42 55 56 209 209 255 255 
3 42 56 57 209 209 255 255 
3 42 57 58 209 209 255 255 
3 42 58 59 209 209 255 255 
3 42 59 60 209 209 255 255 
3 42 60 61 209 209 255 255 
3 42 61 44 209 209 255 255 
3 62 63 42 209 209 255 255 
3 62 42 47 209 209 255 255 
3 64 65 46 209 209 255 255 
3 64 46 45 209 209 255 255 
3 3 66 67 209 209 255 255 
3 3 67 4 209 209 255 255 
3 2 68 69 209 209 255 255 
3 69 68 70 209 209 255 255 
3 69 70 71 209 209 255 255 
3 71 70 72 209 209 255 255 
3 71 72 73 209 209 255 255 
3 73 72 74 209 209 255 255 
3 73 74 75 209 209 255 255 
3 75 74 76 209 209 255 255 
3 75 76 77 209 209 255 255 
3 77 76 78 209 209 255 255 
3 77 78 79 209 209 255 255 
3 79 78 80 209 209 255 255 
3 79 80 81 209 209 255 255 
3 81 80 82 209 209 255 255 
3 81 82 83 209 209 255 255 
3 83 82 84 209 209 255 255 
3 83 84 85 209 209 255 255 
3 85 84 86 209 209 255 255 
3 85 86 87 209 209 255 255 
3 87 86 88 209 209 255 255 
3 87 88 89 209 209 255 255 
3 89 88 90 209 209 255 255 
3 89 90 91 209 209 255 255 
3 91 90 92 209 209 255 255 
3 91 92 93 209 209 255 255 
3 93 92 94 209 209 255 255 
3 93 94 95 209 209 255 255 
3 96 97 93 209 209 255 255 
3 93 97 98 209 209 255 255 
3 93 98 99 209 209 255 255 
3 99 98 100 209 209 255 255 
3 99 100 101 209 209 255 255 
3 101 100 102 209 209 255 255 
3 101 102 103 209 209 255 255 
3 103 102 104 209 209 255 255 
3 103 104 105 209 209 255 255 
3 105 104 106 209 209 255 255 
3 105 106 107 209 209 255 255 
3 107 106 108 209 209 255 255 
3 107 108 109 209 209 255 255 
3 109 108 110 209 209 255 255 
3 109 110 111 209 209 255 255 
3 111 110 112 209 209 255 255 
3 111 112 113 209 209 255 255 
3 113 112 114 209 209 255 255 
3 113 114 115 209 209 255 255 
3 115 114 116 209 209 255 255 
3 115 116 117 209 209 255 255 
3 117 116 118 209 209 255 255 
3 117 118 119 209 209 255 255 
3 119 118 120 209 209 255 255 
3 119 120 121 209 209 255 255 
3 121 120 122 209 209 255 255 
3 121 122 123 209 209 255 255 
3 123 122 62 209 209 255 255 
3 123 62 47 209 209 255 255 
3 47 2 124 209 209 255 255 
3 47 124 125 209 209 255 255 
3 47 125 126 209 209 255 255 
3 47 126 127 209 209 255 255 
3 47 127 128 209 209 255 255 
3 47 128 129 209 209 255 255 
3 47 129 93 209 209 255 255 
3 47 93 130 209 209 255 255 
3 47 130 131 209 209 255 255 
3 47 131 132 209 209 255 255 
3 47 132 133 209 209 255 255 
3 47 133 134 209 209 255 255 
3 47 134 135 209 209 255 255 
3 47 135 136 209 209 255 255 
3 47 136 123 209 209 255 255 
3 93 99 137 209 209 255 255 
3 93 137 138 209 209 255 255 
3 93 138 139 209 209 255 255 
3 93 139 140 209 209 255 255 
3 93 140 130 209 209 255 255 
3 2 69 141 209 209 255 255 
3 2 141 142 209 209 255 255 
3 2 142 143 209 209 255 255 
3 2 143 144 209 209 255 255 
3 2 144 145 209 209 255 255 
3 2 145 124 209 209 255 255 
3 62 122 146 209 209 255 255 
3 62 146 147 209 209 255 255 
3 62 147 148 209 209 255 255 
3 62 148 149 209 209 255 255 
3 62 149 150 209 209 255 255 
3 62 150 151 209 209 255 255 
3 62 151 152 209 209 255 255 
3 62 152 92 209 209 255 255 
3 62 92 153 209 209 255 255 
3 62 153 154 209 209 255 255 
3 62 154 155 209 209 255 255 
3 62 155 156 209 209 255 255 
3 62 156 157 209 209 255 255 
3 62 157 158 209 209 255 255 
3 62 158 31 209 209 255 255 
3 31 158 159 209 209 255 255 
3 31 159 160 209 209 255 255 
3 31 160 161 209 209 255 255 
3 31 161 162 209 209 255 255 
3 31 162 163 209 209 255 255 
3 31 163 68 209 209 255 255 
3 31 68 2 209 209 255 255 
3 92 152 94 209 209 255 255 
3 93 95 96 209 209 255 255 
3 164 165 42 209 209 255 255 
3 42 165 166 209 209 255 255 
3 42 166 167 209 209 255 255 
3 167 166 168 209 209 255 255 
3 167 168 169 209 209 255 255 
3 169 168 170 209 209 255 255 
3 169 170 171 209 209 255 255 
3 171 170 172 209 209 255 255 
3 171 172 173 209 209 255 255 
3 173 172 174 209 209 255 255 
3 173 174 175 209 209 255 255 
3 175 174 176 209 209 255 255 
3 175 176 177 209 209 255 255 
3 177 176 178 209 209 255 255 
3 177 178 179 209 209 255 255 
3 179 178 180 209 209 255 255 
3 179 180 181 209 209 255 255 
3 181 180 182 209 209 255 255 
3 181 182 183 209 209 255 255 
3 183 182 184 209 209 255 255 
3 183 184 185 209 209 255 255 
3 185 184 186 209 209 255 255 
3 185 186 187 209 209 255 255 
3 187 186 188 209 209 255 255 
3 187 188 189 209 209 255 255 
3 189 188 190 209 209 255 255 
3 189 190 191 209 209 255 255 
3 191 190 1 209 209 255 255 
3 191 1 192 209 209 255 255 
3 192 1 0 209 209 255 255 
3 192 0 193 209 209 255 255 
3 193 0 194 209 209 255 255 
3 166 195 196 209 209 255 255 
3 196 195 197 209 209 255 255 
3 196 197 198 209 209 255 255 
3 198 197 199 209 209 255 255 
3 198 199 200 209 209 255 255 
3 200 199 201 209 209 255 255 
3 200 201 202 209 209 255 255 
3 202 201 203 209 209 255 255 
3 202 203 204 209 209 255 255 
3 204 203 205 209 209 255 255 
3 204 205 206 209 209 255 255 
3 206 205 207 209 209 255 255 
3 206 207 208 209 209 255 255 
3 208 207 209 209 209 255 255 
3 208 209 210 209 209 255 255 
3 210 209 211 209 209 255 255 
3 210 211 212 209 209 255 255 
3 212 211 213 209 209 255 255 
3 212 213 214 209 209 255 255 
3 214 213 215 209 209 255 255 
3 214 215 216 209 209 255 255 
3 216 215 217 209 209 255 255 
3 216 217 218 209 209 255 255 
3 218 217 219 209 209 255 255 
3 218 219 220 209 209 255 255 
3 220 219 42 209 209 255 255 
3 220 42 63 209 209 255 255 
3 63 1 221 209 209 255 255 
3 63 221 222 209 209 255 255 
3 63 222 223 209 209 255 255 
3 63 223 224 209 209 255 255 
3 63 224 225 209 209 255 255 
3 63 225 226 209 209 255 255 
3 63 226 166 209 209 255 255 
3 63 166 227 209 209 255 255 
3 63 227 228 209 209 255 255 
3 63 228 229 209 209 255 255 
3 63 229 230 209 209 255 255 
3 63 230 231 209 209 255 255 
3 63 231 232 209 209 255 255 
3 63 232 233 209 209 255 255 
3 63 233 234 209 209 255 255 
3 63 234 220 209 209 255 255 
3 166 196 235 209 209 255 255 
3 166 235 236 209 209 255 255 
3 166 236 237 209 209 255 255 
3 166 237 227 209 209 255 255 
3 1 190 238 209 209 255 255 
3 1 238 239 209 209 255 255 
3 1 239 240 209 209 255 255 
3 1 240 241 209 209 255 255 
3 1 241 242 209 209 255 255 
3 1 242 221 209 209 255 255 
3 42 219 243 209 209 255 255 
3 42 243 244 209 209 255 255 
3 42 244 245 209 209 255 255 
3 42 245 246 209 209 255 255 
3 42 246 247 209 209 255 255 
3 42 247 248 209 209 255 255 
3 42 248 249 209 209 255 255 
3 42 249 250 209 209 255 255 
3 42 250 251 209 209 255 255 
3 42 251 164 209 209 255 255 
3 42 167 252 209 209 255 255 
3 42 252 253 209 209 255 255 
3 42 253 254 209 209 255 255 
3 42 254 255 209 209 255 255 
3 42 255 256 209 209 255 255 
3 42 256 257 209 209 255 255 
3 42 257 258 209 209 255 255 
3 42 258 259 209 209 255 255 
3 42 259 0 209 209 255 255 
3 194 0 259 209 209 255 255 
3 166 165 195 209 209 255 255 
3 1 63 62 209 209 255 255 
3 1 62 31 209 209 255 255 
3 260 261 151 209 209 255 255 
3 260 151 150 209 209 255 255 
3 262 263 230 209 209 255 255 
3 262 230 229 209 209 255 255 
3 264 265 266 209 209 255 255 
3 266 265 267 209 209 255 255 
3 266 267 268 209 209 255 255 
3 268 267 269 209 209 255 255 
3 268 269 270 209 209 255 255 
3 270 269 271 209 209 255 255 
3 270 271 272 209 209 255 255 
3 273 274 275 209 209 255 255 
3 275 274 276 209 209 255 255 
3 275 276 269 209 209 255 255 
3 269 276 277 209 209 255 255 
3 269 277 271 209 209 255 255 
3 278 279 280 209 209 255 255 
3 280 279 281 209 209 255 255 
3 280 281 282 209 209 255 255 
3 282 281 273 209 209 255 255 
3 282 273 275 209 209 255 255 
3 283 284 285 209 209 255 255 
3 283 285 286 209 209 255 255 
3 283 286 278 209 209 255 255 
3 283 278 280 209 209 255 255 
3 284 287 288 209 209 255 255 
3 284 288 289 209 209 255 255 
3 284 289 290 209 209 255 255 
3 284 290 285 209 209 255 255 
3 291 292 293 209 209 255 255 
3 291 293 270 209 209 255 255 
3 291 270 272 209 209 255 255 
3 294 263 260 209 209 255 255 
3 294 260 293 209 209 255 255 
3 294 293 292 209 209 255 255 
3 295 296 297 209 209 255 255 
3 297 296 261 209 209 255 255 
3 297 261 262 209 209 255 255 
3 262 261 260 209 209 255 255 
3 262 260 263 209 209 255 255 
3 298 299 300 209 209 255 255 
3 298 300 296 209 209 255 255 
3 298 296 295 209 209 255 255 
3 300 299 301 209 209 255 255 
3 300 301 288 209 209 255 255 
3 300 288 287 209 209 255 255 
3 300 287 302 209 209 255 255 
3 303 304 305 209 209 255 255 
3 305 304 306 209 209 255 255 
3 305 306 307 209 209 255 255 
3 307 306 302 209 209 255 255 
3 307 302 287 209 209 255 255 
3 230 263 294 209 209 255 255 
3 230 294 231 209 209 255 255 
3 150 149 293 209 209 255 255 
3 150 293 260 209 209 255 255 
3 270 293 149 209 209 255 255 
3 270 149 148 209 209 255 255 
3 294 292 232 209 209 255 255 
3 294 232 231 209 209 255 255 
3 232 292 291 209 209 255 255 
3 232 291 233 209 209 255 255 
3 148 147 268 209 209 255 255 
3 148 268 270 209 209 255 255 
3 147 146 266 209 209 255 255 
3 147 266 268 209 209 255 255 
3 291 272 234 209 209 255 255 
3 291 234 233 209 209 255 255 
3 234 272 271 209 209 255 255 
3 234 271 220 209 209 255 255 
3 146 122 264 209 209 255 255 
3 146 264 266 209 209 255 255 
3 277 218 220 209 209 255 255 
3 277 220 271 209 209 255 255 
3 265 264 122 209 209 255 255 
3 265 122 120 209 209 255 255 
3 118 267 265 209 209 255 255 
3 118 265 120 209 209 255 255 
3 277 276 216 209 209 255 255 
3 277 216 218 209 209 255 255 
3 118 116 269 209 209 255 255 
3 118 269 267 209 209 255 255 
3 276 274 214 209 209 255 255 
3 276 214 216 209 209 255 255 
3 274 273 212 209 209 255 255 
3 274 212 214 209 209 255 255 
3 116 114 275 209 209 255 255 
3 116 275 269 209 209 255 255 
3 273 281 210 209 209 255 255 
3 273 210 212 209 209 255 255 
3 114 112 282 209 209 255 255 
3 114 282 275 209 209 255 255 
3 113 115 308 209 209 255 255 
3 113 308 309 209 209 255 255 
3 310 308 115 209 209 255 255 
3 310 115 117 209 209 255 255 
3 310 117 119 209 209 255 255 
3 310 119 311 209 209 255 255 
3 311 119 121 209 209 255 255 
3 311 121 312 209 209 255 255 
3 312 121 123 209 209 255 255 
3 312 123 313 209 209 255 255 
3 314 313 123 209 209 255 255 
3 314 123 136 209 209 255 255 
3 314 136 135 209 209 255 255 
3 314 135 315 209 209 255 255 
3 135 134 316 209 209 255 255 
3 135 316 315 209 209 255 255 
3 110 280 282 209 209 255 255 
3 110 282 112 209 209 255 255 
3 317 111 113 209 209 255 255 
3 317 113 309 209 209 255 255 
3 207 318 319 209 209 255 255 
3 207 319 209 209 209 255 255 
3 313 314 312 209 209 255 255 
3 312 314 315 209 209 255 255 
3 312 315 311 209 209 255 255 
3 311 315 316 209 209 255 255 
3 311 316 310 209 209 255 255 
3 310 316 320 209 209 255 255 
3 310 320 321 209 209 255 255 
3 322 323 324 209 209 255 255 
3 324 323 325 209 209 255 255 
3 324 325 316 209 209 255 255 
3 316 325 326 209 209 255 255 
3 316 326 320 209 209 255 255 
3 327 328 329 209 209 255 255 
3 329 328 330 209 209 255 255 
3 329 330 331 209 209 255 255 
3 331 330 322 209 209 255 255 
3 331 322 324 209 209 255 255 
3 332 333 334 209 209 255 255 
3 332 334 335 209 209 255 255 
3 332 335 327 209 209 255 255 
3 332 327 329 209 209 255 255 
3 333 336 337 209 209 255 255 
3 333 337 338 209 209 255 255 
3 333 338 339 209 209 255 255 
3 333 339 334 209 209 255 255 
3 340 341 308 209 209 255 255 
3 340 308 310 209 209 255 255 
3 340 310 321 209 209 255 255 
3 342 319 309 209 209 255 255 
3 342 309 308 209 209 255 255 
3 342 308 341 209 209 255 255 
3 343 344 345 209 209 255 255 
3 345 344 317 209 209 255 255 
3 345 317 318 209 209 255 255 
3 318 317 309 209 209 255 255 
3 318 309 319 209 209 255 255 
3 346 347 348 209 209 255 255 
3 346 348 344 209 209 255 255 
3 346 344 343 209 209 255 255 
3 348 347 349 209 209 255 255 
3 348 349 337 209 209 255 255 
3 348 337 336 209 209 255 255 
3 348 336 350 209 209 255 255 
3 351 352 353 209 209 255 255 
3 353 352 354 209 209 255 255 
3 353 354 355 209 209 255 255 
3 355 354 350 209 209 255 255 
3 355 350 336 209 209 255 255 
3 209 319 342 209 209 255 255 
3 209 342 211 209 209 255 255 
3 211 342 341 209 209 255 255 
3 211 341 213 209 209 255 255 
3 213 341 340 209 209 255 255 
3 213 340 215 209 209 255 255 
3 215 340 321 209 209 255 255 
3 215 321 217 209 209 255 255 
3 217 321 320 209 209 255 255 
3 217 320 219 209 209 255 255 
3 219 320 326 209 209 255 255 
3 219 326 243 209 209 255 255 
3 243 326 325 209 209 255 255 
3 243 325 244 209 209 255 255 
3 244 325 323 209 209 255 255 
3 244 323 245 209 209 255 255 
3 245 323 322 209 209 255 255 
3 245 322 246 209 209 255 255 
3 316 134 133 209 209 255 255 
3 316 133 324 209 209 255 255 
3 246 322 330 209 209 255 255 
3 246 330 247 209 209 255 255 
3 324 133 132 209 209 255 255 
3 324 132 331 209 209 255 255 
3 331 132 131 209 209 255 255 
3 331 131 329 209 209 255 255 
3 247 330 328 209 209 255 255 
3 247 328 248 209 209 255 255 
3 281 279 208 209 209 255 255 
3 281 208 210 209 209 255 255 
3 108 283 280 209 209 255 255 
3 108 280 110 209 209 255 255 
3 329 131 130 209 209 255 255 
3 329 130 332 209 209 255 255 
3 248 328 327 209 209 255 255 
3 248 327 249 209 209 255 255 
3 332 130 140 209 209 255 255 
3 332 140 333 209 209 255 255 
3 249 327 335 209 209 255 255 
3 249 335 250 209 209 255 255 
3 250 335 334 209 209 255 255 
3 250 334 251 209 209 255 255 
3 336 333 140 209 209 255 255 
3 336 140 139 209 209 255 255 
3 251 334 339 209 209 255 255 
3 251 339 164 209 209 255 255 
3 355 336 139 209 209 255 255 
3 355 139 138 209 209 255 255 
3 164 339 338 209 209 255 255 
3 164 338 165 209 209 255 255 
3 165 338 337 209 209 255 255 
3 165 337 195 209 209 255 255 
3 195 337 349 209 209 255 255 
3 195 349 197 209 209 255 255 
3 197 349 347 209 209 255 255 
3 197 347 199 209 209 255 255 
3 199 347 346 209 209 255 255 
3 199 346 201 209 209 255 255 
3 201 346 343 209 209 255 255 
3 201 343 203 209 209 255 255 
3 107 109 344 209 209 255 255 
3 107 344 348 209 209 255 255 
3 203 343 345 209 209 255 255 
3 203 345 205 209 209 255 255 
3 344 109 111 209 209 255 255 
3 344 111 317 209 209 255 255 
3 205 345 318 209 209 255 255 
3 205 318 207 209 209 255 255 
3 279 278 206 209 209 255 255 
3 279 206 208 209 209 255 255 
3 108 106 284 209 209 255 255 
3 108 284 283 209 209 255 255 
3 355 138 137 209 209 255 255 
3 355 137 353 209 209 255 255 
3 353 137 99 209 209 255 255 
3 353 99 351 209 209 255 255 
3 352 351 99 209 209 255 255 
3 352 99 101 209 209 255 255 
3 352 101 103 209 209 255 255 
3 352 103 354 209 209 255 255 
3 354 103 105 209 209 255 255 
3 354 105 350 209 209 255 255 
3 350 105 107 209 209 255 255 
3 350 107 348 209 209 255 255 
3 278 286 204 209 209 255 255 
3 278 204 206 209 209 255 255 
3 286 285 202 209 209 255 255 
3 286 202 204 209 209 255 255 
3 287 284 106 209 209 255 255 
3 287 106 104 209 209 255 255 
3 285 290 200 209 209 255 255 
3 285 200 202 209 209 255 255 
3 104 102 307 209 209 255 255 
3 104 307 287 209 209 255 255 
3 128 127 356 209 209 255 255 
3 128 356 357 209 209 255 255 
3 356 127 126 209 209 255 255 
3 356 126 358 209 209 255 255 
3 358 126 125 209 209 255 255 
3 358 125 359 209 209 255 255 
3 125 124 360 209 209 255 255 
3 125 360 359 209 209 255 255 
3 102 100 305 209 209 255 255 
3 102 305 307 209 209 255 255 
3 179 361 362 209 209 255 255 
3 179 362 177 209 209 255 255 
3 363 364 365 209 209 255 255 
3 365 364 357 209 209 255 255 
3 365 357 366 209 209 255 255 
3 366 357 356 209 209 255 255 
3 366 356 367 209 209 255 255 
3 367 356 368 209 209 255 255 
3 367 368 369 209 209 255 255 
3 370 371 358 209 209 255 255 
3 358 371 372 209 209 255 255 
3 358 372 356 209 209 255 255 
3 356 372 373 209 209 255 255 
3 356 373 368 209 209 255 255 
3 374 375 360 209 209 255 255 
3 360 375 376 209 209 255 255 
3 360 376 359 209 209 255 255 
3 359 376 370 209 209 255 255 
3 359 370 358 209 209 255 255 
3 377 378 379 209 209 255 255 
3 377 379 380 209 209 255 255 
3 377 380 374 209 209 255 255 
3 377 374 360 209 209 255 255 
3 378 381 382 209 209 255 255 
3 378 382 383 209 209 255 255 
3 378 383 384 209 209 255 255 
3 378 384 379 209 209 255 255 
3 385 386 387 209 209 255 255 
3 385 387 367 209 209 255 255 
3 385 367 369 209 209 255 255 
3 388 362 389 209 209 255 255 
3 388 389 387 209 209 255 255 
3 388 387 386 209 209 255 255 
3 390 391 392 209 209 255 255 
3 392 391 393 209 209 255 255 
3 392 393 361 209 209 255 255 
3 361 393 389 209 209 255 255 
3 361 389 362 209 209 255 255 
3 394 395 396 209 209 255 255 
3 394 396 391 209 209 255 255 
3 394 391 390 209 209 255 255 
3 396 395 397 209 209 255 255 
3 396 397 382 209 209 255 255 
3 396 382 381 209 209 255 255 
3 396 381 398 209 209 255 255 
3 399 400 401 209 209 255 255 
3 401 400 402 209 209 255 255 
3 401 402 403 209 209 255 255 
3 403 402 398 209 209 255 255 
3 403 398 381 209 209 255 255 
3 177 362 388 209 209 255 255 
3 177 388 175 209 209 255 255 
3 83 85 387 209 209 255 255 
3 83 387 389 209 209 255 255 
3 367 387 85 209 209 255 255 
3 367 85 87 209 209 255 255 
3 175 388 386 209 209 255 255 
3 175 386 173 209 209 255 255 
3 173 386 385 209 209 255 255 
3 173 385 171 209 209 255 255 
3 89 366 367 209 209 255 255 
3 89 367 87 209 209 255 255 
3 366 89 91 209 209 255 255 
3 366 91 365 209 209 255 255 
3 171 385 369 209 209 255 255 
3 171 369 169 209 209 255 255 
3 169 369 368 209 209 255 255 
3 169 368 167 209 209 255 255 
3 365 91 93 209 209 255 255 
3 365 93 363 209 209 255 255 
3 167 368 373 209 209 255 255 
3 167 373 252 209 209 255 255 
3 364 363 93 209 209 255 255 
3 364 93 129 209 209 255 255 
3 364 129 128 209 209 255 255 
3 364 128 357 209 209 255 255 
3 252 373 372 209 209 255 255 
3 252 372 253 209 209 255 255 
3 253 372 371 209 209 255 255 
3 253 371 254 209 209 255 255 
3 254 371 370 209 209 255 255 
3 254 370 255 209 209 255 255 
3 255 370 376 209 209 255 255 
3 255 376 256 209 209 255 255 
3 256 376 375 209 209 255 255 
3 256 375 257 209 209 255 255 
3 360 124 145 209 209 255 255 
3 360 145 377 209 209 255 255 
3 257 375 374 209 209 255 255 
3 257 374 258 209 209 255 255 
3 377 145 144 209 209 255 255 
3 377 144 378 209 209 255 255 
3 258 374 380 209 209 255 255 
3 258 380 259 209 209 255 255 
3 259 380 379 209 209 255 255 
3 259 379 194 209 209 255 255 
3 381 378 144 209 209 255 255 
3 381 144 143 209 209 255 255 
3 194 379 384 209 209 255 255 
3 194 384 193 209 209 255 255 
3 381 143 142 209 209 255 255 
3 381 142 403 209 209 255 255 
3 403 142 141 209 209 255 255 
3 403 141 401 209 209 255 255 
3 193 384 383 209 209 255 255 
3 193 383 192 209 209 255 255 
3 401 141 69 209 209 255 255 
3 401 69 399 209 209 255 255 
3 192 383 382 209 209 255 255 
3 192 382 191 209 209 255 255 
3 400 399 69 209 209 255 255 
3 400 69 71 209 209 255 255 
3 191 382 397 209 209 255 255 
3 191 397 189 209 209 255 255 
3 189 397 395 209 209 255 255 
3 189 395 187 209 209 255 255 
3 400 71 73 209 209 255 255 
3 400 73 402 209 209 255 255 
3 73 75 398 209 209 255 255 
3 73 398 402 209 209 255 255 
3 187 395 394 209 209 255 255 
3 187 394 185 209 209 255 255 
3 185 394 390 209 209 255 255 
3 185 390 183 209 209 255 255 
3 183 390 392 209 209 255 255 
3 183 392 181 209 209 255 255 
3 181 392 361 209 209 255 255 
3 181 361 179 209 209 255 255 
3 290 289 198 209 209 255 255 
3 290 198 200 209 209 255 255 
3 100 98 303 209 209 255 255 
3 100 303 305 209 209 255 255 
3 393 81 83 209 209 255 255 
3 393 83 389 209 209 255 255 
3 398 75 77 209 209 255 255 
3 398 77 396 209 209 255 255 
3 396 77 79 209 209 255 255 
3 396 79 391 209 209 255 255 
3 391 79 81 209 209 255 255 
3 391 81 393 209 209 255 255 
3 166 404 405 209 209 255 255 
3 166 405 168 209 209 255 255 
3 406 407 92 209 209 255 255 
3 406 92 90 209 209 255 255 
3 408 406 90 209 209 255 255 
3 408 90 88 209 209 255 255 
3 170 168 405 209 209 255 255 
3 170 405 409 209 209 255 255 
3 408 88 86 209 209 255 255 
3 408 86 410 209 209 255 255 
3 170 409 411 209 209 255 255 
3 170 411 172 209 209 255 255 
3 172 411 412 209 209 255 255 
3 172 412 174 209 209 255 255 
3 410 86 84 209 209 255 255 
3 410 84 413 209 209 255 255 
3 174 412 414 209 209 255 255 
3 174 414 176 209 209 255 255 
3 415 413 84 209 209 255 255 
3 415 84 82 209 209 255 255 
3 415 82 80 209 209 255 255 
3 415 80 416 209 209 255 255 
3 417 178 176 209 209 255 255 
3 417 176 414 209 209 255 255 
3 416 80 78 209 209 255 255 
3 416 78 418 209 209 255 255 
3 178 417 419 209 209 255 255 
3 178 419 180 209 209 255 255 
3 420 418 78 209 209 255 255 
3 420 78 76 209 209 255 255 
3 419 421 182 209 209 255 255 
3 419 182 180 209 209 255 255 
3 422 184 182 209 209 255 255 
3 422 182 421 209 209 255 255 
3 423 420 76 209 209 255 255 
3 423 76 74 209 209 255 255 
3 186 184 422 209 209 255 255 
3 186 422 424 209 209 255 255 
3 423 74 72 209 209 255 255 
3 423 72 425 209 209 255 255 
3 425 72 70 209 209 255 255 
3 425 70 426 209 209 255 255 
3 427 188 186 209 209 255 255 
3 427 186 424 209 209 255 255 
3 426 70 68 209 209 255 255 
3 426 68 428 209 209 255 255 
3 429 190 188 209 209 255 255 
3 429 188 427 209 209 255 255 
3 289 288 196 209 209 255 255 
3 289 196 198 209 209 255 255 
3 304 303 98 209 209 255 255 
3 304 98 97 209 209 255 255 
3 157 430 431 209 209 255 255 
3 157 431 158 209 209 255 255 
3 432 222 221 209 209 255 255 
3 432 221 433 209 209 255 255 
3 407 406 434 209 209 255 255 
3 434 406 408 209 209 255 255 
3 434 408 435 209 209 255 255 
3 435 408 410 209 209 255 255 
3 435 410 436 209 209 255 255 
3 436 410 404 209 209 255 255 
3 436 404 437 209 209 255 255 
3 412 411 413 209 209 255 255 
3 413 411 409 209 209 255 255 
3 413 409 410 209 209 255 255 
3 410 409 405 209 209 255 255 
3 410 405 404 209 209 255 255 
3 419 417 416 209 209 255 255 
3 416 417 414 209 209 255 255 
3 416 414 415 209 209 255 255 
3 415 414 412 209 209 255 255 
3 415 412 413 209 209 255 255 
3 418 420 422 209 209 255 255 
3 418 422 421 209 209 255 255 
3 418 421 419 209 209 255 255 
3 418 419 416 209 209 255 255 
3 420 423 429 209 209 255 255 
3 420 429 427 209 209 255 255 
3 420 427 424 209 209 255 255 
3 420 424 422 209 209 255 255 
3 438 439 440 209 209 255 255 
3 438 440 436 209 209 255 255 
3 438 436 437 209 209 255 255 
3 441 432 430 209 209 255 255 
3 441 430 440 209 209 255 255 
3 441 440 439 209 209 255 255 
3 442 443 444 209 209 255 255 
3 444 443 431 209 209 255 255 
3 444 431 433 209 209 255 255 
3 433 431 430 209 209 255 255 
3 433 430 432 209 209 255 255 
3 445 446 447 209 209 255 255 
3 445 447 443 209 209 255 255 
3 445 443 442 209 209 255 255 
3 447 446 448 209 209 255 255 
3 447 448 429 209 209 255 255 
3 447 429 423 209 209 255 255 
3 447 423 449 209 209 255 255 
3 428 450 426 209 209 255 255 
3 426 450 451 209 209 255 255 
3 426 451 425 209 209 255 255 
3 425 451 449 209 209 255 255 
3 425 449 423 209 209 255 255 
3 223 222 432 209 209 255 255 
3 223 432 441 209 209 255 255 
3 430 157 156 209 209 255 255 
3 430 156 440 209 209 255 255 
3 436 440 156 209 209 255 255 
3 436 156 155 209 209 255 255 
3 441 439 224 209 209 255 255 
3 441 224 223 209 209 255 255 
3 439 438 225 209 209 255 255 
3 439 225 224 209 209 255 255 
3 155 154 435 209 209 255 255 
3 155 435 436 209 209 255 255 
3 154 153 434 209 209 255 255 
3 154 434 435 209 209 255 255 
3 437 226 225 209 209 255 255 
3 437 225 438 209 209 255 255 
3 226 437 404 209 209 255 255 
3 226 404 166 209 209 255 255 
3 153 92 407 209 209 255 255 
3 153 407 434 209 209 255 255 
3 450 428 68 209 209 255 255 
3 450 68 163 209 209 255 255 
3 429 448 238 209 209 255 255 
3 429 238 190 209 209 255 255 
3 448 446 239 209 209 255 255 
3 448 239 238 209 209 255 255 
3 163 162 451 209 209 255 255 
3 163 451 450 209 209 255 255 
3 162 161 449 209 209 255 255 
3 162 449 451 209 209 255 255 
3 446 445 240 209 209 255 255 
3 446 240 239 209 209 255 255 
3 449 161 160 209 209 255 255 
3 449 160 447 209 209 255 255 
3 240 445 442 209 209 255 255 
3 240 442 241 209 209 255 255 
3 447 160 159 209 209 255 255 
3 447 159 443 209 209 255 255 
3 241 442 444 209 209 255 255 
3 241 444 242 209 209 255 255 
3 443 159 158 209 209 255 255 
3 443 158 431 209 209 255 255 
3 242 444 433 209 209 255 255 
3 242 433 221 209 209 255 255 
3 288 301 235 209 209 255 255 
3 288 235 196 209 209 255 255 
3 235 301 299 209 209 255 255 
3 235 299 236 209 209 255 255 
3 97 96 306 209 209 255 255 
3 97 306 304 209 209 255 255 
3 95 302 306 209 209 255 255 
3 95 306 96 209 209 255 255 
3 299 298 237 209 209 255 255 
3 299 237 236 209 209 255 255 
3 302 95 94 209 209 255 255 
3 302 94 300 209 209 255 255 
3 295 227 237 209 209 255 255 
3 295 237 298 209 209 255 255 
3 152 296 300 209 209 255 255 
3 152 300 94 209 209 255 255 
3 295 297 228 209 209 255 255 
3 295 228 227 209 209 255 255 
3 151 261 296 209 209 255 255 
3 151 296 152 209 209 255 255 
3 262 229 228 209 209 255 255 
3 262 228 297 209 209 255 255 
3 452 453 454 209 209 255 255 
3 452 454 455 209 209 255 255 
3 35 456 457 209 209 255 255 
3 35 457 36 209 209 255 255 
3 29 458 459 209 209 255 255 
3 29 459 30 209 209 255 255 
3 32 460 461 209 209 255 255 
3 32 461 33 209 209 255 255 
3 462 463 14 209 209 255 255 
3 462 14 16 209 209 255 255 
3 33 461 464 209 209 255 255 
3 33 464 49 209 209 255 255 
3 16 23 465 209 209 255 255 
3 16 465 462 209 209 255 255 
3 43 466 460 209 209 255 255 
3 43 460 32 209 209 255 255 
3 15 14 463 209 209 255 255 
3 15 463 467 209 209 255 255 
3 465 23 453 209 209 255 255 
3 453 23 2 209 209 255 255 
3 453 2 454 209 209 255 255 
3 454 2 47 209 209 255 255 
3 454 47 49 209 209 255 255 
3 454 49 464 209 209 255 255 
3 466 43 455 209 209 255 255 
3 455 43 42 209 209 255 255 
3 455 42 452 209 209 255 255 
3 452 42 0 209 209 255 255 
3 452 0 15 209 209 255 255 
3 452 15 467 209 209 255 255 
3 463 462 468 209 209 255 255 
3 463 468 459 209 209 255 255 
3 463 459 458 209 209 255 255 
3 463 458 469 209 209 255 255 
3 463 469 470 209 209 255 255 
3 463 470 471 209 209 255 255 
3 463 471 472 209 209 255 255 
3 463 472 473 209 209 255 255 
3 463 473 452 209 209 255 255 
3 463 452 467 209 209 255 255 
3 67 66 453 209 209 255 255 
3 453 66 474 209 209 255 255 
3 453 474 465 209 209 255 255 
3 465 474 475 209 209 255 255 
3 465 475 462 209 209 255 255 
3 462 475 476 209 209 255 255 
3 462 476 477 209 209 255 255 
3 462 477 478 209 209 255 255 
3 462 478 479 209 209 255 255 
3 462 479 468 209 209 255 255 
3 452 473 480 209 209 255 255 
3 452 480 481 209 209 255 255 
3 452 481 482 209 209 255 255 
3 452 482 483 209 209 255 255 
3 452 483 484 209 209 255 255 
3 452 484 485 209 209 255 255 
3 452 485 486 209 209 255 255 
3 452 486 487 209 209 255 255 
3 452 487 453 209 209 255 255 
3 67 453 487 209 209 255 255 
3 455 454 488 209 209 255 255 
3 455 488 489 209 209 255 255 
3 455 489 490 209 209 255 255 
3 455 490 491 209 209 255 255 
3 455 491 492 209 209 255 255 
3 455 492 493 209 209 255 255 
3 455 493 494 209 209 255 255 
3 455 494 495 209 209 255 255 
3 455 495 496 209 209 255 255 
3 455 496 460 209 209 255 255 
3 455 460 466 209 209 255 255 
3 454 464 461 209 209 255 255 
3 454 461 497 209 209 255 255 
3 454 497 498 209 209 255 255 
3 454 498 65 209 209 255 255 
3 454 65 64 209 209 255 255 
3 454 64 488 209 209 255 255 
3 460 496 499 209 209 255 255 
3 460 499 500 209 209 255 255 
3 460 500 501 209 209 255 255 
3 460 501 502 209 209 255 255 
3 460 502 457 209 209 255 255 
3 460 457 456 209 209 255 255 
3 460 456 503 209 209 255 255 
3 460 503 461 209 209 255 255 
3 461 503 504 209 209 255 255 
3 461 504 505 209 209 255 255 
3 461 505 506 209 209 255 255 
3 461 506 507 209 209 255 255 
3 461 507 497 209 209 255 255 
3 493 492 58 209 209 255 255 
3 493 58 57 209 209 255 255 
3 9 483 482 209 209 255 255 
3 9 482 10 209 209 255 255 
3 503 456 35 209 209 255 255 
3 503 35 34 209 209 255 255 
3 17 30 459 209 209 255 255 
3 17 459 468 209 209 255 255 
3 501 38 37 209 209 255 255 
3 501 37 502 209 209 255 255 
3 469 28 27 209 209 255 255 
3 469 27 470 209 209 255 255 
3 488 44 61 209 209 255 255 
3 488 61 489 209 209 255 255 
3 6 5 487 209 209 255 255 
3 6 487 486 209 209 255 255 
3 34 54 504 209 209 255 255 
3 34 504 503 209 209 255 255 
3 17 468 479 209 209 255 255 
3 17 479 18 209 209 255 255 
3 492 491 59 209 209 255 255 
3 492 59 58 209 209 255 255 
3 484 483 9 209 209 255 255 
3 484 9 8 209 209 255 255 
3 45 44 488 209 209 255 255 
3 45 488 64 209 209 255 255 
3 4 67 487 209 209 255 255 
3 4 487 5 209 209 255 255 
3 39 38 501 209 209 255 255 
3 39 501 500 209 209 255 255 
3 26 471 470 209 209 255 255 
3 26 470 27 209 209 255 255 
3 497 507 51 209 209 255 255 
3 497 51 50 209 209 255 255 
3 476 475 22 209 209 255 255 
3 476 22 21 209 209 255 255 
3 55 495 494 209 209 255 255 
3 55 494 56 209 209 255 255 
3 11 481 480 209 209 255 255 
3 11 480 12 209 209 255 255 
3 497 50 48 209 209 255 255 
3 497 48 498 209 209 255 255 
3 24 22 475 209 209 255 255 
3 24 475 474 209 209 255 255 
3 496 41 40 209 209 255 255 
3 496 40 499 209 209 255 255 
3 472 25 13 209 209 255 255 
3 472 13 473 209 209 255 255 
3 46 65 498 209 209 255 255 
3 46 498 48 209 209 255 255 
3 66 3 24 209 209 255 255 
3 66 24 474 209 209 255 255 
3 39 500 499 209 209 255 255 
3 39 499 40 209 209 255 255 
3 471 26 25 209 209 255 255 
3 471 25 472 209 209 255 255 
3 51 507 506 209 209 255 255 
3 51 506 52 209 209 255 255 
3 476 21 20 209 209 255 255 
3 476 20 477 209 209 255 255 
3 57 56 494 209 209 255 255 
3 57 494 493 209 209 255 255 
3 481 11 10 209 209 255 255 
3 481 10 482 209 209 255 255 
3 37 36 457 209 209 255 255 
3 37 457 502 209 209 255 255 
3 469 458 29 209 209 255 255 
3 469 29 28 209 209 255 255 
3 490 489 61 209 209 255 255 
3 490 61 60 209 209 255 255 
3 486 485 7 209 209 255 255 
3 486 7 6 209 209 255 255 
3 505 504 54 209 209 255 255 
3 505 54 53 209 209 255 255 
3 479 478 19 209 209 255 255 
3 479 19 18 209 209 255 255 
3 60 59 491 209 209 255 255 
3 60 491 490 209 209 255 255 
3 8 7 485 209 209 255 255 
3 8 485 484 209 209 255 255 
3 496 495 55 209 209 255 255 
3 496 55 41 209 209 255 255 
3 480 473 13 209 209 255 255 
3 480 13 12 209 209 255 255 
3 53 52 506 209 209 255 255 
3 53 506 505 209 209 255 255 
3 478 477 20 209 209 255 255 
3 478 20 19 209 209 255 255 
