ply
format ascii 1.0
comment VCGLIB generated
element vertex 860
property float x
property float y
property float z
property float nx
property float ny
property float nz
element face 1724
property list uchar int vertex_indices
property uchar red
property uchar green
property uchar blue
property uchar alpha
end_header
-12 -11 -1e-06 -0.2050301 -3.128162 -3.010687 
16.5 -11 -1e-06 0.2050491 -3.010686 -3.128151 
-5.499999 -11 3.803799 -1.557426 -3.403457 2.697367 
-6.947098 -11 3.204399 -0.8060983 -3.403414 3.00859 
-8.499998 -11 2.999998 -4.749745e-08 -3.403339 3.114725 
-10.0529 -11 3.204399 0.8060985 -3.403414 3.008592 
-11.5 -11 3.803799 1.557425 -3.403458 2.697368 
-12 -11 4.187498 1.559186 -3.119209 2.40972 
18.8294 -11 0.306699 0.8061712 -2.879804 -3.008581 
18.353 -11 6.585198 0.5388118 -5.484963 2.010979 
17.75 -11 6.834898 1.040722 -5.485175 1.802834 
17.2322 -11 7.232199 1.471947 -5.485191 1.471946 
16.8349 -11 7.749998 1.802833 -5.485176 1.040723 
16.5852 -11 8.352999 2.010982 -5.484996 0.5387592 
16.5 -11 8.999999 2.081692 -5.485148 -2.667308e-06 
-5.499999 -11 14.1962 -1.557427 -3.403457 -2.69737 
-4.257399 -11 13.2426 -2.202453 -3.403271 -2.202452 
-3.303799 -11 12 -2.697368 -3.403457 -1.557425 
-2.704399 -11 10.5529 -3.008593 -3.403414 -0.806098 
-2.499999 -11 8.999999 -3.114726 -3.403338 -7.003546e-07 
-2.704399 -11 7.447099 -3.008594 -3.403414 0.8060966 
-3.303799 -11 5.999998 -2.697368 -3.403459 1.557426 
-4.257399 -11 4.757399 -2.202454 -3.403271 2.202455 
-12 -11 18 -0.2050222 -3.128155 3.010697 
-12 -11 13.8125 1.559277 -3.11846 -2.409735 
-11.5 -11 14.1962 1.557409 -3.403443 -2.697384 
-10.0529 -11 14.7956 0.8060966 -3.403414 -3.008593 
-8.499998 -11 15 -3.72529e-07 -3.403337 -3.114727 
-6.947098 -11 14.7956 -0.8060923 -3.403414 -3.008583 
16.5 -11 18 0.2050488 -3.010685 3.128151 
16.5852 -11 9.646998 2.011014 -5.484957 -0.5387223 
16.8349 -11 10.25 1.802828 -5.485147 -1.040801 
17.2322 -11 10.7678 1.471947 -5.485205 -1.471924 
17.75 -11 11.1651 1.040721 -5.485175 -1.802836 
18.353 -11 11.4148 0.5388128 -5.484962 -2.010982 
18.8294 -11 17.6933 0.8061705 -2.879805 3.00858 
19 -11 11.5 -4.214048e-05 -5.485119 -2.081727 
19.647 -11 11.4148 -0.5387219 -5.484952 -2.011017 
20.25 -11 11.1651 -1.040793 -5.485134 -1.80285 
20.7678 -11 10.7678 -1.471947 -5.485205 -1.471924 
21 -11 16.7942 1.557321 -2.879829 2.697452 
21.1651 -11 10.25 -1.802815 -5.485187 -1.04073 
21.4148 -11 9.646998 -2.010982 -5.484967 -0.5388115 
21.5 -11 8.999999 -2.081724 -5.485116 3.860891e-05 
22.864 -11 2.635999 2.202427 -2.879728 -2.202428 
22.864 -11 15.364 2.202427 -2.879728 2.202426 
25.5 -11 8.999999 3.114706 -2.87977 -3.72529e-07 
25.1933 -11 11.3294 3.008579 -2.879802 0.8061701 
25.1933 -11 6.670598 3.008581 -2.879802 -0.8061712 
24.2942 -11 13.5 2.697455 -2.879829 1.557321 
24.2942 -11 4.499998 2.697451 -2.879828 -1.557322 
21 -11 1.205799 1.557321 -2.879827 -2.697453 
20.7678 -11 7.232199 -1.471947 -5.485191 1.471946 
20.25 -11 6.834898 -1.040793 -5.485135 1.802847 
19.647 -11 6.585198 -0.5387712 -5.484922 2.011039 
19 -11 6.499998 0 -5.485089 2.081762 
21.4148 -11 8.352999 -2.011009 -5.484997 0.5387627 
21.1651 -11 7.749998 -1.802832 -5.485176 1.040723 
-12 11 18 -0.2050299 3.128157 3.010687 
16.5 11 18 0.2050488 3.01068 3.128147 
16.3437 11 9.711802 3.008593 3.403397 -0.8061144 
16.25 11 9.000001 3.114722 3.403364 2.324581e-06 
-5.5 11 14.1962 -1.557426 3.403459 -2.697366 
-6.9471 11 14.7956 -0.8061037 3.403414 -3.008603 
-8.5 11 15 4.470348e-08 3.403338 -3.114727 
-10.0529 11 14.7956 0.8060988 3.403415 -3.008593 
-11.5 11 14.1962 1.557425 3.403458 -2.697367 
-12 11 13.8125 1.55919 3.119127 -2.409717 
16.3437 11 8.288201 3.008589 3.403398 0.8061177 
-12 11 1e-06 -0.2050219 3.128147 -3.010697 
-5.5 11 3.803802 -1.557427 3.403457 2.697369 
-4.257401 11 4.757402 -2.202454 3.40327 2.202454 
-3.303801 11 6.000002 -2.697368 3.403457 1.557426 
-2.704401 11 7.447102 -3.008593 3.403414 0.8060991 
-2.500001 11 9.000001 -3.114727 3.403337 1.311302e-06 
-2.704401 11 10.5529 -3.008592 3.403414 -0.806098 
-3.303801 11 12 -2.697369 3.403457 -1.557426 
-4.257401 11 13.2426 -2.202455 3.403271 -2.202454 
18.8294 11 17.6933 0.8061706 2.879802 3.008581 
18.2882 11 11.6563 0.8061131 3.403394 -3.008594 
17.625 11 11.3816 1.55749 3.403522 -2.697315 
17.0555 11 10.9445 2.202472 3.403155 -2.20247 
16.6184 11 10.375 2.697314 3.403518 -1.557492 
21 11 16.7942 1.557321 2.879839 2.697453 
20.9445 11 10.9445 -2.202472 3.403155 -2.202469 
20.375 11 11.3816 -1.55749 3.403522 -2.697315 
19.7118 11 11.6563 -0.806113 3.403394 -3.008593 
19 11 11.75 -4.470348e-08 3.403368 -3.114721 
22.864 11 15.364 2.202427 2.879728 2.202428 
21.75 11 9.000001 -3.114726 3.403363 1.337379e-06 
21.6563 11 9.711802 -3.008581 3.403397 -0.8061129 
21.3816 11 10.375 -2.697314 3.403518 -1.557493 
-12 11 4.187502 1.559277 3.118461 2.409736 
-11.5 11 3.803802 1.557408 3.403442 2.697383 
-10.0529 11 3.204402 0.8060984 3.403414 3.008594 
-8.5 11 3.000002 -2.086163e-07 3.403337 3.114727 
-6.9471 11 3.204402 -0.8060991 3.403414 3.008595 
16.5 11 1e-06 0.2050489 3.010684 -3.128149 
16.6184 11 7.625002 2.697316 3.403517 1.557494 
17.0555 11 7.055502 2.202471 3.403155 2.20247 
17.625 11 6.618402 1.557496 3.403517 2.697315 
18.2882 11 6.343701 0.8061133 3.4034 3.008592 
18.8294 11 0.306701 0.8061714 2.879804 -3.00858 
19 11 6.250002 -1.490116e-08 3.403361 3.114722 
19.7118 11 6.343701 -0.8061136 3.4034 3.008592 
20.375 11 6.618402 -1.557496 3.403517 2.697314 
20.9445 11 7.055502 -2.202472 3.403155 2.202471 
21 11 1.205802 1.557322 2.879824 -2.697452 
21.3816 11 7.625002 -2.697317 3.403517 1.557494 
21.6563 11 8.288201 -3.008495 3.403398 0.8061068 
22.864 11 2.636002 2.202427 2.879728 -2.202427 
25.5 11 9.000001 3.114716 2.87977 4.768372e-07 
25.1933 11 6.670601 3.008578 2.879802 -0.8061703 
25.1933 11 11.3294 3.008581 2.879802 0.8061711 
24.2942 11 4.500002 2.697454 2.87983 -1.557322 
24.2942 11 13.5 2.697452 2.879829 1.557322 
25.1933 -0.749999 6.6706 3.008579 2.879802 -0.80617 
25.5 -0.749999 9 3.114706 2.87977 5.890907e-07 
25.5 0.750001 9 3.114716 -2.87977 -5.66739e-07 
25.1933 0.750001 6.6706 3.008581 -2.879802 -0.8061711 
25.1933 -0.75 11.3294 3.008581 2.879802 0.8061712 
25.1933 0.75 11.3294 3.008579 -2.879802 0.8061699 
24.2942 -0.749999 4.5 2.697454 2.879829 -1.557321 
24.2942 0.750001 4.5 2.697451 -2.879828 -1.557321 
24.2942 -0.75 13.5 2.697453 2.879829 1.557322 
24.2942 0.75 13.5 2.697452 -2.879829 1.557321 
22.864 -0.75 15.364 2.202426 2.879728 2.202427 
22.864 0.75 15.364 2.202429 -2.879728 2.202427 
22.864 -0.749998 2.636 2.202425 2.879728 -2.202427 
22.864 0.750002 2.636 2.202428 -2.879728 -2.202428 
21 -0.750001 16.7942 1.557321 2.879827 2.697453 
21 0.749999 16.7942 1.557321 -2.879843 2.697452 
16.5 -0.749999 -0 0.2050491 3.010684 -3.128145 
18.8294 -0.749999 0.3067 0.8061709 2.879803 -3.00858 
18.8294 0.750001 0.3067 0.8061712 -2.879802 -3.00858 
16.5 0.750001 0 0.205049 -3.010679 -3.128152 
21 -0.749999 1.2058 1.557321 2.87983 -2.697453 
21 0.750001 1.2058 1.557321 -2.879804 -2.697453 
16.5 -0.750001 18 0.2050489 3.010685 3.128146 
18.8294 -0.750001 17.6933 0.8061706 2.879803 3.008581 
16.5 0.749999 18 0.2050489 -3.010681 3.128151 
18.8294 0.749999 17.6933 0.8061705 -2.879804 3.00858 
17.0555 0.75 7.0555 2.202471 -3.403156 2.20247 
16.6184 0.75 7.625 2.697313 -3.403518 1.557492 
16.3437 0.75 8.2882 3.008591 -3.403397 0.8061144 
14.9624 0.750001 0 -1.54513 -1.853592 -1.751817 
16.25 0.75 9 3.114721 -3.403365 -9.387732e-07 
14.9624 0.749999 18 -1.54513 -1.853593 1.751817 
16.3437 0.749999 9.7118 3.008577 -3.403397 -0.8061166 
16.6184 0.749999 10.375 2.697315 -3.403518 -1.557493 
17.0555 0.749999 10.9445 2.202472 -3.403154 -2.20247 
19.7118 0.75 6.3437 -0.8061134 -3.403399 3.008591 
19 0.75 6.25 1.788139e-07 -3.403364 3.11472 
18.2882 0.75 6.3437 0.8061133 -3.403399 3.008591 
17.625 0.75 6.6184 1.557493 -3.403519 2.697314 
21.6563 0.750001 8.2882 -3.008592 -3.403399 0.8061148 
21.3816 0.750001 7.625 -2.697315 -3.403518 1.557493 
20.9445 0.750001 7.0555 -2.202471 -3.403156 2.202471 
20.375 0.75 6.6184 -1.557487 -3.403519 2.697311 
21.75 0.750001 9 -3.114727 -3.403362 -1.147389e-06 
21.6563 0.75 9.7118 -3.00849 -3.403397 -0.8061057 
17.625 0.749999 11.3816 1.557494 -3.40352 -2.697313 
18.2882 0.75 11.6563 0.8061159 -3.403396 -3.008594 
19 0.75 11.75 2.142042e-07 -3.403365 -3.114723 
19.7118 0.75 11.6563 -0.8061134 -3.403396 -3.008595 
20.375 0.75 11.3816 -1.557493 -3.40352 -2.697315 
20.9445 0.75 10.9445 -2.202473 -3.403154 -2.202471 
21.3816 0.75 10.375 -2.697316 -3.403518 -1.557493 
14.7444 1.941099 18 -2.996379 -0.8838661 3.353237 
14.7444 1.941101 0 -2.996377 -0.8838652 -3.353238 
7.499999 7.499998 18 -7.450581e-08 -3.114706 3.403443 
5.558899 7.244398 18 0.8061384 -3.0086 3.403334 
5.558899 7.2444 1e-06 0.8061381 -3.0086 -3.403334 
7.499999 7.5 1e-06 5.662441e-07 -3.114706 -3.403443 
9.441098 7.244398 18 -0.806137 -3.0086 3.403332 
9.441098 7.244401 1e-06 -0.8061367 -3.0086 -3.403334 
11.25 6.495199 18 -1.557313 -2.697439 3.403431 
11.25 6.495201 1e-06 -1.557315 -2.697439 -3.403431 
3.749999 6.495198 18 1.557315 -2.697439 3.40343 
3.749999 6.4952 1e-06 1.557316 -2.697439 -3.403431 
12.8033 5.303298 18 -2.202439 -2.202441 3.403382 
12.8033 5.3033 1e-06 -2.202439 -2.202439 -3.403382 
13.9952 3.749999 18 -2.69744 -1.557316 3.40343 
13.9952 3.750001 1e-06 -2.697441 -1.557315 -3.403431 
5.5589 -7.244402 18 0.8061379 3.008604 3.403332 
7.5 -7.500002 18 -1.498132e-08 3.114706 3.403434 
7.5 -7.5 -1e-06 -2.213528e-06 3.114723 -3.403433 
5.5589 -7.2444 -1e-06 0.8061375 3.0086 -3.403331 
19.535 -10.567 7.003398 -1.412223 -2.341991 5.270927 
19.535 -1.183 7.0034 -1.412228 2.341988 5.270926 
19 -1.183 6.933 6.345659e-05 2.34193 5.456753 
19 -10.567 6.932999 1.490116e-07 -2.341978 5.456712 
20.0335 -10.567 7.209898 -2.728424 -2.342069 4.7256 
20.0335 -1.182999 7.2099 -2.728423 2.34207 4.725599 
20.4616 -10.567 7.538399 -3.858439 -2.34211 3.858437 
20.4616 -1.182999 7.5384 -3.85844 2.342109 3.858438 
20.7901 -10.567 7.966498 -4.725685 -2.342012 2.728371 
20.7901 -1.182999 7.9665 -4.725687 2.34201 2.728369 
20.9966 -10.567 8.464998 -5.270999 -2.341888 1.412264 
20.9966 -1.182999 8.465 -5.270999 2.341888 1.412266 
21.067 -10.567 8.999998 -5.45675 -2.341935 6.140769e-05 
21.067 -1.182999 9 -5.456786 2.34189 9.164214e-07 
20.9966 -10.567 9.534999 -5.270947 -2.341933 -1.41232 
20.9966 -1.182999 9.535 -5.270972 2.341949 -1.412174 
20.7901 -10.567 10.0335 -4.725686 -2.341992 -2.728397 
20.7901 -1.183 10.0335 -4.725607 2.34205 -2.728442 
20.4616 -10.567 10.4616 -3.858468 -2.342093 -3.858429 
20.4616 -1.183 10.4616 -3.85846 2.342075 -3.858459 
20.0335 -10.567 10.7901 -2.728419 -2.342067 -4.725603 
20.0335 -1.183 10.7901 -2.7284 2.34199 -4.725687 
19.535 -10.567 10.9966 -1.412172 -2.341943 -5.270978 
19.535 -1.183 10.9966 -1.412323 2.341928 -5.270952 
19 -10.567 11.067 -6.470084e-05 -2.341931 -5.456751 
19 -1.183 11.067 6.342679e-05 2.341931 -5.456754 
18.465 -10.567 10.9966 1.412319 -2.34193 -5.270952 
18.465 -1.183 10.9966 1.412176 2.341944 -5.270978 
17.9665 -10.567 10.7901 2.72837 -2.342008 -4.725687 
17.9665 -1.183 10.7901 2.728418 2.34207 -4.725602 
17.5384 -10.567 10.4616 3.858468 -2.342093 -3.858429 
17.5384 -1.183 10.4616 3.858466 2.342097 -3.858429 
17.2099 -10.567 10.0335 4.725604 -2.342051 -2.728445 
17.2099 -1.183001 10.0335 4.725687 2.341991 -2.728399 
17.0034 -10.567 9.534999 5.270974 -2.341948 -1.412176 
17.0034 -1.183001 9.535 5.271 2.341888 -1.412265 
16.933 -10.567 8.999998 5.456785 -2.341891 -1.266599e-06 
16.933 -1.183 9 5.456786 2.341891 2.138317e-06 
17.0034 -10.567 8.464998 5.271 -2.341888 1.412265 
17.0034 -1.183 8.465 5.270974 2.341946 1.412174 
17.2099 -10.567 7.966498 4.725685 -2.342012 2.728371 
17.2099 -1.183 7.9665 4.725605 2.342068 2.728417 
17.5384 -10.567 7.538399 3.858439 -2.34211 3.858437 
17.5384 -1.183 7.5384 3.85844 2.342109 3.858438 
17.9665 -10.567 7.209898 2.728375 -2.34201 4.725684 
17.9665 -1.183 7.2099 2.728421 2.342066 4.725603 
18.465 -10.567 7.003398 1.412316 -2.341933 5.270951 
18.465 -1.183 7.0034 1.412175 2.341943 5.270979 
12.8033 -5.303301 18 -2.202438 2.202435 3.403383 
13.9952 -3.750001 18 -2.697439 1.557315 3.403431 
13.9952 -3.749999 -1e-06 -2.697423 1.557303 -3.40343 
12.8033 -5.303299 -1e-06 -2.202438 2.202437 -3.403383 
18.353 -0.75 11.4148 0.5387185 5.48495 -2.011018 
17.75 -0.750001 11.1651 1.040789 5.485136 -1.80285 
17.2322 -0.750001 10.7678 1.471946 5.485206 -1.471922 
16.8349 -0.750001 10.25 1.802814 5.485187 -1.040731 
16.5852 -0.750001 9.647 2.010987 5.484996 -0.5387601 
16.5 -0.75 9 2.081693 5.485147 2.071261e-06 
14.9624 -0.749999 -0 -1.54513 1.853595 -1.751817 
14.9624 -0.750001 18 -1.54513 1.853593 1.751817 
20.7678 -0.75 10.7678 -1.471925 5.485217 -1.471925 
20.25 -0.75 11.1651 -1.040728 5.485186 -1.802815 
19.647 -0.75 11.4148 -0.5388128 5.484961 -2.010982 
19 -0.75 11.5 4.142523e-05 5.485117 -2.081728 
21.5 -0.749999 9 -2.08169 5.485146 1.460314e-06 
21.4148 -0.75 9.647 -2.01107 5.484959 -0.5387239 
21.1651 -0.75 10.25 -1.802827 5.485147 -1.040799 
16.5852 -0.75 8.353 2.011014 5.484956 0.5387227 
16.8349 -0.75 7.75 1.80285 5.485135 1.040794 
17.2322 -0.75 7.2322 1.471947 5.485191 1.471947 
17.75 -0.75 6.8349 1.040794 5.485134 1.80285 
18.353 -0.75 6.5852 0.5387224 5.484952 2.011017 
19 -0.75 6.5 4.141033e-05 5.485117 2.081729 
19.647 -0.75 6.5852 -0.5387717 5.484922 2.011041 
20.25 -0.75 6.8349 -1.040801 5.485136 1.802849 
20.7678 -0.749999 7.2322 -1.471948 5.485191 1.471945 
21.1651 -0.749999 7.75 -1.802835 5.485174 1.040724 
21.4148 -0.749999 8.353 -2.010953 5.484996 0.538762 
9.4411 -7.244402 18 -0.806138 3.0086 3.403332 
9.4411 -7.2444 -1e-06 -0.8061381 3.0086 -3.40334 
11.25 -6.495202 18 -1.557317 2.697438 3.403431 
11.25 -6.4952 -1e-06 -1.557316 2.697438 -3.40343 
3.75 -6.495201 -1e-06 1.557315 2.697439 -3.403431 
3.75 -6.495203 18 1.557315 2.697439 3.403431 
14.7444 -1.941101 18 -2.996377 0.8838657 3.353237 
14.7444 -1.941099 -0 -2.996379 0.8838678 -3.353237 
-14.4529 10.6771 9.750002 1.335771 1.750773 -1.746717 
-14.4529 -10.6771 9.749998 1.335772 -1.750772 -1.746721 
-14.847 -10.6252 9.749998 -0.8062034 -3.008578 -2.879827 
-14.75 -3e-06 9.75 -3.114721 6.32368e-07 -3.403362 
-14.8437 0.711797 9.75 -3.008589 -0.8061123 -3.403396 
-15.1184 1.374997 9.75 -2.697313 -1.557492 -3.403521 
-15.5555 1.944497 9.75 -2.202469 -2.202472 -3.403155 
-16.125 2.381596 9.75 -1.557491 -2.697315 -3.403518 
-16.7882 2.656296 9.75 -0.8061133 -3.008593 -3.403398 
-17.5 2.749996 9.75 1.788139e-07 -3.114722 -3.403364 
-22.6252 2.846996 9.75 -3.008587 0.8061358 -2.879794 
-21.5263 5.499997 9.750001 -2.697431 1.557347 -2.879797 
-19.7782 7.778196 9.750001 -2.202434 2.202434 -2.879781 
-17.5 9.526298 9.750002 -1.557348 2.697434 -2.879794 
-14.847 10.6252 9.750002 -0.8062049 3.008578 -2.879834 
-18.875 -2.381604 9.75 1.557493 2.697314 -3.403519 
-18.2118 -2.656304 9.75 0.806114 3.008594 -3.403397 
-22.6252 -2.847004 9.75 -3.008588 -0.8061355 -2.879793 
-17.5 -2.750004 9.75 -2.831221e-07 3.114724 -3.403364 
-21.5263 -5.500003 9.749999 -2.697431 -1.557345 -2.879797 
-16.7882 -2.656304 9.75 -0.8061166 3.008595 -3.403398 
-16.125 -2.381603 9.75 -1.557496 2.697315 -3.403517 
-19.7782 -7.778203 9.749999 -2.202436 -2.202434 -2.879775 
-15.5555 -1.944503 9.75 -2.202482 2.202481 -3.403157 
-15.1184 -1.375003 9.75 -2.69732 1.557495 -3.403521 
-17.5 -9.526304 9.749998 -1.557345 -2.69743 -2.879802 
-14.8437 -0.711803 9.75 -3.008597 0.8061138 -3.403398 
-18.2118 2.656296 9.75 0.806113 -3.008592 -3.403397 
-18.875 2.381596 9.75 1.557493 -2.697315 -3.403519 
-19.4445 1.944496 9.75 2.202472 -2.20247 -3.403155 
-19.8816 1.374996 9.75 2.697315 -1.557493 -3.403518 
-20.1563 0.711796 9.75 3.008593 -0.8061152 -3.403398 
-23 -4e-06 9.75 -3.114718 5.960464e-08 -2.879802 
-20.25 -4e-06 9.75 3.114723 1.192093e-07 -3.403365 
-20.1563 -0.711804 9.75 3.008592 0.8061147 -3.403398 
-19.8816 -1.375004 9.75 2.697315 1.557493 -3.403518 
-19.4445 -1.944504 9.75 2.202471 2.20247 -3.403155 
-21.5263 -5.500004 18 -2.697431 -1.557346 2.87981 
-19.7782 -7.778205 18 -2.202435 -2.202437 2.87978 
-17.5 -9.526305 18 -1.557345 -2.697432 2.879796 
-14.847 -10.6252 18 -0.8061324 -3.00858 2.879746 
-22.6252 2.846995 18 -3.008587 0.8061354 2.879791 
-23 -5e-06 18 -3.114718 -5.960464e-08 2.879805 
-20.1563 0.711795 18 3.008592 -0.8061142 3.403397 
-19.8816 1.374996 18 2.697315 -1.557492 3.403519 
-19.4445 1.944496 18 2.202472 -2.20247 3.403155 
-18.875 2.381596 18 1.557493 -2.697314 3.403519 
-18.2118 2.656296 18 0.8061135 -3.008594 3.403398 
-17.5 2.749996 18 -1.341105e-07 -3.114723 3.403363 
1.0048 3.749997 18 2.69744 -1.557315 3.403425 
-21.5263 5.499996 18 -2.697432 1.557345 2.879798 
-22.6252 -2.847005 18 -3.008587 -0.8061359 2.879794 
-18.875 -2.381604 18 1.557493 2.697315 3.40352 
-19.4445 -1.944504 18 2.202471 2.20247 3.403156 
-19.8816 -1.375004 18 2.697315 1.557493 3.403518 
-20.1563 -0.711804 18 3.008593 0.806115 3.403398 
-20.25 -4e-06 18 3.114722 -3.72529e-07 3.403365 
2.1967 -5.303302 18 2.202437 2.202433 3.403383 
1.0048 -3.750003 18 2.697438 1.557315 3.403431 
-17.5 -2.750004 18 1.341105e-07 3.114723 3.403363 
-18.2118 -2.656304 18 0.8061136 3.008592 3.403397 
-19.7782 7.778196 18 -2.202435 2.202433 2.879775 
-17.5 9.526297 18 -1.557346 2.697431 2.879798 
2.196699 5.303297 18 2.20244 -2.202442 3.403383 
-16.7882 2.656296 18 -0.8061131 -3.008592 3.403398 
-16.125 2.381596 18 -1.557493 -2.697315 3.403519 
-15.5555 1.944496 18 -2.202471 -2.202471 3.403154 
0.2556 1.941097 18 3.0086 -0.8061381 3.403335 
-15.1184 1.374996 18 -2.697314 -1.557492 3.40352 
-14.8437 0.711796 18 -3.008593 -0.8061131 3.403396 
0 -3e-06 18 3.114706 2.980232e-08 3.403444 
-14.75 -4e-06 18 -3.114721 -4.470348e-08 3.403365 
-14.8437 -0.711804 18 -3.008593 0.8061129 3.403396 
-15.1184 -1.375004 18 -2.697315 1.557493 3.40352 
-15.5555 -1.944504 18 -2.20247 2.202472 3.403155 
0.2556 -1.941103 18 3.0086 0.8061381 3.403343 
-16.125 -2.381604 18 -1.557493 2.697314 3.403519 
-16.7882 -2.656304 18 -0.806114 3.008594 3.403397 
-14.847 10.6252 18 -0.8061292 3.00859 2.879784 
0 -1e-06 -0 3.114706 2.384186e-07 -3.403444 
0.2556 1.9411 0 3.008599 -0.8061368 -3.40335 
-12.7426 10.9022 13.2426 1.758234 3.374159 -2.236357 
-13.6962 10.7767 12 2.269981 3.375446 -1.58683 
-14.2956 10.6978 10.5529 2.578268 3.313664 -0.9174966 
2.196699 5.303299 1e-06 2.202439 -2.202438 -3.403383 
1.0048 3.75 1e-06 2.69744 -1.557314 -3.40343 
-14.2956 -10.6978 10.5529 2.578269 -3.313665 -0.9174969 
-13.6962 -10.7767 12 2.269984 -3.375445 -1.586831 
-12.7426 -10.9022 13.2426 1.758241 -3.374149 -2.236373 
2.1967 -5.3033 -1e-06 2.202438 2.202437 -3.403383 
1.0048 -3.75 -1e-06 2.697438 1.557315 -3.40343 
0.2556 -1.9411 -0 3.0086 0.8061395 -3.403359 
-14.847 -10.6252 -2e-06 -0.8061277 -3.008591 -2.879742 
-17.5 -9.526302 -2e-06 -1.557344 -2.69743 -2.879797 
-19.7782 -7.778203 -1e-06 -2.202435 -2.202435 -2.87978 
-21.5263 -5.500002 -1e-06 -2.697431 -1.557345 -2.87981 
-19.7782 7.778198 1e-06 -2.202435 2.202434 -2.879775 
-17.5 9.526299 2e-06 -1.557347 2.697433 -2.879797 
-14.847 10.6252 2e-06 -0.8061339 3.008579 -2.879788 
-21.5263 5.499998 1e-06 -2.697431 1.557346 -2.879798 
-22.6252 2.846997 0 -3.008587 0.8061358 -2.879791 
-17.5 1.999998 0 -6.318092e-06 -2.081815 -5.485053 
-18.0176 1.931898 0 0.5386736 -2.010756 -5.485178 
-18.5 1.732098 0 1.040837 -1.802623 -5.485287 
-18.9142 1.414198 0 1.47212 -1.471909 -5.485113 
-19.232 0.999998 0 1.802888 -1.041048 -5.485005 
-19.4319 0.517598 0 2.010633 -0.5387922 -5.485245 
-23 -3e-06 -0 -3.114718 0 -2.879781 
-15.5681 0.517598 0 -2.010609 -0.538808 -5.485261 
-15.768 0.999998 0 -1.80291 -1.041011 -5.485005 
-16.0858 1.414198 0 -1.472118 -1.471938 -5.485097 
-16.5 1.732098 0 -1.040771 -1.802609 -5.485324 
-16.9824 1.931898 0 -0.538703 -2.010696 -5.485221 
-16.9824 -1.931902 -0 -0.5387025 2.010696 -5.485222 
-16.5 -1.732102 -0 -1.040788 1.802559 -5.485354 
-16.0858 -1.414202 -0 -1.472067 1.471912 -5.485143 
-15.768 -1.000002 -0 -1.802888 1.041048 -5.485005 
-15.5681 -0.517602 -0 -2.010633 0.5387923 -5.485245 
-15.5 -2e-06 -0 -2.08181 0 -5.485059 
-18.9142 -1.414202 -0 1.47212 1.471909 -5.485113 
-18.5 -1.732102 -0 1.040771 1.802609 -5.485322 
-18.0176 -1.931902 -0 0.5387104 2.0107 -5.485219 
-22.6252 -2.847003 -0 -3.008587 -0.8061355 -2.879795 
-17.5 -2.000002 -0 -6.511807e-06 2.081816 -5.485054 
-19.5 -2e-06 -0 2.081816 -7.092953e-06 -5.485053 
-19.4319 -0.517602 -0 2.010613 0.5388166 -5.485256 
-19.232 -1.000002 -0 1.802882 1.04102 -5.485022 
-14.847 10.6252 8.250002 -0.8062045 3.008578 2.879835 
-14.4529 10.6771 8.250002 1.335772 1.750772 1.746725 
-14.2956 10.6978 7.447102 2.578269 3.313665 0.9174968 
-13.6962 10.7767 6.000002 2.269983 3.375446 1.586831 
-12.7426 10.9022 4.757402 1.758241 3.374149 2.236373 
-19.7782 7.778196 8.250001 -2.202437 2.202435 2.879782 
-17.5 9.526299 8.250002 -1.557345 2.697427 2.879795 
-21.5263 5.499997 8.250001 -2.69743 1.557345 2.879797 
-22.6252 2.846997 8.25 -3.008588 0.8061354 2.879789 
-23 -3e-06 8.25 -3.114718 0 2.879779 
-15.9342 0.419498 0.379 -5.270795 -1.412413 -2.342114 
-15.9342 0.419497 7.871 -5.270786 -1.412375 2.342139 
-16.0962 0.810497 7.871 -4.725528 -2.728629 2.341979 
-16.0962 0.810498 0.379 -4.725563 -2.728609 -2.341955 
-16.3538 1.146197 7.871 -3.858479 -3.858476 2.342044 
-16.3538 1.146198 0.379 -3.858497 -3.858407 -2.34209 
-16.6895 1.403797 7.871 -2.728613 -4.725338 2.342168 
-16.6895 1.403798 0.379 -2.728497 -4.725417 -2.342157 
-17.0805 1.565797 7.871 -1.412284 -5.270764 2.342193 
-17.0805 1.565798 0.379 -1.412372 -5.270788 -2.342138 
-17.5 1.620997 7.871 -1.007318e-05 -5.45671 2.341979 
-17.5 1.620998 0.379 -9.983778e-06 -5.456709 -2.34198 
-17.9195 1.565797 7.871 1.412292 -5.270756 2.3422 
-17.9195 1.565798 0.379 1.412292 -5.270755 -2.342201 
-18.3105 1.403797 7.871 2.728543 -4.725338 2.342212 
-18.3105 1.403798 0.379 2.728542 -4.725338 -2.342213 
-18.6462 1.146197 7.871 3.858535 -3.858397 2.342064 
-18.6462 1.146198 0.379 3.858535 -3.858397 -2.342066 
-18.9038 0.810497 7.871 4.725563 -2.728649 2.341929 
-18.9038 0.810498 0.379 4.72553 -2.728668 -2.341954 
-19.0658 0.419498 0.379 5.270786 -1.412375 -2.342138 
-19.0658 0.419497 7.871 5.270788 -1.412422 2.342121 
-14.847 -10.6252 8.249998 -0.8062036 -3.008579 2.879827 
-17.5 -9.526303 8.249998 -1.557345 -2.697432 2.879798 
-12.7426 -10.9022 4.757399 1.758233 -3.374158 2.236355 
-13.6962 -10.7767 5.999998 2.269981 -3.375447 1.586831 
-14.2956 -10.6978 7.447099 2.578269 -3.313663 0.9174966 
-14.4529 -10.6771 8.249998 1.33577 -1.750774 1.746721 
-19.7782 -7.778203 8.249999 -2.202434 -2.202435 2.879779 
-21.5263 -5.500003 8.249999 -2.697432 -1.557346 2.879797 
-22.6252 -2.847003 8.25 -3.008587 -0.8061361 2.87979 
-17.5 -1.621002 0.379 -1.009554e-05 5.456708 -2.341979 
-17.5 -1.621003 7.870999 -8.940697e-08 5.456717 2.341969 
-17.0805 -1.565803 7.870999 -1.412287 5.270766 2.34219 
-17.0805 -1.565802 0.379 -1.412371 5.270788 -2.342137 
-16.6895 -1.403803 7.871 -2.728549 4.725334 2.342215 
-16.6895 -1.403802 0.379 -2.728568 4.725417 -2.342112 
-16.3538 -1.146202 7.871 -3.858498 3.858406 2.342088 
-16.3538 -1.146202 0.379 -3.858517 3.858466 -2.342021 
-16.0962 -0.810503 7.871 -4.725562 2.728613 2.341954 
-16.0962 -0.810502 0.379 -4.725529 2.728668 -2.341954 
-15.9342 -0.419503 7.871 -5.270788 1.412422 2.342121 
-15.9342 -0.419502 0.379 -5.270786 1.412375 -2.342138 
-15.879 -3e-06 7.871 -5.456711 -1.059473e-05 2.34198 
-15.879 -2e-06 0.379 -5.456717 -7.450581e-08 -2.341972 
-19.121 -3e-06 7.871 5.456711 1.110137e-05 2.34198 
-19.121 -2e-06 0.379 5.456711 -1.114607e-05 -2.34198 
-19.0658 -0.419503 7.871 5.270787 1.412375 2.342137 
-19.0658 -0.419502 0.379 5.270787 1.412421 -2.342122 
-18.9038 -0.810503 7.871 4.725529 2.728628 2.341978 
-18.9038 -0.810502 0.379 4.725563 2.728648 -2.34193 
-18.6462 -1.146203 7.871 3.858479 3.858476 2.342045 
-18.6462 -1.146202 0.379 3.858535 3.858397 -2.342065 
-18.3105 -1.403803 7.871 2.728616 4.725336 2.342169 
-18.3105 -1.403802 0.379 2.728497 4.725418 -2.342157 
-17.9195 -1.565803 7.870999 1.412287 5.270766 2.34219 
-17.9195 -1.565802 0.379 1.41238 5.270779 -2.342144 
-19.4319 0.517597 8.25 2.010614 -0.5388167 5.485256 
-19.232 0.999997 8.25 1.802882 -1.041021 5.485022 
-18.9142 1.414197 8.25 1.47212 -1.47191 5.485112 
-18.5 1.732097 8.25 1.040837 -1.802624 5.485286 
-18.0176 1.931897 8.25 0.5386738 -2.010757 5.485178 
-17.5 1.999997 8.25 -6.511807e-06 -2.081817 5.485054 
-18.0176 -1.931903 8.25 0.5386671 2.010756 5.48518 
-18.5 -1.732103 8.25 1.040855 1.802574 5.485312 
-18.9142 -1.414203 8.25 1.472066 1.471941 5.485126 
-19.232 -1.000003 8.25 1.802916 1.041039 5.484988 
-19.4319 -0.517603 8.25 2.010633 0.5387924 5.485245 
-19.5 -3e-06 8.25 2.081816 7.100403e-06 5.485053 
-15.768 -1.000002 8.25 -1.802908 1.04101 5.485003 
-16.0858 -1.414202 8.25 -1.472118 1.471937 5.485095 
-16.5 -1.732103 8.25 -1.040839 1.802621 5.485287 
-16.9824 -1.931903 8.25 -0.5386664 2.010754 5.485179 
-17.5 -2.000003 8.25 1.490116e-08 2.081813 5.485055 
-16.9824 1.931897 8.25 -0.5386662 -2.010754 5.485182 
-16.5 1.732097 8.25 -1.040854 -1.802574 5.485316 
-16.0858 1.414197 8.25 -1.472066 -1.471943 5.485126 
-15.768 0.999998 8.25 -1.802914 -1.04104 5.48499 
-15.5681 0.517598 8.25 -2.010635 -0.5387929 5.485246 
-15.5 -2e-06 8.25 -2.081816 -7.972121e-06 5.485053 
-15.5681 -0.517602 8.25 -2.010612 0.538816 5.485255 
26.9913 24.892 11.6656 -0.2149599 3.291271 3.02925 
27.4324 25.0353 11.5689 -0.3663892 3.164449 3.077891 
19 22.2955 3.287403 -5.766749e-06 2.536917 -3.545519 
30.4013 26 10.9446 1.244596 2.220155 1.524534 
20.5186 22.7889 3.859503 0.07910419 3.15907 -2.956178 
26.2515 24.6516 5.987503 -0.2386949 3.2915 -3.035236 
25.4905 24.4044 5.702103 0.06391376 3.133118 -2.89283 
26.8365 24.8417 6.111103 -0.3894121 3.164264 -3.082162 
30.4013 26 6.833004 1.237323 2.213659 -1.526254 
19 22.2955 14.7142 1.400709e-06 2.522439 3.534217 
20.6499 22.8316 14.0768 0.1034054 3.159687 2.947205 
26.2891 24.6639 11.9355 0.109469 3.138732 2.946011 
19.9459 13 3.092601 1.062634 -2.969911 -2.951425 
25.0074 13 4.933702 1.063241 -2.989787 -2.952294 
21.75 13 4.236901 1.557358 -3.403329 -2.697438 
20.4235 13 3.687401 0.8061814 -3.403427 -3.008568 
19 13 3.500002 -2.235174e-08 -3.403381 -3.114718 
18.0541 13 3.092601 -1.062636 -2.969913 -2.951424 
19 13 2.753902 1.430511e-06 -2.286477 -2.917079 
22.8891 13 5.110901 2.202427 -3.403458 -2.202426 
25.9533 13 5.272401 0.8341777 -3.13062 -3.023113 
26.955 13 5.465701 0.6023846 -2.964597 -3.078203 
23.7631 13 6.250002 2.697438 -3.403338 -1.557358 
24.5 13 9.000001 3.114718 -3.403383 -1.15484e-06 
24.3126 13 7.576501 3.008567 -3.403426 -0.8061844 
33 13 6.675101 1.821246 -1.686093 -1.549613 
32.31699 13 6.543302 0.6032766 -2.995526 -3.07965 
24.3126 13 10.4235 3.008568 -3.403425 0.8061829 
33 13 11.0891 1.832659 -1.693069 1.547705 
32.4126 13 11.2071 0.6274496 -2.994794 3.07478 
23.7631 13 11.75 2.697438 -3.403329 1.557358 
27.5623 13 12.2221 0.6264079 -2.964303 3.073385 
26.6562 13 12.4041 0.8588079 -3.132455 3.016156 
25.6147 13 12.7869 1.088029 -2.991569 2.943341 
22.8891 13 12.8891 2.202427 -3.40346 2.202427 
17.5765 13 14.3126 -0.8061813 -3.403426 3.008561 
19 13 14.5 1.475215e-06 -3.403382 3.114705 
20.0415 13 14.8689 1.087383 -2.969225 2.942349 
20.4235 13 14.3126 0.8061811 -3.403427 3.008561 
21.75 13 13.7631 1.557359 -3.403328 2.697438 
11.045 13 5.465701 -0.6023842 -2.964597 -3.078203 
12.0467 13 5.272401 -0.8341774 -3.13062 -3.023114 
15.1109 13 5.110901 -2.202428 -3.403459 -2.202426 
12.9926 13 4.933702 -1.063241 -2.989786 -2.952296 
16.25 13 4.236901 -1.557358 -3.403328 -2.697438 
17.5765 13 3.687401 -0.8061815 -3.403427 -3.008568 
14.2369 13 6.250002 -2.697439 -3.403337 -1.557358 
13.6874 13 7.576501 -3.008567 -3.403427 -0.8061842 
4.999999 13 6.675101 -1.821263 -1.686114 -1.549611 
5.682999 13 6.543302 -0.6032677 -2.995543 -3.079653 
5.587399 13 11.2071 -0.6274428 -2.994807 3.074782 
4.999999 13 11.0891 -1.832664 -1.693076 1.547705 
13.6874 13 10.4235 -3.008568 -3.403426 0.8061827 
13.5 13 9.000001 -3.114719 -3.403382 -1.147389e-06 
14.2369 13 11.75 -2.697438 -3.403328 1.557358 
15.1109 13 12.8891 -2.202427 -3.403461 2.202427 
12.3853 13 12.7869 -1.08804 -2.991546 2.943335 
11.3438 13 12.4041 -0.8587626 -3.132482 3.016171 
10.4377 13 12.2221 -0.6264472 -2.964388 3.073382 
16.25 13 13.7631 -1.557358 -3.403328 2.697438 
17.9585 13 14.8689 -1.087384 -2.969228 2.94235 
19 13 15.2517 1.132488e-06 -2.269057 2.907063 
6.317898 21.8106 6.849102 -3.576158 1.076277 -3.085088 
4.999998 17.5 6.893802 -3.668238 0.5975227 -2.784693 
4.999998 17.5 10.8682 -3.691775 0.5991754 2.779978 
6.242398 21.5637 10.9183 -3.599074 1.077213 3.080681 
7.598697 26 10.9446 -1.24461 2.220146 1.524535 
7.598697 26 6.833004 -1.237319 2.213649 -1.526255 
31.7576 21.5637 10.9183 3.599116 1.077198 3.082199 
33 17.5 10.8682 3.691782 0.5991703 2.779984 
33 17.5 6.893802 3.668118 0.5974939 -2.784722 
31.6821 21.8106 6.849102 3.576184 1.076275 -3.085103 
7.790898 18.5 11.3798 -1.236076 0.3246072 6.151816 
10.5676 25.0353 11.5689 0.3663917 3.164415 3.077893 
30.2091 18.5 11.3798 1.236052 0.3245929 6.151821 
11.1635 24.8417 6.111103 0.3894066 3.164261 -3.082158 
8.149498 18.5 6.334802 -1.188801 0.3235937 -6.161178 
29.8505 18.5 6.334802 1.188815 0.3235872 -6.161176 
22.547 18.5 4.339702 2.115536 0.3237245 -5.907452 
15.453 18.5 4.339702 -2.115544 0.3237288 -5.907449 
12.5095 24.4044 5.702103 -0.06394976 3.133047 -2.892757 
17.4814 22.7889 3.859503 -0.07910162 3.159062 -2.956178 
11.7485 24.6516 5.987503 0.2387018 3.291466 -3.035241 
22.9056 18.5 13.4981 2.164904 0.3226326 5.889594 
15.0944 18.5 13.4981 -2.16491 0.32263 5.889594 
17.3501 22.8316 14.0768 -0.1034057 3.159688 2.947204 
11.7109 24.6639 11.9355 -0.1094601 3.138747 2.946013 
11.0087 24.892 11.6656 0.2149291 3.29125 3.029241 
19 11 3.500002 2.980232e-08 -2.879805 -3.114718 
20.4235 11 3.687401 0.8061814 -2.879758 -3.008568 
17.5765 11 3.687401 -0.8061814 -2.879759 -3.008568 
21.75 11 4.236901 1.557358 -2.879857 -2.697438 
16.25 11 4.236901 -1.557358 -2.879857 -2.697438 
22.8891 11 5.110901 2.202427 -2.879725 -2.202426 
15.1109 11 5.110901 -2.202427 -2.879725 -2.202426 
23.7631 11 6.250002 2.697438 -2.879859 -1.557358 
14.2369 11 6.250002 -2.697439 -2.87986 -1.557358 
19 11 6.500002 5.122274e-09 -3.403452 -3.114703 
18.353 11 6.585201 -0.8060489 -3.403261 -3.008638 
24.3126 11 7.576501 3.008568 -2.87976 -0.8061844 
20.7678 11 7.232202 2.202431 -3.403442 -2.202429 
20.25 11 6.834901 1.557182 -3.403468 -2.697507 
19.647 11 6.585201 0.806049 -3.403261 -3.008639 
21.4148 11 9.647001 3.008638 -3.403262 0.8060507 
21.5 11 9.000001 3.114705 -3.403453 -2.995133e-06 
24.5 11 9.000001 3.114717 -2.879803 -1.117587e-06 
21.4148 11 8.353002 3.008636 -3.403262 -0.8060536 
21.1651 11 7.750002 2.697507 -3.403465 -1.557182 
20.25 11 11.1651 1.557178 -3.403468 2.697509 
20.7678 11 10.7678 2.202429 -3.403445 2.20243 
24.3126 11 10.4235 3.008568 -2.879765 0.8061829 
21.1651 11 10.25 2.697508 -3.403466 1.557181 
17.2322 11 10.7678 -2.202429 -3.403445 2.202429 
17.75 11 11.1651 -1.557178 -3.403467 2.697509 
13.6874 11 10.4235 -3.008568 -2.879764 0.8061827 
18.353 11 11.4148 -0.8060511 -3.40326 3.008639 
14.2369 11 11.75 -2.697438 -2.879857 1.557358 
19 11 11.5 0 -3.403456 3.114702 
23.7631 11 11.75 2.697438 -2.879856 1.557358 
19.647 11 11.4148 0.8060512 -3.40326 3.008639 
17.75 11 6.834901 -1.557182 -3.403468 -2.697507 
17.2322 11 7.232202 -2.20243 -3.403442 -2.202429 
13.6874 11 7.576501 -3.008568 -2.879758 -0.8061845 
16.8349 11 7.750002 -2.697507 -3.403466 -1.557182 
16.5852 11 8.353002 -3.008636 -3.403262 -0.806054 
16.5 11 9.000001 -3.114704 -3.403453 -2.563e-06 
16.5852 11 9.647001 -3.008639 -3.403262 0.8060508 
13.5 11 9.000001 -3.114717 -2.879804 -1.013279e-06 
16.8349 11 10.25 -2.697508 -3.403466 1.557181 
19 11 14.5 -7.450581e-09 -2.879804 3.114718 
17.5765 11 14.3126 -0.8061829 -2.879758 3.008568 
20.4235 11 14.3126 0.8061829 -2.879758 3.008568 
16.25 11 13.7631 -1.557358 -2.879858 2.697438 
21.75 11 13.7631 1.557359 -2.879857 2.697438 
15.1109 11 12.8891 -2.202427 -2.879724 2.202427 
22.8891 11 12.8891 2.202427 -2.879725 2.202427 
17.059 -11 9.520099 -2.262183 -5.221912 0.6060653 
16.9905 -11 8.999999 -2.342053 -5.221756 -4.053116e-06 
17.059 -11 8.479898 -2.262192 -5.221904 -0.6060837 
17.2597 -11 7.995199 -2.028342 -5.221713 -1.171016 
17.5791 -11 7.579099 -1.655787 -5.222163 -1.655956 
17.9952 -11 7.259698 -1.171162 -5.221614 -2.028348 
18.4799 -11 7.058998 -0.6060779 -5.221904 -2.262188 
19 -11 6.990498 -1.27852e-05 -5.221771 -2.342063 
19.5201 -11 7.058998 0.6060724 -5.221923 -2.262173 
20.0048 -11 7.259698 1.171025 -5.221715 -2.028331 
20.4209 -11 7.579099 1.655959 -5.222165 -1.655779 
20.7403 -11 7.995199 2.028342 -5.221623 -1.171157 
20.941 -11 8.479898 2.262187 -5.221905 -0.6060838 
21.0095 -11 8.999999 2.342064 -5.221766 -1.822412e-05 
20.941 -11 9.520099 2.262177 -5.221912 0.6060921 
20.7403 -11 10.0048 2.028342 -5.221709 1.171015 
20.4209 -11 10.4209 1.655786 -5.222159 1.655957 
20.0048 -11 10.7403 1.171168 -5.221623 2.028335 
19.5201 -11 10.941 0.6060624 -5.221911 2.262185 
19 -11 11.0095 1.184642e-05 -5.221769 2.342063 
18.4799 -11 10.941 -0.6060874 -5.22191 2.26218 
17.9952 -11 10.7403 -1.171015 -5.221704 2.028347 
17.5791 -11 10.4209 -1.65596 -5.222161 1.655782 
17.2597 -11 10.0048 -2.028331 -5.221629 1.171165 
18.353 -10.5095 11.4148 -1.344794 -2.081796 5.019534 
19 -10.5095 11.5 7.532537e-06 -2.081698 5.196389 
17.75 -10.5095 11.1651 -2.597906 -2.081666 4.500394 
17.2322 -10.5095 10.7678 -3.674376 -2.081818 3.674266 
16.8349 -10.5095 10.25 -4.500293 -2.081723 2.597954 
16.5852 -10.5095 9.646998 -5.019534 -2.081795 1.344778 
16.5 -10.5095 8.999998 -5.196383 -2.081706 -1.229346e-06 
16.5852 -10.5095 8.352999 -5.019524 -2.081804 -1.344783 
16.8349 -10.5095 7.749998 -4.500385 -2.081671 -2.597911 
17.2322 -10.5095 7.232199 -3.674266 -2.081822 -3.674375 
17.75 -10.5095 6.834898 -2.597942 -2.081728 -4.500287 
18.353 -10.5095 6.585198 -1.344784 -2.081803 -5.019525 
19 -10.5095 6.499998 -8.136034e-06 -2.0817 -5.196387 
19.647 -10.5095 6.585198 1.344787 -2.08179 -5.01954 
20.25 -10.5095 6.834898 2.597921 -2.08166 -4.500391 
20.7678 -10.5095 7.232199 3.674377 -2.081821 -3.674266 
21.1651 -10.5095 7.749998 4.500286 -2.08173 -2.597943 
21.4148 -10.5095 8.352999 5.019524 -2.081804 -1.344783 
21.5 -10.5095 8.999998 5.196391 -2.081699 -1.005828e-05 
21.4148 -10.5095 9.646998 5.01953 -2.081795 1.344795 
21.1651 -10.5095 10.25 4.50039 -2.08167 2.59791 
20.7678 -10.5095 10.7678 3.674265 -2.081819 3.674376 
20.25 -10.5095 11.1651 2.59795 -2.08172 4.500296 
19.647 -10.5095 11.4148 1.344779 -2.081795 5.019539 
-21.9366 3.495693 27.5487 -0.4100752 2.957244 3.156687 
-22.3713 3.284194 27.69 -0.1456493 2.922476 3.249008 
-18.4451 5.180895 26.4143 -0.3545157 2.843078 3.158315 
-24.8643 -2.204406 28.5 -1.393726 -1.476384 2.34964 
-17.5 5.642196 26.1072 -2.061948e-06 3.400466 2.363287 
-22.6995 -3.027406 27.7966 -0.1053519 -2.946277 3.162908 
-22.3635 -3.157907 27.6874 -0.2081491 -2.897816 3.250019 
-22.7058 3.162294 27.7987 -0.04331356 2.968113 3.162491 
-24.8643 2.392595 28.5 -1.37415 1.484229 2.332367 
-21.9283 -3.381505 27.546 -0.4209015 -2.812257 3.142644 
-18.4438 -5.157405 26.4138 -0.4168648 -2.813445 3.158602 
-17.5 -5.644005 26.1072 -4.085898e-05 -3.361733 2.32303 
-16.5937 5.580296 20 1.335709 2.838373 -2.971001 
-13.7312 4.223696 20 1.336365 2.839005 -2.987455 
-15.025 4.286796 20 1.557321 2.697455 -3.403344 
-16.2188 4.781296 20 0.806192 3.008575 -3.40338 
-17.5 4.949996 20 0 3.114708 -3.403433 
-18.4063 5.580295 20 -1.335709 2.838373 -2.971002 
-17.5 6.005196 20 -1.743436e-06 2.794856 -2.098685 
-8.8915 2.418397 20 1.031903 2.9635 -2.991954 
-13.2132 2.474996 20 2.697456 1.557321 -3.403347 
-11.8789 3.471996 20 1.030641 2.962543 -2.96647 
-13.9998 3.500196 20 2.202425 2.202425 -3.403471 
-12.825 3.798796 20 1.184991 2.906125 -3.083177 
-8.499999 2.283096 20 2.037301 1.498742 -1.826359 
-8.499999 -2.059103 20 2.068711 -1.488605 -1.847456 
-12.7187 -1.281204 20 3.008576 -0.8061916 -3.40338 
-12.55 -4e-06 20 3.114708 0 -3.403434 
-12.7187 1.281196 20 3.008576 0.8061916 -3.403379 
-12.8323 -3.681104 20 1.247396 -2.879868 -3.084025 
-13.9998 -3.500204 20 2.202425 -2.202425 -3.403469 
-11.8848 -3.331204 20 1.093113 -2.940067 -2.966504 
-13.2132 -2.475004 20 2.697456 -1.557321 -3.403345 
-8.892999 -2.204204 20 1.094059 -2.94115 -2.992541 
-13.7372 -4.129804 20 1.398525 -2.80894 -2.988087 
-16.5951 -5.562804 20 1.39786 -2.808245 -2.970351 
-16.2188 -4.781304 20 0.806192 -3.008575 -3.40338 
-15.025 -4.286804 20 1.557321 -2.697455 -3.403345 
-17.5 -6.011504 20 -1.043081e-06 -2.762671 -2.054559 
-18.4049 -5.562804 20 -1.39786 -2.808245 -2.970348 
-21.2628 -4.129804 20 -1.398567 -2.808913 -2.987993 
-18.7812 -4.781304 20 -0.806192 -3.008575 -3.40338 
-17.5 -4.950004 20 0 -3.114708 -3.403434 
-22.175 3.798795 20 -1.184934 2.906148 -3.0832 
-21.2688 4.223696 20 -1.336383 2.838995 -2.987417 
-19.975 4.286795 20 -1.557322 2.697455 -3.403343 
-18.7812 4.781296 20 -0.8061931 3.008575 -3.40338 
-26.5 2.283095 20 -2.037305 1.49874 -1.826366 
-26.1085 2.418395 20 -1.031896 2.963503 -2.991956 
-21.7868 2.474995 20 -2.697456 1.557321 -3.403346 
-23.1211 3.471995 20 -1.030692 2.962531 -2.966579 
-21.0002 3.500196 20 -2.202425 2.202425 -3.403471 
-22.2813 1.281196 20 -3.008575 0.8061931 -3.403379 
-22.45 -5e-06 20 -3.114707 -1.192093e-07 -3.403435 
-22.2813 -1.281205 20 -3.008575 -0.8061931 -3.403379 
-26.5 -2.059105 20 -2.068696 -1.48861 -1.847436 
-22.1677 -3.681105 20 -1.247352 -2.879886 -3.083978 
-21.0002 -3.500204 20 -2.202425 -2.202425 -3.40347 
-23.1152 -3.331205 20 -1.093114 -2.940067 -2.966505 
-21.7868 -2.475004 20 -2.697456 -1.557321 -3.403345 
-26.107 -2.204205 20 -1.094067 -2.941146 -2.992518 
-19.975 -4.286804 20 -1.557321 -2.697455 -3.403345 
-9.166999 -2.029404 25.3317 4.072761 -2.949997 1.077748 
-8.499999 -1.896104 23.15 4.157897 -2.647274 0.6133363 
-8.499999 2.120896 23.15 4.096263 2.66937 0.6118375 
-9.166199 2.238896 25.329 4.010738 2.971768 1.077827 
-10.1357 2.392596 28.5 1.374138 1.48424 2.332345 
-10.1357 -2.204405 28.5 1.393734 -1.476395 2.349651 
-26.5 -1.896106 23.15 -4.157593 -2.647362 0.6133113 
-25.833 -2.029406 25.3317 -4.072585 -2.938339 1.078341 
-25.8338 2.238894 25.329 -4.010817 2.971722 1.077795 
-26.5 2.120894 23.15 -4.096107 2.669416 0.6118423 
-12.3005 -3.027405 27.7966 0.1053585 -2.946276 3.162903 
-10.2623 -2.541604 23.25 2.173376 -5.88634 0.3249639 
-24.7377 -2.541606 23.25 -2.173445 -5.886315 0.3249549 
-10.2586 2.723296 23.25 2.048923 5.930806 0.325006 
-12.2942 3.162296 27.7987 0.04331914 2.968117 3.162439 
-24.7414 2.723294 23.25 -2.049058 5.930759 0.3249953 
-19.879 4.696695 23.25 -2.663714 5.681316 0.3249483 
-15.121 4.696695 23.25 2.663666 5.681339 0.3249425 
-13.0634 3.495694 27.5487 0.4099429 2.957211 3.156915 
-16.5549 5.180896 26.4143 0.3545473 2.843074 3.158208 
-12.6287 3.284194 27.69 0.1457175 2.922444 3.24905 
-19.8752 -4.637905 23.25 -2.788012 -5.621364 0.3249496 
-15.1248 -4.637905 23.25 2.788021 -5.621356 0.3249643 
-16.5562 -5.157405 26.4138 0.4168808 -2.813435 3.158652 
-13.0717 -3.381505 27.546 0.4210377 -2.812202 3.142412 
-12.6365 -3.157906 27.6874 0.2081066 -2.897839 3.249961 
-17.5 4.949996 18 0 3.114708 -2.879752 
-16.2188 4.781296 18 0.806192 3.008575 -2.879805 
-18.7812 4.781296 18 -0.8061931 3.008575 -2.879805 
-15.025 4.286796 18 1.557321 2.697455 -2.879841 
-19.975 4.286795 18 -1.557322 2.697455 -2.879842 
-13.9998 3.500196 18 2.202425 2.202425 -2.879715 
-21.0002 3.500196 18 -2.202425 2.202425 -2.879714 
-13.2132 2.474996 18 2.697456 1.557321 -2.87984 
-21.7868 2.474995 18 -2.697456 1.55732 -2.879841 
-17.5 1.999996 18 1.639128e-07 3.114748 -3.403227 
-18.0176 1.931896 18 -0.8059763 3.008619 -3.403444 
-12.7187 1.281196 18 3.008576 0.8061916 -2.879806 
-16.0858 1.414196 18 2.202468 2.202467 -3.40317 
-16.5 1.732096 18 1.557453 2.697335 -3.403533 
-16.9824 1.931896 18 0.8059769 3.00862 -3.403444 
-15.5681 -0.517604 18 3.008615 -0.8059771 -3.403446 
-15.5 -4e-06 18 3.114748 -2.235174e-07 -3.403227 
-12.55 -4e-06 18 3.114707 -1.490116e-08 -2.879753 
-15.5681 0.517596 18 3.008619 0.8059781 -3.403446 
-15.7679 0.999996 18 2.697331 1.557453 -3.403531 
-16.5 -1.732104 18 1.557454 -2.697336 -3.403533 
-16.0858 -1.414204 18 2.202468 -2.202467 -3.40317 
-12.7187 -1.281204 18 3.008576 -0.8061916 -2.879801 
-15.7679 -1.000004 18 2.697333 -1.557454 -3.403532 
-18.9142 -1.414204 18 -2.202468 -2.202467 -3.40317 
-18.5 -1.732104 18 -1.557452 -2.697334 -3.403533 
-22.2813 -1.281205 18 -3.008575 -0.8061932 -2.879805 
-18.0176 -1.931904 18 -0.8059774 -3.008621 -3.403444 
-21.7868 -2.475004 18 -2.697456 -1.557321 -2.879841 
-17.5 -2.000004 18 1.937151e-07 -3.114748 -3.403229 
-13.2132 -2.475004 18 2.697456 -1.557321 -2.87984 
-16.9824 -1.931904 18 0.8059765 -3.008618 -3.403444 
-18.5 1.732096 18 -1.557453 2.697335 -3.403533 
-18.9142 1.414196 18 -2.202468 2.202467 -3.40317 
-22.2813 1.281195 18 -3.008575 0.8061928 -2.879806 
-19.2321 0.999996 18 -2.697334 1.557454 -3.403531 
-19.4319 0.517596 18 -3.00862 0.8059788 -3.403446 
-19.5 -4e-06 18 -3.114747 -3.585592e-08 -3.403227 
-19.4319 -0.517604 18 -3.008619 -0.8059781 -3.403446 
-22.45 -5e-06 18 -3.114707 1.490116e-08 -2.87975 
-19.2321 -1.000004 18 -2.697336 -1.557455 -3.403531 
-17.5 -4.950004 18 7.450581e-09 -3.114708 -2.879752 
-18.7812 -4.781304 18 -0.806192 -3.008575 -2.879805 
-16.2188 -4.781304 18 0.806192 -3.008575 -2.879806 
-19.975 -4.286804 18 -1.557321 -2.697455 -2.879841 
-15.025 -4.286804 18 1.557321 -2.697455 -2.87984 
-21.0002 -3.500204 18 -2.202425 -2.202425 -2.879715 
-13.9998 -3.500204 18 2.202425 -2.202425 -2.879715 
-19.017 -0.406502 -0 -2.262226 -0.6060974 -5.221834 
-19.0705 -2e-06 -0 -2.341976 -2.332032e-05 -5.221889 
-19.017 0.406498 0 -2.262206 0.6061162 -5.221851 
-18.8601 0.785298 0 -2.028207 1.171167 -5.221766 
-18.6105 1.110498 0 -1.656006 1.655994 -5.221949 
-18.2853 1.360098 0 -1.171155 2.028206 -5.221774 
-17.9065 1.516998 0 -0.606118 2.262205 -5.221852 
-17.5 1.570498 0 2.980232e-08 2.341964 -5.221904 
-17.0935 1.516998 0 0.606104 2.262201 -5.221861 
-16.7147 1.360098 0 1.171171 2.028194 -5.221777 
-16.3895 1.110498 0 1.655994 1.656005 -5.22195 
-16.1399 0.785298 0 2.028207 1.171156 -5.221773 
-15.983 0.406498 0 2.262225 0.6060988 -5.221834 
-15.9295 -2e-06 -0 2.34198 2.464652e-05 -5.221885 
-15.983 -0.406502 -0 2.262204 -0.6061187 -5.221852 
-16.1399 -0.785302 -0 2.028207 -1.171166 -5.221766 
-16.3895 -1.110502 -0 1.656006 -1.655994 -5.221949 
-16.7147 -1.360102 -0 1.171155 -2.028207 -5.221773 
-17.0935 -1.517002 -0 0.6060981 -2.262225 -5.221834 
-17.5 -1.570502 -0 2.455711e-05 -2.341979 -5.221885 
-17.9065 -1.517002 -0 -0.606104 -2.2622 -5.221862 
-18.2853 -1.360102 -0 -1.171162 -2.028194 -5.221783 
-18.6105 -1.110502 -0 -1.656006 -1.655994 -5.221949 
-18.8601 -0.785302 -0 -2.028207 -1.171166 -5.221767 
-18.0176 -1.931902 0.4295 -1.344641 -5.019385 -2.081727 
-17.5 -2.000002 0.4295 1.499429e-05 -5.196556 -2.081834 
-18.5 -1.732102 0.4295 -2.598328 -4.500041 -2.08167 
-18.9142 -1.414202 0.4295 -3.674576 -3.674566 -2.081842 
-19.2321 -1.000002 0.4295 -4.500031 -2.598322 -2.08168 
-19.4319 -0.517602 0.4295 -5.019366 -1.344632 -2.081743 
-19.5 -2e-06 0.4295 -5.196556 -1.434982e-05 -2.081834 
-19.4319 0.517598 0.4295 -5.019373 1.344649 -2.081732 
-19.2321 0.999998 0.4295 -4.500033 2.598322 -2.08168 
-18.9142 1.414198 0.4295 -3.674575 3.674566 -2.081841 
-18.5 1.732098 0.4295 -2.598317 4.500038 -2.081675 
-18.0176 1.931898 0.4295 -1.344648 5.019378 -2.081732 
-17.5 1.999998 0.4295 -2.086163e-07 5.196569 -2.081821 
-16.9824 1.931898 0.4295 1.344642 5.019386 -2.081726 
-16.5 1.732098 0.4295 2.598329 4.500034 -2.081673 
-16.0858 1.414198 0.4295 3.674568 3.674573 -2.081841 
-15.7679 0.999998 0.4295 4.500039 2.59832 -2.081675 
-15.5681 0.517598 0.4295 5.019363 1.344631 -2.081743 
-15.5 -2e-06 0.4295 5.196556 1.53929e-05 -2.081832 
-15.5681 -0.517602 0.4295 5.019376 -1.34465 -2.081731 
-15.7679 -1.000002 0.4295 4.500031 -2.598322 -2.08168 
-16.0858 -1.414202 0.4295 3.674575 -3.674567 -2.081842 
-16.5 -1.732102 0.4295 2.598316 -4.500036 -2.081676 
-16.9824 -1.931902 0.4295 1.34463 -5.01937 -2.081745 
3 0 1 2 159 166 166 255 
3 0 2 3 159 166 166 255 
3 0 3 4 159 166 166 255 
3 0 4 5 159 166 166 255 
3 0 5 6 159 166 166 255 
3 0 6 7 159 166 166 255 
3 1 8 9 159 166 166 255 
3 1 9 10 159 166 166 255 
3 1 10 11 159 166 166 255 
3 1 11 12 159 166 166 255 
3 1 12 13 159 166 166 255 
3 1 13 14 159 166 166 255 
3 1 14 15 159 166 166 255 
3 1 15 16 159 166 166 255 
3 1 16 17 159 166 166 255 
3 1 17 18 159 166 166 255 
3 1 18 19 159 166 166 255 
3 1 19 20 159 166 166 255 
3 1 20 21 159 166 166 255 
3 1 21 22 159 166 166 255 
3 1 22 2 159 166 166 255 
3 23 24 25 159 166 166 255 
3 23 25 26 159 166 166 255 
3 23 26 27 159 166 166 255 
3 23 27 28 159 166 166 255 
3 23 28 15 159 166 166 255 
3 23 15 14 159 166 166 255 
3 23 14 29 159 166 166 255 
3 29 14 30 159 166 166 255 
3 29 30 31 159 166 166 255 
3 29 31 32 159 166 166 255 
3 29 32 33 159 166 166 255 
3 29 33 34 159 166 166 255 
3 29 34 35 159 166 166 255 
3 35 34 36 159 166 166 255 
3 35 36 37 159 166 166 255 
3 35 37 38 159 166 166 255 
3 35 38 39 159 166 166 255 
3 35 39 40 159 166 166 255 
3 40 39 41 159 166 166 255 
3 40 41 42 159 166 166 255 
3 40 42 43 159 166 166 255 
3 40 43 44 159 166 166 255 
3 40 44 45 159 166 166 255 
3 46 47 48 159 166 166 255 
3 48 47 49 159 166 166 255 
3 48 49 50 159 166 166 255 
3 50 49 45 159 166 166 255 
3 50 45 44 159 166 166 255 
3 8 51 52 159 166 166 255 
3 8 52 53 159 166 166 255 
3 8 53 54 159 166 166 255 
3 8 54 55 159 166 166 255 
3 8 55 9 159 166 166 255 
3 51 44 43 159 166 166 255 
3 51 43 56 159 166 166 255 
3 51 56 57 159 166 166 255 
3 51 57 52 159 166 166 255 
3 58 59 60 159 166 166 255 
3 58 60 61 159 166 166 255 
3 58 61 62 159 166 166 255 
3 58 62 63 159 166 166 255 
3 58 63 64 159 166 166 255 
3 58 64 65 159 166 166 255 
3 58 65 66 159 166 166 255 
3 58 66 67 159 166 166 255 
3 61 68 69 159 166 166 255 
3 61 69 70 159 166 166 255 
3 61 70 71 159 166 166 255 
3 61 71 72 159 166 166 255 
3 61 72 73 159 166 166 255 
3 61 73 74 159 166 166 255 
3 61 74 75 159 166 166 255 
3 61 75 76 159 166 166 255 
3 61 76 77 159 166 166 255 
3 61 77 62 159 166 166 255 
3 59 78 79 159 166 166 255 
3 59 79 80 159 166 166 255 
3 59 80 81 159 166 166 255 
3 59 81 82 159 166 166 255 
3 59 82 60 159 166 166 255 
3 78 83 84 159 166 166 255 
3 78 84 85 159 166 166 255 
3 78 85 86 159 166 166 255 
3 78 86 87 159 166 166 255 
3 78 87 79 159 166 166 255 
3 83 88 89 159 166 166 255 
3 83 89 90 159 166 166 255 
3 83 90 91 159 166 166 255 
3 83 91 84 159 166 166 255 
3 69 92 93 159 166 166 255 
3 69 93 94 159 166 166 255 
3 69 94 95 159 166 166 255 
3 69 95 96 159 166 166 255 
3 69 96 70 159 166 166 255 
3 97 69 68 159 166 166 255 
3 97 68 98 159 166 166 255 
3 97 98 99 159 166 166 255 
3 97 99 100 159 166 166 255 
3 97 100 101 159 166 166 255 
3 97 101 102 159 166 166 255 
3 102 101 103 159 166 166 255 
3 102 103 104 159 166 166 255 
3 102 104 105 159 166 166 255 
3 102 105 106 159 166 166 255 
3 102 106 107 159 166 166 255 
3 107 106 108 159 166 166 255 
3 107 108 109 159 166 166 255 
3 107 109 89 159 166 166 255 
3 107 89 88 159 166 166 255 
3 107 88 110 159 166 166 255 
3 111 112 113 159 166 166 255 
3 113 112 114 159 166 166 255 
3 113 114 115 159 166 166 255 
3 115 114 110 159 166 166 255 
3 115 110 88 159 166 166 255 
3 22 21 72 159 166 166 255 
3 22 72 71 159 166 166 255 
3 116 117 46 159 166 166 255 
3 116 46 48 159 166 166 255 
3 118 119 112 159 166 166 255 
3 118 112 111 159 166 166 255 
3 117 120 47 159 166 166 255 
3 117 47 46 159 166 166 255 
3 121 118 111 159 166 166 255 
3 121 111 113 159 166 166 255 
3 122 116 48 159 166 166 255 
3 122 48 50 159 166 166 255 
3 119 123 114 159 166 166 255 
3 119 114 112 159 166 166 255 
3 120 124 49 159 166 166 255 
3 120 49 47 159 166 166 255 
3 125 121 113 159 166 166 255 
3 125 113 115 159 166 166 255 
3 124 126 45 159 166 166 255 
3 124 45 49 159 166 166 255 
3 127 125 115 159 166 166 255 
3 127 115 88 159 166 166 255 
3 128 122 50 159 166 166 255 
3 128 50 44 159 166 166 255 
3 123 129 110 159 166 166 255 
3 123 110 114 159 166 166 255 
3 126 130 40 159 166 166 255 
3 126 40 45 159 166 166 255 
3 131 127 88 159 166 166 255 
3 131 88 83 159 166 166 255 
3 1 132 133 159 166 166 255 
3 1 133 8 159 166 166 255 
3 97 102 134 159 166 166 255 
3 97 134 135 159 166 166 255 
3 8 133 136 159 166 166 255 
3 8 136 51 159 166 166 255 
3 137 134 102 159 166 166 255 
3 137 102 107 159 166 166 255 
3 138 29 35 159 166 166 255 
3 138 35 139 159 166 166 255 
3 78 59 140 159 166 166 255 
3 78 140 141 159 166 166 255 
3 40 130 139 159 166 166 255 
3 40 139 35 159 166 166 255 
3 141 131 83 159 166 166 255 
3 141 83 78 159 166 166 255 
3 136 128 44 159 166 166 255 
3 136 44 51 159 166 166 255 
3 129 137 107 159 166 166 255 
3 129 107 110 159 166 166 255 
3 142 143 135 159 166 166 255 
3 135 143 144 159 166 166 255 
3 135 144 145 159 166 166 255 
3 145 144 146 159 166 166 255 
3 145 146 147 159 166 166 255 
3 147 146 148 159 166 166 255 
3 147 148 140 159 166 166 255 
3 140 148 149 159 166 166 255 
3 140 149 150 159 166 166 255 
3 151 152 134 159 166 166 255 
3 134 152 153 159 166 166 255 
3 134 153 135 159 166 166 255 
3 135 153 154 159 166 166 255 
3 135 154 142 159 166 166 255 
3 155 156 137 159 166 166 255 
3 137 156 157 159 166 166 255 
3 137 157 134 159 166 166 255 
3 134 157 158 159 166 166 255 
3 134 158 151 159 166 166 255 
3 159 155 137 159 166 166 255 
3 159 137 129 159 166 166 255 
3 159 129 131 159 166 166 255 
3 159 131 160 159 166 166 255 
3 150 161 140 159 166 166 255 
3 140 161 162 159 166 166 255 
3 140 162 141 159 166 166 255 
3 141 162 163 159 166 166 255 
3 141 163 164 159 166 166 255 
3 164 165 141 159 166 166 255 
3 141 165 166 159 166 166 255 
3 141 166 131 159 166 166 255 
3 131 166 167 159 166 166 255 
3 131 167 160 159 166 166 255 
3 118 121 119 159 166 166 255 
3 119 121 125 159 166 166 255 
3 119 125 123 159 166 166 255 
3 123 125 127 159 166 166 255 
3 123 127 129 159 166 166 255 
3 129 127 131 159 166 166 255 
3 145 147 168 159 166 166 255 
3 145 168 169 159 166 166 255 
3 152 151 104 159 166 166 255 
3 152 104 103 159 166 166 255 
3 105 104 151 159 166 166 255 
3 105 151 158 159 166 166 255 
3 105 158 157 159 166 166 255 
3 105 157 106 159 166 166 255 
3 157 156 108 159 166 166 255 
3 157 108 106 159 166 166 255 
3 156 155 109 159 166 166 255 
3 156 109 108 159 166 166 255 
3 109 155 159 159 166 166 255 
3 109 159 89 159 166 166 255 
3 160 90 89 159 166 166 255 
3 160 89 159 159 166 166 255 
3 167 91 90 159 166 166 255 
3 167 90 160 159 166 166 255 
3 166 84 91 159 166 166 255 
3 166 91 167 159 166 166 255 
3 165 85 84 159 166 166 255 
3 165 84 166 159 166 166 255 
3 86 85 165 159 166 166 255 
3 86 165 164 159 166 166 255 
3 87 86 164 159 166 166 255 
3 87 164 163 159 166 166 255 
3 163 162 79 159 166 166 255 
3 163 79 87 159 166 166 255 
3 79 162 161 159 166 166 255 
3 79 161 80 159 166 166 255 
3 161 150 81 159 166 166 255 
3 161 81 80 159 166 166 255 
3 81 150 149 159 166 166 255 
3 81 149 82 159 166 166 255 
3 148 60 82 159 166 166 255 
3 148 82 149 159 166 166 255 
3 146 61 60 159 166 166 255 
3 146 60 148 159 166 166 255 
3 68 61 146 159 166 166 255 
3 68 146 144 159 166 166 255 
3 98 68 144 159 166 166 255 
3 98 144 143 159 166 166 255 
3 99 98 143 159 166 166 255 
3 99 143 142 159 166 166 255 
3 142 154 100 159 166 166 255 
3 142 100 99 159 166 166 255 
3 101 100 154 159 166 166 255 
3 101 154 153 159 166 166 255 
3 153 152 103 159 166 166 255 
3 153 103 101 159 166 166 255 
3 170 171 172 159 166 166 255 
3 170 172 173 159 166 166 255 
3 174 170 173 159 166 166 255 
3 174 173 175 159 166 166 255 
3 176 174 175 159 166 166 255 
3 176 175 177 159 166 166 255 
3 172 171 178 159 166 166 255 
3 172 178 179 159 166 166 255 
3 180 176 177 159 166 166 255 
3 180 177 181 159 166 166 255 
3 182 180 181 159 166 166 255 
3 182 181 183 159 166 166 255 
3 168 182 183 159 166 166 255 
3 168 183 169 159 166 166 255 
3 184 185 186 159 166 166 255 
3 184 186 187 159 166 166 255 
3 188 189 190 159 166 166 255 
3 188 190 191 159 166 166 255 
3 55 54 188 159 166 166 255 
3 55 188 191 159 166 166 255 
3 189 188 192 159 166 166 255 
3 189 192 193 159 166 166 255 
3 53 192 188 159 166 166 255 
3 53 188 54 159 166 166 255 
3 193 192 194 159 166 166 255 
3 193 194 195 159 166 166 255 
3 52 194 192 159 166 166 255 
3 52 192 53 159 166 166 255 
3 196 197 195 159 166 166 255 
3 196 195 194 159 166 166 255 
3 52 57 196 159 166 166 255 
3 52 196 194 159 166 166 255 
3 198 199 197 159 166 166 255 
3 198 197 196 159 166 166 255 
3 56 198 196 159 166 166 255 
3 56 196 57 159 166 166 255 
3 199 198 200 159 166 166 255 
3 199 200 201 159 166 166 255 
3 56 43 200 159 166 166 255 
3 56 200 198 159 166 166 255 
3 202 203 201 159 166 166 255 
3 202 201 200 159 166 166 255 
3 43 42 202 159 166 166 255 
3 43 202 200 159 166 166 255 
3 204 205 203 159 166 166 255 
3 204 203 202 159 166 166 255 
3 42 41 204 159 166 166 255 
3 42 204 202 159 166 166 255 
3 206 207 205 159 166 166 255 
3 206 205 204 159 166 166 255 
3 41 39 206 159 166 166 255 
3 41 206 204 159 166 166 255 
3 208 209 207 159 166 166 255 
3 208 207 206 159 166 166 255 
3 39 38 208 159 166 166 255 
3 39 208 206 159 166 166 255 
3 209 208 210 159 166 166 255 
3 209 210 211 159 166 166 255 
3 38 37 210 159 166 166 255 
3 38 210 208 159 166 166 255 
3 211 210 212 159 166 166 255 
3 211 212 213 159 166 166 255 
3 37 36 212 159 166 166 255 
3 37 212 210 159 166 166 255 
3 214 215 213 159 166 166 255 
3 214 213 212 159 166 166 255 
3 36 34 214 159 166 166 255 
3 36 214 212 159 166 166 255 
3 216 217 215 159 166 166 255 
3 216 215 214 159 166 166 255 
3 34 33 216 159 166 166 255 
3 34 216 214 159 166 166 255 
3 217 216 218 159 166 166 255 
3 217 218 219 159 166 166 255 
3 32 218 216 159 166 166 255 
3 32 216 33 159 166 166 255 
3 219 218 220 159 166 166 255 
3 219 220 221 159 166 166 255 
3 31 220 218 159 166 166 255 
3 31 218 32 159 166 166 255 
3 222 223 221 159 166 166 255 
3 222 221 220 159 166 166 255 
3 31 30 222 159 166 166 255 
3 31 222 220 159 166 166 255 
3 223 222 224 159 166 166 255 
3 223 224 225 159 166 166 255 
3 30 14 224 159 166 166 255 
3 30 224 222 159 166 166 255 
3 225 224 226 159 166 166 255 
3 225 226 227 159 166 166 255 
3 13 226 224 159 166 166 255 
3 13 224 14 159 166 166 255 
3 227 226 228 159 166 166 255 
3 227 228 229 159 166 166 255 
3 13 12 228 159 166 166 255 
3 13 228 226 159 166 166 255 
3 229 228 230 159 166 166 255 
3 229 230 231 159 166 166 255 
3 11 230 228 159 166 166 255 
3 11 228 12 159 166 166 255 
3 231 230 232 159 166 166 255 
3 231 232 233 159 166 166 255 
3 11 10 232 159 166 166 255 
3 11 232 230 159 166 166 255 
3 234 235 233 159 166 166 255 
3 234 233 232 159 166 166 255 
3 232 10 9 159 166 166 255 
3 232 9 234 159 166 166 255 
3 191 190 235 159 166 166 255 
3 191 235 234 159 166 166 255 
3 55 191 234 159 166 166 255 
3 55 234 9 159 166 166 255 
3 236 237 238 159 166 166 255 
3 236 238 239 159 166 166 255 
3 138 139 240 159 166 166 255 
3 138 240 241 159 166 166 255 
3 138 241 242 159 166 166 255 
3 138 242 243 159 166 166 255 
3 138 243 244 159 166 166 255 
3 138 244 245 159 166 166 255 
3 138 245 246 159 166 166 255 
3 138 246 247 159 166 166 255 
3 139 130 248 159 166 166 255 
3 139 248 249 159 166 166 255 
3 139 249 250 159 166 166 255 
3 139 250 251 159 166 166 255 
3 139 251 240 159 166 166 255 
3 130 126 252 159 166 166 255 
3 130 252 253 159 166 166 255 
3 130 253 254 159 166 166 255 
3 130 254 248 159 166 166 255 
3 132 246 245 159 166 166 255 
3 132 245 255 159 166 166 255 
3 132 255 256 159 166 166 255 
3 132 256 257 159 166 166 255 
3 132 257 258 159 166 166 255 
3 132 258 259 159 166 166 255 
3 132 259 133 159 166 166 255 
3 133 259 260 159 166 166 255 
3 133 260 261 159 166 166 255 
3 133 261 262 159 166 166 255 
3 133 262 263 159 166 166 255 
3 133 263 136 159 166 166 255 
3 136 263 264 159 166 166 255 
3 136 264 265 159 166 166 255 
3 136 265 252 159 166 166 255 
3 136 252 126 159 166 166 255 
3 136 126 128 159 166 166 255 
3 117 116 120 159 166 166 255 
3 120 116 122 159 166 166 255 
3 120 122 124 159 166 166 255 
3 124 122 128 159 166 166 255 
3 124 128 126 159 166 166 255 
3 189 261 260 159 166 166 255 
3 189 260 190 159 166 166 255 
3 189 193 262 159 166 166 255 
3 189 262 261 159 166 166 255 
3 193 195 263 159 166 166 255 
3 193 263 262 159 166 166 255 
3 197 264 263 159 166 166 255 
3 197 263 195 159 166 166 255 
3 197 199 265 159 166 166 255 
3 197 265 264 159 166 166 255 
3 265 199 201 159 166 166 255 
3 265 201 252 159 166 166 255 
3 201 203 253 159 166 166 255 
3 201 253 252 159 166 166 255 
3 203 205 254 159 166 166 255 
3 203 254 253 159 166 166 255 
3 207 248 254 159 166 166 255 
3 207 254 205 159 166 166 255 
3 249 248 207 159 166 166 255 
3 249 207 209 159 166 166 255 
3 209 211 250 159 166 166 255 
3 209 250 249 159 166 166 255 
3 251 250 211 159 166 166 255 
3 251 211 213 159 166 166 255 
3 213 215 240 159 166 166 255 
3 213 240 251 159 166 166 255 
3 215 217 241 159 166 166 255 
3 215 241 240 159 166 166 255 
3 217 219 242 159 166 166 255 
3 217 242 241 159 166 166 255 
3 219 221 243 159 166 166 255 
3 219 243 242 159 166 166 255 
3 221 223 244 159 166 166 255 
3 221 244 243 159 166 166 255 
3 244 223 225 159 166 166 255 
3 244 225 245 159 166 166 255 
3 225 227 255 159 166 166 255 
3 225 255 245 159 166 166 255 
3 256 255 227 159 166 166 255 
3 256 227 229 159 166 166 255 
3 229 231 257 159 166 166 255 
3 229 257 256 159 166 166 255 
3 233 258 257 159 166 166 255 
3 233 257 231 159 166 166 255 
3 258 233 235 159 166 166 255 
3 258 235 259 159 166 166 255 
3 190 260 259 159 166 166 255 
3 190 259 235 159 166 166 255 
3 185 266 267 159 166 166 255 
3 185 267 186 159 166 166 255 
3 266 268 269 159 166 166 255 
3 266 269 267 159 166 166 255 
3 270 271 184 159 166 166 255 
3 270 184 187 159 166 166 255 
3 268 236 239 159 166 166 255 
3 268 239 269 159 166 166 255 
3 237 272 273 159 166 166 255 
3 237 273 238 159 166 166 255 
3 272 247 246 159 166 166 255 
3 272 246 273 159 166 166 255 
3 274 275 276 159 166 166 255 
3 274 276 277 159 166 166 255 
3 274 277 278 159 166 166 255 
3 274 278 279 159 166 166 255 
3 274 279 280 159 166 166 255 
3 274 280 281 159 166 166 255 
3 274 281 282 159 166 166 255 
3 274 282 283 159 166 166 255 
3 274 283 284 159 166 166 255 
3 274 284 285 159 166 166 255 
3 274 285 286 159 166 166 255 
3 274 286 287 159 166 166 255 
3 274 287 288 159 166 166 255 
3 289 290 291 159 166 166 255 
3 291 290 292 159 166 166 255 
3 291 292 293 159 166 166 255 
3 293 292 294 159 166 166 255 
3 293 294 295 159 166 166 255 
3 296 293 295 159 166 166 255 
3 296 295 297 159 166 166 255 
3 296 297 298 159 166 166 255 
3 296 298 299 159 166 166 255 
3 300 277 276 159 166 166 255 
3 300 276 299 159 166 166 255 
3 300 299 298 159 166 166 255 
3 284 283 301 159 166 166 255 
3 284 301 302 159 166 166 255 
3 284 302 303 159 166 166 255 
3 284 303 304 159 166 166 255 
3 284 304 305 159 166 166 255 
3 284 305 306 159 166 166 255 
3 306 305 307 159 166 166 255 
3 306 307 308 159 166 166 255 
3 306 308 309 159 166 166 255 
3 306 309 310 159 166 166 255 
3 306 310 289 159 166 166 255 
3 306 289 291 159 166 166 255 
3 27 26 65 159 166 166 255 
3 27 65 64 159 166 166 255 
3 138 247 272 159 166 166 255 
3 138 272 237 159 166 166 255 
3 138 237 236 159 166 166 255 
3 138 236 29 159 166 166 255 
3 185 184 311 159 166 166 255 
3 185 311 312 159 166 166 255 
3 185 312 313 159 166 166 255 
3 185 313 314 159 166 166 255 
3 185 314 266 159 166 166 255 
3 236 268 29 159 166 166 255 
3 29 268 266 159 166 166 255 
3 29 266 23 159 166 166 255 
3 23 266 314 159 166 166 255 
3 315 316 317 159 166 166 255 
3 315 317 318 159 166 166 255 
3 315 318 319 159 166 166 255 
3 315 319 320 159 166 166 255 
3 315 320 321 159 166 166 255 
3 315 321 322 159 166 166 255 
3 315 322 323 159 166 166 255 
3 315 323 324 159 166 166 255 
3 316 325 326 159 166 166 255 
3 316 326 327 159 166 166 255 
3 316 327 328 159 166 166 255 
3 316 328 329 159 166 166 255 
3 316 329 330 159 166 166 255 
3 316 330 317 159 166 166 255 
3 325 311 331 159 166 166 255 
3 325 331 332 159 166 166 255 
3 325 332 333 159 166 166 255 
3 325 333 334 159 166 166 255 
3 325 334 326 159 166 166 255 
3 335 324 178 159 166 166 255 
3 335 178 171 159 166 166 255 
3 335 171 170 159 166 166 255 
3 335 170 59 159 166 166 255 
3 335 59 336 159 166 166 255 
3 324 323 337 159 166 166 255 
3 324 337 178 159 166 166 255 
3 323 322 338 159 166 166 255 
3 323 338 339 159 166 166 255 
3 323 339 340 159 166 166 255 
3 323 340 341 159 166 166 255 
3 340 342 341 159 166 166 255 
3 341 342 343 159 166 166 255 
3 341 343 344 159 166 166 255 
3 344 343 345 159 166 166 255 
3 344 345 346 159 166 166 255 
3 347 348 349 159 166 166 255 
3 347 349 344 159 166 166 255 
3 347 344 346 159 166 166 255 
3 349 348 350 159 166 166 255 
3 349 350 351 159 166 166 255 
3 349 351 333 159 166 166 255 
3 349 333 332 159 166 166 255 
3 311 184 271 159 166 166 255 
3 311 271 331 159 166 166 255 
3 352 336 59 159 166 166 255 
3 352 59 58 159 166 166 255 
3 59 170 174 159 166 166 255 
3 59 174 176 159 166 166 255 
3 59 176 180 159 166 166 255 
3 59 180 182 159 166 166 255 
3 59 182 168 159 166 166 255 
3 59 168 147 159 166 166 255 
3 59 147 140 159 166 166 255 
3 344 353 354 159 166 166 255 
3 344 354 341 159 166 166 255 
3 352 58 355 159 166 166 255 
3 352 355 356 159 166 166 255 
3 352 356 357 159 166 166 255 
3 352 357 274 159 166 166 255 
3 352 274 288 159 166 166 255 
3 355 58 67 159 166 166 255 
3 335 336 287 159 166 166 255 
3 335 287 286 159 166 166 255 
3 286 285 324 159 166 166 255 
3 286 324 335 159 166 166 255 
3 352 288 287 159 166 166 255 
3 352 287 336 159 166 166 255 
3 315 324 285 159 166 166 255 
3 315 285 284 159 166 166 255 
3 306 316 315 159 166 166 255 
3 306 315 284 159 166 166 255 
3 278 343 342 159 166 166 255 
3 278 342 279 159 166 166 255 
3 340 280 279 159 166 166 255 
3 340 279 342 159 166 166 255 
3 280 340 339 159 166 166 255 
3 280 339 281 159 166 166 255 
3 338 282 281 159 166 166 255 
3 338 281 339 159 166 166 255 
3 282 338 322 159 166 166 255 
3 282 322 283 159 166 166 255 
3 283 322 321 159 166 166 255 
3 283 321 301 159 166 166 255 
3 320 302 301 159 166 166 255 
3 320 301 321 159 166 166 255 
3 319 303 302 159 166 166 255 
3 319 302 320 159 166 166 255 
3 303 319 318 159 166 166 255 
3 303 318 304 159 166 166 255 
3 304 318 317 159 166 166 255 
3 304 317 305 159 166 166 255 
3 337 358 179 159 166 166 255 
3 337 179 178 159 166 166 255 
3 323 359 358 159 166 166 255 
3 323 358 337 159 166 166 255 
3 341 354 359 159 166 166 255 
3 341 359 323 159 166 166 255 
3 276 314 313 159 166 166 255 
3 276 313 299 159 166 166 255 
3 314 276 275 159 166 166 255 
3 314 275 360 159 166 166 255 
3 314 360 361 159 166 166 255 
3 314 361 362 159 166 166 255 
3 314 362 24 159 166 166 255 
3 314 24 23 159 166 166 255 
3 312 296 299 159 166 166 255 
3 312 299 313 159 166 166 255 
3 311 293 296 159 166 166 255 
3 311 296 312 159 166 166 255 
3 293 311 325 159 166 166 255 
3 293 325 291 159 166 166 255 
3 331 363 364 159 166 166 255 
3 331 364 332 159 166 166 255 
3 316 306 291 159 166 166 255 
3 316 291 325 159 166 166 255 
3 292 333 351 159 166 166 255 
3 292 351 294 159 166 166 255 
3 294 351 350 159 166 166 255 
3 294 350 295 159 166 166 255 
3 348 297 295 159 166 166 255 
3 348 295 350 159 166 166 255 
3 347 298 297 159 166 166 255 
3 347 297 348 159 166 166 255 
3 346 300 298 159 166 166 255 
3 346 298 347 159 166 166 255 
3 345 277 300 159 166 166 255 
3 345 300 346 159 166 166 255 
3 343 278 277 159 166 166 255 
3 343 277 345 159 166 166 255 
3 330 307 305 159 166 166 255 
3 330 305 317 159 166 166 255 
3 307 330 329 159 166 166 255 
3 307 329 308 159 166 166 255 
3 328 309 308 159 166 166 255 
3 328 308 329 159 166 166 255 
3 327 310 309 159 166 166 255 
3 327 309 328 159 166 166 255 
3 326 289 310 159 166 166 255 
3 326 310 327 159 166 166 255 
3 289 326 334 159 166 166 255 
3 289 334 290 159 166 166 255 
3 333 292 290 159 166 166 255 
3 333 290 334 159 166 166 255 
3 363 331 271 159 166 166 255 
3 363 271 270 159 166 166 255 
3 365 349 332 159 166 166 255 
3 365 332 364 159 166 166 255 
3 353 344 349 159 166 166 255 
3 353 349 365 159 166 166 255 
3 25 66 65 159 166 166 255 
3 25 65 26 159 166 166 255 
3 28 27 64 159 166 166 255 
3 28 64 63 159 166 166 255 
3 15 28 63 159 166 166 255 
3 15 63 62 159 166 166 255 
3 66 25 24 159 166 166 255 
3 66 24 362 159 166 166 255 
3 66 362 355 159 166 166 255 
3 66 355 67 159 166 166 255 
3 16 15 62 159 166 166 255 
3 16 62 77 159 166 166 255 
3 361 356 355 159 166 166 255 
3 361 355 362 159 166 166 255 
3 17 16 77 159 166 166 255 
3 17 77 76 159 166 166 255 
3 360 357 356 159 166 166 255 
3 360 356 361 159 166 166 255 
3 18 17 76 159 166 166 255 
3 18 76 75 159 166 166 255 
3 275 274 357 159 166 166 255 
3 275 357 360 159 166 166 255 
3 75 74 19 159 166 166 255 
3 75 19 18 159 166 166 255 
3 93 6 5 159 166 166 255 
3 93 5 94 159 166 166 255 
3 132 1 239 159 166 166 255 
3 132 239 238 159 166 166 255 
3 132 238 273 159 166 166 255 
3 132 273 246 159 166 166 255 
3 186 267 366 159 166 166 255 
3 186 366 367 159 166 166 255 
3 186 367 368 159 166 166 255 
3 186 368 369 159 166 166 255 
3 186 369 187 159 166 166 255 
3 1 0 366 159 166 166 255 
3 1 366 267 159 166 166 255 
3 1 267 269 159 166 166 255 
3 1 269 239 159 166 166 255 
3 97 135 169 159 166 166 255 
3 97 169 183 159 166 166 255 
3 97 183 181 159 166 166 255 
3 97 181 177 159 166 166 255 
3 97 177 175 159 166 166 255 
3 97 175 173 159 166 166 255 
3 97 173 370 159 166 166 255 
3 97 370 371 159 166 166 255 
3 97 371 372 159 166 166 255 
3 97 372 69 159 166 166 255 
3 173 172 370 159 166 166 255 
3 370 172 179 159 166 166 255 
3 370 179 373 159 166 166 255 
3 373 179 358 159 166 166 255 
3 373 358 359 159 166 166 255 
3 374 373 359 159 166 166 255 
3 374 359 375 159 166 166 255 
3 374 375 376 159 166 166 255 
3 374 376 377 159 166 166 255 
3 374 377 378 159 166 166 255 
3 374 378 379 159 166 166 255 
3 374 379 380 159 166 166 255 
3 374 380 381 159 166 166 255 
3 354 353 382 159 166 166 255 
3 354 382 383 159 166 166 255 
3 354 383 384 159 166 166 255 
3 354 384 385 159 166 166 255 
3 354 385 386 159 166 166 255 
3 354 386 375 159 166 166 255 
3 354 375 359 159 166 166 255 
3 353 365 387 159 166 166 255 
3 353 387 388 159 166 166 255 
3 353 388 389 159 166 166 255 
3 353 389 390 159 166 166 255 
3 353 390 391 159 166 166 255 
3 353 391 392 159 166 166 255 
3 353 392 382 159 166 166 255 
3 393 394 381 159 166 166 255 
3 381 394 395 159 166 166 255 
3 381 395 396 159 166 166 255 
3 396 395 397 159 166 166 255 
3 396 397 365 159 166 166 255 
3 365 397 387 159 166 166 255 
3 365 364 396 159 166 166 255 
3 396 364 363 159 166 166 255 
3 396 363 369 159 166 166 255 
3 369 363 270 159 166 166 255 
3 369 270 187 159 166 166 255 
3 381 380 398 159 166 166 255 
3 381 398 399 159 166 166 255 
3 381 399 400 159 166 166 255 
3 381 400 393 159 166 166 255 
3 169 135 145 159 166 166 255 
3 372 401 402 159 166 166 255 
3 372 402 403 159 166 166 255 
3 372 403 404 159 166 166 255 
3 372 404 405 159 166 166 255 
3 372 405 92 159 166 166 255 
3 372 92 69 159 166 166 255 
3 370 406 407 159 166 166 255 
3 370 407 371 159 166 166 255 
3 406 370 373 159 166 166 255 
3 406 373 408 159 166 166 255 
3 401 372 371 159 166 166 255 
3 401 371 407 159 166 166 255 
3 373 374 409 159 166 166 255 
3 373 409 408 159 166 166 255 
3 374 381 410 159 166 166 255 
3 374 410 409 159 166 166 255 
3 411 412 413 159 166 166 255 
3 411 413 414 159 166 166 255 
3 411 414 383 159 166 166 255 
3 411 383 382 159 166 166 255 
3 414 413 415 159 166 166 255 
3 414 415 416 159 166 166 255 
3 414 416 384 159 166 166 255 
3 414 384 383 159 166 166 255 
3 417 418 416 159 166 166 255 
3 417 416 415 159 166 166 255 
3 385 384 416 159 166 166 255 
3 385 416 418 159 166 166 255 
3 418 417 419 159 166 166 255 
3 418 419 420 159 166 166 255 
3 418 420 386 159 166 166 255 
3 418 386 385 159 166 166 255 
3 420 419 421 159 166 166 255 
3 420 421 422 159 166 166 255 
3 420 422 375 159 166 166 255 
3 420 375 386 159 166 166 255 
3 422 421 423 159 166 166 255 
3 422 423 424 159 166 166 255 
3 422 424 376 159 166 166 255 
3 422 376 375 159 166 166 255 
3 425 426 424 159 166 166 255 
3 425 424 423 159 166 166 255 
3 424 426 377 159 166 166 255 
3 424 377 376 159 166 166 255 
3 427 428 426 159 166 166 255 
3 427 426 425 159 166 166 255 
3 377 426 428 159 166 166 255 
3 377 428 378 159 166 166 255 
3 428 427 429 159 166 166 255 
3 428 429 430 159 166 166 255 
3 428 430 379 159 166 166 255 
3 428 379 378 159 166 166 255 
3 431 430 429 159 166 166 255 
3 431 429 432 159 166 166 255 
3 430 431 380 159 166 166 255 
3 430 380 379 159 166 166 255 
3 366 433 434 159 166 166 255 
3 366 434 367 159 166 166 255 
3 366 0 435 159 166 166 255 
3 366 435 436 159 166 166 255 
3 366 436 437 159 166 166 255 
3 366 437 438 159 166 166 255 
3 366 438 433 159 166 166 255 
3 435 0 7 159 166 166 255 
3 439 368 367 159 166 166 255 
3 439 367 434 159 166 166 255 
3 368 439 440 159 166 166 255 
3 368 440 369 159 166 166 255 
3 440 441 396 159 166 166 255 
3 440 396 369 159 166 166 255 
3 381 396 441 159 166 166 255 
3 381 441 410 159 166 166 255 
3 442 443 444 159 166 166 255 
3 442 444 445 159 166 166 255 
3 445 387 397 159 166 166 255 
3 445 397 442 159 166 166 255 
3 446 447 445 159 166 166 255 
3 446 445 444 159 166 166 255 
3 447 388 387 159 166 166 255 
3 447 387 445 159 166 166 255 
3 448 449 447 159 166 166 255 
3 448 447 446 159 166 166 255 
3 447 449 389 159 166 166 255 
3 447 389 388 159 166 166 255 
3 449 448 450 159 166 166 255 
3 449 450 451 159 166 166 255 
3 449 451 390 159 166 166 255 
3 449 390 389 159 166 166 255 
3 452 453 451 159 166 166 255 
3 452 451 450 159 166 166 255 
3 451 453 391 159 166 166 255 
3 451 391 390 159 166 166 255 
3 454 455 453 159 166 166 255 
3 454 453 452 159 166 166 255 
3 392 391 453 159 166 166 255 
3 392 453 455 159 166 166 255 
3 455 454 412 159 166 166 255 
3 455 412 411 159 166 166 255 
3 392 455 411 159 166 166 255 
3 392 411 382 159 166 166 255 
3 431 432 456 159 166 166 255 
3 431 456 457 159 166 166 255 
3 431 457 398 159 166 166 255 
3 431 398 380 159 166 166 255 
3 458 459 457 159 166 166 255 
3 458 457 456 159 166 166 255 
3 457 459 399 159 166 166 255 
3 457 399 398 159 166 166 255 
3 459 458 460 159 166 166 255 
3 459 460 461 159 166 166 255 
3 459 461 400 159 166 166 255 
3 459 400 399 159 166 166 255 
3 461 460 462 159 166 166 255 
3 461 462 463 159 166 166 255 
3 463 393 400 159 166 166 255 
3 463 400 461 159 166 166 255 
3 463 462 464 159 166 166 255 
3 463 464 465 159 166 166 255 
3 463 465 394 159 166 166 255 
3 463 394 393 159 166 166 255 
3 465 464 466 159 166 166 255 
3 465 466 467 159 166 166 255 
3 395 394 465 159 166 166 255 
3 395 465 467 159 166 166 255 
3 443 442 467 159 166 166 255 
3 443 467 466 159 166 166 255 
3 395 467 442 159 166 166 255 
3 395 442 397 159 166 166 255 
3 409 410 468 159 166 166 255 
3 409 468 469 159 166 166 255 
3 409 469 470 159 166 166 255 
3 409 470 471 159 166 166 255 
3 409 471 472 159 166 166 255 
3 409 472 473 159 166 166 255 
3 409 473 402 159 166 166 255 
3 409 402 408 159 166 166 255 
3 410 441 474 159 166 166 255 
3 410 474 475 159 166 166 255 
3 410 475 476 159 166 166 255 
3 410 476 477 159 166 166 255 
3 410 477 478 159 166 166 255 
3 410 478 479 159 166 166 255 
3 410 479 468 159 166 166 255 
3 480 481 439 159 166 166 255 
3 439 481 482 159 166 166 255 
3 439 482 440 159 166 166 255 
3 440 482 483 159 166 166 255 
3 440 483 441 159 166 166 255 
3 441 483 484 159 166 166 255 
3 441 484 474 159 166 166 255 
3 402 401 407 159 166 166 255 
3 402 407 406 159 166 166 255 
3 402 406 408 159 166 166 255 
3 402 473 485 159 166 166 255 
3 402 485 486 159 166 166 255 
3 402 486 487 159 166 166 255 
3 402 487 488 159 166 166 255 
3 402 488 489 159 166 166 255 
3 402 489 490 159 166 166 255 
3 402 490 433 159 166 166 255 
3 402 433 438 159 166 166 255 
3 434 433 491 159 166 166 255 
3 434 491 480 159 166 166 255 
3 434 480 439 159 166 166 255 
3 433 490 491 159 166 166 255 
3 5 4 95 159 166 166 255 
3 5 95 94 159 166 166 255 
3 4 3 96 159 166 166 255 
3 4 96 95 159 166 166 255 
3 3 2 70 159 166 166 255 
3 3 70 96 159 166 166 255 
3 6 93 92 159 166 166 255 
3 6 92 405 159 166 166 255 
3 6 405 435 159 166 166 255 
3 6 435 7 159 166 166 255 
3 419 417 486 159 166 166 255 
3 419 486 485 159 166 166 255 
3 419 485 473 159 166 166 255 
3 419 473 421 159 166 166 255 
3 472 423 421 159 166 166 255 
3 472 421 473 159 166 166 255 
3 471 425 423 159 166 166 255 
3 471 423 472 159 166 166 255 
3 471 470 427 159 166 166 255 
3 471 427 425 159 166 166 255 
3 427 470 469 159 166 166 255 
3 427 469 429 159 166 166 255 
3 469 468 432 159 166 166 255 
3 469 432 429 159 166 166 255 
3 484 483 444 159 166 166 255 
3 484 444 443 159 166 166 255 
3 444 483 482 159 166 166 255 
3 444 482 446 159 166 166 255 
3 468 479 456 159 166 166 255 
3 468 456 432 159 166 166 255 
3 479 478 458 159 166 166 255 
3 479 458 456 159 166 166 255 
3 478 477 460 159 166 166 255 
3 478 460 458 159 166 166 255 
3 460 477 476 159 166 166 255 
3 460 476 462 159 166 166 255 
3 476 475 464 159 166 166 255 
3 476 464 462 159 166 166 255 
3 466 464 475 159 166 166 255 
3 466 475 474 159 166 166 255 
3 466 474 484 159 166 166 255 
3 466 484 443 159 166 166 255 
3 2 22 71 159 166 166 255 
3 2 71 70 159 166 166 255 
3 435 405 404 159 166 166 255 
3 435 404 436 159 166 166 255 
3 489 488 413 159 166 166 255 
3 489 413 412 159 166 166 255 
3 413 488 487 159 166 166 255 
3 413 487 415 159 166 166 255 
3 487 486 417 159 166 166 255 
3 487 417 415 159 166 166 255 
3 482 481 448 159 166 166 255 
3 482 448 446 159 166 166 255 
3 481 480 450 159 166 166 255 
3 481 450 448 159 166 166 255 
3 452 450 480 159 166 166 255 
3 452 480 491 159 166 166 255 
3 454 452 491 159 166 166 255 
3 454 491 490 159 166 166 255 
3 490 489 412 159 166 166 255 
3 490 412 454 159 166 166 255 
3 403 437 436 159 166 166 255 
3 403 436 404 159 166 166 255 
3 21 20 73 159 166 166 255 
3 21 73 72 159 166 166 255 
3 437 403 402 159 166 166 255 
3 437 402 438 159 166 166 255 
3 20 19 74 159 166 166 255 
3 20 74 73 159 166 166 255 
3 492 493 494 159 166 166 255 
3 494 493 495 159 166 166 255 
3 494 495 496 159 166 166 255 
3 496 495 497 159 166 166 255 
3 496 497 498 159 166 166 255 
3 499 497 495 159 166 166 255 
3 499 495 500 159 166 166 255 
3 494 501 502 159 166 166 255 
3 494 502 503 159 166 166 255 
3 494 503 492 159 166 166 255 
3 504 505 506 159 166 166 255 
3 504 506 507 159 166 166 255 
3 504 507 508 159 166 166 255 
3 504 508 509 159 166 166 255 
3 504 509 510 159 166 166 255 
3 511 506 505 159 166 166 255 
3 511 505 512 159 166 166 255 
3 511 512 513 159 166 166 255 
3 511 513 514 159 166 166 255 
3 515 516 517 159 166 166 255 
3 517 516 514 159 166 166 255 
3 517 514 518 159 166 166 255 
3 518 514 513 159 166 166 255 
3 519 515 517 159 166 166 255 
3 519 517 520 159 166 166 255 
3 519 520 521 159 166 166 255 
3 519 521 522 159 166 166 255 
3 522 521 523 159 166 166 255 
3 522 523 524 159 166 166 255 
3 522 524 525 159 166 166 255 
3 522 525 526 159 166 166 255 
3 527 528 529 159 166 166 255 
3 529 528 530 159 166 166 255 
3 529 530 525 159 166 166 255 
3 525 530 531 159 166 166 255 
3 525 531 526 159 166 166 255 
3 532 533 534 159 166 166 255 
3 534 533 535 159 166 166 255 
3 534 535 536 159 166 166 255 
3 536 535 509 159 166 166 255 
3 536 509 537 159 166 166 255 
3 537 509 508 159 166 166 255 
3 538 539 540 159 166 166 255 
3 538 540 541 159 166 166 255 
3 538 541 532 159 166 166 255 
3 538 532 534 159 166 166 255 
3 542 543 544 159 166 166 255 
3 544 543 540 159 166 166 255 
3 544 540 545 159 166 166 255 
3 545 540 539 159 166 166 255 
3 546 547 548 159 166 166 255 
3 546 548 549 159 166 166 255 
3 546 549 550 159 166 166 255 
3 546 550 542 159 166 166 255 
3 546 542 544 159 166 166 255 
3 547 551 548 159 166 166 255 
3 548 551 527 159 166 166 255 
3 548 527 552 159 166 166 255 
3 552 527 529 159 166 166 255 
3 552 529 553 159 166 166 255 
3 554 555 556 159 166 166 255 
3 554 556 557 159 166 166 255 
3 554 557 558 159 166 166 255 
3 554 558 559 159 166 166 255 
3 495 560 561 159 166 166 255 
3 495 561 562 159 166 166 255 
3 495 562 563 159 166 166 255 
3 495 563 500 159 166 166 255 
3 540 543 556 159 166 166 255 
3 540 556 555 159 166 166 255 
3 520 517 562 159 166 166 255 
3 520 562 561 159 166 166 255 
3 564 565 558 159 166 166 255 
3 564 558 557 159 166 166 255 
3 560 495 493 159 166 166 255 
3 560 493 566 159 166 166 255 
3 564 557 556 159 166 166 255 
3 564 556 543 159 166 166 255 
3 564 543 542 159 166 166 255 
3 561 560 566 159 166 166 255 
3 561 566 521 159 166 166 255 
3 561 521 520 159 166 166 255 
3 559 567 568 159 166 166 255 
3 559 568 554 159 166 166 255 
3 499 500 563 159 166 166 255 
3 499 563 569 159 166 166 255 
3 555 554 568 159 166 166 255 
3 555 568 541 159 166 166 255 
3 555 541 540 159 166 166 255 
3 563 562 517 159 166 166 255 
3 563 517 518 159 166 166 255 
3 563 518 569 159 166 166 255 
3 518 513 569 159 166 166 255 
3 532 541 568 159 166 166 255 
3 496 498 570 159 166 166 255 
3 497 512 505 159 166 166 255 
3 497 505 570 159 166 166 255 
3 497 570 498 159 166 166 255 
3 505 504 570 159 166 166 255 
3 497 499 569 159 166 166 255 
3 497 569 513 159 166 166 255 
3 497 513 512 159 166 166 255 
3 496 570 504 159 166 166 255 
3 496 504 510 159 166 166 255 
3 496 510 494 159 166 166 255 
3 509 535 571 159 166 166 255 
3 571 572 573 159 166 166 255 
3 494 510 509 159 166 166 255 
3 494 509 571 159 166 166 255 
3 494 571 573 159 166 166 255 
3 574 533 532 159 166 166 255 
3 574 532 568 159 166 166 255 
3 574 568 567 159 166 166 255 
3 535 533 574 159 166 166 255 
3 535 574 572 159 166 166 255 
3 535 572 571 159 166 166 255 
3 523 521 566 159 166 166 255 
3 542 550 564 159 166 166 255 
3 503 502 575 159 166 166 255 
3 524 492 503 159 166 166 255 
3 524 503 575 159 166 166 255 
3 524 575 525 159 166 166 255 
3 575 529 525 159 166 166 255 
3 524 523 566 159 166 166 255 
3 524 566 493 159 166 166 255 
3 524 493 492 159 166 166 255 
3 529 575 502 159 166 166 255 
3 529 502 501 159 166 166 255 
3 529 501 553 159 166 166 255 
3 548 552 576 159 166 166 255 
3 576 577 578 159 166 166 255 
3 577 576 552 159 166 166 255 
3 577 552 553 159 166 166 255 
3 577 553 501 159 166 166 255 
3 579 549 548 159 166 166 255 
3 579 548 576 159 166 166 255 
3 579 576 578 159 166 166 255 
3 579 565 564 159 166 166 255 
3 579 564 550 159 166 166 255 
3 579 550 549 159 166 166 255 
3 580 581 582 159 166 166 255 
3 582 581 583 159 166 166 255 
3 582 583 584 159 166 166 255 
3 584 583 585 159 166 166 255 
3 584 585 586 159 166 166 255 
3 586 585 587 159 166 166 255 
3 586 587 588 159 166 166 255 
3 588 587 589 159 166 166 255 
3 588 589 590 159 166 166 255 
3 587 591 592 159 166 166 255 
3 587 592 593 159 166 166 255 
3 587 593 594 159 166 166 255 
3 587 594 589 159 166 166 255 
3 595 596 597 159 166 166 255 
3 597 596 598 159 166 166 255 
3 597 598 591 159 166 166 255 
3 591 598 599 159 166 166 255 
3 591 599 592 159 166 166 255 
3 600 601 602 159 166 166 255 
3 602 601 603 159 166 166 255 
3 602 603 597 159 166 166 255 
3 597 603 595 159 166 166 255 
3 604 605 606 159 166 166 255 
3 606 605 607 159 166 166 255 
3 606 607 608 159 166 166 255 
3 608 607 609 159 166 166 255 
3 608 609 610 159 166 166 255 
3 610 609 611 159 166 166 255 
3 610 611 602 159 166 166 255 
3 602 611 600 159 166 166 255 
3 590 612 588 159 166 166 255 
3 588 612 613 159 166 166 255 
3 588 613 614 159 166 166 255 
3 614 613 615 159 166 166 255 
3 614 615 616 159 166 166 255 
3 617 618 619 159 166 166 255 
3 617 619 614 159 166 166 255 
3 617 614 616 159 166 166 255 
3 620 604 606 159 166 166 255 
3 620 606 619 159 166 166 255 
3 620 619 618 159 166 166 255 
3 621 622 623 159 166 166 255 
3 623 622 624 159 166 166 255 
3 623 624 625 159 166 166 255 
3 625 624 626 159 166 166 255 
3 625 626 627 159 166 166 255 
3 627 626 608 159 166 166 255 
3 627 608 610 159 166 166 255 
3 621 528 527 159 166 166 255 
3 621 527 622 159 166 166 255 
3 622 527 551 159 166 166 255 
3 622 551 624 159 166 166 255 
3 551 547 626 159 166 166 255 
3 551 626 624 159 166 166 255 
3 546 608 626 159 166 166 255 
3 546 626 547 159 166 166 255 
3 606 608 546 159 166 166 255 
3 606 546 544 159 166 166 255 
3 619 606 544 159 166 166 255 
3 619 544 545 159 166 166 255 
3 539 614 619 159 166 166 255 
3 539 619 545 159 166 166 255 
3 539 538 588 159 166 166 255 
3 539 588 614 159 166 166 255 
3 588 538 534 159 166 166 255 
3 588 534 586 159 166 166 255 
3 534 536 584 159 166 166 255 
3 534 584 586 159 166 166 255 
3 582 584 536 159 166 166 255 
3 582 536 537 159 166 166 255 
3 580 582 537 159 166 166 255 
3 580 537 508 159 166 166 255 
3 581 580 508 159 166 166 255 
3 581 508 507 159 166 166 255 
3 507 506 583 159 166 166 255 
3 507 583 581 159 166 166 255 
3 506 511 585 159 166 166 255 
3 506 585 583 159 166 166 255 
3 585 511 514 159 166 166 255 
3 585 514 587 159 166 166 255 
3 591 587 514 159 166 166 255 
3 591 514 516 159 166 166 255 
3 597 591 516 159 166 166 255 
3 597 516 515 159 166 166 255 
3 515 519 602 159 166 166 255 
3 515 602 597 159 166 166 255 
3 522 610 602 159 166 166 255 
3 522 602 519 159 166 166 255 
3 627 610 522 159 166 166 255 
3 627 522 526 159 166 166 255 
3 526 531 625 159 166 166 255 
3 526 625 627 159 166 166 255 
3 531 530 623 159 166 166 255 
3 531 623 625 159 166 166 255 
3 621 623 530 159 166 166 255 
3 621 530 528 159 166 166 255 
3 628 629 630 159 166 166 255 
3 628 630 631 159 166 166 255 
3 628 631 632 159 166 166 255 
3 628 632 633 159 166 166 255 
3 628 633 634 159 166 166 255 
3 628 634 635 159 166 166 255 
3 628 635 636 159 166 166 255 
3 628 636 637 159 166 166 255 
3 628 637 638 159 166 166 255 
3 628 638 639 159 166 166 255 
3 628 639 640 159 166 166 255 
3 628 640 641 159 166 166 255 
3 628 641 642 159 166 166 255 
3 628 642 643 159 166 166 255 
3 628 643 644 159 166 166 255 
3 628 644 645 159 166 166 255 
3 628 645 646 159 166 166 255 
3 628 646 647 159 166 166 255 
3 628 647 648 159 166 166 255 
3 628 648 649 159 166 166 255 
3 628 649 650 159 166 166 255 
3 628 650 651 159 166 166 255 
3 652 653 609 159 166 166 255 
3 652 609 607 159 166 166 255 
3 605 654 652 159 166 166 255 
3 605 652 607 159 166 166 255 
3 655 654 605 159 166 166 255 
3 655 605 604 159 166 166 255 
3 620 656 655 159 166 166 255 
3 620 655 604 159 166 166 255 
3 618 657 656 159 166 166 255 
3 618 656 620 159 166 166 255 
3 617 658 657 159 166 166 255 
3 617 657 618 159 166 166 255 
3 647 653 652 159 166 166 255 
3 647 652 648 159 166 166 255 
3 654 649 648 159 166 166 255 
3 654 648 652 159 166 166 255 
3 649 654 655 159 166 166 255 
3 649 655 650 159 166 166 255 
3 650 655 656 159 166 166 255 
3 650 656 651 159 166 166 255 
3 651 656 657 159 166 166 255 
3 651 657 628 159 166 166 255 
3 628 657 658 159 166 166 255 
3 628 658 629 159 166 166 255 
3 616 659 658 159 166 166 255 
3 616 658 617 159 166 166 255 
3 616 615 660 159 166 166 255 
3 616 660 659 159 166 166 255 
3 660 615 613 159 166 166 255 
3 660 613 661 159 166 166 255 
3 613 612 662 159 166 166 255 
3 613 662 661 159 166 166 255 
3 612 590 663 159 166 166 255 
3 612 663 662 159 166 166 255 
3 663 590 589 159 166 166 255 
3 663 589 664 159 166 166 255 
3 630 629 658 159 166 166 255 
3 630 658 659 159 166 166 255 
3 630 659 660 159 166 166 255 
3 630 660 631 159 166 166 255 
3 631 660 661 159 166 166 255 
3 631 661 632 159 166 166 255 
3 662 633 632 159 166 166 255 
3 662 632 661 159 166 166 255 
3 634 633 662 159 166 166 255 
3 634 662 663 159 166 166 255 
3 634 663 664 159 166 166 255 
3 634 664 635 159 166 166 255 
3 589 594 665 159 166 166 255 
3 589 665 664 159 166 166 255 
3 594 593 666 159 166 166 255 
3 594 666 665 159 166 166 255 
3 592 667 666 159 166 166 255 
3 592 666 593 159 166 166 255 
3 667 592 599 159 166 166 255 
3 667 599 668 159 166 166 255 
3 598 669 668 159 166 166 255 
3 598 668 599 159 166 166 255 
3 598 596 670 159 166 166 255 
3 598 670 669 159 166 166 255 
3 665 636 635 159 166 166 255 
3 665 635 664 159 166 166 255 
3 665 666 637 159 166 166 255 
3 665 637 636 159 166 166 255 
3 667 638 637 159 166 166 255 
3 667 637 666 159 166 166 255 
3 638 667 668 159 166 166 255 
3 638 668 639 159 166 166 255 
3 668 669 640 159 166 166 255 
3 668 640 639 159 166 166 255 
3 640 669 670 159 166 166 255 
3 640 670 641 159 166 166 255 
3 671 670 596 159 166 166 255 
3 671 596 595 159 166 166 255 
3 603 672 671 159 166 166 255 
3 603 671 595 159 166 166 255 
3 601 673 672 159 166 166 255 
3 601 672 603 159 166 166 255 
3 674 673 601 159 166 166 255 
3 674 601 600 159 166 166 255 
3 611 675 674 159 166 166 255 
3 611 674 600 159 166 166 255 
3 609 653 675 159 166 166 255 
3 609 675 611 159 166 166 255 
3 641 670 671 159 166 166 255 
3 641 671 642 159 166 166 255 
3 642 671 672 159 166 166 255 
3 642 672 643 159 166 166 255 
3 643 672 673 159 166 166 255 
3 643 673 644 159 166 166 255 
3 644 673 674 159 166 166 255 
3 644 674 645 159 166 166 255 
3 645 674 675 159 166 166 255 
3 645 675 646 159 166 166 255 
3 646 675 653 159 166 166 255 
3 646 653 647 159 166 166 255 
3 572 574 573 159 166 166 255 
3 573 574 558 159 166 166 255 
3 573 558 494 159 166 166 255 
3 494 558 565 159 166 166 255 
3 494 565 579 159 166 166 255 
3 558 574 567 159 166 166 255 
3 558 567 559 159 166 166 255 
3 494 579 578 159 166 166 255 
3 494 578 577 159 166 166 255 
3 494 577 501 159 166 166 255 
3 676 677 678 159 166 166 255 
3 678 677 679 159 166 166 255 
3 678 679 680 159 166 166 255 
3 680 679 681 159 166 166 255 
3 680 681 682 159 166 166 255 
3 679 677 683 159 166 166 255 
3 679 683 684 159 166 166 255 
3 680 682 685 159 166 166 255 
3 680 685 686 159 166 166 255 
3 680 686 687 159 166 166 255 
3 688 689 690 159 166 166 255 
3 688 690 691 159 166 166 255 
3 688 691 692 159 166 166 255 
3 688 692 693 159 166 166 255 
3 688 693 694 159 166 166 255 
3 695 696 697 159 166 166 255 
3 697 696 698 159 166 166 255 
3 697 698 699 159 166 166 255 
3 699 698 690 159 166 166 255 
3 699 690 689 159 166 166 255 
3 700 701 702 159 166 166 255 
3 700 702 703 159 166 166 255 
3 700 703 704 159 166 166 255 
3 700 704 696 159 166 166 255 
3 700 696 695 159 166 166 255 
3 705 706 707 159 166 166 255 
3 707 706 708 159 166 166 255 
3 707 708 709 159 166 166 255 
3 709 708 702 159 166 166 255 
3 709 702 701 159 166 166 255 
3 710 711 712 159 166 166 255 
3 710 712 713 159 166 166 255 
3 710 713 706 159 166 166 255 
3 710 706 705 159 166 166 255 
3 711 714 715 159 166 166 255 
3 711 715 716 159 166 166 255 
3 711 716 717 159 166 166 255 
3 711 717 718 159 166 166 255 
3 711 718 712 159 166 166 255 
3 719 720 721 159 166 166 255 
3 721 720 693 159 166 166 255 
3 721 693 722 159 166 166 255 
3 722 693 692 159 166 166 255 
3 723 724 725 159 166 166 255 
3 725 724 726 159 166 166 255 
3 725 726 727 159 166 166 255 
3 727 726 719 159 166 166 255 
3 727 719 721 159 166 166 255 
3 723 725 728 159 166 166 255 
3 723 728 729 159 166 166 255 
3 723 729 730 159 166 166 255 
3 723 730 731 159 166 166 255 
3 716 732 733 159 166 166 255 
3 733 732 734 159 166 166 255 
3 733 734 735 159 166 166 255 
3 735 734 736 159 166 166 255 
3 735 736 730 159 166 166 255 
3 730 736 731 159 166 166 255 
3 737 717 716 159 166 166 255 
3 737 716 733 159 166 166 255 
3 738 739 740 159 166 166 255 
3 738 740 741 159 166 166 255 
3 738 741 742 159 166 166 255 
3 738 742 743 159 166 166 255 
3 744 745 679 159 166 166 255 
3 744 679 684 159 166 166 255 
3 744 684 746 159 166 166 255 
3 744 746 747 159 166 166 255 
3 723 731 744 159 166 166 255 
3 723 744 747 159 166 166 255 
3 701 700 740 159 166 166 255 
3 701 740 739 159 166 166 255 
3 738 743 748 159 166 166 255 
3 738 748 749 159 166 166 255 
3 679 745 750 159 166 166 255 
3 679 750 681 159 166 166 255 
3 739 738 749 159 166 166 255 
3 739 749 709 159 166 166 255 
3 739 709 701 159 166 166 255 
3 745 744 731 159 166 166 255 
3 745 731 736 159 166 166 255 
3 745 736 750 159 166 166 255 
3 742 741 751 159 166 166 255 
3 742 751 752 159 166 166 255 
3 746 684 683 159 166 166 255 
3 746 683 753 159 166 166 255 
3 741 740 700 159 166 166 255 
3 741 700 695 159 166 166 255 
3 741 695 751 159 166 166 255 
3 747 746 753 159 166 166 255 
3 747 753 724 159 166 166 255 
3 747 724 723 159 166 166 255 
3 726 724 753 159 166 166 255 
3 695 697 751 159 166 166 255 
3 676 678 754 159 166 166 255 
3 719 677 676 159 166 166 255 
3 719 676 754 159 166 166 255 
3 719 754 720 159 166 166 255 
3 693 720 754 159 166 166 255 
3 677 719 726 159 166 166 255 
3 677 726 753 159 166 166 255 
3 677 753 683 159 166 166 255 
3 694 693 754 159 166 166 255 
3 694 754 678 159 166 166 255 
3 694 678 680 159 166 166 255 
3 689 688 755 159 166 166 255 
3 756 755 757 159 166 166 255 
3 757 755 688 159 166 166 255 
3 757 688 694 159 166 166 255 
3 757 694 680 159 166 166 255 
3 758 699 689 159 166 166 255 
3 758 689 755 159 166 166 255 
3 758 755 756 159 166 166 255 
3 699 758 752 159 166 166 255 
3 699 752 751 159 166 166 255 
3 699 751 697 159 166 166 255 
3 736 734 750 159 166 166 255 
3 707 709 749 159 166 166 255 
3 686 685 759 159 166 166 255 
3 682 732 716 159 166 166 255 
3 682 716 759 159 166 166 255 
3 682 759 685 159 166 166 255 
3 716 715 759 159 166 166 255 
3 732 682 681 159 166 166 255 
3 732 681 750 159 166 166 255 
3 732 750 734 159 166 166 255 
3 714 687 686 159 166 166 255 
3 714 686 759 159 166 166 255 
3 714 759 715 159 166 166 255 
3 711 710 760 159 166 166 255 
3 761 760 762 159 166 166 255 
3 760 761 687 159 166 166 255 
3 760 687 714 159 166 166 255 
3 760 714 711 159 166 166 255 
3 705 763 762 159 166 166 255 
3 705 762 760 159 166 166 255 
3 705 760 710 159 166 166 255 
3 705 707 749 159 166 166 255 
3 705 749 748 159 166 166 255 
3 705 748 763 159 166 166 255 
3 764 765 766 159 166 166 255 
3 766 765 767 159 166 166 255 
3 766 767 768 159 166 166 255 
3 768 767 769 159 166 166 255 
3 768 769 770 159 166 166 255 
3 770 769 771 159 166 166 255 
3 770 771 772 159 166 166 255 
3 772 771 773 159 166 166 255 
3 772 773 774 159 166 166 255 
3 771 775 776 159 166 166 255 
3 771 776 777 159 166 166 255 
3 771 777 778 159 166 166 255 
3 771 778 773 159 166 166 255 
3 779 780 781 159 166 166 255 
3 781 780 782 159 166 166 255 
3 781 782 775 159 166 166 255 
3 775 782 783 159 166 166 255 
3 775 783 776 159 166 166 255 
3 784 785 786 159 166 166 255 
3 786 785 787 159 166 166 255 
3 786 787 781 159 166 166 255 
3 781 787 779 159 166 166 255 
3 788 789 790 159 166 166 255 
3 790 789 791 159 166 166 255 
3 790 791 792 159 166 166 255 
3 792 791 793 159 166 166 255 
3 792 793 794 159 166 166 255 
3 794 793 795 159 166 166 255 
3 794 795 786 159 166 166 255 
3 786 795 784 159 166 166 255 
3 774 796 772 159 166 166 255 
3 772 796 797 159 166 166 255 
3 772 797 798 159 166 166 255 
3 798 797 799 159 166 166 255 
3 798 799 800 159 166 166 255 
3 801 802 803 159 166 166 255 
3 801 803 798 159 166 166 255 
3 801 798 800 159 166 166 255 
3 804 788 790 159 166 166 255 
3 804 790 803 159 166 166 255 
3 804 803 802 159 166 166 255 
3 805 806 807 159 166 166 255 
3 807 806 808 159 166 166 255 
3 807 808 809 159 166 166 255 
3 809 808 810 159 166 166 255 
3 809 810 811 159 166 166 255 
3 811 810 792 159 166 166 255 
3 811 792 794 159 166 166 255 
3 805 718 717 159 166 166 255 
3 805 717 806 159 166 166 255 
3 717 737 808 159 166 166 255 
3 717 808 806 159 166 166 255 
3 733 810 808 159 166 166 255 
3 733 808 737 159 166 166 255 
3 792 810 733 159 166 166 255 
3 792 733 735 159 166 166 255 
3 790 792 735 159 166 166 255 
3 790 735 730 159 166 166 255 
3 803 790 730 159 166 166 255 
3 803 730 729 159 166 166 255 
3 798 803 729 159 166 166 255 
3 798 729 728 159 166 166 255 
3 798 728 725 159 166 166 255 
3 798 725 772 159 166 166 255 
3 772 725 727 159 166 166 255 
3 772 727 770 159 166 166 255 
3 770 727 721 159 166 166 255 
3 770 721 768 159 166 166 255 
3 766 768 721 159 166 166 255 
3 766 721 722 159 166 166 255 
3 764 766 722 159 166 166 255 
3 764 722 692 159 166 166 255 
3 764 692 691 159 166 166 255 
3 764 691 765 159 166 166 255 
3 690 767 765 159 166 166 255 
3 690 765 691 159 166 166 255 
3 690 698 769 159 166 166 255 
3 690 769 767 159 166 166 255 
3 698 696 771 159 166 166 255 
3 698 771 769 159 166 166 255 
3 775 771 696 159 166 166 255 
3 775 696 704 159 166 166 255 
3 781 775 704 159 166 166 255 
3 781 704 703 159 166 166 255 
3 702 786 781 159 166 166 255 
3 702 781 703 159 166 166 255 
3 708 794 786 159 166 166 255 
3 708 786 702 159 166 166 255 
3 794 708 706 159 166 166 255 
3 794 706 811 159 166 166 255 
3 809 811 706 159 166 166 255 
3 809 706 713 159 166 166 255 
3 807 809 713 159 166 166 255 
3 807 713 712 159 166 166 255 
3 805 807 712 159 166 166 255 
3 805 712 718 159 166 166 255 
3 812 813 814 159 166 166 255 
3 812 814 815 159 166 166 255 
3 812 815 816 159 166 166 255 
3 812 816 817 159 166 166 255 
3 812 817 818 159 166 166 255 
3 812 818 819 159 166 166 255 
3 812 819 820 159 166 166 255 
3 812 820 821 159 166 166 255 
3 812 821 822 159 166 166 255 
3 812 822 823 159 166 166 255 
3 812 823 824 159 166 166 255 
3 812 824 825 159 166 166 255 
3 812 825 826 159 166 166 255 
3 812 826 827 159 166 166 255 
3 812 827 828 159 166 166 255 
3 812 828 829 159 166 166 255 
3 812 829 830 159 166 166 255 
3 812 830 831 159 166 166 255 
3 812 831 832 159 166 166 255 
3 812 832 833 159 166 166 255 
3 812 833 834 159 166 166 255 
3 812 834 835 159 166 166 255 
3 836 837 793 159 166 166 255 
3 836 793 791 159 166 166 255 
3 791 789 838 159 166 166 255 
3 791 838 836 159 166 166 255 
3 789 788 839 159 166 166 255 
3 789 839 838 159 166 166 255 
3 840 839 788 159 166 166 255 
3 840 788 804 159 166 166 255 
3 841 840 804 159 166 166 255 
3 841 804 802 159 166 166 255 
3 801 842 841 159 166 166 255 
3 801 841 802 159 166 166 255 
3 831 837 836 159 166 166 255 
3 831 836 832 159 166 166 255 
3 832 836 838 159 166 166 255 
3 832 838 833 159 166 166 255 
3 833 838 839 159 166 166 255 
3 833 839 834 159 166 166 255 
3 834 839 840 159 166 166 255 
3 834 840 835 159 166 166 255 
3 835 840 841 159 166 166 255 
3 835 841 812 159 166 166 255 
3 812 841 842 159 166 166 255 
3 812 842 813 159 166 166 255 
3 801 800 843 159 166 166 255 
3 801 843 842 159 166 166 255 
3 844 843 800 159 166 166 255 
3 844 800 799 159 166 166 255 
3 844 799 797 159 166 166 255 
3 844 797 845 159 166 166 255 
3 845 797 796 159 166 166 255 
3 845 796 846 159 166 166 255 
3 796 774 847 159 166 166 255 
3 796 847 846 159 166 166 255 
3 773 848 847 159 166 166 255 
3 773 847 774 159 166 166 255 
3 813 842 843 159 166 166 255 
3 813 843 814 159 166 166 255 
3 815 814 843 159 166 166 255 
3 815 843 844 159 166 166 255 
3 844 845 816 159 166 166 255 
3 844 816 815 159 166 166 255 
3 817 816 845 159 166 166 255 
3 817 845 846 159 166 166 255 
3 847 818 817 159 166 166 255 
3 847 817 846 159 166 166 255 
3 847 848 819 159 166 166 255 
3 847 819 818 159 166 166 255 
3 848 773 778 159 166 166 255 
3 848 778 849 159 166 166 255 
3 850 849 778 159 166 166 255 
3 850 778 777 159 166 166 255 
3 776 851 850 159 166 166 255 
3 776 850 777 159 166 166 255 
3 783 852 851 159 166 166 255 
3 783 851 776 159 166 166 255 
3 853 852 783 159 166 166 255 
3 853 783 782 159 166 166 255 
3 780 854 853 159 166 166 255 
3 780 853 782 159 166 166 255 
3 819 848 849 159 166 166 255 
3 819 849 820 159 166 166 255 
3 820 849 850 159 166 166 255 
3 820 850 821 159 166 166 255 
3 822 821 850 159 166 166 255 
3 822 850 851 159 166 166 255 
3 823 822 851 159 166 166 255 
3 823 851 852 159 166 166 255 
3 853 824 823 159 166 166 255 
3 853 823 852 159 166 166 255 
3 824 853 854 159 166 166 255 
3 824 854 825 159 166 166 255 
3 854 780 779 159 166 166 255 
3 854 779 855 159 166 166 255 
3 856 855 779 159 166 166 255 
3 856 779 787 159 166 166 255 
3 787 785 857 159 166 166 255 
3 787 857 856 159 166 166 255 
3 858 857 785 159 166 166 255 
3 858 785 784 159 166 166 255 
3 784 795 859 159 166 166 255 
3 784 859 858 159 166 166 255 
3 837 859 795 159 166 166 255 
3 837 795 793 159 166 166 255 
3 825 854 855 159 166 166 255 
3 825 855 826 159 166 166 255 
3 827 826 855 159 166 166 255 
3 827 855 856 159 166 166 255 
3 856 857 828 159 166 166 255 
3 856 828 827 159 166 166 255 
3 829 828 857 159 166 166 255 
3 829 857 858 159 166 166 255 
3 859 830 829 159 166 166 255 
3 859 829 858 159 166 166 255 
3 830 859 837 159 166 166 255 
3 830 837 831 159 166 166 255 
3 763 748 680 159 166 166 255 
3 680 748 743 159 166 166 255 
3 680 743 757 159 166 166 255 
3 757 743 758 159 166 166 255 
3 757 758 756 159 166 166 255 
3 752 758 743 159 166 166 255 
3 752 743 742 159 166 166 255 
3 680 687 761 159 166 166 255 
3 680 761 762 159 166 166 255 
3 680 762 763 159 166 166 255 
