ply
format ascii 1.0
comment VCGLIB generated
element vertex 655
property float x
property float y
property float z
property float nx
property float ny
property float nz
element face 1442
property list uchar int vertex_indices
property uchar red
property uchar green
property uchar blue
property uchar alpha
end_header
9.6593 2.588195 34 -3.008596 -0.806061 3.403448 
9.8683 0.999994 34 -1.557369 -1.775731 1.70164 
20.0173 12.99999 34 0.6059172 2.931654 2.982488 
23.8683 0.999994 34 1.171011 -2.202036 2.61091 
20.7846 11.99999 34 2.028276 1.170973 5.221822 
23.1822 6.211694 34 2.262263 0.6061708 5.221784 
-20.0173 12.99999 34 -0.6059172 2.931653 2.982492 
-2.5882 9.659294 34 0.8061217 -3.008587 3.403408 
0 9.999994 34 4.276633e-06 -3.114756 3.403361 
2.5882 9.659294 34 -0.8061225 -3.00859 3.403407 
5 8.660295 34 -1.557354 -2.697428 3.403388 
7.0711 7.071095 34 -2.202437 -2.202436 3.403399 
8.6603 4.999994 34 -2.697428 -1.557354 3.403388 
-12 0.999994 34 1.570798 -1.570797 4.712381 
-9.8683 0.999994 34 1.557369 -1.775739 1.70164 
-9.6593 2.588195 34 3.008596 -0.806061 3.403448 
-8.6603 4.999994 34 2.697427 -1.557354 3.403389 
-7.0711 7.071095 34 2.202437 -2.202437 3.403397 
-12 -1.000005 34 1.570796 1.570796 4.712386 
-5 8.660295 34 1.557354 -2.697428 3.403388 
23.8683 -1.000005 34 1.171013 2.202029 2.610912 
9.8683 -1.000005 34 -1.557369 1.775731 1.70164 
20.0173 -13.00001 34 0.6059304 -2.931648 2.982483 
20.7846 -12.00001 34 2.028281 -1.171005 5.221806 
23.1822 -6.211706 34 2.262253 -0.6061642 5.22178 
9.6593 -2.588206 34 -3.008596 0.8060606 3.403448 
8.6603 -5.000006 34 -2.697425 1.557353 3.403389 
7.0711 -7.071106 34 -2.202435 2.202435 3.403399 
5 -8.660306 34 -1.557353 2.697425 3.403389 
2.5882 -9.659306 34 -0.8061217 3.008585 3.403408 
0 -10.00001 34 -4.276633e-06 3.11469 3.403362 
-2.5882 -9.659306 34 0.8061219 3.008583 3.403409 
-20.0173 -13.00001 34 -0.6059305 -2.93165 2.982485 
-7.0711 -7.071106 34 2.202435 2.202435 3.403398 
-8.6603 -5.000006 34 2.697426 1.557353 3.40339 
-9.6593 -2.588206 34 3.008596 0.8060607 3.403447 
-9.8683 -1.000005 34 1.55737 1.775739 1.70164 
-5 -8.660306 34 1.557353 2.697426 3.403389 
-24 -6e-06 34 -2.342031 4.36604e-06 5.221816 
-23.1822 -6.211706 34 -2.262246 -0.6061801 5.221786 
-23.1822 6.211694 34 -2.262255 0.6061722 5.221786 
-20.7846 -12.00001 34 -2.028281 -1.171003 5.221806 
-20.7846 11.99999 34 -2.028276 1.170974 5.221823 
-6.697 15.9777 3e-06 1.51726 2.627998 -3.6652 
-5.047 15.5356 3e-06 -4.470348e-08 3.034554 -3.665173 
-5 8.6603 1e-06 1.557354 -2.697426 -3.403389 
-3.397 15.9777 3e-06 -1.517259 2.627998 -3.6652 
-2.5882 9.6593 2e-06 0.806123 -3.008588 -3.403409 
-2.1891 17.1856 3e-06 -2.627998 1.517259 -3.6652 
0 10 2e-06 1.303852e-08 -3.114722 -3.403359 
-1.747 18.8356 3e-06 -3.034552 3.278255e-07 -3.665174 
0 25 4e-06 -7.450581e-08 3.114714 -2.879779 
-2.1891 20.4856 3e-06 -2.62795 -1.517304 -3.665242 
-3.397 21.6934 4e-06 -1.517299 -2.62802 -3.665103 
-7.0711 7.0711 1e-06 2.202436 -2.202436 -3.403401 
-8.6603 5 1e-06 2.697429 -1.557353 -3.403389 
-8.347 18.8356 3e-06 3.034553 4.172325e-07 -3.665171 
-7.9049 17.1856 3e-06 2.628001 1.51726 -3.6652 
25 0 0 3.114713 2.365559e-07 -2.879779 
24.1481 -6.4705 -1e-06 3.008583 -0.8061572 -2.8798 
24.1481 6.4705 1e-06 3.008583 0.8061576 -2.879799 
21.6506 -12.5 -2e-06 2.697432 -1.557341 -2.879808 
21.6506 12.5 2e-06 2.697431 1.557342 -2.879807 
17.6777 -17.6777 -3e-06 2.202434 -2.202433 -2.879772 
17.6777 17.6777 3e-06 2.202434 2.202434 -2.879771 
12.5 -21.6506 -4e-06 1.557344 -2.697433 -2.879805 
12.5 21.6506 4e-06 1.557344 2.697434 -2.879803 
10 0 0 -3.114722 5.066395e-07 -3.40336 
9.6593 2.5882 0 -3.008585 -0.8061214 -3.403409 
6.4705 -24.1481 -4e-06 0.8061576 -3.008583 -2.879801 
6.697 -21.6934 -4e-06 -1.517298 2.628021 -3.665102 
7.9049 -20.4856 -3e-06 -2.627952 1.517307 -3.665242 
8.347 -18.8356 -3e-06 -3.034553 2.980232e-07 -3.665173 
8.6603 -5 -1e-06 -2.697426 1.557354 -3.403389 
9.6593 -2.5882 -0 -3.008594 0.806123 -3.403409 
1.747 -18.8356 -3e-06 3.034553 3.576279e-07 -3.665173 
2.1891 -20.4856 -3e-06 2.627951 1.517306 -3.665241 
0 -25 -4e-06 -8.940697e-08 -3.114713 -2.879782 
3.397 -21.6934 -4e-06 1.517298 2.628021 -3.665102 
5.047 -22.1356 -4e-06 2.980232e-08 3.034507 -3.665285 
3.397 -15.9777 -3e-06 1.517259 -2.627996 -3.665201 
2.1891 -17.1856 -3e-06 2.627995 -1.517258 -3.6652 
2.5882 -9.6593 -2e-06 -0.8061214 3.008588 -3.403409 
0 -10 -2e-06 8.940697e-08 3.114723 -3.403359 
-2.5882 -9.6593 -2e-06 0.8061212 3.008588 -3.403408 
-5 -8.6603 -1e-06 1.557354 2.697428 -3.403389 
-6.4705 -24.1481 -4e-06 -0.8061575 -3.008583 -2.879803 
-12.5 -21.6506 -4e-06 -1.557344 -2.697433 -2.879802 
-9.6593 -2.5882 -0 3.008592 0.8061181 -3.403415 
-8.6603 -5 -1e-06 2.697424 1.557354 -3.403389 
-7.0711 -7.0711 -1e-06 2.202436 2.202436 -3.403398 
-5.047 22.1356 4e-06 3.72529e-09 -3.034507 -3.665287 
-6.697 21.6934 4e-06 1.5173 -2.62802 -3.665103 
-6.4705 24.1481 4e-06 -0.8061575 3.008584 -2.879799 
-7.9049 20.4856 3e-06 2.62795 -1.517304 -3.665242 
-12.5 21.6506 4e-06 -1.557344 2.697434 -2.879803 
-10 0 0 3.114725 5.081296e-06 -3.403369 
8.6603 5 1e-06 -2.697427 -1.557353 -3.403389 
7.0711 7.0711 1e-06 -2.202435 -2.202435 -3.403399 
6.4705 24.1481 4e-06 0.8061576 3.008584 -2.8798 
5 8.6603 1e-06 -1.557353 -2.697426 -3.403389 
2.5882 9.6593 2e-06 -0.8061228 -3.008588 -3.403409 
-9.6593 2.5882 0 3.008576 -0.8061204 -3.403408 
-25 0 0 -3.114713 4.470348e-07 -2.87978 
-24.1481 6.4705 1e-06 -3.008583 0.8061581 -2.8798 
-24.1481 -6.4705 -1e-06 -3.008584 -0.8061571 -2.8798 
-21.6506 12.5 2e-06 -2.697432 1.557343 -2.879807 
-21.6506 -12.5 -2e-06 -2.697432 -1.557341 -2.879807 
-17.6777 17.6777 3e-06 -2.202434 2.202434 -2.879771 
-17.6777 -17.6777 -3e-06 -2.202434 -2.202433 -2.879772 
7.9049 -17.1856 -3e-06 -2.627995 -1.517259 -3.6652 
6.697 -15.9777 -3e-06 -1.517259 -2.627996 -3.665201 
7.0711 -7.0711 -1e-06 -2.202436 2.202436 -3.403399 
5.047 -15.5356 -3e-06 -8.940697e-08 -3.034552 -3.665174 
5 -8.6603 -1e-06 -1.557354 2.697428 -3.403389 
0 13 18 1.570796 4.712389 -1.570796 
0 9.999997 18 1.775804 -4.672083 -1.70168 
0 9.999997 16 1.775801 -4.672084 1.701679 
0 13 16 1.570796 4.712389 1.570797 
-24.1481 6.470495 33 -5.019411 1.344958 2.081705 
-25 -5e-06 33 -5.196436 3.553927e-06 2.081719 
-9.8683 0.999998 13 4.672085 -2.185798 1.439829 
-10 -2e-06 13 3.114698 1.235306e-05 3.403467 
-12 0.999998 13 1.570796 -1.570796 1.570796 
-12 -1.000002 13 1.570796 1.570796 1.570797 
-9.8683 -1.000002 13 4.672087 2.185785 1.43985 
-21.6506 12.49999 33 -4.500426 2.59809 2.081753 
-21.267 12.99999 33 -2.41032 4.094905 1.454643 
-21.267 13 8.000002 -3.738743 4.439318 0.9162917 
-17.6777 17.6777 8.000003 -2.20243 2.202438 2.879778 
-12.5 21.6506 8.000004 -1.557344 2.697433 2.879792 
-6.4705 24.1481 8.000004 -0.8061578 3.008583 2.879801 
-6.697 21.6934 8.000004 1.517296 -2.62802 3.665102 
-7.9049 20.4856 8.000003 2.627951 -1.517305 3.665242 
-5.047 22.1356 8.000004 0 -3.034507 3.665285 
-5.047 15.5356 8.000003 -1.195546e-07 3.034551 3.665174 
-3.397 15.9777 8.000003 -1.517259 2.627997 3.6652 
-7.9049 17.1856 8.000003 2.62802 1.517282 3.665203 
-8.347 18.8356 8.000003 3.034554 2.373663e-07 3.665173 
-6.697 15.9777 8.000003 1.517259 2.627997 3.6652 
0 25 8.000004 6.705523e-08 3.114713 2.879781 
-3.397 21.6934 8.000004 -1.517298 -2.62802 3.665102 
-2.1891 20.4856 8.000003 -2.627951 -1.517306 3.665241 
-1.747 18.8356 8.000003 -3.034553 -1.788139e-07 3.665173 
21.267 13 8.000002 3.738744 4.439317 0.9162906 
6.4705 24.1481 8.000004 0.8061576 3.008583 2.879801 
12.5 21.6506 8.000004 1.557344 2.697432 2.879804 
17.6777 17.6777 8.000003 2.20243 2.202438 2.879774 
-2.1891 17.1856 8.000003 -2.627996 1.517259 3.665201 
2.5882 9.659297 18 -0.8061221 -3.008588 -3.403409 
2.5882 9.659297 16 -0.8061221 -3.008588 3.403407 
21.267 13 16 1.246272 2.526936 2.225215 
5 8.660297 16 -1.557353 -2.697427 3.403389 
7.0711 7.071098 16 -2.202435 -2.202437 3.403398 
8.6603 4.999998 16 -2.697428 -1.557356 3.403389 
9.6593 2.588197 16 -3.008597 -0.8060607 3.403447 
9.8683 0.999997 16 -1.557369 -1.77574 1.70164 
24.8683 0.999997 16 1.557358 -1.365768 1.439897 
24.1481 6.470498 16 3.008581 0.8061445 2.879791 
21.6506 12.5 16 2.697499 1.557259 2.879873 
24.8683 0.999997 18 1.557358 -1.365768 -1.439898 
9.8683 0.999997 18 -1.557369 -1.77574 -1.701641 
21.267 13 18 1.246274 2.526938 -2.225214 
21.6506 12.5 18 2.6975 1.557259 -2.879872 
24.1481 6.470497 18 3.008589 0.8061476 -2.879792 
9.6593 2.588197 18 -3.008596 -0.8060607 -3.403447 
8.6603 4.999997 18 -2.697426 -1.557352 -3.403389 
7.0711 7.071097 18 -2.202437 -2.202435 -3.403399 
5 8.660297 18 -1.557353 -2.697426 -3.40339 
12.4019 13 23.5 -1.028746 2.188745 -0.5941004 
12.8709 12.4585 23.7708 4.739559 2.438479 2.736413 
13.7708 12.4585 22.8709 2.736413 2.438479 4.739558 
13.5 13 22.4019 -0.5940987 2.188742 -1.028744 
12 13 25 -1.187859 2.188749 2.464652e-05 
12.5415 12.4585 25 5.472872 2.438392 4.500151e-05 
12.4019 13 26.5 -1.028742 2.188731 0.5940707 
12.8709 12.4585 26.2292 4.739522 2.438509 -2.736442 
13.5 13 27.5981 -0.5940672 2.188727 1.028738 
13.7708 12.4585 27.1291 2.736444 2.438507 -4.739522 
21.267 12.99999 33 2.410321 4.094904 1.454643 
21.6506 12.49999 33 4.500427 2.59809 2.081753 
17.5981 13 23.5 1.028746 2.188743 -0.5940996 
18 13 25 1.187864 2.188748 2.232194e-05 
17.5981 13 26.5 1.028741 2.18873 0.5940712 
16.5 13 27.5981 0.5940984 2.188742 1.028746 
15 13 28 -2.287328e-05 2.188748 1.187859 
15 13 22 2.318621e-05 2.18874 -1.187857 
16.5 13 22.4019 0.5940672 2.188728 -1.028736 
15 0.999996 22.5415 3.930941e-07 -3.665246 3.034523 
15 12.4585 22.5415 4.383177e-05 2.438391 5.472874 
13.7708 0.999996 22.8709 1.517315 -3.665165 2.627982 
12.8709 0.999996 23.7708 2.627983 -3.665164 1.517314 
12.5415 0.999996 25 3.034548 -3.665246 6.308206e-06 
12.8709 0.999996 26.2292 2.627984 -3.665163 -1.517315 
13.7708 0.999996 27.1291 1.517315 -3.665164 -2.627983 
15 12.4585 27.4585 -4.404783e-05 2.438392 -5.472872 
15 0.999996 27.4585 7.642748e-08 -3.665246 -3.034524 
16.2292 12.4585 27.1291 -2.736412 2.438479 -4.739558 
16.2292 0.999996 27.1291 -1.517314 -3.665164 -2.627982 
17.1291 12.4585 26.2292 -4.739522 2.438509 -2.736441 
17.1291 0.999996 26.2292 -2.627983 -3.665164 -1.517314 
17.4585 12.4585 25 -5.472872 2.438392 4.461408e-05 
17.4585 0.999996 25 -3.034524 -3.665246 2.573057e-07 
17.1291 12.4585 23.7708 -4.739559 2.438479 2.736412 
17.1291 0.999996 23.7708 -2.627982 -3.665165 1.517313 
16.2292 12.4585 22.8709 -2.736442 2.438506 4.739523 
16.2292 0.999996 22.8709 -1.517314 -3.665165 2.627982 
24.1481 6.470495 33 5.019411 1.344943 2.0817 
24.8683 0.999995 33 2.598226 -2.014138 1.040862 
24.8683 0.999998 13 4.672062 -0.9556162 1.701783 
25 -2e-06 13 3.114699 -1.882017e-05 2.879722 
9.8683 0.999998 13 -4.672086 -2.185798 1.439829 
10 -2e-06 13 -3.1147 1.117587e-07 3.40345 
9.8683 -1.000002 13 -4.672085 2.185797 1.43983 
24.8683 -1.000002 13 4.672065 0.9556438 1.701752 
0 -13 16 1.570796 -4.712389 1.570795 
0 -10 16 1.775801 4.672084 1.701681 
0 -10 18 1.775798 4.672084 -1.70168 
0 -13 18 1.570797 -4.712389 -1.570797 
24.1481 -6.470505 33 5.01941 -1.344939 2.081701 
24.8683 -1.000005 33 2.598223 2.014134 1.040865 
24.8683 -1.000003 18 1.557358 1.365769 -1.439898 
24.1481 -6.470503 18 3.008581 -0.8061445 -2.879791 
24.1481 -6.470502 16 3.008584 -0.8061478 2.879795 
24.8683 -1.000003 16 1.557358 1.365767 1.439898 
9.8683 -1.000003 18 -1.55737 1.77574 -1.70164 
9.6593 -2.588203 18 -3.008597 0.8060609 -3.403447 
9.6593 -2.588203 16 -3.008595 0.8060604 3.403448 
9.8683 -1.000003 16 -1.55737 1.77574 1.701641 
21.267 -13 16 1.246272 -2.526937 2.225214 
21.6506 -12.5 16 2.6975 -1.557259 2.879872 
8.6603 -5.000002 16 -2.697427 1.557353 3.403389 
7.0711 -7.071103 16 -2.202436 2.202435 3.403399 
5 -8.660303 16 -1.557353 2.697424 3.403389 
2.5882 -9.659303 16 -0.8061224 3.008588 3.403409 
21.267 -13 18 1.246273 -2.526937 -2.225215 
2.5882 -9.659303 18 -0.8061221 3.008588 -3.403408 
5 -8.660303 18 -1.557353 2.697426 -3.403389 
7.0711 -7.071103 18 -2.202435 2.202436 -3.403399 
8.6603 -5.000003 18 -2.697427 1.557355 -3.403389 
21.6506 -12.5 18 2.697499 -1.557258 -2.879873 
17.1291 -1.000004 23.7708 -2.627983 3.665164 1.517314 
17.4585 -1.000004 25 -3.034523 3.665246 -2.384186e-07 
17.1291 -1.000004 26.2292 -2.627982 3.665164 -1.517314 
16.2292 -1.000004 27.1291 -1.517315 3.665164 -2.62798 
15 -1.000005 27.4585 4.470348e-07 3.665246 -3.034524 
12.8709 -1.000004 26.2292 2.627983 3.665163 -1.517314 
12.5415 -1.000004 25 3.034512 3.665246 -2.920628e-06 
12.8709 -1.000004 23.7708 2.627984 3.665163 1.517315 
13.7708 -1.000004 22.8709 1.517315 3.665165 2.627983 
15 -1.000004 22.5415 2.086163e-07 3.665245 3.034526 
16.2292 -1.000004 22.8709 -1.517314 3.665164 2.627983 
13.7708 -1.000004 27.1291 1.517316 3.665165 -2.62798 
15 -12.4585 22.5415 -4.389882e-05 -2.438392 5.472873 
13.7708 -12.4585 22.8709 2.736444 -2.438508 4.739523 
12.8709 -12.4585 23.7708 4.739523 -2.438507 2.736443 
12.5415 -12.4585 25 5.472873 -2.438392 -4.440546e-05 
12.8709 -12.4585 26.2292 4.73956 -2.438476 -2.736414 
13.7708 -12.4585 27.1291 2.736412 -2.438479 -4.739559 
15 -12.4585 27.4585 4.398823e-05 -2.438391 -5.472873 
16.2292 -12.4585 27.1291 -2.736442 -2.438506 -4.739522 
17.1291 -12.4585 26.2292 -4.739559 -2.438477 -2.736414 
17.4585 -12.4585 25 -5.472873 -2.438392 -4.389882e-05 
17.1291 -12.4585 23.7708 -4.739523 -2.438507 2.736442 
16.2292 -12.4585 22.8709 -2.736412 -2.43848 4.739559 
21.6506 -12.50001 33 4.500392 -2.598104 2.081772 
21.267 -13.00001 33 2.410304 -4.094841 1.454691 
21.267 -13 7.999998 3.73874 -4.439322 0.9162869 
17.6777 -17.6777 7.999997 2.202431 -2.20244 2.879773 
-21.267 -13.00001 33 -2.410304 -4.094855 1.454691 
-21.267 -13 7.999998 -3.738741 -4.439321 0.9162907 
13.5 -13 22.4019 0.9633932 -5.592163 1.668612 
12.4019 -13 23.5 1.668614 -5.592162 0.9633938 
12 -13 25 1.926872 -5.592069 -2.422929e-05 
12.4019 -13 26.5 1.668608 -5.592175 -0.9633658 
13.5 -13 27.5981 0.9633632 -5.592176 -1.668607 
15 -13 28 2.273917e-05 -5.592069 -1.926873 
17.5981 -13 23.5 -1.668613 -5.592163 0.9633927 
16.5 -13 22.4019 -0.9633628 -5.592176 1.668606 
15 -13 22 -2.275407e-05 -5.592069 1.926872 
16.5 -13 27.5981 -0.9633934 -5.592163 -1.668613 
17.5981 -13 26.5 -1.668606 -5.592175 -0.9633659 
18 -13 25 -1.926878 -5.592069 -2.208352e-05 
12.5 -21.6506 7.999997 1.557344 -2.697433 2.879803 
6.4705 -24.1481 7.999996 0.8061575 -3.008584 2.879799 
6.697 -21.6934 7.999997 -1.517298 2.628018 3.665103 
7.9049 -20.4856 7.999997 -2.627951 1.517305 3.665242 
6.697 -15.9777 7.999998 -1.517259 -2.627997 3.6652 
5.047 -15.5356 7.999998 -2.247365e-07 -3.034551 3.665173 
7.9049 -17.1856 7.999997 -2.627998 -1.51726 3.6652 
8.347 -18.8356 7.999997 -3.034553 -2.09338e-09 3.665173 
3.397 -15.9777 7.999998 1.517259 -2.627996 3.6652 
5.047 -22.1356 7.999996 1.192093e-06 3.034508 3.665287 
0 -25 7.999996 -1.564622e-07 -3.114714 2.879765 
-17.6777 -17.6777 7.999997 -2.20243 -2.202439 2.879777 
2.1891 -20.4856 7.999997 2.62795 1.517305 3.665242 
1.747 -18.8356 7.999997 3.034521 8.434057e-06 3.66517 
2.1891 -17.1856 7.999997 2.628006 -1.517269 3.665206 
-6.4705 -24.1481 7.999996 -0.8061575 -3.008584 2.8798 
-12.5 -21.6506 7.999997 -1.557344 -2.697433 2.879803 
3.397 -21.6934 7.999997 1.517298 2.628019 3.665103 
-21.6506 -12.50001 33 -4.500392 -2.598102 2.081772 
-24.1481 -6.470505 33 -5.019411 -1.344964 2.081703 
12 38.8 25.00001 -1.293133 6.001647 6.400049e-06 
12.1022 38.8 25.77651 -1.249125 6.001619 0.3346922 
13.5 38.8 25.866 2.356246 4.188753 -1.36032 
12.4019 38.8 26.50001 -1.119922 6.00161 0.6466534 
15 38.8 26.73211 5.960464e-08 4.188865 -2.72064 
12.8787 38.8 27.12131 -0.9143791 6.00165 0.9143788 
17.1213 38.8 27.12131 0.9143597 6.001663 0.9143598 
13.5 38.8 27.59811 -0.6466479 6.001605 1.119938 
16.5 38.8 27.59811 0.6466256 6.001611 1.119936 
14.2235 38.8 27.89781 -0.3347056 6.001615 1.249131 
15.7765 38.8 27.89781 0.3347107 6.001617 1.249124 
15 38.8 28.00001 -6.683171e-06 6.001647 1.293133 
17.5981 38.8 26.50001 1.119935 6.001612 0.6466258 
17.8978 38.8 25.77651 1.249131 6.001614 0.3347059 
16.5 38.8 25.866 -2.356246 4.188753 -1.36032 
12.8787 38.8 22.87871 -0.9143605 6.001663 -0.9143596 
12.4019 38.8 23.50001 -1.119919 6.001617 -0.6466315 
17.1213 38.8 22.87871 0.9143598 6.001663 -0.9143597 
15 38.8 23.26791 -5.960464e-08 4.188865 2.72064 
17.5981 38.8 23.50001 1.119935 6.001612 -0.6466258 
16.5 38.8 24.13401 -2.356246 4.188753 1.36032 
17.8978 38.8 24.22351 1.249131 6.001614 -0.3347059 
18 38.8 25.00001 1.293138 6.001644 -3.72529e-09 
13.5 38.8 24.13401 2.356246 4.188753 1.36032 
12.1022 38.8 24.22351 -1.249118 6.001622 -0.3346971 
15 38.8 22.00001 0 6.001649 -1.293128 
14.2235 38.8 22.10221 -0.3347107 6.001617 -1.249124 
15.7765 38.8 22.10221 0.3346962 6.001622 -1.249119 
13.5 38.8 22.40191 -0.6466256 6.001611 -1.119936 
16.5 38.8 22.40191 0.6466319 6.001616 -1.119921 
17.0668 -12 23.8068 2.028201 -5.221869 -1.171024 
17.3052 -12 24.3823 2.26224 -5.221797 -0.6061573 
17.3865 -12 25 2.341995 -5.221865 0 
17.3052 -12 25.6177 2.262237 -5.221804 0.6061475 
17.0668 -12 26.1932 2.028199 -5.221879 1.171026 
16.6875 -12 26.6875 1.656041 -5.221827 1.656081 
16.1932 -12 27.0668 1.171058 -5.221848 2.028201 
15.6177 -12 27.3052 0.6061565 -5.221797 2.262239 
15 -12 27.3865 1.490116e-08 -5.221865 2.341995 
14.3823 -12 27.3052 -0.6061558 -5.221798 2.262239 
13.8068 -12 27.0668 -1.171059 -5.221847 2.028202 
13.3125 -12 26.6875 -1.656041 -5.221827 1.656079 
12.9332 -12 26.1932 -2.028205 -5.221869 1.171021 
12.6948 -12 25.6177 -2.262238 -5.221801 0.6061552 
12.6135 -12 25 -2.341998 -5.221861 1.676381e-06 
12.6948 -12 24.3823 -2.262237 -5.221803 -0.6061565 
12.9332 -12 23.8068 -2.028204 -5.221845 -1.171059 
13.3125 -12 23.3125 -1.656074 -5.221806 -1.656074 
13.8068 -12 22.9332 -1.171059 -5.221848 -2.028203 
14.3823 -12 22.6948 -0.6061561 -5.221798 -2.26224 
15 -12 22.6135 8.940697e-08 -5.221865 -2.341995 
15.6177 -12 22.6948 0.6061566 -5.221798 -2.26224 
16.1932 -12 22.9332 1.171023 -5.221869 -2.028201 
16.6875 -12 23.3125 1.656049 -5.221849 -1.656049 
15 37.8 21.00001 1.518428e-05 1.155493 -5.904267 
16.0353 37.8 21.1363 1.528144 1.155453 -5.703094 
16.0353 22.4 21.1363 5.960464e-08 2.771583e-07 -1.192093e-07 
15 22.4 21 -2.980232e-08 -2.022711e-08 -1.192093e-07 
15.7765 13 22.1022 0.806119 -3.403444 -3.00858 
15.7765 -11.3865 22.1022 1.344887 -2.081714 -5.019328 
15 -11.3865 22 -7.450581e-08 -2.08177 -5.1965 
15 35.8 26.73211 -5.960464e-08 2.09432 -2.72064 
16.5 35.8 25.866 -2.356246 2.094433 -1.36032 
16.5 35.8 24.13401 -2.356246 2.094432 1.36032 
15 35.8 23.26791 5.960464e-08 2.09432 2.72064 
13.5 35.8 24.13401 2.356246 2.094432 1.36032 
13.5 35.8 25.866 2.356246 2.094433 -1.36032 
15 38.5071 21.29291 1.841784e-05 3.907137 -4.081226 
15.9595 38.5071 21.41921 1.056313 3.90702 -3.942162 
15 13 30 -5.587935e-09 -2.87975 3.114707 
13.7059 13 29.8296 -0.8061823 -2.879815 3.00858 
16.2941 13 29.8296 0.8061823 -2.879815 3.00858 
12.5 13 29.3301 -1.557382 -2.879773 2.697403 
17.5 13 29.3301 1.557382 -2.879774 2.697404 
11.4645 13 28.5355 -2.202442 -2.879833 2.202443 
18.5355 13 28.5355 2.202442 -2.879832 2.202442 
15.7765 13 27.8978 0.8061185 -3.403448 3.008579 
12.8787 13 27.1213 -2.202457 -3.40327 2.202455 
10.6699 13 27.5 -2.697403 -2.879773 1.557382 
14.2235 13 27.8978 -0.806119 -3.403448 3.00858 
12.1022 13 24.2235 -3.008579 -3.403449 -0.8061206 
10 13 25 -3.114707 -2.87975 0 
12.1022 13 25.7765 -3.008577 -3.403449 0.8061181 
10.1704 13 26.2941 -3.008582 -2.879815 0.8061805 
10.1704 13 23.7059 -3.00858 -2.879814 -0.8061813 
10.6699 13 22.5 -2.697403 -2.879793 -1.557384 
12.8787 13 22.8787 -2.202453 -3.403269 -2.202451 
11.4645 13 21.4645 -2.202442 -2.879827 -2.202443 
14.2235 13 22.1022 -0.8061191 -3.403441 -3.008581 
17.1213 13 27.1213 2.202456 -3.403269 2.202456 
19.3301 13 27.5 2.697404 -2.879774 1.557382 
17.8978 13 25.7765 3.00858 -3.403448 0.8061172 
19.8296 13 26.2941 3.008581 -2.879815 0.8061816 
19.8296 13 23.7059 3.00858 -2.879815 -0.8061825 
17.8978 13 24.2235 3.008579 -3.403448 -0.806119 
20 13 25 3.114707 -2.879749 -1.490116e-08 
17.1213 13 22.8787 2.202453 -3.403268 -2.202454 
19.3301 13 22.5 2.697404 -2.879738 -1.557383 
18.5355 13 21.4645 2.202442 -2.879832 -2.202443 
15 13 20 0 -2.879749 -3.114707 
16.2941 13 20.1704 0.8061827 -2.879814 -3.008586 
13.7059 13 20.1704 -0.8061827 -2.879814 -3.008586 
17.5 13 20.6699 1.557382 -2.879772 -2.697404 
12.5 13 20.6699 -1.557382 -2.879773 -2.697404 
15 22.4 20 -2.04891e-08 -5.510785e-07 -2.235174e-07 
16.2941 22.4 20.1704 -8.195639e-08 -7.518352e-07 5.960464e-08 
15 22.39999 30 0 6.196811e-07 0 
16.2941 22.39999 29.8296 2.384186e-07 8.22109e-07 5.960464e-07 
13.7059 22.39999 29.8296 -1.788139e-07 3.386313e-07 8.34465e-07 
17.5 22.39999 29.3301 -2.011657e-07 -2.403166e-07 1.788139e-07 
12.5 22.39999 29.3301 1.192093e-07 1.123478e-06 3.576279e-07 
15 22.4 29 -1.639128e-07 -6.05459e-08 -5.960464e-07 
13.9647 22.4 28.8637 5.960464e-08 -4.204483e-08 -2.384186e-07 
17.8284 22.4 27.8284 -1.072884e-06 5.794935e-08 -5.960464e-07 
17 22.4 28.4641 -1.788139e-07 -4.558304e-08 -3.576279e-07 
18.5355 22.4 28.5355 -6.556511e-07 5.455872e-07 -8.34465e-07 
16.0353 22.4 28.8637 -2.849847e-07 -5.040856e-08 -3.799796e-07 
18.8637 22.4 23.9647 3.576279e-07 1.295403e-08 2.980232e-08 
19 22.4 25 9.536743e-07 5.978258e-10 -1.043081e-07 
20 22.4 25 -1.192093e-07 -5.678518e-08 -8.940697e-08 
18.8637 22.4 26.0353 -2.384186e-07 1.050617e-07 -2.384186e-07 
19.8296 22.4 26.2941 1.788139e-07 4.699408e-08 5.215406e-08 
18.4641 22.4 27 1.192093e-07 2.058885e-07 1.192093e-07 
19.3301 22.4 27.5 -4.768372e-07 3.777338e-07 -5.364418e-07 
17 22.4 21.5359 -1.788139e-07 -7.270749e-08 4.768372e-07 
17.8284 22.4 22.1716 -4.768372e-07 -6.193542e-08 3.576279e-07 
19.3301 22.4 22.5 4.768372e-07 -3.79095e-07 -1.192093e-07 
18.4641 22.4 23 -4.768372e-07 -8.982039e-08 2.384186e-07 
19.8296 22.4 23.7059 -3.576279e-07 -4.38215e-08 8.940697e-08 
18.5355 22.4 21.4645 0 0.0002676767 -5.960464e-08 
17.5 22.4 20.6699 5.960464e-08 -3.337615e-05 1.192093e-07 
11.4645 22.4 28.5355 3.576279e-07 4.146277e-07 -8.34465e-07 
13 22.4 28.4641 2.793968e-07 -7.960129e-08 -1.057982e-06 
12.1716 22.4 27.8284 7.152557e-07 9.178494e-08 -6.556511e-07 
10.6699 22.4 27.5 -5.960464e-08 3.664877e-07 -2.831221e-07 
11.5359 22.4 27 1.192093e-06 2.376649e-07 -7.152557e-07 
11.1363 22.4 26.0353 1.192093e-07 -1.143461e-07 2.980232e-08 
10.1704 22.4 26.2941 -5.960464e-07 1.661713e-07 2.980232e-08 
12.1716 22.4 22.1716 -1.192093e-07 -9.754276e-08 3.576279e-07 
10.6699 22.4 22.5 -4.768372e-07 -5.444127e-07 -3.576279e-07 
11.5359 22.4 23 7.152557e-07 -1.803423e-07 4.172325e-07 
10.1704 22.4 23.7059 1.788139e-07 7.274764e-08 1.043081e-07 
11.1363 22.4 23.9647 1.192093e-06 1.134279e-07 2.980232e-07 
10 22.4 25 0 1.197418e-07 -5.960464e-08 
11 22.4 25 7.152557e-07 2.382852e-07 -8.940697e-08 
13 22.4 21.5359 3.576279e-07 1.313991e-07 5.960464e-07 
13.9647 22.4 21.1363 1.853332e-07 -5.041709e-08 2.235174e-08 
11.4645 22.4 21.4645 5.960464e-08 -0.0002682772 1.192093e-07 
13.7059 22.4 20.1704 4.470348e-08 -3.485926e-07 -4.768372e-07 
12.5 22.4 20.6699 -2.30968e-07 3.248137e-05 -6.556511e-07 
17 37.8 21.53591 2.952239 1.155508 -5.11315 
16.5 -11.3865 22.4019 2.598364 -2.081723 -4.500109 
16.8536 38.5071 21.78961 2.040784 3.907158 -3.534372 
17.8284 37.8 22.17161 4.174983 1.155478 -4.175002 
17.1213 -11.3865 22.8787 3.674525 -2.081775 -3.674525 
17.6213 38.5071 22.37871 2.885864 3.907101 -2.885886 
18.4641 37.8 23.00001 5.113164 1.155524 -2.952197 
17.5981 -11.3865 23.5 4.500106 -2.081724 -2.598363 
18.2104 38.5071 23.14641 3.534401 3.907141 -2.040729 
18.8637 37.8 23.96471 5.703074 1.155467 -1.528187 
17.8978 -11.3865 24.2235 5.019329 -2.081714 -1.344889 
18.5808 38.5071 24.04051 3.94214 3.907009 -1.056369 
19 37.8 25.00001 5.904275 1.15548 -1.192093e-07 
18 -11.3865 25 5.196499 -2.081771 9.685755e-08 
18.7071 38.5071 25.00001 4.081214 3.907156 -4.470348e-08 
18.8637 37.8 26.03531 5.703097 1.15544 1.528161 
17.8978 -11.3865 25.7765 5.019335 -2.08171 1.344884 
18.5808 38.5071 25.95951 3.942142 3.907041 1.05633 
18.4641 37.8 27.00001 5.113149 1.155508 2.952239 
17.5981 -11.38651 26.5 4.500111 -2.081722 2.598371 
18.2104 38.5071 26.85361 3.534369 3.907161 2.040773 
17.8284 37.8 27.82841 4.174988 1.155488 4.174987 
17.1213 -11.38651 27.1213 3.6745 -2.081791 3.674526 
17.6213 38.5071 27.62131 2.885877 3.907088 2.885877 
17 37.8 28.46411 2.952204 1.155535 5.113152 
16.5 -11.38651 27.5981 2.598371 -2.081739 4.500083 
16.8536 38.5071 28.21041 2.040745 3.907128 3.534396 
16.0353 37.8 28.86371 1.528187 1.155466 5.703074 
15.7765 -11.38651 27.8978 1.344888 -2.081715 5.019329 
15.9595 38.5071 28.5808 1.056375 3.907006 3.942142 
15 37.8 29.00001 -1.473725e-05 1.155492 5.904269 
15 -11.38651 28 4.470348e-08 -2.081772 5.1965 
15 38.5071 28.70711 -2.228469e-05 3.907139 4.081222 
13.9647 37.8 28.86371 -1.528145 1.155452 5.703094 
14.2235 -11.38651 27.8978 -1.344887 -2.081715 5.019329 
14.0405 38.5071 28.5808 -1.056314 3.907025 3.942149 
13 37.8 28.46411 -2.95224 1.155508 5.113149 
13.5 -11.38651 27.5981 -2.598372 -2.081738 4.500085 
13.1464 38.5071 28.21041 -2.040777 3.907166 3.534354 
12.1716 37.8 27.82841 -4.174988 1.155488 4.174988 
12.8787 -11.38651 27.1213 -3.674501 -2.08179 3.674524 
12.3787 38.5071 27.62131 -2.885861 3.907096 2.885861 
11.5359 37.8 27.00001 -5.113151 1.155507 2.952238 
12.4019 -11.38651 26.5 -4.500111 -2.081725 2.598366 
11.7896 38.5071 26.85361 -3.534355 3.907163 2.040788 
11.1363 37.8 26.03531 -5.703097 1.155448 1.528144 
12.1022 -11.3865 25.7765 -5.019328 -2.081714 1.344889 
11.4192 38.5071 25.95951 -3.942161 3.907016 1.056306 
11 37.8 25.00001 -5.904268 1.155491 1.639128e-05 
12 -11.3865 25 -5.196499 -2.08177 9.387732e-07 
11.2929 38.5071 25.00001 -4.081223 3.907139 2.385676e-05 
11.1363 37.8 23.96471 -5.703101 1.155434 -1.528162 
12.1022 -11.3865 24.2235 -5.019327 -2.081713 -1.344891 
11.4192 38.5071 24.04051 -3.942154 3.907032 -1.056329 
11.5359 37.8 23.00001 -5.113162 1.155496 -2.95223 
12.4019 -11.3865 23.5 -4.500085 -2.081737 -2.598374 
11.7896 38.5071 23.14641 -3.534376 3.907173 -2.040769 
12.1716 37.8 22.17161 -4.174983 1.155478 -4.175001 
12.8787 -11.3865 22.8787 -3.674503 -2.081803 -3.6745 
12.3787 38.5071 22.37871 -2.885864 3.907101 -2.885885 
13 37.8 21.53591 -2.952205 1.155536 -5.113152 
13.5 -11.3865 22.4019 -2.598371 -2.081738 -4.500084 
13.1464 38.5071 21.78961 -2.040745 3.907128 -3.534396 
13.9647 37.8 21.1363 -1.528188 1.155468 -5.703074 
14.2235 -11.3865 22.1022 -1.344887 -2.081714 -5.019328 
14.0405 38.5071 21.41921 -1.056374 3.907007 -3.942142 
59.5177 42.9346 19.50001 2.697449 -1.55731 -2.879789 
59.8773 43.8028 19.50001 3.00859 -0.8061624 -2.879839 
59.8773 43.8028 30.50001 3.00859 -0.8061624 2.879839 
59.5177 42.9346 30.50001 2.69745 -1.557311 2.879789 
60 44.7346 19.50001 3.128149 -0.2050725 -3.010666 
60 44.7346 30.50001 3.128149 -0.2050725 3.010666 
60 46.8 19.50001 3.088049 0.4066247 -2.879745 
60 46.8 30.50001 3.088049 0.4066244 2.879745 
58.8 48 30.50001 0.02060065 3.039877 2.631451 
59.4 47.8392 30.50001 1.517345 2.627974 2.618041 
59.4 47.8392 19.50001 1.517345 2.627973 -2.618041 
58.8 48 19.50001 0.02060083 3.039878 -2.631451 
59.8392 47.4 30.50001 2.627974 1.517345 2.618042 
59.8392 47.4 19.50001 2.627973 1.517345 -2.618042 
42.3184 43.8215 19.50001 -0.8576953 3.020933 -3.084906 
42.3184 43.8215 30.50001 -0.8576955 3.020932 3.084907 
58.9456 42.189 30.50001 2.207279 -2.198698 2.883657 
58.9456 42.189 19.50001 2.207278 -2.198698 -2.883657 
15 16.99999 31.5 -8.940697e-08 -2.879769 3.114711 
13.3177 16.99999 31.2785 -0.8061174 -2.879841 3.008603 
16.6823 16.99999 31.2785 0.8061176 -2.879841 3.008603 
11.75 16.99999 30.6292 -1.557322 -2.87975 2.697433 
18.25 16.99999 30.6292 1.557319 -2.879749 2.697431 
15 16.99999 30 0 -3.403435 -3.114707 
16.2941 16.99999 29.8296 -0.8061824 -3.403369 -3.00858 
11.4645 17 28.5355 2.202443 -3.403351 -2.20245 
12.5 16.99999 29.3301 1.557382 -3.403411 -2.697404 
10.4038 16.99999 29.5962 -2.202439 -2.879816 2.202436 
13.7059 16.99999 29.8296 0.8061824 -3.403369 -3.00858 
10.1704 17 23.7059 3.00858 -3.403371 0.8061812 
10 17 25 3.114707 -3.403435 9.685755e-08 
8.5 17 25 -3.114711 -2.879769 0 
10.1704 17 26.2941 3.00858 -3.403371 -0.8061812 
8.7215 17 26.6823 -3.008604 -2.87984 0.8061179 
10.6699 17 27.5 2.697403 -3.403412 -1.557383 
9.3708 17 28.25 -2.697434 -2.879749 1.557322 
12.5 17 20.6699 1.557383 -3.403413 2.697404 
11.4645 17 21.4645 2.202442 -3.403352 2.202443 
9.3708 17 21.75 -2.697433 -2.879747 -1.557322 
10.6699 17 22.5 2.697403 -3.403413 1.557384 
8.7215 17 23.3177 -3.008602 -2.87984 -0.8061175 
10.4038 17 20.4038 -2.202439 -2.879815 -2.20244 
11.75 17 19.3708 -1.557322 -2.879747 -2.697433 
15 17 20 -1.490116e-08 -3.403431 3.114707 
13.7059 17 20.1704 0.8061821 -3.403371 3.008579 
19.5962 16.99999 29.5962 2.202438 -2.879815 2.202435 
17.5 16.99999 29.3301 -1.557382 -3.403411 -2.697404 
18.5355 17 28.5355 -2.202443 -3.403352 -2.202449 
20.6292 17 28.25 2.697434 -2.879749 1.557321 
19.3301 17 27.5 -2.697404 -3.403411 -1.557383 
19.8296 17 26.2941 -3.00858 -3.40337 -0.8061823 
21.2785 17 26.6823 3.008603 -2.87984 0.8061175 
18.5355 17 21.4645 -2.202443 -3.403353 2.202443 
20.6292 17 21.75 2.697433 -2.879748 -1.557322 
19.3301 17 22.5 -2.697404 -3.403412 1.557383 
21.2785 17 23.3177 3.008603 -2.87984 -0.8061177 
19.8296 17 23.7059 -3.00858 -3.40337 0.8061823 
21.5 17 25 3.114712 -2.879769 -1.341105e-07 
20 17 25 -3.114707 -3.403436 1.192093e-07 
17.5 17 20.6699 -1.557383 -3.403412 2.697404 
16.2941 17 20.1704 -0.8061822 -3.403372 3.00858 
19.5962 17 20.4038 2.202435 -2.879802 -2.202443 
15 17 18.5 -1.639128e-07 -2.879768 -3.114711 
16.6823 17 18.7215 0.8061177 -2.87984 -3.008603 
13.3177 17 18.7215 -0.8061175 -2.87984 -3.008603 
18.25 17 19.3708 1.557325 -2.879739 -2.697426 
15 35.7417 18.50001 -0.6798031 2.790175 -3.114057 
16.6823 36.1924 18.72151 0.1177374 2.789144 -2.975494 
18.25 36.6125 19.37081 0.845777 2.785827 -2.63924 
18.4183 36.6576 19.50001 -0.1492743 3.65085 -2.912383 
18.4183 23.898 19.5 3.704137 -0.266022 -5.029067 
19.3936 25.169 20.2483 3.946197 -2.370181 -2.289823 
19.5962 25.3245 20.4038 4.283964 -2.694921 -2.034355 
20.6292 26.1171 21.75 4.702122 -2.720586 -1.400577 
21.2785 26.6153 23.3177 4.948976 -2.743633 -0.7098767 
21.5 26.7853 25 5.029265 -2.753502 8.000277e-05 
15 35.7417 21.00001 -0.9463711 3.278897 3.114555 
16.0353 36.0191 21.1363 -1.743999 3.280001 2.975379 
17 36.2776 21.53591 -2.471694 3.283062 2.63931 
17.8284 36.4995 22.17161 -3.084023 3.28721 2.134934 
18.4641 36.6699 23.00001 -3.544588 3.291959 1.497122 
18.8637 36.7769 23.96471 -3.832086 3.294914 0.7719063 
19 36.8135 25.00001 -3.928378 3.296301 -0.0001196504 
23.5357 28.34729 30.5 1.557372 -2.697421 3.403367 
23.5357 28.3473 19.5 1.557375 -2.697417 -3.40337 
28.3593 30.3454 19.50001 0.846424 -3.002744 -3.377518 
28.3593 30.34539 30.50001 0.8464224 -3.002744 3.377517 
58.2246 41.6313 19.50001 1.751969 -2.599634 -3.010865 
57.5401 41.2324 19.50001 1.392023 -2.808383 -3.006644 
33.422 31.2423 19.50001 1.000366 -2.970437 -3.005879 
32.5 31 19.50001 0.6445257 -3.070739 -3.041398 
26.1 38.7159 19.50001 -0.878226 3.01558 -3.184771 
19.3936 25.169 19.5 2.202419 -2.202455 -3.403365 
26.1 38.7159 30.50001 -0.8782241 3.015579 3.184773 
32.5 30.99999 30.50001 0.6445259 -3.07074 3.041397 
33.422 31.24229 30.50001 1.000367 -2.970438 3.005878 
57.5401 41.2324 30.50001 1.392022 -2.808382 3.006644 
58.2246 41.6313 30.50001 1.751969 -2.599634 3.010865 
21.2785 26.6153 26.6823 4.949024 -2.743596 0.7098481 
20.6292 26.1171 28.25 4.702119 -2.720588 1.400609 
19.5962 25.32449 29.5962 4.284095 -2.694837 2.034127 
19.3936 25.16899 29.7517 3.946049 -2.37038 2.289673 
18.4183 23.89799 30.5 3.704086 -0.2659945 5.029108 
18.4183 36.6576 30.50001 -0.1492732 3.65085 2.912383 
18.25 36.6125 30.62921 0.8457842 2.785829 2.639246 
16.6823 36.1924 31.27851 0.1177778 2.789154 2.975618 
15 35.7417 31.50001 -0.679803 2.790174 3.114057 
18.8637 36.7769 26.03531 -3.831899 3.294965 -0.771605 
18.4641 36.6699 27.00001 -3.54541 3.291739 -1.498004 
17.8284 36.4995 27.82841 -3.084081 3.287194 -2.134906 
17 36.2776 28.46411 -2.471695 3.283062 -2.63931 
16.0353 36.0191 28.86371 -1.743999 3.280002 -2.975379 
15 35.7417 29.00001 -0.9463714 3.278898 -3.114556 
19.3936 25.16899 30.5 2.202416 -2.202461 3.403385 
13.3177 35.2909 31.27851 -1.494503 2.789142 3.041693 
11.75 34.8708 30.62921 -2.269208 2.786019 2.755526 
10.4038 34.5101 29.59621 -2.947086 2.781829 2.270202 
9.3708 34.2333 28.25001 -3.475558 2.77735 1.616673 
8.7215 34.0593 26.68231 -3.81176 2.774109 0.8406993 
8.5 34 25.00001 -3.926997 2.772833 5.960464e-08 
10.4038 34.5101 20.4038 -2.947086 2.781837 -2.270198 
13.3177 35.2909 18.72151 -1.494463 2.789154 -3.041571 
11.75 34.8708 19.37081 -2.269204 2.786021 -2.755525 
13.9647 35.46429 28.86371 -0.1317075 3.279996 -3.041616 
13 35.2058 28.46411 0.6430222 3.283033 -2.755391 
12.1716 34.9838 27.82841 1.320881 3.287213 -2.270239 
11.5359 34.8135 27.00001 1.849157 3.291685 -1.616658 
11.1363 34.7064 26.03531 2.185405 3.295002 -0.8406962 
11 34.6699 25.00001 2.30075 3.296221 7.450581e-08 
11.1363 34.7064 23.96471 2.185405 3.295002 0.840696 
8.7215 34.0593 23.31771 -3.811747 2.774113 -0.840707 
11.5359 34.8135 23.00001 1.849097 3.291669 1.61657 
12.1716 34.9838 22.17161 1.320859 3.287206 2.270247 
9.3708 34.2333 21.75001 -3.475534 2.777356 -1.616642 
13.9647 35.46429 21.1363 -0.1317085 3.279994 3.041616 
13 35.2058 21.53591 0.6430144 3.28303 2.755364 
3 0 1 2 159 166 166 255 
3 2 1 3 159 166 166 255 
3 2 3 4 159 166 166 255 
3 4 3 5 159 166 166 255 
3 2 6 7 159 166 166 255 
3 2 7 8 159 166 166 255 
3 2 8 9 159 166 166 255 
3 2 9 10 159 166 166 255 
3 2 10 11 159 166 166 255 
3 2 11 12 159 166 166 255 
3 2 12 0 159 166 166 255 
3 13 14 15 159 166 166 255 
3 13 15 16 159 166 166 255 
3 13 16 17 159 166 166 255 
3 13 17 6 159 166 166 255 
3 13 6 18 159 166 166 255 
3 19 7 6 159 166 166 255 
3 19 6 17 159 166 166 255 
3 20 21 22 159 166 166 255 
3 20 22 23 159 166 166 255 
3 20 23 24 159 166 166 255 
3 22 21 25 159 166 166 255 
3 22 25 26 159 166 166 255 
3 22 26 27 159 166 166 255 
3 22 27 28 159 166 166 255 
3 22 28 29 159 166 166 255 
3 22 29 30 159 166 166 255 
3 22 30 31 159 166 166 255 
3 22 31 32 159 166 166 255 
3 18 6 32 159 166 166 255 
3 18 32 33 159 166 166 255 
3 18 33 34 159 166 166 255 
3 18 34 35 159 166 166 255 
3 18 35 36 159 166 166 255 
3 37 33 32 159 166 166 255 
3 37 32 31 159 166 166 255 
3 38 39 40 159 166 166 255 
3 40 39 41 159 166 166 255 
3 40 41 42 159 166 166 255 
3 42 41 32 159 166 166 255 
3 42 32 6 159 166 166 255 
3 43 44 45 159 166 166 255 
3 45 44 46 159 166 166 255 
3 45 46 47 159 166 166 255 
3 47 46 48 159 166 166 255 
3 47 48 49 159 166 166 255 
3 49 48 50 159 166 166 255 
3 49 50 51 159 166 166 255 
3 51 50 52 159 166 166 255 
3 51 52 53 159 166 166 255 
3 54 55 56 159 166 166 255 
3 54 56 57 159 166 166 255 
3 54 57 43 159 166 166 255 
3 54 43 45 159 166 166 255 
3 58 59 60 159 166 166 255 
3 60 59 61 159 166 166 255 
3 60 61 62 159 166 166 255 
3 62 61 63 159 166 166 255 
3 62 63 64 159 166 166 255 
3 64 63 65 159 166 166 255 
3 64 65 66 159 166 166 255 
3 66 65 67 159 166 166 255 
3 66 67 68 159 166 166 255 
3 65 69 70 159 166 166 255 
3 65 70 71 159 166 166 255 
3 65 71 72 159 166 166 255 
3 65 72 73 159 166 166 255 
3 65 73 74 159 166 166 255 
3 65 74 67 159 166 166 255 
3 75 76 77 159 166 166 255 
3 77 76 78 159 166 166 255 
3 77 78 69 159 166 166 255 
3 69 78 79 159 166 166 255 
3 69 79 70 159 166 166 255 
3 80 81 82 159 166 166 255 
3 82 81 75 159 166 166 255 
3 82 75 83 159 166 166 255 
3 83 75 77 159 166 166 255 
3 83 77 84 159 166 166 255 
3 84 77 85 159 166 166 255 
3 86 87 88 159 166 166 255 
3 86 88 89 159 166 166 255 
3 86 89 90 159 166 166 255 
3 86 90 85 159 166 166 255 
3 86 85 77 159 166 166 255 
3 91 92 93 159 166 166 255 
3 93 92 94 159 166 166 255 
3 93 94 95 159 166 166 255 
3 95 94 56 159 166 166 255 
3 95 56 87 159 166 166 255 
3 87 56 96 159 166 166 255 
3 87 96 88 159 166 166 255 
3 68 97 66 159 166 166 255 
3 66 97 98 159 166 166 255 
3 66 98 99 159 166 166 255 
3 99 98 100 159 166 166 255 
3 99 100 101 159 166 166 255 
3 101 49 51 159 166 166 255 
3 101 51 99 159 166 166 255 
3 91 93 51 159 166 166 255 
3 91 51 53 159 166 166 255 
3 102 96 56 159 166 166 255 
3 102 56 55 159 166 166 255 
3 103 104 105 159 166 166 255 
3 105 104 106 159 166 166 255 
3 105 106 107 159 166 166 255 
3 107 106 108 159 166 166 255 
3 107 108 109 159 166 166 255 
3 109 108 95 159 166 166 255 
3 109 95 87 159 166 166 255 
3 110 111 112 159 166 166 255 
3 110 112 73 159 166 166 255 
3 110 73 72 159 166 166 255 
3 113 80 114 159 166 166 255 
3 113 114 112 159 166 166 255 
3 113 112 111 159 166 166 255 
3 80 82 114 159 166 166 255 
3 115 116 117 159 166 166 255 
3 115 117 118 159 166 166 255 
3 38 40 119 159 166 166 255 
3 38 119 120 159 166 166 255 
3 104 103 120 159 166 166 255 
3 104 120 119 159 166 166 255 
3 102 15 14 159 166 166 255 
3 102 14 121 159 166 166 255 
3 102 121 122 159 166 166 255 
3 102 122 96 159 166 166 255 
3 123 124 125 159 166 166 255 
3 123 125 122 159 166 166 255 
3 123 122 121 159 166 166 255 
3 14 13 123 159 166 166 255 
3 14 123 121 159 166 166 255 
3 124 123 13 159 166 166 255 
3 124 13 18 159 166 166 255 
3 40 42 126 159 166 166 255 
3 40 126 119 159 166 166 255 
3 126 106 104 159 166 166 255 
3 126 104 119 159 166 166 255 
3 15 102 55 159 166 166 255 
3 15 55 16 159 166 166 255 
3 127 126 42 159 166 166 255 
3 127 42 6 159 166 166 255 
3 106 126 127 159 166 166 255 
3 106 127 128 159 166 166 255 
3 106 128 129 159 166 166 255 
3 106 129 108 159 166 166 255 
3 16 55 54 159 166 166 255 
3 16 54 17 159 166 166 255 
3 129 130 95 159 166 166 255 
3 129 95 108 159 166 166 255 
3 17 54 45 159 166 166 255 
3 17 45 19 159 166 166 255 
3 93 95 130 159 166 166 255 
3 93 130 131 159 166 166 255 
3 19 45 47 159 166 166 255 
3 19 47 7 159 166 166 255 
3 92 132 133 159 166 166 255 
3 92 133 94 159 166 166 255 
3 134 132 92 159 166 166 255 
3 134 92 91 159 166 166 255 
3 135 136 46 159 166 166 255 
3 135 46 44 159 166 166 255 
3 137 57 56 159 166 166 255 
3 137 56 138 159 166 166 255 
3 44 43 139 159 166 166 255 
3 44 139 135 159 166 166 255 
3 137 139 43 159 166 166 255 
3 137 43 57 159 166 166 255 
3 138 56 94 159 166 166 255 
3 138 94 133 159 166 166 255 
3 51 93 131 159 166 166 255 
3 51 131 140 159 166 166 255 
3 7 47 117 159 166 166 255 
3 7 117 116 159 166 166 255 
3 7 116 8 159 166 166 255 
3 117 47 49 159 166 166 255 
3 140 131 134 159 166 166 255 
3 140 134 141 159 166 166 255 
3 140 141 142 159 166 166 255 
3 140 142 143 159 166 166 255 
3 140 143 144 159 166 166 255 
3 140 144 145 159 166 166 255 
3 137 138 130 159 166 166 255 
3 130 138 133 159 166 166 255 
3 130 133 131 159 166 166 255 
3 131 133 132 159 166 166 255 
3 131 132 134 159 166 166 255 
3 146 145 144 159 166 166 255 
3 146 144 147 159 166 166 255 
3 144 143 148 159 166 166 255 
3 144 148 136 159 166 166 255 
3 144 136 135 159 166 166 255 
3 144 135 128 159 166 166 255 
3 128 135 129 159 166 166 255 
3 129 135 139 159 166 166 255 
3 129 139 130 159 166 166 255 
3 130 139 137 159 166 166 255 
3 46 136 148 159 166 166 255 
3 46 148 48 159 166 166 255 
3 142 52 50 159 166 166 255 
3 142 50 143 159 166 166 255 
3 91 53 141 159 166 166 255 
3 91 141 134 159 166 166 255 
3 142 141 53 159 166 166 255 
3 142 53 52 159 166 166 255 
3 148 143 50 159 166 166 255 
3 148 50 48 159 166 166 255 
3 99 51 140 159 166 166 255 
3 99 140 145 159 166 166 255 
3 116 149 9 159 166 166 255 
3 116 9 8 159 166 166 255 
3 49 101 150 159 166 166 255 
3 49 150 117 159 166 166 255 
3 151 118 117 159 166 166 255 
3 151 117 150 159 166 166 255 
3 151 150 152 159 166 166 255 
3 151 152 153 159 166 166 255 
3 151 153 154 159 166 166 255 
3 151 154 155 159 166 166 255 
3 151 155 156 159 166 166 255 
3 151 156 157 159 166 166 255 
3 151 157 158 159 166 166 255 
3 151 158 159 159 166 166 255 
3 160 161 162 159 166 166 255 
3 160 162 163 159 166 166 255 
3 160 163 164 159 166 166 255 
3 162 161 165 159 166 166 255 
3 162 165 166 159 166 166 255 
3 162 166 167 159 166 166 255 
3 162 167 168 159 166 166 255 
3 162 168 149 159 166 166 255 
3 162 149 116 159 166 166 255 
3 162 116 115 159 166 166 255 
3 66 99 145 159 166 166 255 
3 66 145 146 159 166 166 255 
3 10 9 149 159 166 166 255 
3 10 149 168 159 166 166 255 
3 101 100 152 159 166 166 255 
3 101 152 150 159 166 166 255 
3 147 64 66 159 166 166 255 
3 147 66 146 159 166 166 255 
3 11 10 168 159 166 166 255 
3 11 168 167 159 166 166 255 
3 100 98 153 159 166 166 255 
3 100 153 152 159 166 166 255 
3 169 170 171 159 166 166 255 
3 169 171 172 159 166 166 255 
3 173 174 170 159 166 166 255 
3 173 170 169 159 166 166 255 
3 174 173 175 159 166 166 255 
3 174 175 176 159 166 166 255 
3 176 175 177 159 166 166 255 
3 176 177 178 159 166 166 255 
3 179 2 4 159 166 166 255 
3 179 4 180 159 166 166 255 
3 162 179 180 159 166 166 255 
3 162 180 163 159 166 166 255 
3 62 64 147 159 166 166 255 
3 62 147 144 159 166 166 255 
3 62 144 151 159 166 166 255 
3 62 151 159 159 166 166 255 
3 167 166 12 159 166 166 255 
3 167 12 11 159 166 166 255 
3 98 97 154 159 166 166 255 
3 98 154 153 159 166 166 255 
3 118 151 144 159 166 166 255 
3 118 144 128 159 166 166 255 
3 118 128 127 159 166 166 255 
3 118 127 115 159 166 166 255 
3 179 162 181 159 166 166 255 
3 179 181 182 159 166 166 255 
3 179 182 183 159 166 166 255 
3 179 183 184 159 166 166 255 
3 179 184 185 159 166 166 255 
3 179 185 127 159 166 166 255 
3 179 127 6 159 166 166 255 
3 179 6 2 159 166 166 255 
3 162 115 127 159 166 166 255 
3 162 127 172 159 166 166 255 
3 162 172 186 159 166 166 255 
3 162 186 187 159 166 166 255 
3 162 187 181 159 166 166 255 
3 127 185 177 159 166 166 255 
3 127 177 175 159 166 166 255 
3 127 175 173 159 166 166 255 
3 127 173 169 159 166 166 255 
3 127 169 172 159 166 166 255 
3 188 189 171 159 166 166 255 
3 188 171 190 159 166 166 255 
3 186 172 171 159 166 166 255 
3 186 171 189 159 166 166 255 
3 170 191 190 159 166 166 255 
3 170 190 171 159 166 166 255 
3 191 170 174 159 166 166 255 
3 191 174 192 159 166 166 255 
3 176 193 192 159 166 166 255 
3 176 192 174 159 166 166 255 
3 193 176 178 159 166 166 255 
3 193 178 194 159 166 166 255 
3 195 196 194 159 166 166 255 
3 195 194 178 159 166 166 255 
3 177 185 195 159 166 166 255 
3 177 195 178 159 166 166 255 
3 197 198 196 159 166 166 255 
3 197 196 195 159 166 166 255 
3 185 184 197 159 166 166 255 
3 185 197 195 159 166 166 255 
3 198 197 199 159 166 166 255 
3 198 199 200 159 166 166 255 
3 184 183 199 159 166 166 255 
3 184 199 197 159 166 166 255 
3 201 202 200 159 166 166 255 
3 201 200 199 159 166 166 255 
3 183 182 201 159 166 166 255 
3 183 201 199 159 166 166 255 
3 202 201 203 159 166 166 255 
3 202 203 204 159 166 166 255 
3 182 181 203 159 166 166 255 
3 182 203 201 159 166 166 255 
3 205 206 204 159 166 166 255 
3 205 204 203 159 166 166 255 
3 187 205 203 159 166 166 255 
3 187 203 181 159 166 166 255 
3 206 205 189 159 166 166 255 
3 206 189 188 159 166 166 255 
3 187 186 189 159 166 166 255 
3 187 189 205 159 166 166 255 
3 4 5 207 159 166 166 255 
3 4 207 180 159 166 166 255 
3 163 180 207 159 166 166 255 
3 163 207 164 159 166 166 255 
3 158 60 62 159 166 166 255 
3 158 62 159 159 166 166 255 
3 166 165 0 159 166 166 255 
3 166 0 12 159 166 166 255 
3 68 155 154 159 166 166 255 
3 68 154 97 159 166 166 255 
3 5 3 208 159 166 166 255 
3 5 208 207 159 166 166 255 
3 208 160 164 159 166 166 255 
3 208 164 207 159 166 166 255 
3 60 158 157 159 166 166 255 
3 60 157 209 159 166 166 255 
3 60 209 210 159 166 166 255 
3 60 210 58 159 166 166 255 
3 161 1 0 159 166 166 255 
3 161 0 165 159 166 166 255 
3 156 155 211 159 166 166 255 
3 211 155 68 159 166 166 255 
3 211 68 212 159 166 166 255 
3 212 68 67 159 166 166 255 
3 210 209 211 159 166 166 255 
3 210 211 212 159 166 166 255 
3 210 212 213 159 166 166 255 
3 210 213 214 159 166 166 255 
3 156 211 209 159 166 166 255 
3 156 209 157 159 166 166 255 
3 1 161 191 159 166 166 255 
3 1 191 192 159 166 166 255 
3 1 192 193 159 166 166 255 
3 1 193 194 159 166 166 255 
3 1 194 196 159 166 166 255 
3 1 196 208 159 166 166 255 
3 1 208 3 159 166 166 255 
3 200 202 208 159 166 166 255 
3 208 202 204 159 166 166 255 
3 208 204 160 159 166 166 255 
3 160 204 206 159 166 166 255 
3 160 206 161 159 166 166 255 
3 161 206 188 159 166 166 255 
3 161 188 190 159 166 166 255 
3 198 200 208 159 166 166 255 
3 198 208 196 159 166 166 255 
3 191 161 190 159 166 166 255 
3 215 216 217 159 166 166 255 
3 215 217 218 159 166 166 255 
3 20 24 219 159 166 166 255 
3 20 219 220 159 166 166 255 
3 221 220 219 159 166 166 255 
3 221 219 222 159 166 166 255 
3 223 59 58 159 166 166 255 
3 223 58 214 159 166 166 255 
3 223 214 224 159 166 166 255 
3 214 58 210 159 166 166 255 
3 25 21 225 159 166 166 255 
3 25 225 226 159 166 166 255 
3 74 227 228 159 166 166 255 
3 74 228 213 159 166 166 255 
3 74 213 212 159 166 166 255 
3 74 212 67 159 166 166 255 
3 224 228 229 159 166 166 255 
3 224 229 230 159 166 166 255 
3 224 230 223 159 166 166 255 
3 229 228 227 159 166 166 255 
3 229 227 231 159 166 166 255 
3 229 231 232 159 166 166 255 
3 229 232 233 159 166 166 255 
3 229 233 234 159 166 166 255 
3 229 234 216 159 166 166 255 
3 229 216 215 159 166 166 255 
3 214 213 228 159 166 166 255 
3 214 228 224 159 166 166 255 
3 235 218 217 159 166 166 255 
3 235 217 236 159 166 166 255 
3 235 236 237 159 166 166 255 
3 235 237 238 159 166 166 255 
3 235 238 239 159 166 166 255 
3 235 239 226 159 166 166 255 
3 235 226 225 159 166 166 255 
3 235 225 221 159 166 166 255 
3 235 221 222 159 166 166 255 
3 235 222 240 159 166 166 255 
3 220 221 241 159 166 166 255 
3 220 241 242 159 166 166 255 
3 220 242 243 159 166 166 255 
3 220 243 244 159 166 166 255 
3 220 244 245 159 166 166 255 
3 220 245 21 159 166 166 255 
3 220 21 20 159 166 166 255 
3 246 247 21 159 166 166 255 
3 21 247 248 159 166 166 255 
3 21 248 225 159 166 166 255 
3 225 248 249 159 166 166 255 
3 225 249 221 159 166 166 255 
3 221 249 250 159 166 166 255 
3 221 250 251 159 166 166 255 
3 252 246 21 159 166 166 255 
3 252 21 245 159 166 166 255 
3 241 221 251 159 166 166 255 
3 253 250 249 159 166 166 255 
3 253 249 254 159 166 166 255 
3 248 255 254 159 166 166 255 
3 248 254 249 159 166 166 255 
3 247 256 255 159 166 166 255 
3 247 255 248 159 166 166 255 
3 256 247 246 159 166 166 255 
3 256 246 257 159 166 166 255 
3 252 258 257 159 166 166 255 
3 252 257 246 159 166 166 255 
3 258 252 245 159 166 166 255 
3 258 245 259 159 166 166 255 
3 259 245 244 159 166 166 255 
3 259 244 260 159 166 166 255 
3 260 244 243 159 166 166 255 
3 260 243 261 159 166 166 255 
3 261 243 242 159 166 166 255 
3 261 242 262 159 166 166 255 
3 241 263 262 159 166 166 255 
3 241 262 242 159 166 166 255 
3 251 264 263 159 166 166 255 
3 251 263 241 159 166 166 255 
3 250 253 264 159 166 166 255 
3 250 264 251 159 166 166 255 
3 24 23 265 159 166 166 255 
3 24 265 219 159 166 166 255 
3 222 219 265 159 166 166 255 
3 222 265 240 159 166 166 255 
3 230 61 59 159 166 166 255 
3 230 59 223 159 166 166 255 
3 226 239 26 159 166 166 255 
3 226 26 25 159 166 166 255 
3 227 74 73 159 166 166 255 
3 227 73 231 159 166 166 255 
3 22 266 265 159 166 166 255 
3 22 265 23 159 166 166 255 
3 266 235 240 159 166 166 255 
3 266 240 265 159 166 166 255 
3 61 230 229 159 166 166 255 
3 61 229 267 159 166 166 255 
3 61 267 268 159 166 166 255 
3 61 268 63 159 166 166 255 
3 239 238 27 159 166 166 255 
3 239 27 26 159 166 166 255 
3 73 112 232 159 166 166 255 
3 73 232 231 159 166 166 255 
3 269 270 215 159 166 166 255 
3 269 215 218 159 166 166 255 
3 269 218 271 159 166 166 255 
3 269 271 272 159 166 166 255 
3 269 272 273 159 166 166 255 
3 269 273 274 159 166 166 255 
3 269 274 275 159 166 166 255 
3 269 275 276 159 166 166 255 
3 269 276 266 159 166 166 255 
3 269 266 22 159 166 166 255 
3 269 22 32 159 166 166 255 
3 277 278 235 159 166 166 255 
3 235 278 279 159 166 166 255 
3 235 279 218 159 166 166 255 
3 218 279 271 159 166 166 255 
3 270 267 229 159 166 166 255 
3 270 229 215 159 166 166 255 
3 266 276 280 159 166 166 255 
3 266 280 281 159 166 166 255 
3 266 281 282 159 166 166 255 
3 266 282 277 159 166 166 255 
3 266 277 235 159 166 166 255 
3 253 254 271 159 166 166 255 
3 253 271 279 159 166 166 255 
3 255 272 271 159 166 166 255 
3 255 271 254 159 166 166 255 
3 272 255 256 159 166 166 255 
3 272 256 273 159 166 166 255 
3 273 256 257 159 166 166 255 
3 273 257 274 159 166 166 255 
3 275 274 257 159 166 166 255 
3 275 257 258 159 166 166 255 
3 258 259 276 159 166 166 255 
3 258 276 275 159 166 166 255 
3 259 260 280 159 166 166 255 
3 259 280 276 159 166 166 255 
3 260 261 281 159 166 166 255 
3 260 281 280 159 166 166 255 
3 261 262 282 159 166 166 255 
3 261 282 281 159 166 166 255 
3 262 263 277 159 166 166 255 
3 262 277 282 159 166 166 255 
3 278 277 263 159 166 166 255 
3 278 263 264 159 166 166 255 
3 264 253 279 159 166 166 255 
3 264 279 278 159 166 166 255 
3 283 65 63 159 166 166 255 
3 283 63 268 159 166 166 255 
3 238 237 28 159 166 166 255 
3 238 28 27 159 166 166 255 
3 114 233 232 159 166 166 255 
3 114 232 112 159 166 166 255 
3 69 65 283 159 166 166 255 
3 69 283 284 159 166 166 255 
3 28 237 236 159 166 166 255 
3 28 236 29 159 166 166 255 
3 114 82 234 159 166 166 255 
3 114 234 233 159 166 166 255 
3 285 286 71 159 166 166 255 
3 285 71 70 159 166 166 255 
3 287 288 113 159 166 166 255 
3 287 113 111 159 166 166 255 
3 289 287 111 159 166 166 255 
3 289 111 110 159 166 166 255 
3 290 289 110 159 166 166 255 
3 290 110 72 159 166 166 255 
3 288 291 80 159 166 166 255 
3 288 80 113 159 166 166 255 
3 70 79 292 159 166 166 255 
3 70 292 285 159 166 166 255 
3 290 72 71 159 166 166 255 
3 290 71 286 159 166 166 255 
3 77 69 284 159 166 166 255 
3 77 284 293 159 166 166 255 
3 217 30 29 159 166 166 255 
3 217 29 236 159 166 166 255 
3 83 216 234 159 166 166 255 
3 83 234 82 159 166 166 255 
3 267 270 294 159 166 166 255 
3 267 294 288 159 166 166 255 
3 267 288 287 159 166 166 255 
3 267 287 289 159 166 166 255 
3 267 289 290 159 166 166 255 
3 267 290 283 159 166 166 255 
3 267 283 268 159 166 166 255 
3 295 296 293 159 166 166 255 
3 293 296 297 159 166 166 255 
3 293 297 298 159 166 166 255 
3 298 297 291 159 166 166 255 
3 298 291 299 159 166 166 255 
3 299 291 294 159 166 166 255 
3 290 286 283 159 166 166 255 
3 283 286 285 159 166 166 255 
3 283 285 284 159 166 166 255 
3 284 285 292 159 166 166 255 
3 284 292 300 159 166 166 255 
3 300 295 293 159 166 166 255 
3 300 293 284 159 166 166 255 
3 288 294 291 159 166 166 255 
3 291 297 81 159 166 166 255 
3 291 81 80 159 166 166 255 
3 300 292 79 159 166 166 255 
3 300 79 78 159 166 166 255 
3 76 295 300 159 166 166 255 
3 76 300 78 159 166 166 255 
3 296 295 76 159 166 166 255 
3 296 76 75 159 166 166 255 
3 297 296 75 159 166 166 255 
3 297 75 81 159 166 166 255 
3 86 77 293 159 166 166 255 
3 86 293 298 159 166 166 255 
3 31 30 217 159 166 166 255 
3 31 217 216 159 166 166 255 
3 31 216 83 159 166 166 255 
3 31 83 84 159 166 166 255 
3 299 87 86 159 166 166 255 
3 299 86 298 159 166 166 255 
3 31 84 85 159 166 166 255 
3 31 85 37 159 166 166 255 
3 294 109 87 159 166 166 255 
3 294 87 299 159 166 166 255 
3 90 33 37 159 166 166 255 
3 90 37 85 159 166 166 255 
3 32 41 301 159 166 166 255 
3 32 301 269 159 166 166 255 
3 107 109 294 159 166 166 255 
3 107 294 270 159 166 166 255 
3 107 270 269 159 166 166 255 
3 107 269 301 159 166 166 255 
3 90 89 34 159 166 166 255 
3 90 34 33 159 166 166 255 
3 41 39 302 159 166 166 255 
3 41 302 301 159 166 166 255 
3 107 301 302 159 166 166 255 
3 107 302 105 159 166 166 255 
3 88 35 34 159 166 166 255 
3 88 34 89 159 166 166 255 
3 39 38 120 159 166 166 255 
3 39 120 302 159 166 166 255 
3 105 302 120 159 166 166 255 
3 105 120 103 159 166 166 255 
3 125 36 35 159 166 166 255 
3 125 35 88 159 166 166 255 
3 125 88 96 159 166 166 255 
3 125 96 122 159 166 166 255 
3 124 18 36 159 166 166 255 
3 124 36 125 159 166 166 255 
3 303 304 305 159 166 166 255 
3 305 304 306 159 166 166 255 
3 305 306 307 159 166 166 255 
3 307 306 308 159 166 166 255 
3 307 308 309 159 166 166 255 
3 309 308 310 159 166 166 255 
3 309 310 311 159 166 166 255 
3 311 310 312 159 166 166 255 
3 311 312 313 159 166 166 255 
3 313 312 314 159 166 166 255 
3 315 316 317 159 166 166 255 
3 315 317 307 159 166 166 255 
3 315 307 309 159 166 166 255 
3 318 319 320 159 166 166 255 
3 320 319 321 159 166 166 255 
3 320 321 322 159 166 166 255 
3 322 321 323 159 166 166 255 
3 322 323 324 159 166 166 255 
3 324 323 317 159 166 166 255 
3 324 317 325 159 166 166 255 
3 325 317 316 159 166 166 255 
3 321 319 326 159 166 166 255 
3 326 319 327 159 166 166 255 
3 326 327 305 159 166 166 255 
3 305 327 303 159 166 166 255 
3 328 329 330 159 166 166 255 
3 330 329 331 159 166 166 255 
3 330 331 332 159 166 166 255 
3 332 331 318 159 166 166 255 
3 332 318 320 159 166 166 255 
3 333 334 335 159 166 166 255 
3 333 335 336 159 166 166 255 
3 333 336 337 159 166 166 255 
3 333 337 338 159 166 166 255 
3 333 338 339 159 166 166 255 
3 333 339 340 159 166 166 255 
3 333 340 341 159 166 166 255 
3 333 341 342 159 166 166 255 
3 333 342 343 159 166 166 255 
3 333 343 344 159 166 166 255 
3 333 344 345 159 166 166 255 
3 333 345 346 159 166 166 255 
3 333 346 347 159 166 166 255 
3 333 347 348 159 166 166 255 
3 333 348 349 159 166 166 255 
3 333 349 350 159 166 166 255 
3 333 350 351 159 166 166 255 
3 333 351 352 159 166 166 255 
3 333 352 353 159 166 166 255 
3 333 353 354 159 166 166 255 
3 333 354 355 159 166 166 255 
3 333 355 356 159 166 166 255 
3 357 358 359 159 166 166 255 
3 357 359 360 159 166 166 255 
3 186 361 362 159 166 166 255 
3 186 362 363 159 166 166 255 
3 353 363 362 159 166 166 255 
3 353 362 354 159 166 166 255 
3 364 365 366 159 166 166 255 
3 364 366 367 159 166 166 255 
3 364 367 368 159 166 166 255 
3 364 368 369 159 166 166 255 
3 323 321 367 159 166 166 255 
3 323 367 366 159 166 166 255 
3 358 357 370 159 166 166 255 
3 358 370 371 159 166 166 255 
3 330 371 370 159 166 166 255 
3 330 370 328 159 166 166 255 
3 372 373 374 159 166 166 255 
3 374 373 375 159 166 166 255 
3 374 375 376 159 166 166 255 
3 376 375 377 159 166 166 255 
3 376 377 378 159 166 166 255 
3 378 377 185 159 166 166 255 
3 378 185 379 159 166 166 255 
3 175 380 381 159 166 166 255 
3 381 380 177 159 166 166 255 
3 381 177 377 159 166 166 255 
3 377 177 382 159 166 166 255 
3 377 382 185 159 166 166 255 
3 383 173 384 159 166 166 255 
3 384 173 385 159 166 166 255 
3 384 385 386 159 166 166 255 
3 386 385 175 159 166 166 255 
3 386 175 381 159 166 166 255 
3 387 388 389 159 166 166 255 
3 387 389 169 159 166 166 255 
3 387 169 383 159 166 166 255 
3 387 383 384 159 166 166 255 
3 388 390 186 159 166 166 255 
3 388 186 391 159 166 166 255 
3 388 391 172 159 166 166 255 
3 388 172 389 159 166 166 255 
3 184 392 393 159 166 166 255 
3 184 393 378 159 166 166 255 
3 184 378 379 159 166 166 255 
3 183 394 395 159 166 166 255 
3 183 395 393 159 166 166 255 
3 183 393 392 159 166 166 255 
3 181 396 397 159 166 166 255 
3 397 396 398 159 166 166 255 
3 397 398 182 159 166 166 255 
3 182 398 395 159 166 166 255 
3 182 395 394 159 166 166 255 
3 399 187 400 159 166 166 255 
3 399 400 396 159 166 166 255 
3 399 396 181 159 166 166 255 
3 400 187 361 159 166 166 255 
3 400 361 186 159 166 166 255 
3 400 186 390 159 166 166 255 
3 400 390 401 159 166 166 255 
3 402 403 404 159 166 166 255 
3 404 403 405 159 166 166 255 
3 404 405 406 159 166 166 255 
3 406 405 401 159 166 166 255 
3 406 401 390 159 166 166 255 
3 402 407 408 159 166 166 255 
3 402 408 403 159 166 166 255 
3 409 410 411 159 166 166 255 
3 411 410 412 159 166 166 255 
3 411 412 413 159 166 166 255 
3 413 412 414 159 166 166 255 
3 413 414 415 159 166 166 255 
3 416 417 418 159 166 166 255 
3 418 417 419 159 166 166 255 
3 418 419 412 159 166 166 255 
3 412 419 414 159 166 166 255 
3 420 421 422 159 166 166 255 
3 422 421 423 159 166 166 255 
3 422 423 424 159 166 166 255 
3 424 423 425 159 166 166 255 
3 424 425 426 159 166 166 255 
3 426 425 416 159 166 166 255 
3 426 416 418 159 166 166 255 
3 427 428 429 159 166 166 255 
3 429 428 430 159 166 166 255 
3 429 430 431 159 166 166 255 
3 431 430 420 159 166 166 255 
3 431 420 422 159 166 166 255 
3 432 433 360 159 166 166 255 
3 432 360 359 159 166 166 255 
3 432 359 427 159 166 166 255 
3 432 427 429 159 166 166 255 
3 434 413 415 159 166 166 255 
3 434 415 435 159 166 166 255 
3 434 435 436 159 166 166 255 
3 434 436 437 159 166 166 255 
3 438 439 440 159 166 166 255 
3 438 440 437 159 166 166 255 
3 438 437 436 159 166 166 255 
3 441 442 443 159 166 166 255 
3 443 442 444 159 166 166 255 
3 443 444 445 159 166 166 255 
3 445 444 446 159 166 166 255 
3 445 446 447 159 166 166 255 
3 447 446 440 159 166 166 255 
3 447 440 439 159 166 166 255 
3 448 449 450 159 166 166 255 
3 448 450 442 159 166 166 255 
3 448 442 441 159 166 166 255 
3 407 451 408 159 166 166 255 
3 408 451 452 159 166 166 255 
3 408 452 433 159 166 166 255 
3 433 452 450 159 166 166 255 
3 433 450 360 159 166 166 255 
3 360 450 449 159 166 166 255 
3 427 359 358 159 166 166 255 
3 427 358 453 159 166 166 255 
3 362 361 187 159 166 166 255 
3 362 187 454 159 166 166 255 
3 362 454 355 159 166 166 255 
3 362 355 354 159 166 166 255 
3 453 358 371 159 166 166 255 
3 453 371 455 159 166 166 255 
3 371 330 332 159 166 166 255 
3 371 332 455 159 166 166 255 
3 433 405 403 159 166 166 255 
3 433 403 408 159 166 166 255 
3 428 427 453 159 166 166 255 
3 428 453 456 159 166 166 255 
3 457 454 187 159 166 166 255 
3 457 187 399 159 166 166 255 
3 356 355 454 159 166 166 255 
3 356 454 457 159 166 166 255 
3 456 453 455 159 166 166 255 
3 456 455 458 159 166 166 255 
3 332 320 458 159 166 166 255 
3 332 458 455 159 166 166 255 
3 433 432 401 159 166 166 255 
3 433 401 405 159 166 166 255 
3 430 428 456 159 166 166 255 
3 430 456 459 159 166 166 255 
3 460 457 399 159 166 166 255 
3 460 399 181 159 166 166 255 
3 460 333 356 159 166 166 255 
3 460 356 457 159 166 166 255 
3 458 461 459 159 166 166 255 
3 458 459 456 159 166 166 255 
3 458 320 322 159 166 166 255 
3 458 322 461 159 166 166 255 
3 429 400 401 159 166 166 255 
3 429 401 432 159 166 166 255 
3 430 459 462 159 166 166 255 
3 430 462 420 159 166 166 255 
3 460 181 397 159 166 166 255 
3 460 397 463 159 166 166 255 
3 463 334 333 159 166 166 255 
3 463 333 460 159 166 166 255 
3 366 365 317 159 166 166 255 
3 366 317 323 159 166 166 255 
3 462 459 461 159 166 166 255 
3 462 461 464 159 166 166 255 
3 461 322 324 159 166 166 255 
3 461 324 464 159 166 166 255 
3 429 431 396 159 166 166 255 
3 429 396 400 159 166 166 255 
3 420 462 465 159 166 166 255 
3 420 465 421 159 166 166 255 
3 463 397 182 159 166 166 255 
3 463 182 466 159 166 166 255 
3 466 335 334 159 166 166 255 
3 466 334 463 159 166 166 255 
3 464 467 465 159 166 166 255 
3 464 465 462 159 166 166 255 
3 464 324 325 159 166 166 255 
3 464 325 467 159 166 166 255 
3 431 422 398 159 166 166 255 
3 431 398 396 159 166 166 255 
3 465 468 423 159 166 166 255 
3 465 423 421 159 166 166 255 
3 394 469 466 159 166 166 255 
3 394 466 182 159 166 166 255 
3 466 469 336 159 166 166 255 
3 466 336 335 159 166 166 255 
3 465 467 470 159 166 166 255 
3 465 470 468 159 166 166 255 
3 470 467 325 159 166 166 255 
3 470 325 316 159 166 166 255 
3 395 398 422 159 166 166 255 
3 395 422 424 159 166 166 255 
3 423 468 471 159 166 166 255 
3 423 471 425 159 166 166 255 
3 183 472 469 159 166 166 255 
3 183 469 394 159 166 166 255 
3 336 469 472 159 166 166 255 
3 336 472 337 159 166 166 255 
3 470 473 471 159 166 166 255 
3 470 471 468 159 166 166 255 
3 316 315 473 159 166 166 255 
3 316 473 470 159 166 166 255 
3 395 424 426 159 166 166 255 
3 395 426 393 159 166 166 255 
3 416 425 471 159 166 166 255 
3 416 471 474 159 166 166 255 
3 472 183 392 159 166 166 255 
3 472 392 475 159 166 166 255 
3 338 337 472 159 166 166 255 
3 338 472 475 159 166 166 255 
3 365 364 307 159 166 166 255 
3 365 307 317 159 166 166 255 
3 473 476 474 159 166 166 255 
3 473 474 471 159 166 166 255 
3 315 309 476 159 166 166 255 
3 315 476 473 159 166 166 255 
3 378 393 426 159 166 166 255 
3 378 426 418 159 166 166 255 
3 417 416 474 159 166 166 255 
3 417 474 477 159 166 166 255 
3 184 478 475 159 166 166 255 
3 184 475 392 159 166 166 255 
3 339 338 475 159 166 166 255 
3 339 475 478 159 166 166 255 
3 479 477 474 159 166 166 255 
3 479 474 476 159 166 166 255 
3 476 309 311 159 166 166 255 
3 476 311 479 159 166 166 255 
3 376 378 418 159 166 166 255 
3 376 418 412 159 166 166 255 
3 419 417 477 159 166 166 255 
3 419 477 480 159 166 166 255 
3 478 184 379 159 166 166 255 
3 478 379 481 159 166 166 255 
3 481 340 339 159 166 166 255 
3 481 339 478 159 166 166 255 
3 480 477 479 159 166 166 255 
3 480 479 482 159 166 166 255 
3 479 311 313 159 166 166 255 
3 479 313 482 159 166 166 255 
3 376 412 410 159 166 166 255 
3 376 410 374 159 166 166 255 
3 480 483 414 159 166 166 255 
3 480 414 419 159 166 166 255 
3 379 185 484 159 166 166 255 
3 379 484 481 159 166 166 255 
3 340 481 484 159 166 166 255 
3 340 484 341 159 166 166 255 
3 482 485 483 159 166 166 255 
3 482 483 480 159 166 166 255 
3 313 314 485 159 166 166 255 
3 313 485 482 159 166 166 255 
3 410 409 372 159 166 166 255 
3 410 372 374 159 166 166 255 
3 415 414 483 159 166 166 255 
3 415 483 486 159 166 166 255 
3 487 484 185 159 166 166 255 
3 487 185 382 159 166 166 255 
3 484 487 342 159 166 166 255 
3 484 342 341 159 166 166 255 
3 364 369 305 159 166 166 255 
3 364 305 307 159 166 166 255 
3 485 488 486 159 166 166 255 
3 485 486 483 159 166 166 255 
3 488 485 314 159 166 166 255 
3 488 314 312 159 166 166 255 
3 411 373 372 159 166 166 255 
3 411 372 409 159 166 166 255 
3 489 435 415 159 166 166 255 
3 489 415 486 159 166 166 255 
3 487 382 177 159 166 166 255 
3 487 177 490 159 166 166 255 
3 487 490 343 159 166 166 255 
3 487 343 342 159 166 166 255 
3 488 491 489 159 166 166 255 
3 488 489 486 159 166 166 255 
3 491 488 312 159 166 166 255 
3 491 312 310 159 166 166 255 
3 375 373 411 159 166 166 255 
3 375 411 413 159 166 166 255 
3 489 492 436 159 166 166 255 
3 489 436 435 159 166 166 255 
3 177 380 493 159 166 166 255 
3 177 493 490 159 166 166 255 
3 343 490 493 159 166 166 255 
3 343 493 344 159 166 166 255 
3 492 489 491 159 166 166 255 
3 492 491 494 159 166 166 255 
3 308 494 491 159 166 166 255 
3 308 491 310 159 166 166 255 
3 434 377 375 159 166 166 255 
3 434 375 413 159 166 166 255 
3 492 495 438 159 166 166 255 
3 492 438 436 159 166 166 255 
3 380 175 496 159 166 166 255 
3 380 496 493 159 166 166 255 
3 344 493 496 159 166 166 255 
3 344 496 345 159 166 166 255 
3 492 494 497 159 166 166 255 
3 492 497 495 159 166 166 255 
3 308 306 497 159 166 166 255 
3 308 497 494 159 166 166 255 
3 437 381 377 159 166 166 255 
3 437 377 434 159 166 166 255 
3 498 439 438 159 166 166 255 
3 498 438 495 159 166 166 255 
3 385 499 496 159 166 166 255 
3 385 496 175 159 166 166 255 
3 345 496 499 159 166 166 255 
3 345 499 346 159 166 166 255 
3 369 368 326 159 166 166 255 
3 369 326 305 159 166 166 255 
3 495 497 500 159 166 166 255 
3 495 500 498 159 166 166 255 
3 306 304 500 159 166 166 255 
3 306 500 497 159 166 166 255 
3 386 381 437 159 166 166 255 
3 386 437 440 159 166 166 255 
3 447 439 498 159 166 166 255 
3 447 498 501 159 166 166 255 
3 173 502 499 159 166 166 255 
3 173 499 385 159 166 166 255 
3 502 347 346 159 166 166 255 
3 502 346 499 159 166 166 255 
3 498 500 503 159 166 166 255 
3 498 503 501 159 166 166 255 
3 500 304 303 159 166 166 255 
3 500 303 503 159 166 166 255 
3 440 446 384 159 166 166 255 
3 440 384 386 159 166 166 255 
3 447 501 504 159 166 166 255 
3 447 504 445 159 166 166 255 
3 502 173 383 159 166 166 255 
3 502 383 505 159 166 166 255 
3 505 348 347 159 166 166 255 
3 505 347 502 159 166 166 255 
3 501 503 506 159 166 166 255 
3 501 506 504 159 166 166 255 
3 327 506 503 159 166 166 255 
3 327 503 303 159 166 166 255 
3 384 446 444 159 166 166 255 
3 384 444 387 159 166 166 255 
3 445 504 507 159 166 166 255 
3 445 507 443 159 166 166 255 
3 508 505 383 159 166 166 255 
3 508 383 169 159 166 166 255 
3 505 508 349 159 166 166 255 
3 505 349 348 159 166 166 255 
3 507 504 506 159 166 166 255 
3 507 506 509 159 166 166 255 
3 319 509 506 159 166 166 255 
3 319 506 327 159 166 166 255 
3 387 444 442 159 166 166 255 
3 387 442 388 159 166 166 255 
3 510 441 443 159 166 166 255 
3 510 443 507 159 166 166 255 
3 389 511 508 159 166 166 255 
3 389 508 169 159 166 166 255 
3 349 508 511 159 166 166 255 
3 349 511 350 159 166 166 255 
3 321 326 368 159 166 166 255 
3 321 368 367 159 166 166 255 
3 507 509 512 159 166 166 255 
3 507 512 510 159 166 166 255 
3 319 318 512 159 166 166 255 
3 319 512 509 159 166 166 255 
3 390 388 442 159 166 166 255 
3 390 442 450 159 166 166 255 
3 441 510 513 159 166 166 255 
3 441 513 448 159 166 166 255 
3 389 172 514 159 166 166 255 
3 389 514 511 159 166 166 255 
3 351 350 511 159 166 166 255 
3 351 511 514 159 166 166 255 
3 515 513 510 159 166 166 255 
3 515 510 512 159 166 166 255 
3 512 318 331 159 166 166 255 
3 512 331 515 159 166 166 255 
3 390 450 452 159 166 166 255 
3 390 452 406 159 166 166 255 
3 516 449 448 159 166 166 255 
3 516 448 513 159 166 166 255 
3 517 514 172 159 166 166 255 
3 517 172 391 159 166 166 255 
3 351 514 517 159 166 166 255 
3 351 517 352 159 166 166 255 
3 515 518 516 159 166 166 255 
3 515 516 513 159 166 166 255 
3 515 331 329 159 166 166 255 
3 515 329 518 159 166 166 255 
3 404 406 452 159 166 166 255 
3 404 452 451 159 166 166 255 
3 449 516 357 159 166 166 255 
3 449 357 360 159 166 166 255 
3 363 517 391 159 166 166 255 
3 363 391 186 159 166 166 255 
3 363 353 352 159 166 166 255 
3 363 352 517 159 166 166 255 
3 357 516 518 159 166 166 255 
3 357 518 370 159 166 166 255 
3 329 328 370 159 166 166 255 
3 329 370 518 159 166 166 255 
3 451 407 402 159 166 166 255 
3 451 402 404 159 166 166 255 
3 519 520 521 159 166 166 255 
3 519 521 522 159 166 166 255 
3 520 523 524 159 166 166 255 
3 520 524 521 159 166 166 255 
3 525 526 524 159 166 166 255 
3 525 524 523 159 166 166 255 
3 527 528 529 159 166 166 255 
3 527 529 530 159 166 166 255 
3 528 531 532 159 166 166 255 
3 528 532 529 159 166 166 255 
3 526 525 532 159 166 166 255 
3 526 532 531 159 166 166 255 
3 527 530 533 159 166 166 255 
3 527 533 534 159 166 166 255 
3 535 536 519 159 166 166 255 
3 535 519 522 159 166 166 255 
3 537 538 539 159 166 166 255 
3 539 538 540 159 166 166 255 
3 539 540 541 159 166 166 255 
3 541 540 542 159 166 166 255 
3 541 542 543 159 166 166 255 
3 544 545 546 159 166 166 255 
3 546 545 547 159 166 166 255 
3 546 547 540 159 166 166 255 
3 540 547 542 159 166 166 255 
3 548 549 550 159 166 166 255 
3 550 549 551 159 166 166 255 
3 550 551 552 159 166 166 255 
3 552 551 553 159 166 166 255 
3 552 553 554 159 166 166 255 
3 554 553 544 159 166 166 255 
3 554 544 546 159 166 166 255 
3 555 556 557 159 166 166 255 
3 557 556 558 159 166 166 255 
3 557 558 559 159 166 166 255 
3 559 558 548 159 166 166 255 
3 559 548 550 159 166 166 255 
3 560 561 562 159 166 166 255 
3 560 562 563 159 166 166 255 
3 560 563 555 159 166 166 255 
3 560 555 557 159 166 166 255 
3 564 541 543 159 166 166 255 
3 564 543 565 159 166 166 255 
3 564 565 566 159 166 166 255 
3 564 566 567 159 166 166 255 
3 568 569 570 159 166 166 255 
3 568 570 567 159 166 166 255 
3 568 567 566 159 166 166 255 
3 571 572 573 159 166 166 255 
3 573 572 574 159 166 166 255 
3 573 574 575 159 166 166 255 
3 575 574 576 159 166 166 255 
3 575 576 577 159 166 166 255 
3 577 576 570 159 166 166 255 
3 577 570 569 159 166 166 255 
3 578 579 580 159 166 166 255 
3 578 580 572 159 166 166 255 
3 578 572 571 159 166 166 255 
3 581 582 583 159 166 166 255 
3 583 582 584 159 166 166 255 
3 583 584 561 159 166 166 255 
3 561 584 580 159 166 166 255 
3 561 580 562 159 166 166 255 
3 562 580 579 159 166 166 255 
3 582 581 585 159 166 166 255 
3 582 585 586 159 166 166 255 
3 586 587 584 159 166 166 255 
3 586 584 582 159 166 166 255 
3 587 588 584 159 166 166 255 
3 584 588 589 159 166 166 255 
3 584 589 580 159 166 166 255 
3 580 589 590 159 166 166 255 
3 580 590 591 159 166 166 255 
3 572 580 591 159 166 166 255 
3 572 591 592 159 166 166 255 
3 574 572 592 159 166 166 255 
3 574 592 593 159 166 166 255 
3 593 594 576 159 166 166 255 
3 593 576 574 159 166 166 255 
3 595 360 359 159 166 166 255 
3 595 359 596 159 166 166 255 
3 408 407 562 159 166 166 255 
3 408 562 579 159 166 166 255 
3 409 411 410 159 166 166 255 
3 410 411 413 159 166 166 255 
3 410 413 412 159 166 166 255 
3 412 413 414 159 166 166 255 
3 412 414 419 159 166 166 255 
3 436 435 434 159 166 166 255 
3 434 435 415 159 166 166 255 
3 434 415 413 159 166 166 255 
3 413 415 414 159 166 166 255 
3 445 447 446 159 166 166 255 
3 446 447 439 159 166 166 255 
3 446 439 440 159 166 166 255 
3 440 439 438 159 166 166 255 
3 440 438 437 159 166 166 255 
3 437 438 436 159 166 166 255 
3 437 436 434 159 166 166 255 
3 448 441 442 159 166 166 255 
3 442 441 443 159 166 166 255 
3 442 443 444 159 166 166 255 
3 444 443 445 159 166 166 255 
3 444 445 446 159 166 166 255 
3 450 452 360 159 166 166 255 
3 450 360 449 159 166 166 255 
3 450 449 448 159 166 166 255 
3 450 448 442 159 166 166 255 
3 418 412 419 159 166 166 255 
3 418 419 417 159 166 166 255 
3 418 417 416 159 166 166 255 
3 418 416 426 159 166 166 255 
3 421 422 423 159 166 166 255 
3 423 422 424 159 166 166 255 
3 423 424 425 159 166 166 255 
3 425 424 426 159 166 166 255 
3 425 426 416 159 166 166 255 
3 428 429 430 159 166 166 255 
3 430 429 431 159 166 166 255 
3 430 431 420 159 166 166 255 
3 420 431 422 159 166 166 255 
3 420 422 421 159 166 166 255 
3 427 359 432 159 166 166 255 
3 427 432 429 159 166 166 255 
3 427 429 428 159 166 166 255 
3 407 408 451 159 166 166 255 
3 451 408 433 159 166 166 255 
3 451 433 452 159 166 166 255 
3 452 433 432 159 166 166 255 
3 452 432 360 159 166 166 255 
3 360 432 359 159 166 166 255 
3 597 596 359 159 166 166 255 
3 597 359 427 159 166 166 255 
3 578 433 408 159 166 166 255 
3 578 408 579 159 166 166 255 
3 433 578 571 159 166 166 255 
3 433 571 432 159 166 166 255 
3 597 427 428 159 166 166 255 
3 597 428 598 159 166 166 255 
3 432 571 573 159 166 166 255 
3 432 573 429 159 166 166 255 
3 598 428 430 159 166 166 255 
3 598 430 599 159 166 166 255 
3 431 429 573 159 166 166 255 
3 431 573 575 159 166 166 255 
3 600 599 430 159 166 166 255 
3 600 430 420 159 166 166 255 
3 422 431 575 159 166 166 255 
3 422 575 577 159 166 166 255 
3 421 601 600 159 166 166 255 
3 421 600 420 159 166 166 255 
3 602 603 604 159 166 166 255 
3 602 604 605 159 166 166 255 
3 606 530 536 159 166 166 255 
3 536 530 529 159 166 166 255 
3 536 529 519 159 166 166 255 
3 519 529 532 159 166 166 255 
3 519 532 520 159 166 166 255 
3 520 532 525 159 166 166 255 
3 520 525 523 159 166 166 255 
3 607 608 533 159 166 166 255 
3 607 533 530 159 166 166 255 
3 607 530 606 159 166 166 255 
3 608 609 533 159 166 166 255 
3 533 609 604 159 166 166 255 
3 533 604 610 159 166 166 255 
3 610 604 603 159 166 166 255 
3 610 603 611 159 166 166 255 
3 589 588 610 159 166 166 255 
3 589 610 611 159 166 166 255 
3 610 612 534 159 166 166 255 
3 610 534 533 159 166 166 255 
3 605 604 609 159 166 166 255 
3 605 609 613 159 166 166 255 
3 589 611 590 159 166 166 255 
3 614 608 607 159 166 166 255 
3 614 607 615 159 166 166 255 
3 606 616 615 159 166 166 255 
3 606 615 607 159 166 166 255 
3 616 606 536 159 166 166 255 
3 616 536 535 159 166 166 255 
3 608 614 613 159 166 166 255 
3 608 613 609 159 166 166 255 
3 576 594 617 159 166 166 255 
3 576 617 570 159 166 166 255 
3 567 570 617 159 166 166 255 
3 567 617 618 159 166 166 255 
3 564 567 618 159 166 166 255 
3 564 618 619 159 166 166 255 
3 541 564 619 159 166 166 255 
3 541 619 620 159 166 166 255 
3 541 620 621 159 166 166 255 
3 541 621 622 159 166 166 255 
3 541 622 623 159 166 166 255 
3 623 624 539 159 166 166 255 
3 623 539 541 159 166 166 255 
3 624 625 537 159 166 166 255 
3 624 537 539 159 166 166 255 
3 422 577 569 159 166 166 255 
3 422 569 424 159 166 166 255 
3 601 421 423 159 166 166 255 
3 601 423 626 159 166 166 255 
3 425 627 626 159 166 166 255 
3 425 626 423 159 166 166 255 
3 568 426 424 159 166 166 255 
3 568 424 569 159 166 166 255 
3 426 568 566 159 166 166 255 
3 426 566 418 159 166 166 255 
3 627 425 416 159 166 166 255 
3 627 416 628 159 166 166 255 
3 418 566 565 159 166 166 255 
3 418 565 412 159 166 166 255 
3 628 416 417 159 166 166 255 
3 628 417 629 159 166 166 255 
3 630 629 417 159 166 166 255 
3 630 417 419 159 166 166 255 
3 543 410 412 159 166 166 255 
3 543 412 565 159 166 166 255 
3 409 410 543 159 166 166 255 
3 409 543 542 159 166 166 255 
3 419 414 631 159 166 166 255 
3 419 631 630 159 166 166 255 
3 615 616 527 159 166 166 255 
3 527 616 535 159 166 166 255 
3 527 535 528 159 166 166 255 
3 528 535 522 159 166 166 255 
3 528 522 531 159 166 166 255 
3 531 522 521 159 166 166 255 
3 531 521 526 159 166 166 255 
3 526 521 524 159 166 166 255 
3 534 612 605 159 166 166 255 
3 534 605 613 159 166 166 255 
3 534 613 614 159 166 166 255 
3 534 614 615 159 166 166 255 
3 534 615 527 159 166 166 255 
3 612 622 632 159 166 166 255 
3 612 632 602 159 166 166 255 
3 612 602 605 159 166 166 255 
3 632 622 621 159 166 166 255 
3 632 621 620 159 166 166 255 
3 602 632 620 159 166 166 255 
3 602 620 619 159 166 166 255 
3 602 619 618 159 166 166 255 
3 602 618 617 159 166 166 255 
3 602 617 594 159 166 166 255 
3 602 594 593 159 166 166 255 
3 602 593 603 159 166 166 255 
3 611 603 592 159 166 166 255 
3 611 592 591 159 166 166 255 
3 611 591 590 159 166 166 255 
3 592 603 593 159 166 166 255 
3 625 633 538 159 166 166 255 
3 625 538 537 159 166 166 255 
3 540 538 633 159 166 166 255 
3 540 633 634 159 166 166 255 
3 546 540 634 159 166 166 255 
3 546 634 635 159 166 166 255 
3 554 546 635 159 166 166 255 
3 554 635 636 159 166 166 255 
3 636 637 552 159 166 166 255 
3 636 552 554 159 166 166 255 
3 637 638 550 159 166 166 255 
3 637 550 552 159 166 166 255 
3 612 610 598 159 166 166 255 
3 612 598 599 159 166 166 255 
3 612 599 600 159 166 166 255 
3 612 600 601 159 166 166 255 
3 612 601 626 159 166 166 255 
3 612 626 627 159 166 166 255 
3 612 627 628 159 166 166 255 
3 612 628 629 159 166 166 255 
3 612 629 630 159 166 166 255 
3 612 630 631 159 166 166 255 
3 612 631 635 159 166 166 255 
3 612 635 622 159 166 166 255 
3 610 588 639 159 166 166 255 
3 610 639 595 159 166 166 255 
3 610 595 596 159 166 166 255 
3 610 596 597 159 166 166 255 
3 610 597 598 159 166 166 255 
3 585 640 586 159 166 166 255 
3 586 640 641 159 166 166 255 
3 586 641 587 159 166 166 255 
3 587 641 639 159 166 166 255 
3 587 639 588 159 166 166 255 
3 625 624 633 159 166 166 255 
3 633 624 623 159 166 166 255 
3 633 623 634 159 166 166 255 
3 634 623 622 159 166 166 255 
3 634 622 635 159 166 166 255 
3 631 642 635 159 166 166 255 
3 635 642 643 159 166 166 255 
3 635 643 636 159 166 166 255 
3 636 643 644 159 166 166 255 
3 636 644 645 159 166 166 255 
3 636 645 637 159 166 166 255 
3 637 645 646 159 166 166 255 
3 637 646 638 159 166 166 255 
3 638 646 647 159 166 166 255 
3 638 647 648 159 166 166 255 
3 649 638 648 159 166 166 255 
3 649 648 650 159 166 166 255 
3 649 650 651 159 166 166 255 
3 649 651 652 159 166 166 255 
3 595 639 653 159 166 166 255 
3 653 639 652 159 166 166 255 
3 653 652 654 159 166 166 255 
3 654 652 651 159 166 166 255 
3 409 542 547 159 166 166 255 
3 409 547 411 159 166 166 255 
3 631 414 415 159 166 166 255 
3 631 415 642 159 166 166 255 
3 411 547 545 159 166 166 255 
3 411 545 413 159 166 166 255 
3 642 415 435 159 166 166 255 
3 642 435 643 159 166 166 255 
3 435 436 644 159 166 166 255 
3 435 644 643 159 166 166 255 
3 544 434 413 159 166 166 255 
3 544 413 545 159 166 166 255 
3 437 434 544 159 166 166 255 
3 437 544 553 159 166 166 255 
3 644 436 438 159 166 166 255 
3 644 438 645 159 166 166 255 
3 645 438 439 159 166 166 255 
3 645 439 646 159 166 166 255 
3 551 440 437 159 166 166 255 
3 551 437 553 159 166 166 255 
3 646 439 447 159 166 166 255 
3 646 447 647 159 166 166 255 
3 446 440 551 159 166 166 255 
3 446 551 549 159 166 166 255 
3 559 550 638 159 166 166 255 
3 559 638 649 159 166 166 255 
3 557 559 649 159 166 166 255 
3 557 649 652 159 166 166 255 
3 560 557 652 159 166 166 255 
3 560 652 639 159 166 166 255 
3 561 560 639 159 166 166 255 
3 561 639 641 159 166 166 255 
3 641 640 583 159 166 166 255 
3 641 583 561 159 166 166 255 
3 640 585 581 159 166 166 255 
3 640 581 583 159 166 166 255 
3 549 548 444 159 166 166 255 
3 549 444 446 159 166 166 255 
3 647 447 445 159 166 166 255 
3 647 445 648 159 166 166 255 
3 648 445 443 159 166 166 255 
3 648 443 650 159 166 166 255 
3 558 442 444 159 166 166 255 
3 558 444 548 159 166 166 255 
3 450 442 558 159 166 166 255 
3 450 558 556 159 166 166 255 
3 650 443 441 159 166 166 255 
3 650 441 651 159 166 166 255 
3 450 556 555 159 166 166 255 
3 450 555 452 159 166 166 255 
3 651 441 448 159 166 166 255 
3 651 448 654 159 166 166 255 
3 654 448 449 159 166 166 255 
3 654 449 653 159 166 166 255 
3 563 451 452 159 166 166 255 
3 563 452 555 159 166 166 255 
3 407 451 563 159 166 166 255 
3 407 563 562 159 166 166 255 
3 449 360 595 159 166 166 255 
3 449 595 653 159 166 166 255 
