ply
format ascii 1.0
comment VCGLIB generated
element vertex 541
property float x
property float y
property float z
property float nx
property float ny
property float nz
element face 1090
property list uchar int vertex_indices
property uchar red
property uchar green
property uchar blue
property uchar alpha
end_header
30 -24.9177 -4e-06 1.570796 -1.570795 -1.570793 
-30 -24.9177 -4e-06 -1.570796 -1.570795 -1.570796 
-15 -14.9177 -2e-06 -1.570792 1.570713 -4.712391 
-5.5 -9.444 -2e-06 1.040873 1.802855 -5.485099 
-2.847 -10.5429 -2e-06 0.5387851 2.010833 -5.485099 
0 -10.9177 -2e-06 5.960464e-08 2.081735 -5.485116 
2.847 -10.5429 -2e-06 -0.5387818 2.010825 -5.485097 
5.5 -9.444 -2e-06 -1.040872 1.802857 -5.485095 
15 -14.9177 -2e-06 1.570799 1.570802 -4.712391 
30 -14.9177 -2e-06 1.570796 1.570712 -1.570796 
15 20.0823 3e-06 1.5708 1.570797 -1.570798 
11 0.0823 0 -2.081734 4.321337e-07 -5.485116 
10.6252 2.9293 0 -2.010821 -0.5387822 -5.485097 
9.5263 5.5823 1e-06 -1.802856 -1.04087 -5.485097 
7.7782 7.860498 1e-06 -1.472007 -1.472009 -5.485115 
5.5 9.608599 2e-06 -1.040874 -1.802854 -5.485097 
2.847 10.7075 2e-06 -0.5387646 -2.01082 -5.485103 
1.25 10.9177 2e-06 -2.493174 -1.040892 -2.742537 
1.25 20.0823 3e-06 -1.570792 1.570796 -1.570796 
7.7782 -7.6959 -1e-06 -1.472008 1.47201 -5.485115 
9.5263 -5.4177 -1e-06 -1.802855 1.040871 -5.485097 
10.6252 -2.7647 -0 -2.010823 0.5387838 -5.485098 
-5.5 9.608599 2e-06 1.040877 -1.802855 -5.485096 
-7.7782 7.860498 1e-06 1.472005 -1.472005 -5.485116 
-1.25 20.0823 3e-06 1.570795 1.570797 -1.570795 
-9.5263 5.5823 1e-06 1.802854 -1.040872 -5.485097 
-15 20.0823 3e-06 -1.570795 1.570796 -1.570796 
-10.6252 2.9293 0 2.010824 -0.5387807 -5.485096 
-11 0.0823 0 2.081737 -3.576279e-07 -5.485116 
-10.6252 -2.7647 -0 2.010823 0.5387838 -5.485098 
-9.5263 -5.4177 -1e-06 1.802853 1.040872 -5.485098 
-7.7782 -7.6959 -1e-06 1.472006 1.472007 -5.485117 
-2.847 10.7075 2e-06 0.5387479 -2.010814 -5.485111 
-1.25 10.9177 2e-06 2.493199 -1.040881 -2.742547 
-30 -14.9177 -2e-06 -1.570796 1.570797 -1.570796 
-1.25 20.0823 20 1.570764 1.570796 1.570795 
-15 20.0823 20 -1.570764 1.570796 1.570794 
-9.5263 5.582297 20 1.802854 -1.040873 5.485099 
-7.7782 7.860495 20 1.472001 -1.472003 5.485114 
-5.5 9.608596 20 1.040875 -1.80286 5.485093 
-2.847 10.7075 20 0.5387635 -2.010823 5.485102 
-1.25 10.9177 20 2.493186 -1.040893 2.742537 
-7.7782 -7.695903 20 1.47201 1.472008 5.485115 
-9.5263 -5.417703 20 1.802856 1.040869 5.485097 
-15 -14.9177 20 -1.570796 1.570798 4.712389 
-10.6252 -2.764703 20 2.010826 0.5387909 5.485092 
-11 0.082297 20 2.081754 1.143664e-06 5.485107 
-10.6252 2.929297 20 2.010828 -0.5387918 5.485094 
15 20.0823 20 1.570796 1.570796 1.570798 
1.25 20.0823 20 -1.570798 1.570796 1.570796 
2.847 10.7075 20 -0.5387481 -2.010815 5.485111 
5.5 9.608596 20 -1.040875 -1.802859 5.485093 
7.7782 7.860495 20 -1.472008 -1.472008 5.485114 
9.5263 5.582297 20 -1.802854 -1.040875 5.485098 
10.6252 2.929297 20 -2.010826 -0.538782 5.485097 
11 0.082297 20 -2.081735 -4.917383e-07 5.485116 
15 -14.9177 20 1.570799 1.570794 4.71239 
30 -24.9177 20 1.570796 -1.570802 1.570789 
30 -14.9177 20 1.570796 1.570798 1.570796 
5.5 -9.444003 20 -1.040873 1.802853 5.485096 
2.847 -10.5429 20 -0.5387901 2.010827 5.485093 
0 -10.9177 20 7.223338e-06 2.081739 5.485111 
-2.847 -10.5429 20 0.53878 2.010815 5.4851 
-5.5 -9.444003 20 1.04087 1.802855 5.4851 
-30 -14.9177 20 -1.570796 1.570798 1.570796 
-30 -24.9177 20 -1.570796 -1.570802 1.570796 
10.6252 -2.764703 20 -2.010821 0.5387828 5.485098 
9.5263 -5.417703 20 -1.802854 1.04087 5.485098 
7.7782 -7.695903 20 -1.472008 1.472005 5.485116 
1.25 10.9177 20 -2.493195 -1.040882 2.742547 
-19.3124 -14.9177 9.145897 -3.008579 3.403472 0.8061113 
-19.2 -14.9177 9.999997 -3.114736 3.40329 -5.960464e-08 
-19.3124 -14.9177 10.8541 -3.008578 3.403471 -0.8061091 
-19.6421 -14.9177 11.65 -2.697466 3.403302 -1.557321 
-20.1665 -14.9177 12.3335 -2.202417 3.403517 -2.202419 
-20.85 -14.9177 12.8579 -1.557322 3.4033 -2.697465 
-21.6459 -14.9177 13.1876 -0.8061118 3.403473 -3.008577 
-22.5 -14.9177 13.3 5.587935e-09 3.403291 -3.114735 
-24.8335 -14.9177 7.666498 2.202419 3.403514 2.202418 
-24.15 -14.9177 7.142097 1.557342 3.4033 2.697489 
-23.3541 -14.9177 6.812397 0.8061115 3.403472 3.008579 
-22.5 -14.9177 6.699997 1.341105e-07 3.40329 3.114738 
-21.6459 -14.9177 6.812397 -0.8061111 3.403471 3.008578 
-20.85 -14.9177 7.142097 -1.557324 3.403301 2.697465 
-20.1665 -14.9177 7.666498 -2.202419 3.403516 2.202418 
-19.6421 -14.9177 8.349998 -2.697462 3.403301 1.557323 
-23.3541 -14.9177 13.1876 0.8061115 3.403473 -3.008577 
-24.15 -14.9177 12.8579 1.557323 3.4033 -2.697465 
-24.8335 -14.9177 12.3335 2.202417 3.403517 -2.202419 
-25.3579 -14.9177 11.65 2.697465 3.403302 -1.557321 
-25.6876 -14.9177 10.8541 3.008577 3.403471 -0.8061087 
-25.8 -14.9177 9.999997 3.114735 3.40329 -2.607703e-08 
-25.6876 -14.9177 9.145897 3.008577 3.403472 0.806111 
-25.3579 -14.9177 8.349998 2.697463 3.403301 1.557323 
25.6876 -14.9177 9.145897 -3.008579 3.403472 0.8061113 
25.8 -14.9177 9.999997 -3.114737 3.40329 -6.146729e-08 
25.6876 -14.9177 10.8541 -3.008577 3.403471 -0.8061088 
25.3579 -14.9177 11.65 -2.697465 3.403302 -1.557321 
24.8335 -14.9177 12.3335 -2.202417 3.403517 -2.202419 
24.15 -14.9177 12.8579 -1.557323 3.4033 -2.697465 
23.3541 -14.9177 13.1876 -0.8061115 3.403473 -3.008576 
22.5 -14.9177 13.3 -1.043081e-07 3.403291 -3.114736 
20.1665 -14.9177 7.666498 2.202419 3.403515 2.202418 
20.85 -14.9177 7.142097 1.557342 3.4033 2.697489 
21.6459 -14.9177 6.812397 0.8061114 3.403472 3.008579 
22.5 -14.9177 6.699997 -4.097819e-08 3.40329 3.114738 
23.3541 -14.9177 6.812397 -0.806111 3.403471 3.008578 
24.15 -14.9177 7.142097 -1.557324 3.403301 2.697465 
24.8335 -14.9177 7.666498 -2.202419 3.403516 2.202418 
25.3579 -14.9177 8.349998 -2.697462 3.403301 1.557323 
21.6459 -14.9177 13.1876 0.8061118 3.403473 -3.008577 
20.85 -14.9177 12.8579 1.557322 3.4033 -2.697465 
20.1665 -14.9177 12.3335 2.202417 3.403517 -2.202419 
19.6421 -14.9177 11.65 2.697466 3.403302 -1.557321 
19.3124 -14.9177 10.8541 3.008578 3.403471 -0.8061091 
19.2 -14.9177 9.999997 3.114736 3.40329 -5.960464e-08 
19.3124 -14.9177 9.145897 3.008579 3.403472 0.8061112 
19.6421 -14.9177 8.349998 2.697462 3.403301 1.557323 
22.5 -24.9177 6.699996 1.043081e-07 -3.403291 3.114737 
-22.5 -24.9177 6.699996 -1.043081e-07 -3.403282 3.114737 
21.6459 -24.9177 6.812396 0.8061111 -3.403464 3.008578 
-21.6459 -24.9177 6.812396 -0.8061111 -3.403473 3.008578 
20.85 -24.9177 7.142096 1.557322 -3.403301 2.697465 
-20.85 -24.9177 7.142096 -1.557322 -3.4033 2.697465 
20.1665 -24.9177 7.666496 2.202418 -3.403518 2.202419 
-20.1665 -24.9177 7.666496 -2.202418 -3.403517 2.202419 
19.6421 -24.9177 8.349997 2.697467 -3.4033 1.557321 
-19.6421 -24.9177 8.349997 -2.697466 -3.4033 1.557321 
19.3124 -24.9177 9.145896 3.008579 -3.403469 0.8061092 
-19.3124 -24.9177 9.145896 -3.008579 -3.403471 0.8061092 
19.2 -24.9177 9.999996 3.114738 -3.403289 -5.960464e-08 
-19.2 -24.9177 9.999996 -3.114738 -3.403289 -5.960464e-08 
19.3124 -24.9177 10.8541 3.008579 -3.403471 -0.8061093 
-19.3124 -24.9177 10.8541 -3.008579 -3.403469 -0.8061093 
19.6421 -24.9177 11.65 2.697465 -3.4033 -1.557321 
-19.6421 -24.9177 11.65 -2.697465 -3.4033 -1.557321 
20.1665 -24.9177 12.3335 2.202418 -3.403516 -2.20242 
-20.1665 -24.9177 12.3335 -2.202418 -3.403517 -2.20242 
20.85 -24.9177 12.8579 1.557323 -3.403299 -2.697466 
-20.85 -24.9177 12.8579 -1.557323 -3.4033 -2.697466 
21.6459 -24.9177 13.1876 0.8061116 -3.403473 -3.008576 
-21.6459 -24.9177 13.1876 -0.8061116 -3.403464 -3.008576 
22.5 -24.9177 13.3 7.450581e-08 -3.403281 -3.114737 
-22.5 -24.9177 13.3 2.980232e-08 -3.40329 -3.114738 
-25.6876 -24.9177 9.145896 3.008579 -3.403472 0.806109 
-25.8 -24.9177 9.999996 3.114738 -3.40329 1.341105e-07 
-25.6876 -24.9177 10.8541 3.008578 -3.403471 -0.8061092 
-25.3579 -24.9177 11.65 2.697466 -3.403302 -1.557321 
-24.8335 -24.9177 12.3335 2.202418 -3.403517 -2.20242 
-24.15 -24.9177 12.8579 1.557323 -3.403299 -2.697466 
-23.3541 -24.9177 13.1876 0.8061119 -3.403472 -3.008577 
-23.3541 -24.9177 6.812396 0.8061108 -3.403472 3.008577 
-24.15 -24.9177 7.142096 1.557322 -3.4033 2.697465 
-24.8335 -24.9177 7.666496 2.202417 -3.403518 2.202419 
-25.3579 -24.9177 8.349997 2.697465 -3.403301 1.55732 
23.3541 -24.9177 13.1876 -0.8061121 -3.403472 -3.008578 
24.15 -24.9177 12.8579 -1.557323 -3.403299 -2.697466 
24.8335 -24.9177 12.3335 -2.202418 -3.403517 -2.20242 
25.3579 -24.9177 11.65 -2.697465 -3.403302 -1.557321 
25.6876 -24.9177 10.8541 -3.008579 -3.403471 -0.8061093 
25.8 -24.9177 9.999996 -3.114739 -3.40329 1.639128e-07 
25.6876 -24.9177 9.145896 -3.008579 -3.403472 0.8061088 
25.3579 -24.9177 8.349997 -2.697466 -3.403301 1.557321 
24.8335 -24.9177 7.666496 -2.202417 -3.403518 2.202419 
24.15 -24.9177 7.142096 -1.557322 -3.4033 2.697465 
23.3541 -24.9177 6.812396 -0.806111 -3.403472 3.008578 
-15 16.5823 10 -5.592048 -1.926904 -2.086163e-06 
-15 16.2474 11.25 -5.592097 -1.6687 -0.963394 
-15 15.3323 12.1651 -5.592097 -0.9633933 -1.668699 
-15 14.0823 12.5 -5.592047 -1.877546e-06 -1.926906 
-15 12.8323 12.1651 -5.592095 0.9633973 -1.6687 
-15 11.9172 11.25 -5.592093 1.6687 -0.9633973 
-15 11.9172 8.750002 -5.592093 1.668701 0.9633994 
-15 12.8323 7.834902 -5.592096 0.9633937 1.668698 
-15 14.0823 7.500002 -5.592047 2.384186e-06 1.926905 
-15 15.3323 7.834902 -5.592097 -0.9633969 1.668697 
-15 16.2474 8.750003 -5.592095 -1.668701 0.9633964 
-15 11.5823 10 -5.592045 1.926908 6.258488e-07 
15 18.8323 10 3.403466 -3.114701 0 
15 18.6704 8.770603 3.403338 -3.008587 0.8061807 
15 18.1959 7.625003 3.403347 -2.697492 1.557257 
15 17.4411 6.641203 3.403514 -2.202419 2.202419 
15 16.4573 5.886403 3.403347 -1.557258 2.697491 
15 15.3117 5.411902 3.403339 -0.8061823 3.008587 
15 14.0823 5.250002 3.403466 -1.676381e-07 3.114701 
15 12.8529 5.411902 3.403338 0.8061812 3.008587 
15 11.7073 5.886402 3.403347 1.557257 2.697492 
15 11.7073 14.1136 3.403347 1.557257 -2.697492 
15 12.8529 14.5881 3.403338 0.8061812 -3.008587 
15 14.0823 14.75 3.403465 1.356006e-06 -3.114701 
15 15.3117 14.5881 3.403339 -0.8061794 -3.008587 
15 16.4573 14.1136 3.403347 -1.557257 -2.697491 
15 17.4411 13.3588 3.403514 -2.202419 -2.202419 
15 18.1959 12.375 3.403347 -2.697491 -1.557257 
15 18.6704 11.2294 3.403338 -3.008587 -0.8061807 
15 10.7235 6.641202 3.403515 2.202418 2.20242 
15 9.968699 7.625001 3.403348 2.697492 1.557257 
15 9.494199 8.770602 3.403337 3.008587 0.8061816 
15 9.332298 10 3.403466 3.114701 1.192093e-06 
15 9.494198 11.2294 3.403338 3.008587 -0.8061796 
15 9.968698 12.375 3.403348 2.697492 -1.557257 
15 10.7235 13.3588 3.403515 2.202418 -2.20242 
-9.6593 -2.505899 1 5.270855 1.412275 -2.341997 
-10 0.0823 1 5.456745 6.332994e-08 -2.342002 
-10 0.082297 19 5.456737 1.490116e-07 2.342014 
-9.6593 -2.505902 19 5.270848 1.412283 2.342004 
-8.6603 -4.917703 19 4.725707 2.728367 2.342 
-8.6603 -4.9177 0.999999 4.725707 2.728372 -2.341997 
-7.0711 -6.988803 19 3.858509 3.858509 2.342018 
-7.0711 -6.9888 0.999999 3.85851 3.858511 -2.342014 
-5 -8.578002 19 2.728368 4.725707 2.342 
-5 -8.577999 0.999999 2.728373 4.725704 -2.341998 
-2.5882 -9.577003 19 1.412276 5.270855 2.341998 
-2.5882 -9.577 0.999998 1.412273 5.270854 -2.341998 
0 -9.9177 0.999998 -2.235174e-08 5.456746 -2.342001 
0 -9.917703 19 1.013279e-05 5.45674 2.342008 
2.5882 -9.577003 19 -1.412282 5.270847 2.342005 
2.5882 -9.577 0.999998 -1.412273 5.270854 -2.341998 
5 -8.578002 19 -2.728373 4.725704 2.342 
5 -8.577999 0.999999 -2.728369 4.725705 -2.342 
7.0711 -6.988803 19 -3.85851 3.858511 2.342014 
7.0711 -6.9888 0.999999 -3.858508 3.85851 -2.342018 
8.6603 -4.917703 19 -4.725706 2.72837 2.341998 
8.6603 -4.9177 0.999999 -4.725707 2.728369 -2.342 
9.6593 -2.505902 19 -5.270855 1.412275 2.341998 
9.6593 -2.505899 1 -5.270854 1.412275 -2.341997 
10 0.082297 19 -5.456745 8.195639e-08 2.342002 
10 0.0823 1 -5.456746 4.842877e-08 -2.342002 
9.6593 2.670497 19 -5.270854 -1.412273 2.341999 
9.6593 2.6705 1 -5.270855 -1.412275 -2.341998 
8.6603 5.082297 19 -4.725704 -2.728375 2.341998 
8.6603 5.0823 1.000001 -4.725707 -2.728369 -2.341999 
7.0711 7.153396 19 -3.858512 -3.858508 2.342015 
7.0711 7.153399 1.000001 -3.858508 -3.858512 -2.342015 
9.5 12.8529 5.411902 2.879848 0.8061811 3.008587 
9.5 14.0823 5.250002 2.879719 -1.639128e-07 3.114701 
9.5 11.7073 5.886402 2.879841 1.557257 2.697492 
9.5 10.7235 6.641202 2.879671 2.202418 2.20242 
9.5 9.968699 7.625001 2.879837 2.697492 1.557257 
9.5 9.494199 8.770602 2.879848 3.008587 0.8061815 
9.5 9.332298 10 2.879719 3.114701 1.201406e-06 
9.5 9.494198 11.2294 2.879848 3.008588 -0.8061797 
9.5 9.968698 12.375 2.879837 2.697492 -1.557256 
9.5 10.7235 13.3588 2.879673 2.202418 -2.20242 
9.5 11.7073 14.1136 2.879848 1.557257 -2.697492 
9.5 12.8529 14.5881 2.879847 0.8061812 -3.008587 
9.5 14.0823 14.75 2.87972 1.311302e-06 -3.114701 
9.5 15.3117 14.5881 2.879846 -0.8061793 -3.008587 
9.5 15.3117 5.411902 2.879847 -0.8061823 3.008587 
5 8.742599 19 -2.728373 -4.725706 2.341998 
5 8.742601 1.000001 -2.728375 -4.725707 -2.341996 
1.25 13.3705 7.343702 -3.403399 0.8061143 3.008593 
9.5 13.3705 7.343702 3.403399 0.806114 3.008592 
9.5 14.0823 7.250002 3.403363 -1.341105e-07 3.114723 
1.25 14.0823 7.250002 -3.403364 -3.883615e-07 3.114723 
1.25 12.7073 7.618402 -3.403518 1.557494 2.697314 
9.5 12.7073 7.618402 3.403518 1.557494 2.697314 
1.25 12.1378 8.055502 -3.403154 2.20247 2.202471 
9.5 12.1378 8.055502 3.403154 2.20247 2.202471 
1.25 11.7007 8.625002 -3.403518 2.697313 1.557496 
9.5 11.7007 8.625002 3.403518 2.697313 1.557496 
1.25 11.426 9.288202 -3.4034 3.008591 0.8061142 
9.5 11.426 9.288202 3.4034 3.008593 0.8061147 
1.25 11.3323 10 -3.403362 3.114723 1.341105e-07 
9.5 11.3323 10 3.403359 3.114723 -1.396984e-07 
1.25 11.426 10.7118 -3.403399 3.008594 -0.8061128 
9.5 11.426 10.7118 3.403398 3.008592 -0.8061123 
1.25 11.7007 11.375 -3.40352 2.697313 -1.557494 
9.5 11.7007 11.375 3.40352 2.697314 -1.557494 
1.25 12.1378 11.9445 -3.403154 2.202471 -2.202471 
9.5 12.1378 11.9445 3.403154 2.202471 -2.202471 
1.25 12.7073 12.3816 -3.403521 1.557491 -2.697315 
9.5 12.7073 12.3816 3.403521 1.557491 -2.697315 
1.25 13.3705 12.6563 -3.403394 0.8061135 -3.008593 
9.5 13.3705 12.6563 3.403394 0.8061138 -3.008594 
1.25 14.0823 12.75 -3.403365 3.963709e-06 -3.114722 
9.5 14.0823 12.75 3.403365 3.710389e-06 -3.114722 
1.25 14.7941 12.6563 -3.403398 -0.806111 -3.008594 
9.5 14.7941 12.6563 3.403397 -0.8061106 -3.008593 
9.5 16.4573 14.1136 2.879838 -1.557257 -2.697492 
1.25 15.4573 12.3816 -3.403521 -1.557492 -2.697314 
9.5 15.4573 12.3816 3.40352 -1.557492 -2.697315 
1.25 16.0268 11.9445 -3.403155 -2.202472 -2.20247 
9.5 16.0268 11.9445 3.403155 -2.202472 -2.20247 
9.5 17.4411 13.3588 2.879672 -2.202419 -2.202419 
1.25 16.4639 11.375 -3.403519 -2.697315 -1.557492 
9.5 16.4639 11.375 3.403519 -2.697315 -1.557492 
9.5 18.1959 12.375 2.879838 -2.697492 -1.557257 
9.5 18.6704 11.2294 2.879847 -3.008587 -0.8061807 
1.25 16.7386 10.7118 -3.403397 -3.008592 -0.806114 
9.5 16.7386 10.7118 3.403397 -3.008594 -0.8061144 
9.5 18.8323 10 2.879719 -3.114701 5.587935e-09 
9.5 18.6704 8.770603 2.879847 -3.008587 0.8061807 
9.5 16.7386 9.288203 3.403397 -3.008592 0.8061144 
1.25 16.7386 9.288203 -3.403397 -3.008593 0.8061149 
1.25 16.4639 8.625003 -3.403518 -2.697315 1.557493 
9.5 16.4639 8.625003 3.403518 -2.697315 1.557493 
9.5 18.1959 7.625003 2.879838 -2.697491 1.557257 
9.5 17.4411 6.641203 2.879673 -2.202419 2.202419 
9.5 16.8323 10 3.403365 -3.114723 -1.508743e-07 
9.5 16.0268 8.055503 3.403154 -2.202474 2.202469 
9.5 16.4573 5.886403 2.879838 -1.557258 2.697491 
9.5 15.4573 7.618402 3.403521 -1.557496 2.697312 
9.5 14.7941 7.343702 3.403398 -0.8061138 3.008593 
1.25 16.0268 8.055503 -3.403153 -2.202474 2.202469 
1.25 15.4573 7.618402 -3.403521 -1.557496 2.697313 
1.25 14.7941 7.343702 -3.403398 -0.8061134 3.008592 
2.5882 9.741599 19 -1.412163 -5.270896 2.342013 
2.5882 9.741602 1.000002 -1.412181 -5.27088 -2.342026 
1.25 16.8323 10 -3.403365 -3.114723 -4.321337e-07 
1.25 9.917697 19 -2.715247 -2.72837 1.170976 
1.25 9.9177 1.000002 -2.715229 -2.728359 -1.17099 
-1.25 9.9177 1.000002 2.715247 -2.728369 -1.170976 
-1.25 9.917697 19 2.715229 -2.728359 1.170989 
-2.5882 9.741599 19 1.412179 -5.27088 2.342027 
-2.5882 9.741602 1.000002 1.412163 -5.270895 -2.342014 
-1.25 11.9172 11.25 5.592094 1.6687 -0.9633944 
-1.25 12.8323 12.1651 5.592094 0.9633978 -1.668701 
-1.25 14.0823 12.5 5.592046 -1.817942e-06 -1.926907 
-1.25 15.3323 12.1651 5.592096 -0.9633937 -1.6687 
-1.25 16.2474 11.25 5.592096 -1.6687 -0.9633944 
-1.25 16.5823 10 5.592049 -1.926903 1.490116e-08 
-1.25 14.0823 7.500002 5.592048 -3.72529e-07 1.926903 
-1.25 12.8323 7.834902 5.592095 0.9633942 1.668699 
-1.25 11.9172 8.750002 5.592092 1.668702 0.9633996 
-1.25 11.5823 10 5.592046 1.926907 -1.907349e-06 
-1.25 16.2474 8.750003 5.592096 -1.668701 0.9633942 
-1.25 15.3323 7.834902 5.592098 -0.9633937 1.668697 
-1.683 14.0823 7.933002 2.438334 -1.788139e-06 5.472897 
-14.567 14.0823 7.933002 -2.438338 3.576279e-06 5.472894 
-14.567 13.0488 8.209902 -2.438384 2.736373 4.739677 
-1.683 13.0488 8.209902 2.438383 2.736374 4.739678 
-14.567 12.2922 8.966502 -2.438385 4.739672 2.736383 
-1.683 12.2922 8.966502 2.438383 4.739673 2.736384 
-14.567 12.0153 10 -2.438339 5.472894 7.450581e-07 
-1.683 12.0153 10 2.438334 5.472896 -4.11272e-06 
-14.567 12.2922 11.0335 -2.438387 4.739672 -2.73638 
-1.683 12.2922 11.0335 2.438383 4.739677 -2.736377 
-14.567 13.0488 11.7901 -2.438386 2.73638 -4.739672 
-1.683 13.0488 11.7901 2.438385 2.73638 -4.739673 
-14.567 14.0823 12.067 -2.438336 -2.413988e-06 -5.472895 
-1.683 14.0823 12.067 2.438334 -2.384186e-06 -5.472897 
-14.567 15.1158 11.7901 -2.438384 -2.736374 -4.739677 
-1.683 15.1158 11.7901 2.438383 -2.736375 -4.739677 
-14.567 15.8724 11.0335 -2.438385 -4.739676 -2.736375 
-1.683 15.8724 11.0335 2.438383 -4.739677 -2.736375 
-14.567 16.1493 10 -2.438338 -5.472894 -3.904104e-06 
-1.683 16.1493 10 2.438334 -5.472895 -5.960464e-08 
-14.567 15.8724 8.966503 -2.438386 -4.739674 2.736376 
-1.683 15.8724 8.966503 2.438383 -4.739678 2.736374 
-14.567 15.1158 8.209903 -2.438389 -2.736382 4.739669 
-1.683 15.1158 8.209903 2.438385 -2.736379 4.739673 
-5 8.742599 19 2.728373 -4.725705 2.341997 
-5 8.742601 1.000001 2.728376 -4.725704 -2.341998 
-7.0711 7.153396 19 3.858512 -3.858508 2.342015 
-7.0711 7.153399 1.000001 3.858511 -3.85851 -2.342013 
-8.6603 5.082297 19 4.725706 -2.728373 2.341997 
-8.6603 5.0823 1.000001 4.725704 -2.728373 -2.341999 
-9.6593 2.6705 1 5.270855 -1.412272 -2.341999 
-9.6593 2.670497 19 5.270848 -1.412284 2.342003 
14.5 14.0823 13.75 5.2218 -1.206994e-06 2.342042 
14.5 13.1117 13.6222 5.221884 -0.6061617 2.262167 
14.5 12.9276 12 4.18877 1.360342 -2.356209 
14.5 12.2073 13.2476 5.221823 -1.170926 2.028309 
14.5 11.7729 10 4.188751 2.720715 3.129244e-07 
14.5 11.4306 12.6517 5.221591 -1.656238 1.656162 
14.5 11.4306 7.348302 5.22159 -1.656162 -1.656239 
14.5 10.8347 11.875 5.221788 -2.028306 1.170986 
14.5 10.8347 8.125002 5.221845 -2.028276 -1.170948 
14.5 10.4601 10.9706 5.221886 -2.262164 0.6061611 
14.5 10.4601 9.029402 5.221908 -2.262156 -0.6061248 
14.5 10.3323 10 5.2218 -2.342043 0 
14.5 12.2073 6.752402 5.22181 -1.171007 -2.028275 
14.5 13.1117 6.377802 5.221904 -0.6061262 -2.262159 
14.5 12.9276 8.000002 4.188771 1.36034 2.356209 
14.5 17.8323 10 5.2218 2.342043 0 
14.5 17.7045 10.9706 5.221905 2.262159 0.6061256 
14.5 17.7045 9.029403 5.221904 2.262159 -0.6061251 
14.5 17.3299 11.875 5.221841 2.028279 1.170948 
14.5 17.3299 8.125003 5.221808 2.028276 -1.171008 
14.5 16.734 12.6517 5.221625 1.656181 1.656181 
14.5 16.734 7.348303 5.22159 1.656238 -1.656162 
14.5 16.3917 10 4.188759 -2.72071 9.119511e-06 
14.5 15.9573 6.752402 5.22184 1.17095 -2.02828 
14.5 15.237 8.000003 4.188791 -1.360351 2.356194 
14.5 15.0529 6.377802 5.221902 0.6061277 -2.262161 
14.5 14.0823 6.250002 5.221799 0 -2.342043 
14.5 15.0529 13.6222 5.221882 0.6061613 2.262168 
14.5 15.237 12 4.188771 -1.360341 -2.356208 
14.5 15.9573 13.2476 5.221826 1.170926 2.028307 
-10.5 12.342 11.0048 -5.221707 -2.028346 1.171013 
-10.5 12.6614 11.4209 -5.222251 -1.655818 1.655818 
-10.5 13.0775 11.7403 -5.221707 -1.171014 2.028345 
-10.5 13.5622 11.941 -5.2219 -0.6060787 2.26219 
-10.5 14.0823 12.0095 -5.22177 -1.243502e-05 2.342062 
-10.5 14.6024 11.941 -5.221912 0.6060863 2.262178 
-10.5 15.0871 11.7403 -5.221704 1.171013 2.028347 
-10.5 15.5032 11.4209 -5.222163 1.655958 1.655782 
-10.5 15.8226 11.0048 -5.221626 2.028332 1.171169 
-10.5 16.0233 10.5201 -5.221922 2.262172 0.6060751 
-10.5 16.0918 10 -5.221776 2.342057 -1.639128e-07 
-10.5 16.0233 9.479903 -5.221913 2.262176 -0.6060901 
-10.5 15.8226 8.995203 -5.221706 2.028346 -1.171014 
-10.5 15.5032 8.579103 -5.222255 1.655818 -1.655815 
-10.5 15.0871 8.259703 -5.221707 1.171017 -2.028342 
-10.5 14.6024 8.059002 -5.22191 0.6060898 -2.262179 
-10.5 14.0823 7.990502 -5.221777 2.458692e-07 -2.342057 
-10.5 13.5622 8.059002 -5.221919 -0.6060746 -2.262175 
-10.5 13.0775 8.259702 -5.221716 -1.171022 -2.028332 
-10.5 12.6614 8.579102 -5.222253 -1.655817 -1.655819 
-10.5 12.342 8.995202 -5.221715 -2.028332 -1.171024 
-10.5 12.1413 9.479902 -5.221923 -2.262172 -0.606074 
-10.5 12.0728 10 -5.221767 -2.342066 1.397729e-05 
-10.5 12.1413 10.5201 -5.221903 -2.262187 0.6060789 
9.5 13.4353 7.585202 -3.403259 -0.8060519 -3.008639 
-10.0095 13.4353 7.585202 -2.081789 -1.344789 -5.019543 
-10.0095 14.0823 7.500002 -2.081691 4.61936e-07 -5.196396 
9.5 14.0823 7.500002 -3.403456 3.278255e-07 -3.114703 
12 12.9276 8.000002 2.094434 1.36032 2.356246 
12 14.0823 8.000002 3.0505 -1.609325e-06 3.88887 
12 13.5647 8.068102 6.19211 0.1933535 0.7217586 
12 13.0823 8.267902 6.192115 0.3736169 0.6470677 
12 12.6681 8.585802 6.192089 0.5284196 0.528421 
12 12.3502 9.000002 3.050431 3.367765 1.944413 
11.4641 14.0823 10 5.85777 -3.669411e-07 3.72529e-07 
14 12.9823 5.894802 2.081755 -1.344916 -5.019296 
9.5 12.9823 5.894802 -2.879751 -0.8061612 -3.008572 
9.5 14.0823 5.750002 -2.879824 1.523644e-06 -3.114722 
14 14.0823 5.750002 2.08177 1.92225e-06 -5.196438 
9.5 9.832298 10 -2.879828 -3.114723 0 
9.5 9.977097 11.1 -2.879749 -3.008572 0.8061603 
9.5 9.977097 8.900002 -2.879747 -3.008571 -0.8061615 
9.5 10.4017 12.125 -2.879821 -2.697408 1.557396 
9.5 10.4017 7.875002 -2.879822 -2.697407 -1.557397 
9.5 11.0771 13.0052 -2.87979 -2.202436 2.202436 
9.5 11.0771 6.994802 -2.879791 -2.202436 -2.202437 
9.5 11.5823 10 -3.403453 -3.114703 -1.490116e-08 
9.5 11.6675 9.353002 -3.403264 -3.008637 -0.8060534 
9.5 12.8323 12.1651 -3.403466 -1.557178 2.69751 
9.5 12.3145 11.7678 -3.403447 -2.202429 2.202429 
9.5 11.9573 13.6806 -2.87982 -1.557394 2.697409 
9.5 11.9172 11.25 -3.403464 -2.697509 1.55718 
9.5 11.6675 10.647 -3.403262 -3.008638 0.8060515 
9.5 14.7293 12.4148 -3.40326 0.806049 3.008639 
9.5 14.0823 12.5 -3.403455 -1.969747e-06 3.114703 
9.5 14.0823 14.25 -2.879826 -1.102686e-06 3.114723 
9.5 13.4353 12.4148 -3.403259 -0.8060519 3.008639 
9.5 12.9823 14.1052 -2.879752 -0.8061607 3.008573 
9.5 15.1823 14.1052 -2.879751 0.806159 3.008573 
9.5 16.2073 13.6806 -2.879806 1.557394 2.697408 
9.5 15.8501 11.7678 -3.403444 2.202429 2.202429 
9.5 15.3323 12.1651 -3.403467 1.557178 2.697509 
9.5 17.0875 13.0052 -2.879789 2.202437 2.202436 
9.5 16.5823 10 -3.40345 3.114703 -1.490116e-08 
9.5 16.4971 10.647 -3.403265 3.008638 0.8060515 
9.5 16.2474 11.25 -3.403465 2.697508 1.557181 
9.5 11.9172 8.750002 -3.403462 -2.697508 -1.557182 
9.5 12.3145 8.232202 -3.403447 -2.202429 -2.202429 
9.5 11.9573 6.319402 -2.87982 -1.557394 -2.697408 
9.5 12.8323 7.834902 -3.403465 -1.557178 -2.69751 
9.5 15.3323 7.834902 -3.403468 1.55718 -2.697508 
9.5 15.1823 5.894803 -2.879752 0.8061627 -3.008572 
9.5 14.7293 7.585202 -3.403258 0.8060513 -3.008639 
9.5 15.8501 8.232203 -3.403444 2.202431 -2.202427 
9.5 16.2474 8.750003 -3.403464 2.697509 -1.55718 
9.5 16.2073 6.319403 -2.879805 1.557395 -2.697408 
9.5 16.4971 9.353003 -3.403265 3.008638 -0.8060514 
9.5 17.0875 6.994803 -2.879791 2.202437 -2.202436 
9.5 18.3323 10 -2.879825 3.114722 1.639128e-07 
9.5 18.1875 8.900002 -2.87975 3.008572 -0.8061621 
9.5 18.1875 11.1 -2.879751 3.008572 0.8061618 
9.5 17.7629 7.875003 -2.879821 2.697408 -1.557396 
9.5 17.7629 12.125 -2.879821 2.697408 1.557395 
-10.0095 12.8323 7.834902 -2.081661 -2.597917 -4.500397 
14 11.9573 6.319402 2.081722 -2.598301 -4.50026 
-10.0095 12.3145 8.232202 -2.081757 -3.674369 -3.67437 
12 11.7729 10 2.094471 2.720758 0 
14 11.0771 6.994802 2.081604 -3.674509 -3.674562 
-10.0095 11.9172 8.750002 -2.081661 -4.500397 -2.597925 
14 10.4017 7.875002 2.081698 -4.500303 -2.598289 
-10.0095 11.6675 9.353002 -2.081787 -5.019538 -1.344791 
12 12.1504 9.482402 6.19211 0.7217591 0.193353 
12 12.0823 10 6.192094 0.747277 6.705523e-08 
12 12.1504 10.5176 6.192109 0.7217591 -0.1933529 
12 12.3502 11 3.050431 3.367766 -1.944412 
14 9.977097 8.900002 2.081756 -5.01929 -1.344913 
-10.0095 11.5823 10 -2.081699 -5.196391 8.873641e-06 
14 9.832298 10 2.081775 -5.196439 1.490116e-08 
-10.0095 11.6675 10.647 -2.081802 -5.019524 1.344784 
12 12.9276 12 2.094433 1.36032 -2.356246 
14 9.977097 11.1 2.081772 -5.019267 1.34493 
-10.0095 11.9172 11.25 -2.081669 -4.500394 2.597908 
14 10.4017 12.125 2.081738 -4.500255 2.598274 
-10.0095 12.3145 11.7678 -2.081758 -3.674369 3.674369 
12 12.6681 11.4142 6.19209 0.5284196 -0.5284203 
12 13.0823 11.7321 6.192115 0.3736168 -0.6470674 
12 13.5647 11.9319 6.19211 0.1933535 -0.7217586 
12 14.0823 12 3.050502 1.296401e-06 -3.888869 
14 11.0771 13.0052 2.081604 -3.674562 3.674509 
-10.0095 12.8323 12.1651 -2.081667 -2.597906 4.500394 
14 11.9573 13.6806 2.081712 -2.598254 4.500301 
-10.0095 13.4353 12.4148 -2.081801 -1.344786 5.019529 
12 15.237 12 2.094432 -1.360319 -2.356245 
14 12.9823 14.1052 2.08177 -1.344932 5.019273 
-10.0095 14.0823 12.5 -2.081699 -1.066923e-05 5.19639 
14 14.0823 14.25 2.081772 -1.974404e-06 5.196439 
-10.0095 14.7293 12.4148 -2.081796 1.34479 5.019532 
12 14.5999 11.9319 6.192109 -0.1933531 -0.7217591 
12 15.0823 11.7321 6.192115 -0.373616 -0.6470672 
12 15.4965 11.4142 6.19209 -0.5284195 -0.5284196 
12 15.8144 11 3.050434 -3.367767 -1.944413 
14 15.1823 14.1052 2.081769 1.344929 5.019274 
-10.0095 15.3323 12.1651 -2.081667 2.597905 4.500393 
14 16.2073 13.6806 2.081712 2.598253 4.500299 
-10.0095 15.8501 11.7678 -2.081819 3.674375 3.674264 
12 16.3917 10 2.094471 -2.720757 0 
14 17.0875 13.0052 2.08158 3.674557 3.674555 
-10.0095 16.2474 11.25 -2.081722 4.500293 2.597955 
14 17.7629 12.125 2.081696 4.500306 2.598286 
-10.0095 16.4971 10.647 -2.081788 5.01954 1.344788 
12 16.0142 10.5176 6.192109 -0.7217585 -0.1933534 
12 16.0823 10 6.192094 -0.747277 4.470348e-08 
12 16.0142 9.482403 6.192109 -0.7217585 0.1933536 
12 15.8144 9.000003 3.050383 -3.367753 1.944438 
14 18.1875 11.1 2.081755 5.019296 1.344916 
-10.0095 16.5823 10 -2.081692 5.196399 0 
14 18.3323 10 2.081772 5.196438 2.756715e-07 
-10.0095 16.4971 9.353003 -2.081795 5.019529 -1.344795 
12 15.237 8.000003 2.094404 -1.360336 2.356219 
14 18.1875 8.900002 2.081755 5.019295 -1.344916 
-10.0095 16.2474 8.750003 -2.081669 4.500394 -2.597908 
14 17.7629 7.875003 2.08172 4.50026 -2.598305 
-10.0095 15.8501 8.232203 -2.081759 3.674373 -3.674366 
12 15.4965 8.585803 6.19209 -0.5284199 0.5284191 
12 15.0823 8.267903 6.192114 -0.3736176 0.6470676 
12 14.5999 8.068102 6.19211 -0.1933538 0.7217579 
14 17.0875 6.994803 2.081604 3.674563 -3.67451 
-10.0095 15.3323 7.834902 -2.081667 2.597908 -4.50039 
14 16.2073 6.319403 2.081695 2.598286 -4.500305 
-10.0095 14.7293 7.585202 -2.081795 1.344795 -5.019535 
14 15.1823 5.894803 2.081754 1.344918 -5.019299 
3 0 1 2 159 166 166 255 
3 0 2 3 159 166 166 255 
3 0 3 4 159 166 166 255 
3 0 4 5 159 166 166 255 
3 0 5 6 159 166 166 255 
3 0 6 7 159 166 166 255 
3 0 7 8 159 166 166 255 
3 0 8 9 159 166 166 255 
3 10 8 11 159 166 166 255 
3 10 11 12 159 166 166 255 
3 10 12 13 159 166 166 255 
3 10 13 14 159 166 166 255 
3 10 14 15 159 166 166 255 
3 10 15 16 159 166 166 255 
3 10 16 17 159 166 166 255 
3 10 17 18 159 166 166 255 
3 8 7 19 159 166 166 255 
3 8 19 20 159 166 166 255 
3 8 20 21 159 166 166 255 
3 8 21 11 159 166 166 255 
3 22 23 24 159 166 166 255 
3 24 23 25 159 166 166 255 
3 24 25 26 159 166 166 255 
3 26 25 27 159 166 166 255 
3 26 27 2 159 166 166 255 
3 2 27 28 159 166 166 255 
3 2 28 29 159 166 166 255 
3 2 29 30 159 166 166 255 
3 2 30 31 159 166 166 255 
3 2 31 3 159 166 166 255 
3 32 22 24 159 166 166 255 
3 32 24 33 159 166 166 255 
3 2 1 34 159 166 166 255 
3 35 36 37 159 166 166 255 
3 35 37 38 159 166 166 255 
3 35 38 39 159 166 166 255 
3 35 39 40 159 166 166 255 
3 35 40 41 159 166 166 255 
3 42 43 44 159 166 166 255 
3 44 43 45 159 166 166 255 
3 44 45 36 159 166 166 255 
3 36 45 46 159 166 166 255 
3 36 46 47 159 166 166 255 
3 48 49 50 159 166 166 255 
3 48 50 51 159 166 166 255 
3 48 51 52 159 166 166 255 
3 48 52 53 159 166 166 255 
3 48 53 54 159 166 166 255 
3 48 54 55 159 166 166 255 
3 48 55 56 159 166 166 255 
3 57 58 56 159 166 166 255 
3 57 56 59 159 166 166 255 
3 57 59 60 159 166 166 255 
3 57 60 61 159 166 166 255 
3 57 61 62 159 166 166 255 
3 57 62 63 159 166 166 255 
3 57 63 44 159 166 166 255 
3 57 44 64 159 166 166 255 
3 57 64 65 159 166 166 255 
3 56 55 66 159 166 166 255 
3 56 66 67 159 166 166 255 
3 56 67 68 159 166 166 255 
3 56 68 59 159 166 166 255 
3 44 63 42 159 166 166 255 
3 50 49 69 159 166 166 255 
3 37 36 47 159 166 166 255 
3 44 2 70 159 166 166 255 
3 44 70 71 159 166 166 255 
3 44 71 72 159 166 166 255 
3 44 72 73 159 166 166 255 
3 44 73 74 159 166 166 255 
3 44 74 75 159 166 166 255 
3 44 75 76 159 166 166 255 
3 44 76 77 159 166 166 255 
3 44 77 64 159 166 166 255 
3 2 34 78 159 166 166 255 
3 2 78 79 159 166 166 255 
3 2 79 80 159 166 166 255 
3 2 80 81 159 166 166 255 
3 2 81 82 159 166 166 255 
3 2 82 83 159 166 166 255 
3 2 83 84 159 166 166 255 
3 2 84 85 159 166 166 255 
3 2 85 70 159 166 166 255 
3 64 77 86 159 166 166 255 
3 64 86 87 159 166 166 255 
3 64 87 88 159 166 166 255 
3 64 88 89 159 166 166 255 
3 64 89 90 159 166 166 255 
3 64 90 91 159 166 166 255 
3 64 91 92 159 166 166 255 
3 64 92 34 159 166 166 255 
3 93 78 34 159 166 166 255 
3 93 34 92 159 166 166 255 
3 58 9 94 159 166 166 255 
3 58 94 95 159 166 166 255 
3 58 95 96 159 166 166 255 
3 58 96 97 159 166 166 255 
3 58 97 98 159 166 166 255 
3 58 98 99 159 166 166 255 
3 58 99 100 159 166 166 255 
3 58 100 101 159 166 166 255 
3 58 101 56 159 166 166 255 
3 9 8 102 159 166 166 255 
3 9 102 103 159 166 166 255 
3 9 103 104 159 166 166 255 
3 9 104 105 159 166 166 255 
3 9 105 106 159 166 166 255 
3 9 106 107 159 166 166 255 
3 9 107 108 159 166 166 255 
3 9 108 109 159 166 166 255 
3 9 109 94 159 166 166 255 
3 56 101 110 159 166 166 255 
3 56 110 111 159 166 166 255 
3 56 111 112 159 166 166 255 
3 56 112 113 159 166 166 255 
3 56 113 114 159 166 166 255 
3 56 114 115 159 166 166 255 
3 56 115 116 159 166 166 255 
3 56 116 8 159 166 166 255 
3 117 102 8 159 166 166 255 
3 117 8 116 159 166 166 255 
3 1 118 119 159 166 166 255 
3 119 118 120 159 166 166 255 
3 119 120 121 159 166 166 255 
3 121 120 122 159 166 166 255 
3 121 122 123 159 166 166 255 
3 123 122 124 159 166 166 255 
3 123 124 125 159 166 166 255 
3 125 124 126 159 166 166 255 
3 125 126 127 159 166 166 255 
3 127 126 128 159 166 166 255 
3 127 128 129 159 166 166 255 
3 129 128 130 159 166 166 255 
3 129 130 131 159 166 166 255 
3 131 130 132 159 166 166 255 
3 131 132 133 159 166 166 255 
3 133 132 134 159 166 166 255 
3 133 134 135 159 166 166 255 
3 135 134 136 159 166 166 255 
3 135 136 137 159 166 166 255 
3 137 136 138 159 166 166 255 
3 137 138 139 159 166 166 255 
3 139 138 140 159 166 166 255 
3 139 140 141 159 166 166 255 
3 141 140 142 159 166 166 255 
3 141 142 143 159 166 166 255 
3 143 142 57 159 166 166 255 
3 143 57 65 159 166 166 255 
3 65 1 144 159 166 166 255 
3 65 144 145 159 166 166 255 
3 65 145 146 159 166 166 255 
3 65 146 147 159 166 166 255 
3 65 147 148 159 166 166 255 
3 65 148 149 159 166 166 255 
3 65 149 150 159 166 166 255 
3 65 150 143 159 166 166 255 
3 1 119 151 159 166 166 255 
3 1 151 152 159 166 166 255 
3 1 152 153 159 166 166 255 
3 1 153 154 159 166 166 255 
3 1 154 144 159 166 166 255 
3 57 142 155 159 166 166 255 
3 57 155 156 159 166 166 255 
3 57 156 157 159 166 166 255 
3 57 157 158 159 166 166 255 
3 57 158 159 159 166 166 255 
3 57 159 160 159 166 166 255 
3 57 160 161 159 166 166 255 
3 57 161 0 159 166 166 255 
3 0 161 162 159 166 166 255 
3 0 162 163 159 166 166 255 
3 0 163 164 159 166 166 255 
3 0 164 165 159 166 166 255 
3 0 165 118 159 166 166 255 
3 0 118 1 159 166 166 255 
3 57 0 9 159 166 166 255 
3 57 9 58 159 166 166 255 
3 1 65 64 159 166 166 255 
3 1 64 34 159 166 166 255 
3 128 116 115 159 166 166 255 
3 128 115 130 159 166 166 255 
3 92 91 145 159 166 166 255 
3 92 145 144 159 166 166 255 
3 93 92 144 159 166 166 255 
3 93 144 154 159 166 166 255 
3 78 93 154 159 166 166 255 
3 78 154 153 159 166 166 255 
3 79 78 153 159 166 166 255 
3 79 153 152 159 166 166 255 
3 80 79 152 159 166 166 255 
3 80 152 151 159 166 166 255 
3 81 80 151 159 166 166 255 
3 81 151 119 159 166 166 255 
3 82 81 119 159 166 166 255 
3 82 119 121 159 166 166 255 
3 83 82 121 159 166 166 255 
3 83 121 123 159 166 166 255 
3 84 83 123 159 166 166 255 
3 84 123 125 159 166 166 255 
3 85 84 125 159 166 166 255 
3 85 125 127 159 166 166 255 
3 70 85 127 159 166 166 255 
3 70 127 129 159 166 166 255 
3 71 70 129 159 166 166 255 
3 71 129 131 159 166 166 255 
3 126 117 116 159 166 166 255 
3 126 116 128 159 166 166 255 
3 124 102 117 159 166 166 255 
3 124 117 126 159 166 166 255 
3 122 103 102 159 166 166 255 
3 122 102 124 159 166 166 255 
3 120 104 103 159 166 166 255 
3 120 103 122 159 166 166 255 
3 118 105 104 159 166 166 255 
3 118 104 120 159 166 166 255 
3 140 110 101 159 166 166 255 
3 140 101 142 159 166 166 255 
3 77 143 150 159 166 166 255 
3 77 150 86 159 166 166 255 
3 87 86 150 159 166 166 255 
3 87 150 149 159 166 166 255 
3 88 87 149 159 166 166 255 
3 88 149 148 159 166 166 255 
3 89 88 148 159 166 166 255 
3 89 148 147 159 166 166 255 
3 90 89 147 159 166 166 255 
3 90 147 146 159 166 166 255 
3 91 90 146 159 166 166 255 
3 91 146 145 159 166 166 255 
3 72 71 131 159 166 166 255 
3 72 131 133 159 166 166 255 
3 73 72 133 159 166 166 255 
3 73 133 135 159 166 166 255 
3 74 73 135 159 166 166 255 
3 74 135 137 159 166 166 255 
3 75 74 137 159 166 166 255 
3 75 137 139 159 166 166 255 
3 76 75 139 159 166 166 255 
3 76 139 141 159 166 166 255 
3 77 76 141 159 166 166 255 
3 77 141 143 159 166 166 255 
3 138 111 110 159 166 166 255 
3 138 110 140 159 166 166 255 
3 111 138 136 159 166 166 255 
3 111 136 112 159 166 166 255 
3 112 136 134 159 166 166 255 
3 112 134 113 159 166 166 255 
3 113 134 132 159 166 166 255 
3 113 132 114 159 166 166 255 
3 130 115 114 159 166 166 255 
3 130 114 132 159 166 166 255 
3 96 95 160 159 166 166 255 
3 96 160 159 159 166 166 255 
3 158 97 96 159 166 166 255 
3 158 96 159 159 166 166 255 
3 98 97 158 159 166 166 255 
3 98 158 157 159 166 166 255 
3 156 99 98 159 166 166 255 
3 156 98 157 159 166 166 255 
3 155 100 99 159 166 166 255 
3 155 99 156 159 166 166 255 
3 142 101 100 159 166 166 255 
3 142 100 155 159 166 166 255 
3 165 106 105 159 166 166 255 
3 165 105 118 159 166 166 255 
3 107 106 165 159 166 166 255 
3 107 165 164 159 166 166 255 
3 108 107 164 159 166 166 255 
3 108 164 163 159 166 166 255 
3 109 108 163 159 166 166 255 
3 109 163 162 159 166 166 255 
3 94 109 162 159 166 166 255 
3 94 162 161 159 166 166 255 
3 95 94 161 159 166 166 255 
3 95 161 160 159 166 166 255 
3 35 24 26 159 166 166 255 
3 35 26 36 159 166 166 255 
3 18 49 48 159 166 166 255 
3 18 48 10 159 166 166 255 
3 36 26 166 159 166 166 255 
3 36 166 167 159 166 166 255 
3 36 167 168 159 166 166 255 
3 36 168 169 159 166 166 255 
3 36 169 170 159 166 166 255 
3 36 170 171 159 166 166 255 
3 36 171 2 159 166 166 255 
3 36 2 44 159 166 166 255 
3 26 2 172 159 166 166 255 
3 26 172 173 159 166 166 255 
3 26 173 174 159 166 166 255 
3 26 174 175 159 166 166 255 
3 26 175 176 159 166 166 255 
3 26 176 166 159 166 166 255 
3 2 171 177 159 166 166 255 
3 2 177 172 159 166 166 255 
3 10 48 178 159 166 166 255 
3 10 178 179 159 166 166 255 
3 10 179 180 159 166 166 255 
3 10 180 181 159 166 166 255 
3 10 181 182 159 166 166 255 
3 10 182 183 159 166 166 255 
3 10 183 184 159 166 166 255 
3 10 184 185 159 166 166 255 
3 10 185 186 159 166 166 255 
3 10 186 56 159 166 166 255 
3 10 56 8 159 166 166 255 
3 48 56 187 159 166 166 255 
3 48 187 188 159 166 166 255 
3 48 188 189 159 166 166 255 
3 48 189 190 159 166 166 255 
3 48 190 191 159 166 166 255 
3 48 191 192 159 166 166 255 
3 48 192 193 159 166 166 255 
3 48 193 194 159 166 166 255 
3 48 194 178 159 166 166 255 
3 56 186 195 159 166 166 255 
3 56 195 196 159 166 166 255 
3 56 196 197 159 166 166 255 
3 56 197 198 159 166 166 255 
3 56 198 199 159 166 166 255 
3 56 199 200 159 166 166 255 
3 56 200 201 159 166 166 255 
3 56 201 187 159 166 166 255 
3 202 203 204 159 166 166 255 
3 202 204 205 159 166 166 255 
3 203 202 29 159 166 166 255 
3 203 29 28 159 166 166 255 
3 46 45 205 159 166 166 255 
3 46 205 204 159 166 166 255 
3 205 206 207 159 166 166 255 
3 205 207 202 159 166 166 255 
3 45 43 206 159 166 166 255 
3 45 206 205 159 166 166 255 
3 29 202 207 159 166 166 255 
3 29 207 30 159 166 166 255 
3 207 206 208 159 166 166 255 
3 207 208 209 159 166 166 255 
3 206 43 42 159 166 166 255 
3 206 42 208 159 166 166 255 
3 209 31 30 159 166 166 255 
3 209 30 207 159 166 166 255 
3 209 208 210 159 166 166 255 
3 209 210 211 159 166 166 255 
3 3 31 209 159 166 166 255 
3 3 209 211 159 166 166 255 
3 210 208 42 159 166 166 255 
3 210 42 63 159 166 166 255 
3 211 210 212 159 166 166 255 
3 211 212 213 159 166 166 255 
3 3 211 213 159 166 166 255 
3 3 213 4 159 166 166 255 
3 62 212 210 159 166 166 255 
3 62 210 63 159 166 166 255 
3 214 213 212 159 166 166 255 
3 214 212 215 159 166 166 255 
3 4 213 214 159 166 166 255 
3 4 214 5 159 166 166 255 
3 62 61 215 159 166 166 255 
3 62 215 212 159 166 166 255 
3 215 216 217 159 166 166 255 
3 215 217 214 159 166 166 255 
3 216 215 61 159 166 166 255 
3 216 61 60 159 166 166 255 
3 214 217 6 159 166 166 255 
3 214 6 5 159 166 166 255 
3 216 218 219 159 166 166 255 
3 216 219 217 159 166 166 255 
3 7 6 217 159 166 166 255 
3 7 217 219 159 166 166 255 
3 59 218 216 159 166 166 255 
3 59 216 60 159 166 166 255 
3 218 220 221 159 166 166 255 
3 218 221 219 159 166 166 255 
3 59 68 220 159 166 166 255 
3 59 220 218 159 166 166 255 
3 219 221 19 159 166 166 255 
3 219 19 7 159 166 166 255 
3 220 222 223 159 166 166 255 
3 220 223 221 159 166 166 255 
3 67 222 220 159 166 166 255 
3 67 220 68 159 166 166 255 
3 19 221 223 159 166 166 255 
3 19 223 20 159 166 166 255 
3 222 224 225 159 166 166 255 
3 222 225 223 159 166 166 255 
3 222 67 66 159 166 166 255 
3 222 66 224 159 166 166 255 
3 21 20 223 159 166 166 255 
3 21 223 225 159 166 166 255 
3 226 227 225 159 166 166 255 
3 226 225 224 159 166 166 255 
3 21 225 227 159 166 166 255 
3 21 227 11 159 166 166 255 
3 226 224 66 159 166 166 255 
3 226 66 55 159 166 166 255 
3 226 228 229 159 166 166 255 
3 226 229 227 159 166 166 255 
3 54 228 226 159 166 166 255 
3 54 226 55 159 166 166 255 
3 12 11 227 159 166 166 255 
3 12 227 229 159 166 166 255 
3 230 231 229 159 166 166 255 
3 230 229 228 159 166 166 255 
3 53 230 228 159 166 166 255 
3 53 228 54 159 166 166 255 
3 12 229 231 159 166 166 255 
3 12 231 13 159 166 166 255 
3 230 232 233 159 166 166 255 
3 230 233 231 159 166 166 255 
3 14 13 231 159 166 166 255 
3 14 231 233 159 166 166 255 
3 232 230 53 159 166 166 255 
3 232 53 52 159 166 166 255 
3 234 185 184 159 166 166 255 
3 234 184 235 159 166 166 255 
3 185 234 236 159 166 166 255 
3 185 236 186 159 166 166 255 
3 186 236 237 159 166 166 255 
3 186 237 195 159 166 166 255 
3 238 196 195 159 166 166 255 
3 238 195 237 159 166 166 255 
3 238 239 197 159 166 166 255 
3 238 197 196 159 166 166 255 
3 239 240 198 159 166 166 255 
3 239 198 197 159 166 166 255 
3 240 241 199 159 166 166 255 
3 240 199 198 159 166 166 255 
3 242 200 199 159 166 166 255 
3 242 199 241 159 166 166 255 
3 243 201 200 159 166 166 255 
3 243 200 242 159 166 166 255 
3 201 243 244 159 166 166 255 
3 201 244 187 159 166 166 255 
3 187 244 245 159 166 166 255 
3 187 245 188 159 166 166 255 
3 246 189 188 159 166 166 255 
3 246 188 245 159 166 166 255 
3 189 246 247 159 166 166 255 
3 189 247 190 159 166 166 255 
3 184 183 248 159 166 166 255 
3 184 248 235 159 166 166 255 
3 232 249 250 159 166 166 255 
3 232 250 233 159 166 166 255 
3 52 51 249 159 166 166 255 
3 52 249 232 159 166 166 255 
3 233 250 15 159 166 166 255 
3 233 15 14 159 166 166 255 
3 251 252 253 159 166 166 255 
3 251 253 254 159 166 166 255 
3 252 251 255 159 166 166 255 
3 252 255 256 159 166 166 255 
3 256 255 257 159 166 166 255 
3 256 257 258 159 166 166 255 
3 259 260 258 159 166 166 255 
3 259 258 257 159 166 166 255 
3 260 259 261 159 166 166 255 
3 260 261 262 159 166 166 255 
3 262 261 263 159 166 166 255 
3 262 263 264 159 166 166 255 
3 265 266 264 159 166 166 255 
3 265 264 263 159 166 166 255 
3 266 265 267 159 166 166 255 
3 266 267 268 159 166 166 255 
3 269 270 268 159 166 166 255 
3 269 268 267 159 166 166 255 
3 271 272 270 159 166 166 255 
3 271 270 269 159 166 166 255 
3 273 274 272 159 166 166 255 
3 273 272 271 159 166 166 255 
3 275 276 274 159 166 166 255 
3 275 274 273 159 166 166 255 
3 276 275 277 159 166 166 255 
3 276 277 278 159 166 166 255 
3 191 190 247 159 166 166 255 
3 191 247 279 159 166 166 255 
3 278 277 280 159 166 166 255 
3 278 280 281 159 166 166 255 
3 282 283 281 159 166 166 255 
3 282 281 280 159 166 166 255 
3 284 192 191 159 166 166 255 
3 284 191 279 159 166 166 255 
3 283 282 285 159 166 166 255 
3 283 285 286 159 166 166 255 
3 192 284 287 159 166 166 255 
3 192 287 193 159 166 166 255 
3 288 194 193 159 166 166 255 
3 288 193 287 159 166 166 255 
3 289 290 286 159 166 166 255 
3 289 286 285 159 166 166 255 
3 291 178 194 159 166 166 255 
3 291 194 288 159 166 166 255 
3 291 292 179 159 166 166 255 
3 291 179 178 159 166 166 255 
3 293 294 295 159 166 166 255 
3 293 295 296 159 166 166 255 
3 297 180 179 159 166 166 255 
3 297 179 292 159 166 166 255 
3 291 288 292 159 166 166 255 
3 292 288 287 159 166 166 255 
3 292 287 297 159 166 166 255 
3 297 287 284 159 166 166 255 
3 297 284 298 159 166 166 255 
3 298 284 299 159 166 166 255 
3 298 299 293 159 166 166 255 
3 281 283 279 159 166 166 255 
3 279 283 286 159 166 166 255 
3 279 286 284 159 166 166 255 
3 284 286 290 159 166 166 255 
3 284 290 299 159 166 166 255 
3 274 276 246 159 166 166 255 
3 246 276 278 159 166 166 255 
3 246 278 247 159 166 166 255 
3 247 278 281 159 166 166 255 
3 247 281 279 159 166 166 255 
3 245 244 270 159 166 166 255 
3 245 270 272 159 166 166 255 
3 245 272 274 159 166 166 255 
3 245 274 246 159 166 166 255 
3 244 243 264 159 166 166 255 
3 244 264 266 159 166 166 255 
3 244 266 268 159 166 166 255 
3 244 268 270 159 166 166 255 
3 296 300 301 159 166 166 255 
3 296 301 298 159 166 166 255 
3 296 298 293 159 166 166 255 
3 302 303 248 159 166 166 255 
3 302 248 301 159 166 166 255 
3 302 301 300 159 166 166 255 
3 256 234 252 159 166 166 255 
3 252 234 235 159 166 166 255 
3 252 235 253 159 166 166 255 
3 253 235 248 159 166 166 255 
3 253 248 303 159 166 166 255 
3 258 260 236 159 166 166 255 
3 258 236 234 159 166 166 255 
3 258 234 256 159 166 166 255 
3 236 260 262 159 166 166 255 
3 236 262 264 159 166 166 255 
3 236 264 243 159 166 166 255 
3 236 243 237 159 166 166 255 
3 240 239 241 159 166 166 255 
3 241 239 238 159 166 166 255 
3 241 238 242 159 166 166 255 
3 242 238 237 159 166 166 255 
3 242 237 243 159 166 166 255 
3 304 300 296 159 166 166 255 
3 304 296 295 159 166 166 255 
3 180 297 298 159 166 166 255 
3 180 298 181 159 166 166 255 
3 305 302 300 159 166 166 255 
3 305 300 304 159 166 166 255 
3 298 301 182 159 166 166 255 
3 298 182 181 159 166 166 255 
3 306 303 302 159 166 166 255 
3 306 302 305 159 166 166 255 
3 183 182 301 159 166 166 255 
3 183 301 248 159 166 166 255 
3 303 306 254 159 166 166 255 
3 303 254 253 159 166 166 255 
3 249 307 308 159 166 166 255 
3 249 308 250 159 166 166 255 
3 51 50 307 159 166 166 255 
3 51 307 249 159 166 166 255 
3 250 308 16 159 166 166 255 
3 250 16 15 159 166 166 255 
3 290 289 309 159 166 166 255 
3 290 309 299 159 166 166 255 
3 294 293 299 159 166 166 255 
3 294 299 309 159 166 166 255 
3 310 311 308 159 166 166 255 
3 310 308 307 159 166 166 255 
3 50 69 310 159 166 166 255 
3 50 310 307 159 166 166 255 
3 17 16 308 159 166 166 255 
3 17 308 311 159 166 166 255 
3 18 17 257 159 166 166 255 
3 18 257 255 159 166 166 255 
3 18 255 251 159 166 166 255 
3 18 251 254 159 166 166 255 
3 18 254 306 159 166 166 255 
3 18 306 305 159 166 166 255 
3 18 305 304 159 166 166 255 
3 18 304 295 159 166 166 255 
3 18 295 294 159 166 166 255 
3 18 294 309 159 166 166 255 
3 18 309 49 159 166 166 255 
3 17 311 69 159 166 166 255 
3 17 69 263 159 166 166 255 
3 17 263 261 159 166 166 255 
3 17 261 259 159 166 166 255 
3 17 259 257 159 166 166 255 
3 49 309 289 159 166 166 255 
3 49 289 285 159 166 166 255 
3 49 285 282 159 166 166 255 
3 49 282 280 159 166 166 255 
3 49 280 277 159 166 166 255 
3 49 277 275 159 166 166 255 
3 49 275 273 159 166 166 255 
3 49 273 271 159 166 166 255 
3 49 271 269 159 166 166 255 
3 49 269 69 159 166 166 255 
3 69 269 267 159 166 166 255 
3 69 267 265 159 166 166 255 
3 69 265 263 159 166 166 255 
3 69 311 310 159 166 166 255 
3 312 313 314 159 166 166 255 
3 312 314 315 159 166 166 255 
3 32 33 312 159 166 166 255 
3 32 312 315 159 166 166 255 
3 41 40 314 159 166 166 255 
3 41 314 313 159 166 166 255 
3 35 41 316 159 166 166 255 
3 35 316 317 159 166 166 255 
3 35 317 318 159 166 166 255 
3 35 318 319 159 166 166 255 
3 35 319 320 159 166 166 255 
3 35 320 321 159 166 166 255 
3 35 321 24 159 166 166 255 
3 322 323 24 159 166 166 255 
3 24 323 324 159 166 166 255 
3 24 324 33 159 166 166 255 
3 33 324 325 159 166 166 255 
3 33 325 41 159 166 166 255 
3 41 325 316 159 166 166 255 
3 24 321 326 159 166 166 255 
3 24 326 327 159 166 166 255 
3 24 327 322 159 166 166 255 
3 313 312 33 159 166 166 255 
3 313 33 41 159 166 166 255 
3 328 329 330 159 166 166 255 
3 328 330 331 159 166 166 255 
3 331 323 322 159 166 166 255 
3 331 322 328 159 166 166 255 
3 332 333 331 159 166 166 255 
3 332 331 330 159 166 166 255 
3 324 323 331 159 166 166 255 
3 324 331 333 159 166 166 255 
3 334 335 333 159 166 166 255 
3 334 333 332 159 166 166 255 
3 324 333 335 159 166 166 255 
3 324 335 325 159 166 166 255 
3 336 337 335 159 166 166 255 
3 336 335 334 159 166 166 255 
3 325 335 337 159 166 166 255 
3 325 337 316 159 166 166 255 
3 337 336 338 159 166 166 255 
3 337 338 339 159 166 166 255 
3 317 316 337 159 166 166 255 
3 317 337 339 159 166 166 255 
3 340 341 339 159 166 166 255 
3 340 339 338 159 166 166 255 
3 317 339 341 159 166 166 255 
3 317 341 318 159 166 166 255 
3 340 342 343 159 166 166 255 
3 340 343 341 159 166 166 255 
3 343 319 318 159 166 166 255 
3 343 318 341 159 166 166 255 
3 344 345 343 159 166 166 255 
3 344 343 342 159 166 166 255 
3 320 319 343 159 166 166 255 
3 320 343 345 159 166 166 255 
3 345 344 346 159 166 166 255 
3 345 346 347 159 166 166 255 
3 345 347 321 159 166 166 255 
3 345 321 320 159 166 166 255 
3 348 349 347 159 166 166 255 
3 348 347 346 159 166 166 255 
3 349 326 321 159 166 166 255 
3 349 321 347 159 166 166 255 
3 350 351 349 159 166 166 255 
3 350 349 348 159 166 166 255 
3 351 327 326 159 166 166 255 
3 351 326 349 159 166 166 255 
3 351 350 329 159 166 166 255 
3 351 329 328 159 166 166 255 
3 322 327 351 159 166 166 255 
3 322 351 328 159 166 166 255 
3 315 314 352 159 166 166 255 
3 315 352 353 159 166 166 255 
3 22 32 315 159 166 166 255 
3 22 315 353 159 166 166 255 
3 314 40 39 159 166 166 255 
3 314 39 352 159 166 166 255 
3 352 354 355 159 166 166 255 
3 352 355 353 159 166 166 255 
3 22 353 355 159 166 166 255 
3 22 355 23 159 166 166 255 
3 38 354 352 159 166 166 255 
3 38 352 39 159 166 166 255 
3 342 340 169 159 166 166 255 
3 342 169 168 159 166 166 255 
3 168 167 344 159 166 166 255 
3 168 344 342 159 166 166 255 
3 344 167 166 159 166 166 255 
3 344 166 346 159 166 166 255 
3 176 348 346 159 166 166 255 
3 176 346 166 159 166 166 255 
3 350 348 176 159 166 166 255 
3 350 176 175 159 166 166 255 
3 175 174 329 159 166 166 255 
3 175 329 350 159 166 166 255 
3 356 357 355 159 166 166 255 
3 356 355 354 159 166 166 255 
3 354 38 37 159 166 166 255 
3 354 37 356 159 166 166 255 
3 355 357 25 159 166 166 255 
3 355 25 23 159 166 166 255 
3 330 329 174 159 166 166 255 
3 330 174 173 159 166 166 255 
3 330 173 172 159 166 166 255 
3 330 172 332 159 166 166 255 
3 172 177 334 159 166 166 255 
3 172 334 332 159 166 166 255 
3 334 177 171 159 166 166 255 
3 334 171 336 159 166 166 255 
3 336 171 170 159 166 166 255 
3 336 170 338 159 166 166 255 
3 340 338 170 159 166 166 255 
3 340 170 169 159 166 166 255 
3 358 357 356 159 166 166 255 
3 358 356 359 159 166 166 255 
3 25 357 358 159 166 166 255 
3 25 358 27 159 166 166 255 
3 47 359 356 159 166 166 255 
3 47 356 37 159 166 166 255 
3 203 358 359 159 166 166 255 
3 203 359 204 159 166 166 255 
3 46 204 359 159 166 166 255 
3 46 359 47 159 166 166 255 
3 203 28 27 159 166 166 255 
3 203 27 358 159 166 166 255 
3 360 361 362 159 166 166 255 
3 362 361 363 159 166 166 255 
3 362 363 364 159 166 166 255 
3 364 363 365 159 166 166 255 
3 364 365 366 159 166 166 255 
3 366 365 367 159 166 166 255 
3 366 367 368 159 166 166 255 
3 368 367 369 159 166 166 255 
3 368 369 370 159 166 166 255 
3 370 369 371 159 166 166 255 
3 372 373 374 159 166 166 255 
3 372 374 364 159 166 166 255 
3 372 364 366 159 166 166 255 
3 375 376 377 159 166 166 255 
3 377 376 378 159 166 166 255 
3 377 378 379 159 166 166 255 
3 379 378 380 159 166 166 255 
3 379 380 381 159 166 166 255 
3 381 380 382 159 166 166 255 
3 381 382 383 159 166 166 255 
3 383 382 384 159 166 166 255 
3 383 384 385 159 166 166 255 
3 385 384 374 159 166 166 255 
3 385 374 386 159 166 166 255 
3 386 374 373 159 166 166 255 
3 360 362 387 159 166 166 255 
3 387 362 388 159 166 166 255 
3 387 388 389 159 166 166 255 
3 389 388 382 159 166 166 255 
3 389 382 380 159 166 166 255 
3 390 391 392 159 166 166 255 
3 390 392 393 159 166 166 255 
3 390 393 394 159 166 166 255 
3 390 394 395 159 166 166 255 
3 390 395 396 159 166 166 255 
3 390 396 397 159 166 166 255 
3 390 397 398 159 166 166 255 
3 390 398 399 159 166 166 255 
3 390 399 400 159 166 166 255 
3 390 400 401 159 166 166 255 
3 390 401 402 159 166 166 255 
3 390 402 403 159 166 166 255 
3 390 403 404 159 166 166 255 
3 390 404 405 159 166 166 255 
3 390 405 406 159 166 166 255 
3 390 406 407 159 166 166 255 
3 390 407 408 159 166 166 255 
3 390 408 409 159 166 166 255 
3 390 409 410 159 166 166 255 
3 390 410 411 159 166 166 255 
3 390 411 412 159 166 166 255 
3 390 412 413 159 166 166 255 
3 414 415 416 159 166 166 255 
3 414 416 417 159 166 166 255 
3 415 407 406 159 166 166 255 
3 415 406 416 159 166 166 255 
3 418 419 420 159 166 166 255 
3 418 420 421 159 166 166 255 
3 418 421 422 159 166 166 255 
3 418 422 423 159 166 166 255 
3 419 424 420 159 166 166 255 
3 425 426 427 159 166 166 255 
3 425 427 428 159 166 166 255 
3 373 425 428 159 166 166 255 
3 373 428 386 159 166 166 255 
3 429 430 431 159 166 166 255 
3 431 430 432 159 166 166 255 
3 431 432 433 159 166 166 255 
3 433 432 434 159 166 166 255 
3 433 434 435 159 166 166 255 
3 435 434 436 159 166 166 255 
3 435 436 437 159 166 166 255 
3 438 439 440 159 166 166 255 
3 440 439 441 159 166 166 255 
3 440 441 434 159 166 166 255 
3 434 441 442 159 166 166 255 
3 434 442 436 159 166 166 255 
3 443 444 445 159 166 166 255 
3 445 444 446 159 166 166 255 
3 445 446 447 159 166 166 255 
3 447 446 438 159 166 166 255 
3 447 438 440 159 166 166 255 
3 448 449 450 159 166 166 255 
3 448 450 451 159 166 166 255 
3 448 451 443 159 166 166 255 
3 448 443 445 159 166 166 255 
3 449 452 453 159 166 166 255 
3 449 453 454 159 166 166 255 
3 449 454 455 159 166 166 255 
3 449 455 450 159 166 166 255 
3 456 457 458 159 166 166 255 
3 456 458 435 159 166 166 255 
3 456 435 437 159 166 166 255 
3 459 414 426 159 166 166 255 
3 459 426 458 159 166 166 255 
3 459 458 457 159 166 166 255 
3 460 461 462 159 166 166 255 
3 462 461 427 159 166 166 255 
3 462 427 417 159 166 166 255 
3 417 427 426 159 166 166 255 
3 417 426 414 159 166 166 255 
3 463 464 465 159 166 166 255 
3 463 465 461 159 166 166 255 
3 463 461 460 159 166 166 255 
3 465 464 466 159 166 166 255 
3 465 466 453 159 166 166 255 
3 465 453 452 159 166 166 255 
3 465 452 467 159 166 166 255 
3 468 469 470 159 166 166 255 
3 470 469 471 159 166 166 255 
3 470 471 472 159 166 166 255 
3 472 471 467 159 166 166 255 
3 472 467 452 159 166 166 255 
3 473 415 414 159 166 166 255 
3 473 414 459 159 166 166 255 
3 415 473 408 159 166 166 255 
3 415 408 407 159 166 166 255 
3 421 420 424 159 166 166 255 
3 425 474 458 159 166 166 255 
3 425 458 426 159 166 166 255 
3 425 373 372 159 166 166 255 
3 425 372 474 159 166 166 255 
3 459 457 475 159 166 166 255 
3 459 475 473 159 166 166 255 
3 475 409 408 159 166 166 255 
3 475 408 473 159 166 166 255 
3 423 476 364 159 166 166 255 
3 423 364 374 159 166 166 255 
3 423 374 418 159 166 166 255 
3 421 424 422 159 166 166 255 
3 435 458 474 159 166 166 255 
3 435 474 477 159 166 166 255 
3 372 366 477 159 166 166 255 
3 372 477 474 159 166 166 255 
3 457 456 478 159 166 166 255 
3 457 478 475 159 166 166 255 
3 475 478 410 159 166 166 255 
3 475 410 409 159 166 166 255 
3 424 423 422 159 166 166 255 
3 433 435 477 159 166 166 255 
3 433 477 479 159 166 166 255 
3 366 368 479 159 166 166 255 
3 366 479 477 159 166 166 255 
3 478 456 437 159 166 166 255 
3 478 437 480 159 166 166 255 
3 410 478 480 159 166 166 255 
3 410 480 411 159 166 166 255 
3 476 423 481 159 166 166 255 
3 476 481 482 159 166 166 255 
3 476 482 483 159 166 166 255 
3 476 483 484 159 166 166 255 
3 481 423 424 159 166 166 255 
3 433 479 485 159 166 166 255 
3 433 485 431 159 166 166 255 
3 368 370 485 159 166 166 255 
3 368 485 479 159 166 166 255 
3 486 480 437 159 166 166 255 
3 486 437 436 159 166 166 255 
3 412 411 480 159 166 166 255 
3 412 480 486 159 166 166 255 
3 481 424 482 159 166 166 255 
3 487 429 431 159 166 166 255 
3 487 431 485 159 166 166 255 
3 487 485 370 159 166 166 255 
3 487 370 371 159 166 166 255 
3 488 486 436 159 166 166 255 
3 488 436 442 159 166 166 255 
3 413 412 486 159 166 166 255 
3 413 486 488 159 166 166 255 
3 484 489 362 159 166 166 255 
3 484 362 364 159 166 166 255 
3 484 364 476 159 166 166 255 
3 424 483 482 159 166 166 255 
3 430 429 487 159 166 166 255 
3 430 487 490 159 166 166 255 
3 487 371 369 159 166 166 255 
3 487 369 490 159 166 166 255 
3 488 442 441 159 166 166 255 
3 488 441 491 159 166 166 255 
3 413 488 491 159 166 166 255 
3 413 491 390 159 166 166 255 
3 483 424 484 159 166 166 255 
3 490 492 432 159 166 166 255 
3 490 432 430 159 166 166 255 
3 492 490 369 159 166 166 255 
3 492 369 367 159 166 166 255 
3 493 491 441 159 166 166 255 
3 493 441 439 159 166 166 255 
3 390 491 493 159 166 166 255 
3 390 493 391 159 166 166 255 
3 489 484 494 159 166 166 255 
3 489 494 495 159 166 166 255 
3 489 495 496 159 166 166 255 
3 489 496 497 159 166 166 255 
3 494 484 424 159 166 166 255 
3 498 434 432 159 166 166 255 
3 498 432 492 159 166 166 255 
3 367 365 498 159 166 166 255 
3 367 498 492 159 166 166 255 
3 438 499 493 159 166 166 255 
3 438 493 439 159 166 166 255 
3 493 499 392 159 166 166 255 
3 493 392 391 159 166 166 255 
3 424 495 494 159 166 166 255 
3 434 498 500 159 166 166 255 
3 434 500 440 159 166 166 255 
3 365 363 500 159 166 166 255 
3 365 500 498 159 166 166 255 
3 438 446 501 159 166 166 255 
3 438 501 499 159 166 166 255 
3 393 392 499 159 166 166 255 
3 393 499 501 159 166 166 255 
3 497 502 388 159 166 166 255 
3 497 388 362 159 166 166 255 
3 497 362 489 159 166 166 255 
3 496 495 424 159 166 166 255 
3 447 440 500 159 166 166 255 
3 447 500 503 159 166 166 255 
3 500 363 361 159 166 166 255 
3 500 361 503 159 166 166 255 
3 501 446 444 159 166 166 255 
3 501 444 504 159 166 166 255 
3 393 501 504 159 166 166 255 
3 393 504 394 159 166 166 255 
3 496 424 497 159 166 166 255 
3 505 445 447 159 166 166 255 
3 505 447 503 159 166 166 255 
3 361 360 505 159 166 166 255 
3 361 505 503 159 166 166 255 
3 444 443 506 159 166 166 255 
3 444 506 504 159 166 166 255 
3 394 504 506 159 166 166 255 
3 394 506 395 159 166 166 255 
3 502 497 507 159 166 166 255 
3 502 507 508 159 166 166 255 
3 502 508 509 159 166 166 255 
3 502 509 510 159 166 166 255 
3 507 497 424 159 166 166 255 
3 445 505 511 159 166 166 255 
3 445 511 448 159 166 166 255 
3 387 511 505 159 166 166 255 
3 387 505 360 159 166 166 255 
3 451 512 506 159 166 166 255 
3 451 506 443 159 166 166 255 
3 395 506 512 159 166 166 255 
3 395 512 396 159 166 166 255 
3 424 508 507 159 166 166 255 
3 511 513 449 159 166 166 255 
3 511 449 448 159 166 166 255 
3 513 511 387 159 166 166 255 
3 513 387 389 159 166 166 255 
3 451 450 514 159 166 166 255 
3 451 514 512 159 166 166 255 
3 514 397 396 159 166 166 255 
3 514 396 512 159 166 166 255 
3 510 515 382 159 166 166 255 
3 510 382 388 159 166 166 255 
3 510 388 502 159 166 166 255 
3 509 508 424 159 166 166 255 
3 452 449 513 159 166 166 255 
3 452 513 516 159 166 166 255 
3 380 516 513 159 166 166 255 
3 380 513 389 159 166 166 255 
3 514 450 455 159 166 166 255 
3 514 455 517 159 166 166 255 
3 517 398 397 159 166 166 255 
3 517 397 514 159 166 166 255 
3 424 510 509 159 166 166 255 
3 518 472 452 159 166 166 255 
3 518 452 516 159 166 166 255 
3 380 378 518 159 166 166 255 
3 380 518 516 159 166 166 255 
3 455 454 519 159 166 166 255 
3 455 519 517 159 166 166 255 
3 398 517 519 159 166 166 255 
3 398 519 399 159 166 166 255 
3 515 510 520 159 166 166 255 
3 515 520 521 159 166 166 255 
3 515 521 522 159 166 166 255 
3 515 522 523 159 166 166 255 
3 510 424 520 159 166 166 255 
3 524 470 472 159 166 166 255 
3 524 472 518 159 166 166 255 
3 378 376 524 159 166 166 255 
3 378 524 518 159 166 166 255 
3 519 454 453 159 166 166 255 
3 519 453 525 159 166 166 255 
3 400 399 519 159 166 166 255 
3 400 519 525 159 166 166 255 
3 424 521 520 159 166 166 255 
3 526 468 470 159 166 166 255 
3 526 470 524 159 166 166 255 
3 526 524 376 159 166 166 255 
3 526 376 375 159 166 166 255 
3 525 453 466 159 166 166 255 
3 525 466 527 159 166 166 255 
3 400 525 527 159 166 166 255 
3 400 527 401 159 166 166 255 
3 382 515 523 159 166 166 255 
3 382 523 528 159 166 166 255 
3 382 528 384 159 166 166 255 
3 521 424 522 159 166 166 255 
3 469 468 526 159 166 166 255 
3 469 526 529 159 166 166 255 
3 526 375 377 159 166 166 255 
3 526 377 529 159 166 166 255 
3 530 527 466 159 166 166 255 
3 530 466 464 159 166 166 255 
3 530 402 401 159 166 166 255 
3 530 401 527 159 166 166 255 
3 424 523 522 159 166 166 255 
3 469 529 531 159 166 166 255 
3 469 531 471 159 166 166 255 
3 529 377 379 159 166 166 255 
3 529 379 531 159 166 166 255 
3 532 530 464 159 166 166 255 
3 532 464 463 159 166 166 255 
3 402 530 532 159 166 166 255 
3 402 532 403 159 166 166 255 
3 528 523 533 159 166 166 255 
3 528 533 534 159 166 166 255 
3 528 534 535 159 166 166 255 
3 528 535 419 159 166 166 255 
3 533 523 424 159 166 166 255 
3 467 471 531 159 166 166 255 
3 467 531 536 159 166 166 255 
3 379 381 536 159 166 166 255 
3 379 536 531 159 166 166 255 
3 532 463 460 159 166 166 255 
3 532 460 537 159 166 166 255 
3 404 403 532 159 166 166 255 
3 404 532 537 159 166 166 255 
3 533 424 534 159 166 166 255 
3 465 467 536 159 166 166 255 
3 465 536 538 159 166 166 255 
3 538 536 381 159 166 166 255 
3 538 381 383 159 166 166 255 
3 539 537 460 159 166 166 255 
3 539 460 462 159 166 166 255 
3 537 539 405 159 166 166 255 
3 537 405 404 159 166 166 255 
3 374 384 528 159 166 166 255 
3 374 528 419 159 166 166 255 
3 374 419 418 159 166 166 255 
3 534 424 535 159 166 166 255 
3 461 465 538 159 166 166 255 
3 461 538 540 159 166 166 255 
3 383 385 540 159 166 166 255 
3 383 540 538 159 166 166 255 
3 417 416 539 159 166 166 255 
3 417 539 462 159 166 166 255 
3 406 405 539 159 166 166 255 
3 406 539 416 159 166 166 255 
3 424 419 535 159 166 166 255 
3 427 461 540 159 166 166 255 
3 427 540 428 159 166 166 255 
3 428 540 385 159 166 166 255 
3 428 385 386 159 166 166 255 
